<svg version="1.1" xmlns="http://www.w3.org/2000/svg" xmlns:xlink="http://www.w3.org/1999/xlink" width="349.52358" height="394.82807" viewBox="0,0,349.52358,394.82807"><defs><radialGradient cx="238.26944" cy="138.27162" r="150.25181" gradientUnits="userSpaceOnUse" id="color-1"><stop offset="0" stop-color="#2e003f"/><stop offset="1" stop-color="#2e003f" stop-opacity="0"/></radialGradient><linearGradient x1="347.70122" y1="25.30465" x2="354.05629" y2="89.39439" gradientUnits="userSpaceOnUse" id="color-2"><stop offset="0" stop-color="#ff00ea" stop-opacity="0"/><stop offset="1" stop-color="#ff00ea"/></linearGradient><linearGradient x1="143.39612" y1="215.82839" x2="145.60572" y2="151.46224" gradientUnits="userSpaceOnUse" id="color-3"><stop offset="0" stop-color="#ff00ea" stop-opacity="0"/><stop offset="1" stop-color="#ff00ea"/></linearGradient><linearGradient x1="160.54055" y1="6.39121" x2="224.7438" y2="11.47316" gradientUnits="userSpaceOnUse" id="color-4"><stop offset="0" stop-color="#ff00ea" stop-opacity="0"/><stop offset="1" stop-color="#ff00ea"/></linearGradient><linearGradient x1="266.14217" y1="-1.44263" x2="325.59551" y2="23.3199" gradientUnits="userSpaceOnUse" id="color-5"><stop offset="0" stop-color="#ff00ea" stop-opacity="0"/><stop offset="1" stop-color="#ff00ea"/></linearGradient><linearGradient x1="134.76251" y1="103.64435" x2="151.22835" y2="41.38073" gradientUnits="userSpaceOnUse" id="color-6"><stop offset="0" stop-color="#ff00ea" stop-opacity="0"/><stop offset="1" stop-color="#ff00ea"/></linearGradient><linearGradient x1="373.48308" y1="136.74802" x2="357.01724" y2="199.01165" gradientUnits="userSpaceOnUse" id="color-7"><stop offset="0" stop-color="#ff00ea" stop-opacity="0"/><stop offset="1" stop-color="#ff00ea"/></linearGradient><linearGradient x1="367.24866" y1="91.11871" x2="385.14827" y2="152.98539" gradientUnits="userSpaceOnUse" id="color-8"><stop offset="0" stop-color="#000000" stop-opacity="0"/><stop offset="1" stop-color="#000000"/></linearGradient><linearGradient x1="195.45882" y1="-3.41262" x2="150.93098" y2="43.11858" gradientUnits="userSpaceOnUse" id="color-9"><stop offset="0" stop-color="#000000" stop-opacity="0"/><stop offset="1" stop-color="#000000"/></linearGradient><linearGradient x1="299.89221" y1="3.49074" x2="235.5123" y2="1.72755" gradientUnits="userSpaceOnUse" id="color-10"><stop offset="0" stop-color="#000000" stop-opacity="0"/><stop offset="1" stop-color="#000000"/></linearGradient><linearGradient x1="354.45459" y1="69.69212" x2="317.32176" y2="17.07049" gradientUnits="userSpaceOnUse" id="color-11"><stop offset="0" stop-color="#000000" stop-opacity="0"/><stop offset="1" stop-color="#000000"/></linearGradient><linearGradient x1="211.18649" y1="285.58346" x2="275.46946" y2="289.53085" gradientUnits="userSpaceOnUse" id="color-12"><stop offset="0" stop-color="#000000" stop-opacity="0"/><stop offset="1" stop-color="#000000"/></linearGradient><linearGradient x1="138.28556" y1="79.4119" x2="133.03223" y2="143.60135" gradientUnits="userSpaceOnUse" id="color-13"><stop offset="0" stop-color="#000000" stop-opacity="0"/><stop offset="1" stop-color="#000000"/></linearGradient><radialGradient cx="322.8883" cy="288.30282" r="53.28303" gradientUnits="userSpaceOnUse" id="color-14"><stop offset="0" stop-color="#2e003f" stop-opacity="0"/><stop offset="1" stop-color="#2e003f"/></radialGradient><radialGradient cx="322.8883" cy="288.30282" r="53.28303" gradientUnits="userSpaceOnUse" id="color-15"><stop offset="0" stop-color="#f400e1"/><stop offset="1" stop-color="#f400e1" stop-opacity="0"/></radialGradient><radialGradient cx="149.76944" cy="287.30282" r="53.28302" gradientUnits="userSpaceOnUse" id="color-16"><stop offset="0" stop-color="#2e003f" stop-opacity="0"/><stop offset="1" stop-color="#2e003f"/></radialGradient><radialGradient cx="149.76944" cy="287.30282" r="53.28302" gradientUnits="userSpaceOnUse" id="color-17"><stop offset="0" stop-color="#f400e1"/><stop offset="1" stop-color="#f400e1" stop-opacity="0"/></radialGradient><radialGradient cx="234.70927" cy="133.25" r="81.2776" gradientUnits="userSpaceOnUse" id="color-18"><stop offset="0" stop-color="#2e003f" stop-opacity="0"/><stop offset="1" stop-color="#2e003f"/></radialGradient><radialGradient cx="234.70927" cy="133.25" r="81.2776" gradientUnits="userSpaceOnUse" id="color-19"><stop offset="0" stop-color="#500054"/><stop offset="1" stop-color="#500054" stop-opacity="0"/></radialGradient><linearGradient x1="205.17708" y1="108.55876" x2="202.8883" y2="149.33511" gradientUnits="userSpaceOnUse" id="color-20"><stop offset="0" stop-color="#bf0da6"/><stop offset="1" stop-color="#000000"/></linearGradient><linearGradient x1="269.25844" y1="104.39152" x2="266.93127" y2="145.85184" gradientUnits="userSpaceOnUse" id="color-21"><stop offset="0" stop-color="#bf0da6"/><stop offset="1" stop-color="#000000"/></linearGradient><radialGradient cx="138.70338" cy="278.82449" r="14.32889" gradientUnits="userSpaceOnUse" id="color-22"><stop offset="0" stop-color="#2e003f" stop-opacity="0"/><stop offset="1" stop-color="#2e003f"/></radialGradient><radialGradient cx="146.70338" cy="194.82449" r="26.78835" gradientUnits="userSpaceOnUse" id="color-23"><stop offset="0" stop-color="#2e003f" stop-opacity="0"/><stop offset="1" stop-color="#2e003f"/></radialGradient><radialGradient cx="147.43313" cy="194.33186" r="26.78835" gradientUnits="userSpaceOnUse" id="color-24"><stop offset="0" stop-color="#74008a"/><stop offset="1" stop-color="#74008a" stop-opacity="0"/></radialGradient><radialGradient cx="325.70338" cy="277.82449" r="14.5552" gradientUnits="userSpaceOnUse" id="color-25"><stop offset="0" stop-color="#2e003f" stop-opacity="0"/><stop offset="1" stop-color="#2e003f"/></radialGradient><radialGradient cx="319.16288" cy="186.82449" r="26.78835" gradientUnits="userSpaceOnUse" id="color-26"><stop offset="0" stop-color="#2e003f" stop-opacity="0"/><stop offset="1" stop-color="#2e003f"/></radialGradient><radialGradient cx="318.43313" cy="186.33186" r="26.78836" gradientUnits="userSpaceOnUse" id="color-27"><stop offset="0" stop-color="#74008a"/><stop offset="1" stop-color="#74008a" stop-opacity="0"/></radialGradient><radialGradient cx="333.63774" cy="239.77011" r="27.33353" gradientUnits="userSpaceOnUse" id="color-28"><stop offset="0" stop-color="#2e003f" stop-opacity="0"/><stop offset="1" stop-color="#2e003f"/></radialGradient><radialGradient cx="333.85594" cy="238.89862" r="27.33353" gradientUnits="userSpaceOnUse" id="color-29"><stop offset="0" stop-color="#74008a"/><stop offset="1" stop-color="#74008a" stop-opacity="0"/></radialGradient><radialGradient cx="129.07413" cy="242.77011" r="27.33353" gradientUnits="userSpaceOnUse" id="color-30"><stop offset="0" stop-color="#2e003f" stop-opacity="0"/><stop offset="1" stop-color="#2e003f"/></radialGradient><radialGradient cx="128.85593" cy="241.89862" r="27.33353" gradientUnits="userSpaceOnUse" id="color-31"><stop offset="0" stop-color="#74008a"/><stop offset="1" stop-color="#74008a" stop-opacity="0"/></radialGradient></defs><g transform="translate(-83.26492,48.2765)"><g data-paper-data="{&quot;isPaintingLayer&quot;:true}" fill-rule="nonzero" stroke-linejoin="miter" stroke-miterlimit="10" stroke-dasharray="" stroke-dashoffset="0" style="mix-blend-mode: normal"><path d="M312.70996,186.31724l-1.97544,50.32855l16.05822,16.65831l-35.74496,31.18376l-103.01371,4.03554l-35.03807,-31.89809l12.2717,-22.98836l1.93316,-48.35021l-6.64112,0.04028l-7.37964,0.04476l-15.38863,0.09336l-12.41945,-11.4087l-12.60525,-33.11692l3.86172,-11.54804l8.45548,-31.83032l-0.09224,-0.04058l1.20438,13.73271c-0.63622,-4.59728 -0.95135,-9.17489 -0.9613,-13.71157l-6.97367,-2.98087l-9.3738,-4.12211l9.71144,-47.90338l18.13911,2.70515l5.79607,-0.03934l-3.36557,0.489c16.15668,-28.18812 45.19907,-49.57158 80.92751,-55.84108c50.58759,-8.87693 98.88823,15.29921 120.32528,56.34299l-3.11358,-3.98853l2.79062,0.41619l-4.44958,1.27104l7.83383,-0.05317l15.32526,-0.42456l8.84384,47.81791l-10.09591,2.91841l3.11692,28.06933l6.00174,17.64767l-9.45785,26.11806l-11.72455,18.363l-23.32218,1.19138l-1.58827,0.08113l-6.80029,0.34737" data-paper-data="{&quot;index&quot;:null}" fill="url(#color-1)" stroke="none" stroke-width="0" stroke-linecap="butt"/><path d="M300.14699,32.3315l93.61874,-11.59456l7.73131,60.48614l-35.71004,7.00812l-5.28661,-41.65929l28.498,-3.98155l4.89423,31.87465l-20.08479,1.41373l-2.44471,-18.82684l10.18665,-2.16582" data-paper-data="{&quot;index&quot;:null}" fill="none" stroke="url(#color-2)" stroke-width="4" stroke-linecap="round"/><path d="M191.4623,215.17693l-94.32935,-0.9367l0.36714,-60.97714l36.32433,-2.20528l-0.2908,41.99238l-28.77434,0.16298l-0.61929,-32.24226l20.09468,1.2652l-0.07634,18.98475l-10.38402,0.79429" data-paper-data="{&quot;index&quot;:null}" fill="none" stroke="url(#color-3)" stroke-width="4" stroke-linecap="round"/><path d="M159.04475,54.43854l5.14844,-94.1934l60.89991,3.08997l0.58086,36.38658l-41.93751,-2.16586l1.12224,-28.7529l32.23775,0.82124l-2.16136,20.01814l-18.96239,-0.92412l-0.32975,-10.40913" data-paper-data="{&quot;index&quot;:null}" fill="none" stroke="url(#color-4)" stroke-width="4" stroke-linecap="round"/><path d="M249.80414,43.76633l34.1361,-87.94105l56.93163,21.84347l-10.74392,34.76908l-39.19302,-15.07821l9.99304,-26.98385l30.38995,10.78876l-8.26914,18.35808l-17.73859,-6.76526l2.91803,-9.99719" data-paper-data="{&quot;index&quot;:null}" fill="none" stroke="url(#color-5)" stroke-width="4" stroke-linecap="round"/><path d="M181.77035,113.69653l-91.7598,-21.88701l13.91597,-59.36912l35.90539,5.92649l-9.62036,40.87658l-28.09029,-6.23897l6.56515,-31.57286l19.31036,5.70151l-4.29561,18.49255l-10.30069,-1.53445" data-paper-data="{&quot;index&quot;:null}" fill="none" stroke="url(#color-6)" stroke-width="4" stroke-linecap="round"/><path d="M326.47528,126.69585l91.7598,21.88699l-13.91597,59.36912l-35.9054,-5.92648l9.62035,-40.87658l28.09029,6.23897l-6.56514,31.57287l-19.31038,-5.7015l4.29561,-18.49255l10.30069,1.53445" data-paper-data="{&quot;index&quot;:null}" fill="none" stroke="url(#color-7)" stroke-width="4" stroke-linecap="round"/><path d="M321.7641,106.67304l89.95123,-28.41967l18.59784,58.07293l-33.8411,13.38283l-12.77148,-40.00419l27.29942,-9.09566l10.60696,30.45389l-19.49317,5.04124l-5.82637,-18.06876l9.62323,-3.98148" data-paper-data="{&quot;index&quot;:null}" fill="none" stroke="url(#color-8)" stroke-width="4" stroke-linecap="round"/><path d="M150.57037,-1.00156l6.6831,7.98719l-13.53527,13.31252l-14.93858,-13.49949l23.5103,-22.07289l19.97772,20.70941l-29.85353,29.53325l-23.78839,-27.53967l43.3888,-42.84576l66.54471,66.86332" data-paper-data="{&quot;index&quot;:null}" fill="none" stroke="url(#color-9)" stroke-width="4" stroke-linecap="round"/><path d="M267.96967,-28.15947l-1.43302,10.31529l-18.95333,-1.09432l-0.02383,-20.13447l32.14273,2.60605l-1.93678,28.70955l-41.93044,-2.29887l4.44073,-36.11925l60.88376,3.39319l-4.8811,94.20763" data-paper-data="{&quot;index&quot;:null}" fill="none" stroke="url(#color-10)" stroke-width="4" stroke-linecap="round"/><path d="M360.69287,25.17391l-9.12014,5.02811l-10.47108,-15.83613l16.11271,-12.07385l17.15691,27.30545l-24.15489,15.63749l-23.26297,-34.96112l31.58893,-18.0682l33.73406,50.79725l-78.37928,52.49373" data-paper-data="{&quot;index&quot;:null}" fill="none" stroke="url(#color-11)" stroke-width="4" stroke-linecap="round"/><path d="M242.01633,318.29898l1.78231,-10.26071l18.90528,1.73702l-0.65959,20.12368l-32.03576,-3.69555l2.91013,-28.62727l41.82824,3.72076l-5.66414,35.94772l-60.7335,-5.45779l8.07593,-93.98767" data-paper-data="{&quot;index&quot;:null}" fill="none" stroke="url(#color-12)" stroke-width="4" stroke-linecap="round"/><path d="M104.95007,109.57035l10.22235,1.99052l-2.12097,18.86606l-20.1061,-1.06853l4.34603,-31.95403l28.56219,3.49148l-4.57028,41.74397l-35.82515,-6.39373l6.69127,-60.61l93.80408,9.98486" data-paper-data="{&quot;index&quot;:null}" fill="none" stroke="url(#color-13)" stroke-width="4" stroke-linecap="round"/><path d="M305.52988,262.11383l7.79399,-16.0713l-2.8501,-7.6944l16.04525,-5.05209l34.04323,13.32805l6.85105,15.3431l-7.25401,5.72513l-7.49911,15.43454l2.16346,0.93068l2.40404,1.03418l5.01313,2.15653l2.41386,5.47167l-0.6107,12.5512l-2.89578,3.20324l-7.27062,9.14024l0.0242,0.0263l1.56024,-4.63299c-0.44661,1.58409 -0.99474,3.11617 -1.63621,4.59158l1.84217,1.95952l2.45981,2.6714l-9.96282,14.18399l-5.50907,-3.45665l-1.88877,-0.8109l1.16298,0.3194c-9.2552,6.86246 -21.73002,9.68288 -34.22935,6.64253c-17.69769,-4.3048 -29.95518,-19.02375 -31.0875,-35.40551l0.44482,1.73836l-0.84755,-0.53179l1.62632,0.21936l-2.55282,-1.09598l-5.0396,-2.03992l3.92196,-16.79311l3.69495,0.48652l2.97621,-9.56283l0.5579,-6.58673l6.78453,-7.14186l6.41892,-4.30007l7.74682,2.92721l0.52756,0.19935l2.25882,0.85352" data-paper-data="{&quot;index&quot;:null}" fill="url(#color-14)" stroke="url(#color-15)" stroke-width="15" stroke-linecap="butt"/><path d="M167.52562,261.07529l2.25882,-0.85352l0.52757,-0.19935l7.74682,-2.92721l6.41893,4.30007l6.78453,7.14186l0.5579,6.58673l2.97621,9.56283l3.69495,-0.48652l3.92196,16.7931l-5.0396,2.03992l-2.55281,1.09599l1.62632,-0.21936l-0.84754,0.53179l0.44481,-1.73836c-1.13231,16.38176 -13.38981,31.1007 -31.0875,35.40551c-12.49933,3.04035 -24.97415,0.21994 -34.22935,-6.64253l1.16298,-0.3194l-1.88877,0.81089l-5.50907,3.45666l-9.96282,-14.184l2.45981,-2.6714l1.84217,-1.95953c-0.64147,-1.47541 -1.1896,-3.00748 -1.63621,-4.59158l1.56024,4.63299l0.0242,-0.02629l-7.27062,-9.14025l-2.89578,-3.20324l-0.61071,-12.5512l2.41387,-5.47167l5.01312,-2.15654l2.40405,-1.03417l2.16346,-0.93068l-7.49911,-15.43454l-7.25401,-5.72512l6.85105,-15.34311l34.04323,-13.32805l16.04525,5.05209l-2.85011,7.6944l7.79399,16.07131" fill="url(#color-16)" stroke="url(#color-17)" stroke-width="15" stroke-linecap="butt"/><g fill="#ffffff" stroke="#000000" stroke-width="4.5" stroke-linecap="butt"><path d="M164.15008,283.42801l3.56096,-1.387l6.93502,17.80475l-3.56096,1.387z"/><path d="M155.54554,279.18703l1.5951,-4.2943l13.33957,9.53762l-1.5951,4.29429z"/></g><path d="M195.45542,161.14817l-3.70755,-0.05747l-0.86593,-0.01341l-12.71536,-0.19708l-6.73602,-9.76657l-5.6525,-14.03086l2.92475,-9.72029l1.15313,-15.33609l-5.55084,-1.39289l3.88768,-26.19441l8.34847,-0.0655l4.26433,-0.12265l-2.44613,-0.60562l1.51065,-0.2805l-1.61728,2.23087c10.87217,-22.75149 36.69035,-36.84319 64.39271,-32.9911c19.56531,2.7206 35.78443,13.79586 45.1226,28.82365l-1.84107,-0.201l3.15508,-0.09074l9.81925,-1.82317l6.21206,25.88186l-5.02161,2.42471l-3.7375,1.75718c0.08238,2.46913 -0.00056,4.96644 -0.25784,7.48067l0.3897,-7.49686l-0.04941,0.02386l5.21754,17.15896l2.32507,6.20991l-6.21916,18.26668l-6.53811,6.44912l-8.37655,0.24697l-4.01698,0.11844l-3.61498,0.10658l1.98765,26.27556l7.12329,12.27317l-18.45105,18.03745l-56.13982,-0.20285l-20.0564,-16.27903l8.4168,-9.37645l-2.04894,-27.35139" fill="url(#color-18)" stroke="url(#color-19)" stroke-width="15" stroke-linecap="butt"/><path d="M190.16259,145.32374l-6.48542,-18.64541l9.48109,-18.79419l27.72786,28.13787l3.26192,-0.52752l-7.48136,11.46874l-24.09562,1.79277z" fill="url(#color-20)" stroke="#000000" stroke-width="4.5" stroke-linecap="round"/><path d="M279.99188,145.60161l-23.88511,-0.35735l-8.14797,-11.00514l3.28746,0.33326l26.01137,-29.73185l10.57836,18.1992l-5.2799,18.68213z" data-paper-data="{&quot;index&quot;:null}" fill="url(#color-21)" stroke="#000000" stroke-width="4.5" stroke-linecap="round"/><path d="M235.53063,138.30366l10.53188,14.2188l-10.33254,-6.83283l-7.56751,6.79653z" fill="#000000" stroke="#000000" stroke-width="4.5" stroke-linecap="round"/><path d="M223.3046,175.11421l18.52272,6.3423l16.9163,-6.60029l-13.47242,13.59786z" data-paper-data="{&quot;index&quot;:null}" fill="#000000" stroke="#000000" stroke-width="4.5" stroke-linecap="round"/><path d="M153.04847,284.99397l3.56096,-1.387l6.93502,17.80475l-3.56095,1.387z" fill="#ffffff" stroke="#000000" stroke-width="4.5" stroke-linecap="butt"/><path d="M133.40471,292.08266l3.01937,-1.17606l5.88027,15.09683l-3.01937,1.17606z" fill="#ffffff" stroke="#000000" stroke-width="4.5" stroke-linecap="butt"/><path d="M145.54647,288.62737l4.31917,-1.68234l8.41168,21.59584l-4.31918,1.68234z" fill="#ffffff" stroke="#000000" stroke-width="4.5" stroke-linecap="butt"/><path d="M139.2978,291.63353l3.56095,-1.38699l6.93502,17.80475l-3.56095,1.387z" fill="#ffffff" stroke="#000000" stroke-width="4.5" stroke-linecap="butt"/><path d="M131.07909,291.12012l-4.98718,-15.65312l23.67059,-7.54157l4.98718,15.65313z" fill="url(#color-22)" stroke="#000000" stroke-width="4.5" stroke-linecap="butt"/><path d="M165.62332,169.19776l8.59817,9.48195l-44.97853,40.78624l-8.59818,-9.48195z" fill="url(#color-23)" stroke="url(#color-24)" stroke-width="4.5" stroke-linecap="butt"/><path d="M303.43679,298.52179l-3.46686,-1.60779l8.03897,-17.33433l3.46686,1.6078z" data-paper-data="{&quot;index&quot;:null}" fill="#ffffff" stroke="#000000" stroke-width="4.5" stroke-linecap="butt"/><path d="M323.81949,304.19318l-2.93959,-1.36327l6.81632,-14.69794l2.93958,1.36326z" data-paper-data="{&quot;index&quot;:null}" fill="#ffffff" stroke="#000000" stroke-width="4.5" stroke-linecap="butt"/><path d="M308.98421,306.30986l-4.20506,-1.95014l9.75069,-21.02526l4.20506,1.95014z" data-paper-data="{&quot;index&quot;:null}" fill="#ffffff" stroke="#000000" stroke-width="4.5" stroke-linecap="butt"/><path d="M316.74355,306.01138l-3.46687,-1.60779l8.03897,-17.33433l3.46687,1.60779z" data-paper-data="{&quot;index&quot;:null}" fill="#ffffff" stroke="#000000" stroke-width="4.5" stroke-linecap="butt"/><g data-paper-data="{&quot;index&quot;:null}" fill="#ffffff" stroke="#000000" stroke-width="4.5" stroke-linecap="butt"><path d="M292.45536,296.26206l-3.46686,-1.60779l8.03897,-17.33433l3.46686,1.60779z"/><path d="M295.43616,283.91669l-1.32238,-4.38596l13.91195,-8.68146l1.32239,4.38596z"/></g><path d="M309.86675,279.66806l5.95989,-15.3092l23.15051,9.01253l-5.9599,15.3092z" data-paper-data="{&quot;index&quot;:null}" fill="url(#color-25)" stroke="#000000" stroke-width="4.5" stroke-linecap="butt"/><path d="M306.36617,286.43231c-0.80376,-0.04512 -1.40961,-0.89616 -1.35321,-1.90086c0.0564,-1.0047 0.75367,-1.7826 1.55744,-1.73749c0.80376,0.04512 1.40962,0.89616 1.35323,1.90087c-0.0564,1.0047 -0.75369,1.7826 -1.55745,1.73748z" fill="#000000" stroke="#000000" stroke-width="4.5" stroke-linecap="butt"/><path d="M345.22149,201.984l-8.59818,9.48195l-44.97853,-40.78624l8.59817,-9.48195z" data-paper-data="{&quot;index&quot;:null}" fill="url(#color-26)" stroke="url(#color-27)" stroke-width="4.5" stroke-linecap="butt"/><path d="M328.17836,270.04264l-12.08909,-4.9423l23.44424,-57.34572l12.08909,4.94229z" data-paper-data="{&quot;index&quot;:null}" fill="url(#color-28)" stroke="url(#color-29)" stroke-width="4.5" stroke-linecap="butt"/><path d="M111.08927,215.6969l12.08909,-4.94229l23.44424,57.34572l-12.08909,4.9423z" data-paper-data="{&quot;index&quot;:null}" fill="url(#color-30)" stroke="url(#color-31)" stroke-width="4.5" stroke-linecap="butt"/></g></g></svg>