<svg version="1.1" xmlns="http://www.w3.org/2000/svg" xmlns:xlink="http://www.w3.org/1999/xlink" width="370.25769" height="374.61513" viewBox="0,0,370.25769,374.61513"><defs><radialGradient cx="233.23624" cy="169.01774" r="172.76376" gradientUnits="userSpaceOnUse" id="color-1"><stop offset="0" stop-color="#41ff1b"/><stop offset="1" stop-color="#41ff1b" stop-opacity="0"/></radialGradient><linearGradient x1="288.97524" y1="161.30456" x2="288.00792" y2="73.41287" gradientUnits="userSpaceOnUse" id="color-2"><stop offset="0" stop-color="#000000"/><stop offset="1" stop-color="#137200"/></linearGradient><radialGradient cx="206.23989" cy="236.85685" r="60.59115" gradientUnits="userSpaceOnUse" id="color-3"><stop offset="0" stop-color="#06aa00"/><stop offset="1" stop-color="#00012b"/></radialGradient><radialGradient cx="196.34579" cy="234.72732" r="60.59115" gradientUnits="userSpaceOnUse" id="color-4"><stop offset="0" stop-color="#06aa00"/><stop offset="1" stop-color="#00012b"/></radialGradient><radialGradient cx="206.34024" cy="117.4477" r="60.59115" gradientUnits="userSpaceOnUse" id="color-5"><stop offset="0" stop-color="#06aa00"/><stop offset="1" stop-color="#00012b"/></radialGradient><radialGradient cx="196.4954" cy="119.79448" r="60.59115" gradientUnits="userSpaceOnUse" id="color-6"><stop offset="0" stop-color="#06aa00"/><stop offset="1" stop-color="#00012b"/></radialGradient><radialGradient cx="187.9274" cy="169.74315" r="71.12874" gradientUnits="userSpaceOnUse" id="color-7"><stop offset="0" stop-color="#024300"/><stop offset="1" stop-color="#000000"/></radialGradient><radialGradient cx="155.13609" cy="212.06888" r="60.59115" gradientUnits="userSpaceOnUse" id="color-8"><stop offset="0" stop-color="#06aa00"/><stop offset="1" stop-color="#00012b"/></radialGradient><radialGradient cx="153.3625" cy="202.10482" r="60.59115" gradientUnits="userSpaceOnUse" id="color-9"><stop offset="0" stop-color="#06aa00"/><stop offset="1" stop-color="#00012b"/></radialGradient><radialGradient cx="221.29774" cy="181.3996" r="22.73901" gradientUnits="userSpaceOnUse" id="color-10"><stop offset="0" stop-color="#06aa00"/><stop offset="1" stop-color="#000000"/></radialGradient><radialGradient cx="219.08277" cy="172.93665" r="22.73901" gradientUnits="userSpaceOnUse" id="color-11"><stop offset="0" stop-color="#06aa00"/><stop offset="1" stop-color="#000000"/></radialGradient><radialGradient cx="147.81307" cy="368.76699" r="0.00104" gradientUnits="userSpaceOnUse" id="color-12"><stop offset="0" stop-color="#ff0000"/><stop offset="1" stop-color="#100011"/></radialGradient><radialGradient cx="155.12415" cy="145.34946" r="60.59116" gradientUnits="userSpaceOnUse" id="color-13"><stop offset="0" stop-color="#06aa00"/><stop offset="1" stop-color="#000000"/></radialGradient><radialGradient cx="152.13972" cy="131.23675" r="60.59116" gradientUnits="userSpaceOnUse" id="color-14"><stop offset="0" stop-color="#06aa00"/><stop offset="1" stop-color="#000000"/></radialGradient><radialGradient cx="235.01053" cy="250.97331" r="60.57507" gradientUnits="userSpaceOnUse" id="color-15"><stop offset="0" stop-color="#06aa00"/><stop offset="1" stop-color="#00012b"/></radialGradient><radialGradient cx="224.98006" cy="252.11953" r="60.57507" gradientUnits="userSpaceOnUse" id="color-16"><stop offset="0" stop-color="#06aa00"/><stop offset="1" stop-color="#00012b"/></radialGradient><radialGradient cx="232.47461" cy="84.82219" r="60.57459" gradientUnits="userSpaceOnUse" id="color-17"><stop offset="0" stop-color="#06aa00"/><stop offset="1" stop-color="#00012b"/></radialGradient><radialGradient cx="222.42142" cy="83.90434" r="60.57459" gradientUnits="userSpaceOnUse" id="color-18"><stop offset="0" stop-color="#06aa00"/><stop offset="1" stop-color="#00012b"/></radialGradient><linearGradient x1="368.53546" y1="63.77792" x2="355.40889" y2="44.72173" gradientUnits="userSpaceOnUse" id="color-19"><stop offset="0" stop-color="#00012b"/><stop offset="1" stop-color="#2fc204"/></linearGradient><linearGradient x1="361.45672" y1="47.56108" x2="342.13814" y2="34.8238" gradientUnits="userSpaceOnUse" id="color-20"><stop offset="0" stop-color="#00012b"/><stop offset="1" stop-color="#2fc204"/></linearGradient><linearGradient x1="342.35731" y1="34.54981" x2="319.23605" y2="35.47352" gradientUnits="userSpaceOnUse" id="color-21"><stop offset="0" stop-color="#00012b"/><stop offset="1" stop-color="#2fc204"/></linearGradient><linearGradient x1="318.57186" y1="40.59589" x2="298.74814" y2="52.53179" gradientUnits="userSpaceOnUse" id="color-22"><stop offset="0" stop-color="#00012b"/><stop offset="1" stop-color="#2fc204"/></linearGradient><linearGradient x1="301.95224" y1="46.66904" x2="288.0567" y2="65.17199" gradientUnits="userSpaceOnUse" id="color-23"><stop offset="0" stop-color="#00012b"/><stop offset="1" stop-color="#2fc204"/></linearGradient><linearGradient x1="287.79663" y1="64.93647" x2="287.30377" y2="88.07092" gradientUnits="userSpaceOnUse" id="color-24"><stop offset="0" stop-color="#00012b"/><stop offset="1" stop-color="#2fc204"/></linearGradient><linearGradient x1="366.01387" y1="59.61167" x2="376.80869" y2="80.07912" gradientUnits="userSpaceOnUse" id="color-25"><stop offset="0" stop-color="#00012b"/><stop offset="1" stop-color="#2fc204"/></linearGradient><linearGradient x1="377.09809" y1="73.40423" x2="379.42292" y2="96.42683" gradientUnits="userSpaceOnUse" id="color-26"><stop offset="0" stop-color="#00012b"/><stop offset="1" stop-color="#2fc204"/></linearGradient><linearGradient x1="379.76732" y1="96.35974" x2="368.22561" y2="116.41553" gradientUnits="userSpaceOnUse" id="color-27"><stop offset="0" stop-color="#00012b"/><stop offset="1" stop-color="#2fc204"/></linearGradient><linearGradient x1="363.37941" y1="114.62828" x2="343.61086" y2="126.65532" gradientUnits="userSpaceOnUse" id="color-28"><stop offset="0" stop-color="#00012b"/><stop offset="1" stop-color="#2fc204"/></linearGradient><linearGradient x1="350.29096" y1="126.53572" x2="327.45376" y2="130.26499" gradientUnits="userSpaceOnUse" id="color-29"><stop offset="0" stop-color="#00012b"/><stop offset="1" stop-color="#2fc204"/></linearGradient><linearGradient x1="327.5418" y1="130.60464" x2="306.81734" y2="120.31181" gradientUnits="userSpaceOnUse" id="color-30"><stop offset="0" stop-color="#00012b"/><stop offset="1" stop-color="#2fc204"/></linearGradient><linearGradient x1="258.17994" y1="209.31155" x2="335.68679" y2="274.18183" gradientUnits="userSpaceOnUse" id="color-31"><stop offset="0" stop-color="#000000"/><stop offset="1" stop-color="#137200"/></linearGradient><linearGradient x1="375.08085" y1="290.61921" x2="383.69417" y2="269.14234" gradientUnits="userSpaceOnUse" id="color-32"><stop offset="0" stop-color="#00012b"/><stop offset="1" stop-color="#2fc204"/></linearGradient><linearGradient x1="384.67445" y1="275.75121" x2="384.5984" y2="252.61163" gradientUnits="userSpaceOnUse" id="color-33"><stop offset="0" stop-color="#00012b"/><stop offset="1" stop-color="#2fc204"/></linearGradient><linearGradient x1="384.9479" y1="252.64264" x2="371.38791" y2="233.89238" gradientUnits="userSpaceOnUse" id="color-34"><stop offset="0" stop-color="#00012b"/><stop offset="1" stop-color="#2fc204"/></linearGradient><linearGradient x1="366.75327" y1="236.17272" x2="345.84371" y2="226.26135" gradientUnits="userSpaceOnUse" id="color-35"><stop offset="0" stop-color="#00012b"/><stop offset="1" stop-color="#2fc204"/></linearGradient><linearGradient x1="352.50017" y1="225.68731" x2="329.39932" y2="224.34725" gradientUnits="userSpaceOnUse" id="color-36"><stop offset="0" stop-color="#00012b"/><stop offset="1" stop-color="#2fc204"/></linearGradient><linearGradient x1="329.45165" y1="224.00032" x2="309.90677" y2="236.38753" gradientUnits="userSpaceOnUse" id="color-37"><stop offset="0" stop-color="#00012b"/><stop offset="1" stop-color="#2fc204"/></linearGradient><linearGradient x1="377.15664" y1="286.21384" x2="366.07775" y2="306.52895" gradientUnits="userSpaceOnUse" id="color-38"><stop offset="0" stop-color="#00012b"/><stop offset="1" stop-color="#2fc204"/></linearGradient><linearGradient x1="371.7984" y1="303.07753" x2="353.90541" y2="317.75016" gradientUnits="userSpaceOnUse" id="color-39"><stop offset="0" stop-color="#00012b"/><stop offset="1" stop-color="#2fc204"/></linearGradient><linearGradient x1="354.15181" y1="317.99995" x2="331.05948" y2="319.47978" gradientUnits="userSpaceOnUse" id="color-40"><stop offset="0" stop-color="#00012b"/><stop offset="1" stop-color="#2fc204"/></linearGradient><linearGradient x1="329.86748" y1="314.45395" x2="308.91251" y2="304.63894" gradientUnits="userSpaceOnUse" id="color-41"><stop offset="0" stop-color="#00012b"/><stop offset="1" stop-color="#2fc204"/></linearGradient><linearGradient x1="312.70752" y1="310.13767" x2="296.96748" y2="293.17605" gradientUnits="userSpaceOnUse" id="color-42"><stop offset="0" stop-color="#00012b"/><stop offset="1" stop-color="#2fc204"/></linearGradient><linearGradient x1="296.73324" y1="293.43728" x2="293.84311" y2="270.47878" gradientUnits="userSpaceOnUse" id="color-43"><stop offset="0" stop-color="#00012b"/><stop offset="1" stop-color="#2fc204"/></linearGradient><radialGradient cx="272.45804" cy="171.39985" r="17.28305" gradientUnits="userSpaceOnUse" id="color-44"><stop offset="0" stop-color="#00ff39" stop-opacity="0"/><stop offset="1" stop-color="#00ff39"/></radialGradient><linearGradient x1="245.57888" y1="190.73161" x2="248.93328" y2="198.01127" gradientUnits="userSpaceOnUse" id="color-45"><stop offset="0" stop-color="#06aa00"/><stop offset="1" stop-color="#000000"/></linearGradient><linearGradient x1="246.93185" y1="153.00328" x2="250.12521" y2="145.65155" gradientUnits="userSpaceOnUse" id="color-46"><stop offset="0" stop-color="#06aa00"/><stop offset="1" stop-color="#000000"/></linearGradient><radialGradient cx="59" cy="140.5" r="4" gradientUnits="userSpaceOnUse" id="color-47"><stop offset="0" stop-color="#41ff1b"/><stop offset="1" stop-color="#41ff1b" stop-opacity="0"/></radialGradient></defs><g transform="translate(-55,6.00131)"><g data-paper-data="{&quot;isPaintingLayer&quot;:true}" fill-rule="nonzero" stroke="none" stroke-width="0" stroke-linecap="butt" stroke-linejoin="miter" stroke-miterlimit="10" stroke-dasharray="" stroke-dashoffset="0" style="mix-blend-mode: normal"><path d="M406,169.01774c0,92.24135 -77.34897,167.01774 -172.76376,167.01774c-95.41479,0 -172.76376,-74.77639 -172.76376,-167.01774c0,-92.24135 77.34897,-167.01774 172.76376,-167.01774c95.41479,0 172.76376,74.77639 172.76376,167.01774z" fill="url(#color-1)"/><path d="M338.30721,95.03831l-76.06033,66.56042l-23.57094,-21.91961l76.06034,-66.56042z" data-paper-data="{&quot;index&quot;:null}" fill="url(#color-2)"/><g data-paper-data="{&quot;index&quot;:null}"><path d="M228.77169,207.08165l-59.45815,97.95126l-0.69031,0.81141l44.62764,-112.66556z" data-paper-data="{&quot;index&quot;:null}" fill="url(#color-3)"/><path d="M213.25086,193.17878l-43.85418,112.97192l0.05256,-1.06403l23.74386,-112.09796z" data-paper-data="{&quot;index&quot;:null}" fill="url(#color-4)"/></g><g data-paper-data="{&quot;index&quot;:null}"><path d="M214.31083,160.96088l-47.09651,-111.65604l0.70801,0.79602l61.59957,96.61892z" data-paper-data="{&quot;index&quot;:null}" fill="url(#color-5)"/><path d="M194.2621,161.59237l-26.2053,-111.54822l-0.07596,-1.06262l46.32998,111.97936z" data-paper-data="{&quot;index&quot;:null}" fill="url(#color-6)"/></g><path d="M225.02226,98.77638c35.60554,-0.39187 64.81998,31.13395 65.25231,70.41489c0.43233,39.28095 -28.0812,71.44211 -63.68673,71.83398c-35.60554,0.39187 -64.81998,-31.13395 -65.25231,-70.41489c-0.43233,-39.28095 28.0812,-71.44211 63.68673,-71.83398z" fill="url(#color-7)"/><g><path d="M191.22411,221.65529l-113.16831,-17.96266l-1.01232,-0.33186l121.17497,-1.33364z" data-paper-data="{&quot;index&quot;:null}" fill="url(#color-8)"/><path d="M198.21845,202.02711l-121.16581,2.1655l1.00478,-0.35406l112.74555,-20.44905z" data-paper-data="{&quot;index&quot;:null}" fill="url(#color-9)"/></g><g><path d="M232.00043,191.25575l-38.83167,-16.28492l-0.38226,-0.33879l45.47527,-0.5005z" data-paper-data="{&quot;index&quot;:null}" fill="url(#color-10)"/><path d="M238.26176,174.13154l-45.46611,1.33236l0.37471,-0.34713l38.45012,-18.38341z" data-paper-data="{&quot;index&quot;:null}" fill="url(#color-11)"/></g><path d="M218.42446,368.61382z" fill="url(#color-12)"/><g><path d="M192.19202,158.41525l-113.16831,-17.96266l-1.01232,-0.33186l121.17497,-1.33364z" data-paper-data="{&quot;index&quot;:null}" fill="url(#color-13)"/><path d="M199.18637,138.78708l-121.16581,2.1655l1.00478,-0.35406l112.74555,-20.44905z" data-paper-data="{&quot;index&quot;:null}" fill="url(#color-14)"/></g><g><path d="M246.12767,221.53197l-22.77413,92.70827l-0.37474,0.82388l3.83737,-99.91888z" data-paper-data="{&quot;index&quot;:null}" fill="url(#color-15)"/><path d="M226.81615,215.14523l-3.00588,99.93768l-0.31087,-0.83938l-15.6199,-93.57657z" data-paper-data="{&quot;index&quot;:null}" fill="url(#color-16)"/></g><g data-paper-data="{&quot;index&quot;:null}"><path d="M225.06796,120.56769l-6.02779,-99.10324l0.39272,0.80963l24.80184,91.5301z" data-paper-data="{&quot;index&quot;:null}" fill="url(#color-17)"/><path d="M206.01478,115.50168l13.56387,-93.23406l0.29238,-0.84005l5.19692,99.14013z" data-paper-data="{&quot;index&quot;:null}" fill="url(#color-18)"/></g><g><path d="M401.95709,40.75591l-66.84325,46.04401l-13.12658,-19.05618l52.02796,-26.76081z" fill="url(#color-19)"/><path d="M383.79592,13.67926l-44.6784,67.76364l-19.31859,-12.73727l38.18253,-44.32994z" fill="url(#color-20)"/><path d="M340.73726,-6.00131l3.2401,81.10224l-23.12126,0.92371l5.15356,-58.27941z" fill="url(#color-21)"/><path d="M297.63813,5.82813l41.86745,69.53551l-19.82372,11.9359l-23.52697,-53.568z" fill="url(#color-22)"/><path d="M269.50089,22.29841l64.9027,48.74127l-13.89554,18.50296l-41.91041,-40.82361z" fill="url(#color-23)"/><path d="M247.22237,64.07208l81.14852,1.72879l-0.49286,23.13445l-57.85484,-8.71014z" fill="url(#color-24)"/><g><path d="M388.75045,65.32892l-47.83856,33.68267l-10.79482,-20.46746l71.79358,-37.86493z" data-paper-data="{&quot;index&quot;:null}" fill="url(#color-25)"/><path d="M396.02732,87.23621l-56.98254,13.26802l-2.32482,-23.02263l80.75624,-8.15475z" data-paper-data="{&quot;index&quot;:null}" fill="url(#color-26)"/><path d="M387.07345,118.63664l-54.02261,-22.46347l11.5417,-20.0558l70.34953,40.48474z" data-paper-data="{&quot;index&quot;:null}" fill="url(#color-27)"/><path d="M359.06417,137.67211l-36.54689,-45.68781l19.76855,-12.02704l42.18715,69.34202z" data-paper-data="{&quot;index&quot;:null}" fill="url(#color-28)"/><path d="M337.64322,146.27589l-16.73002,-56.06386l22.83721,-3.72926l13.0811,80.1059z" data-paper-data="{&quot;index&quot;:null}" fill="url(#color-29)"/><path d="M305.75373,139.26024l19.11563,-55.29595l20.72447,10.29282l-36.10405,72.69504z" data-paper-data="{&quot;index&quot;:null}" fill="url(#color-30)"/></g></g><path d="M324.14538,285.39836l-77.50685,-64.87027l23.0828,-22.43307l77.50685,64.87027z" fill="url(#color-31)"/><path d="M412.748,305.72565l-75.33428,-30.21286l8.61331,-21.47687l51.07465,28.53822z" fill="url(#color-32)"/><path d="M425.25769,275.61781l-81.16649,0.26679l-0.07606,-23.13958l58.0515,7.28514z" fill="url(#color-33)"/><path d="M417.83297,228.86051l-65.77014,47.56427l-13.55999,-18.75026l51.4008,-27.94651z" fill="url(#color-34)"/><path d="M384.13632,199.50056l-34.76608,73.34433l-20.90956,-9.91139l31.6101,-49.23262z" fill="url(#color-35)"/><path d="M354.8504,185.17194l-4.70045,81.03072l-23.10086,-1.34004l10.82376,-57.49692z" fill="url(#color-36)"/><path d="M307.72638,189.7216l43.45053,68.55744l-19.54488,12.38721l-24.74883,-53.01457z" fill="url(#color-37)"/><g><path d="M384.97156,308.31739l-54.52338,-21.21911l11.07889,-20.3151l71.25914,38.86135z" data-paper-data="{&quot;index&quot;:null}" fill="url(#color-38)"/><path d="M370.74712,326.49834l-42.57525,-40.12976l17.89301,-14.67263l51.46705,62.76315z" data-paper-data="{&quot;index&quot;:null}" fill="url(#color-39)"/><path d="M339.63565,336.40975l-11.17159,-57.43035l23.09233,-1.47985l5.19082,81.00077z" data-paper-data="{&quot;index&quot;:null}" fill="url(#color-40)"/><path d="M308.28357,323.60677l17.84296,-55.71964l20.95497,9.81501l-34.42804,73.50361z" data-paper-data="{&quot;index&quot;:null}" fill="url(#color-41)"/><path d="M289.26626,310.52152l37.4493,-44.95109l15.74004,16.96163l-59.49617,55.21121z" data-paper-data="{&quot;index&quot;:null}" fill="url(#color-42)"/><path d="M277.46966,280.07486l56.63912,-14.66492l2.89013,22.9585l-80.53135,10.1377z" data-paper-data="{&quot;index&quot;:null}" fill="url(#color-43)"/></g><path d="M272.27052,154.36126c4.24153,-0.04668 6.50805,5.92108 8.90383,10.13411c1.6254,2.8583 4.13428,3.14803 4.17674,7.00603c0.03806,3.45793 -4.61517,4.45818 -5.89011,7.17406c-2.24414,4.7805 -2.27011,10.19984 -6.81005,10.24981c-2.46331,0.02711 -6.97213,-0.74572 -7.47991,-2.42361c-0.2341,-0.77355 3.3863,-2.07228 3.68308,-3.13526c0.91993,-3.29497 0.13767,-7.45176 0.08572,-12.17127c-0.04263,-3.87357 1.07744,-7.65329 0.48542,-10.52535c-0.42985,-2.0853 -5.50798,-3.24957 -4.93677,-4.40474c0.58056,-1.17409 5.64992,-1.88033 7.78207,-1.90379z" fill="url(#color-44)"/><path d="M232.73242,196.65113l25.69294,-11.83903l0.62554,0.2309l-22.96408,18.8878z" fill="url(#color-45)"/><path d="M237.15157,140.01621l23.37423,18.3778l-0.6203,0.24461l-25.94728,-11.27069z" data-paper-data="{&quot;index&quot;:null}" fill="url(#color-46)"/><path d="M55,140.5c0,0.27614 1.79086,0.5 4,0.5c2.20914,0 4,-0.22386 4,-0.5c0,-0.27614 -1.79086,-0.5 -4,-0.5c-2.20914,0 -4,0.22386 -4,0.5z" fill="url(#color-47)"/></g></g></svg>