<svg version="1.1" xmlns="http://www.w3.org/2000/svg" xmlns:xlink="http://www.w3.org/1999/xlink" width="365.99893" height="279.00408" viewBox="0,0,365.99893,279.00408"><defs><radialGradient cx="219.88878" cy="194.8901" r="139.48636" gradientUnits="userSpaceOnUse" id="color-1"><stop offset="0" stop-color="#007159"/><stop offset="1" stop-color="#007159" stop-opacity="0"/></radialGradient><linearGradient x1="251.40042" y1="138.96305" x2="327.74369" y2="69.08931" gradientUnits="userSpaceOnUse" id="color-2"><stop offset="0" stop-color="#000247"/><stop offset="1" stop-color="#00047b"/></linearGradient><linearGradient x1="257.84223" y1="243.06811" x2="323.40114" y2="308.38391" gradientUnits="userSpaceOnUse" id="color-3"><stop offset="0" stop-color="#000247"/><stop offset="1" stop-color="#00047b"/></linearGradient><linearGradient x1="155.65449" y1="185.56563" x2="310.61972" y2="188.84828" gradientUnits="userSpaceOnUse" id="color-4"><stop offset="0" stop-color="#00000e"/><stop offset="1" stop-color="#000485"/></linearGradient><radialGradient cx="144.49282" cy="193.08094" r="72.83333" gradientUnits="userSpaceOnUse" id="color-5"><stop offset="0" stop-color="#00e6e1"/><stop offset="1" stop-color="#100011"/></radialGradient><radialGradient cx="143.72601" cy="182.06223" r="72.83333" gradientUnits="userSpaceOnUse" id="color-6"><stop offset="0" stop-color="#00e6e1"/><stop offset="1" stop-color="#100011"/></radialGradient><radialGradient cx="229.6178" cy="199.88527" r="27.33333" gradientUnits="userSpaceOnUse" id="color-7"><stop offset="0" stop-color="#00e6e1"/><stop offset="1" stop-color="#100011"/></radialGradient><radialGradient cx="227.91475" cy="185.84605" r="27.33333" gradientUnits="userSpaceOnUse" id="color-8"><stop offset="0" stop-color="#00e6e1"/><stop offset="1" stop-color="#100011"/></radialGradient><radialGradient cx="264.16521" cy="221.62179" r="10.86957" gradientUnits="userSpaceOnUse" id="color-9"><stop offset="0" stop-color="#100011"/><stop offset="1" stop-color="#00e6e1"/></radialGradient><radialGradient cx="267.47782" cy="159.67806" r="10.86957" gradientUnits="userSpaceOnUse" id="color-10"><stop offset="0" stop-color="#100011"/><stop offset="1" stop-color="#00e6e1"/></radialGradient><radialGradient cx="292.10799" cy="189.20631" r="26.625" gradientUnits="userSpaceOnUse" id="color-11"><stop offset="0" stop-color="#b50000"/><stop offset="1" stop-color="#100011"/></radialGradient><linearGradient x1="287.20029" y1="181.72479" x2="303.037" y2="183.1005" gradientUnits="userSpaceOnUse" id="color-12"><stop offset="0" stop-color="#ffffff"/><stop offset="1" stop-color="#b50000"/></linearGradient><linearGradient x1="287.32742" y1="199.3324" x2="303.20818" y2="198.62857" gradientUnits="userSpaceOnUse" id="color-13"><stop offset="0" stop-color="#ffffff"/><stop offset="1" stop-color="#b50000"/></linearGradient><linearGradient x1="300.62516" y1="170.96321" x2="284.96479" y2="173.69207" gradientUnits="userSpaceOnUse" id="color-14"><stop offset="0" stop-color="#ffffff"/><stop offset="1" stop-color="#b50000"/></linearGradient><linearGradient x1="298.58291" y1="208.35041" x2="283.05214" y2="204.96082" gradientUnits="userSpaceOnUse" id="color-15"><stop offset="0" stop-color="#ffffff"/><stop offset="1" stop-color="#b50000"/></linearGradient><linearGradient x1="373.29733" y1="299.17114" x2="373.80147" y2="275.37166" gradientUnits="userSpaceOnUse" id="color-16"><stop offset="0" stop-color="#00012b"/><stop offset="1" stop-color="#03c2c0"/></linearGradient><linearGradient x1="377.14173" y1="281.37864" x2="368.67758" y2="259.12942" gradientUnits="userSpaceOnUse" id="color-17"><stop offset="0" stop-color="#00012b"/><stop offset="1" stop-color="#03c2c0"/></linearGradient><linearGradient x1="369.02529" y1="259.03254" x2="349.17161" y2="245.89856" gradientUnits="userSpaceOnUse" id="color-18"><stop offset="0" stop-color="#00012b"/><stop offset="1" stop-color="#03c2c0"/></linearGradient><linearGradient x1="374.94324" y1="79.81735" x2="374.43909" y2="103.61685" gradientUnits="userSpaceOnUse" id="color-19"><stop offset="0" stop-color="#00012b"/><stop offset="1" stop-color="#03c2c0"/></linearGradient><linearGradient x1="378.03075" y1="97.7567" x2="368.63197" y2="119.62752" gradientUnits="userSpaceOnUse" id="color-20"><stop offset="0" stop-color="#00012b"/><stop offset="1" stop-color="#03c2c0"/></linearGradient><linearGradient x1="368.97528" y1="119.73905" x2="348.58322" y2="132.02048" gradientUnits="userSpaceOnUse" id="color-21"><stop offset="0" stop-color="#00012b"/><stop offset="1" stop-color="#03c2c0"/></linearGradient></defs><g transform="translate(-50.68493,-55.38804)"><g data-paper-data="{&quot;isPaintingLayer&quot;:true}" fill-rule="nonzero" stroke="none" stroke-width="0" stroke-linejoin="miter" stroke-miterlimit="10" stroke-dasharray="" stroke-dashoffset="0" style="mix-blend-mode: normal"><path d="M222.84287,55.43501c93.43417,1.97922 167.85494,66.01986 166.22345,143.03877c-1.63149,77.01891 -78.69745,137.8506 -172.13162,135.87138c-93.43417,-1.97922 -167.85495,-66.01988 -166.22345,-143.03879c1.6315,-77.01891 78.69745,-137.85059 172.13165,-135.87137z" fill="url(#color-1)" stroke-linecap="butt"/><path d="M316.41532,107.30851c-15.85498,7.35971 -47.87606,50.38025 -47.87606,50.38025l-34.27768,-37.45141c0,0 50.86428,-45.55121 73.33298,-52.96998c17.9128,-5.91449 50.93534,11.93877 50.93534,11.93877l-18.11981,32.19354c0,0 -9.55066,-10.79596 -23.99477,-4.09117z" data-paper-data="{&quot;index&quot;:null}" fill="url(#color-2)" stroke-linecap="butt"/><path d="M331.82101,272.30994l19.05837,26.40395c0,0 -29.76913,16.49703 -45.5484,10.53474c-19.79253,-7.47871 -63.50961,-50.10005 -63.50961,-50.10005l32.04171,-32.16098c0,0 26.97846,39.64692 40.86457,46.82244c12.65044,6.537 17.09336,-1.50011 17.09336,-1.50011z" data-paper-data="{&quot;index&quot;:null}" fill="url(#color-3)" stroke-linecap="butt"/><path d="M234.94785,101.72613c21.72258,0.46015 43.77747,31.6887 43.77747,31.6887c0,0 32.38679,32.1886 31.8944,55.43345c-0.58404,27.57101 -36.48441,59.9802 -36.48441,59.9802c0,0 -25.00774,24.23638 -42.80895,23.8593c-14.80051,-0.31352 -19.24034,-18.99091 -30.83409,-27.18275c-15.87678,-11.21812 -41.82202,-11.61815 -49.60044,-28.12008c-2.96418,-6.2885 4.58215,-23.29828 4.76265,-31.81932c0.3558,-16.7961 -5.32924,-23.00027 5.18843,-30.45209c10.35548,-7.33689 36.81816,-15.9972 49.48294,-22.72529c10.62724,-5.64565 12.04381,-30.92858 24.62198,-30.66213z" fill="url(#color-4)" stroke-linecap="butt"/><g stroke-linecap="butt"><path d="M199.39158,210.24745l-135.2682,-25.95829l-1.20338,-0.43787l145.634,3.08498z" data-paper-data="{&quot;index&quot;:null}" fill="url(#color-5)"/><path d="M208.55399,186.93627l-145.65517,-2.08519l1.22085,-0.38652l136.24612,-20.20679z" data-paper-data="{&quot;index&quot;:null}" fill="url(#color-6)"/></g><g stroke-linecap="butt"><path d="M245.75299,213.22998l-46.02335,-21.06714l-0.44616,-0.42183l54.6544,1.15775z" data-paper-data="{&quot;index&quot;:null}" fill="url(#color-7)"/><path d="M253.9379,192.89876l-54.67558,-0.15797l0.46362,-0.40255l46.90596,-20.59896z" data-paper-data="{&quot;index&quot;:null}" fill="url(#color-8)"/></g><path d="M264.54349,211.37751c6.00176,0.12714 10.76758,4.93016 10.64476,10.72785c-0.12282,5.79769 -5.08775,10.39458 -11.0895,10.26744c-6.00176,-0.12714 -10.76757,-4.93016 -10.64475,-10.72785c0.12282,-5.79769 5.08775,-10.39458 11.0895,-10.26744z" fill="url(#color-9)" stroke-linecap="butt"/><path d="M266.88808,147.91293c6.00176,0.12714 10.76757,4.93016 10.64476,10.72785c-0.12282,5.79769 -5.08775,10.39458 -11.0895,10.26745c-6.00176,-0.12714 -10.76756,-4.93016 -10.64475,-10.72785c0.12282,-5.79769 5.08775,-10.39458 11.0895,-10.26745z" fill="url(#color-10)" stroke-linecap="butt"/><path d="M292.66392,162.96219c5.42804,0.11498 8.04872,9.40392 10.91667,15.99666c1.94574,4.47278 5.14164,5.02943 5.01576,10.97181c-0.11282,5.32617 -6.11208,6.66134 -7.86986,10.78706c-3.09406,7.2621 -3.38038,15.60559 -9.19031,15.48252c-3.15238,-0.06678 -8.8841,-1.45541 -9.4553,-4.06137c-0.26333,-1.20141 4.42863,-3.04168 4.85792,-4.66538c1.33069,-5.03303 0.52416,-11.46807 0.67814,-18.7374c0.12639,-5.96635 1.73575,-11.737 1.11256,-16.18545c-0.45247,-3.22986 -6.89417,-5.24631 -6.10951,-6.99986c0.79751,-1.78228 7.31534,-2.64639 10.04393,-2.58859z" fill="url(#color-11)" stroke-linecap="butt"/><path d="M287.70065,178.08912l15.28076,5.41535l-14.74393,1.98956z" data-paper-data="{&quot;index&quot;:null}" fill="url(#color-12)" stroke-linecap="round"/><path d="M288.52329,195.61047l14.64646,2.61215l-15.49637,4.76339z" data-paper-data="{&quot;index&quot;:null}" fill="url(#color-13)" stroke-linecap="round"/><path d="M302.03959,174.8525l-16.98476,-0.76273l13.37473,-6.23517z" data-paper-data="{&quot;index&quot;:null}" fill="url(#color-14)" stroke-linecap="round"/><path d="M296.25763,211.36324l-13.09869,-6.79596l16.39815,-1.0558z" data-paper-data="{&quot;index&quot;:null}" fill="url(#color-15)" stroke-linecap="round"/><path d="M415.03796,300.05534l-83.48127,-1.76839l0.50414,-23.79949l59.51891,8.95331z" fill="url(#color-16)" stroke-linecap="butt"/><path d="M416.16344,266.5338l-78.04341,29.68969l-8.46416,-22.24921l58.52876,-14.03732z" fill="url(#color-17)" stroke-linecap="butt"/><path d="M392.06026,224.21225l-46.06994,69.64058l-19.85368,-13.13398l39.35024,-45.54362z" fill="url(#color-18)" stroke-linecap="butt"/><path d="M392.54312,96.30783l-59.84467,6.42482l0.50414,-23.79949l83.48127,1.76839z" data-paper-data="{&quot;index&quot;:null}" fill="url(#color-19)" stroke-linecap="butt"/><path d="M388.15573,119.64679l-57.88182,-16.50325l9.39876,-21.87082l76.71612,32.96797z" data-paper-data="{&quot;index&quot;:null}" fill="url(#color-20)" stroke-linecap="butt"/><path d="M364.42975,143.4251l-37.38629,-47.16913l20.39205,-12.28145l43.07954,71.52903z" data-paper-data="{&quot;index&quot;:null}" fill="url(#color-21)" stroke-linecap="butt"/></g></g></svg>