<svg version="1.1" xmlns="http://www.w3.org/2000/svg" xmlns:xlink="http://www.w3.org/1999/xlink" width="399.00668" height="278.97273" viewBox="0,0,399.00668,278.97273"><defs><radialGradient cx="212.49664" cy="180.00003" r="139.48636" gradientUnits="userSpaceOnUse" id="color-1"><stop offset="0" stop-color="#c900da"/><stop offset="1" stop-color="#c900da" stop-opacity="0"/></radialGradient><linearGradient x1="238.98207" y1="147.62845" x2="313.82385" y2="76.14879" gradientUnits="userSpaceOnUse" id="color-2"><stop offset="0" stop-color="#000247"/><stop offset="1" stop-color="#00047b"/></linearGradient><linearGradient x1="242.48694" y1="223.7295" x2="317.33785" y2="295.1996" gradientUnits="userSpaceOnUse" id="color-3"><stop offset="0" stop-color="#000247"/><stop offset="1" stop-color="#00047b"/></linearGradient><linearGradient x1="139.24665" y1="180.25471" x2="294.24665" y2="180.2448" gradientUnits="userSpaceOnUse" id="color-4"><stop offset="0" stop-color="#00000e"/><stop offset="1" stop-color="#000485"/></linearGradient><radialGradient cx="122.24716" cy="188.00579" r="72.83333" gradientUnits="userSpaceOnUse" id="color-5"><stop offset="0" stop-color="#d400e6"/><stop offset="1" stop-color="#100011"/></radialGradient><radialGradient cx="121.24645" cy="177.00586" r="72.83333" gradientUnits="userSpaceOnUse" id="color-6"><stop offset="0" stop-color="#d400e6"/><stop offset="1" stop-color="#100011"/></radialGradient><radialGradient cx="209.2476" cy="195.00023" r="27.33334" gradientUnits="userSpaceOnUse" id="color-7"><stop offset="0" stop-color="#d400e6"/><stop offset="1" stop-color="#100011"/></radialGradient><radialGradient cx="211.24652" cy="178.00011" r="27.33333" gradientUnits="userSpaceOnUse" id="color-8"><stop offset="0" stop-color="#d400e6"/><stop offset="1" stop-color="#100011"/></radialGradient><radialGradient cx="242.66006" cy="214.24809" r="11.41305" gradientUnits="userSpaceOnUse" id="color-9"><stop offset="0" stop-color="#000000"/><stop offset="1" stop-color="#eb00ff"/></radialGradient><radialGradient cx="243.656" cy="150.74803" r="11.41305" gradientUnits="userSpaceOnUse" id="color-10"><stop offset="0" stop-color="#000000"/><stop offset="1" stop-color="#eb00ff"/></radialGradient><radialGradient cx="269.7467" cy="180.99637" r="26.625" gradientUnits="userSpaceOnUse" id="color-11"><stop offset="0" stop-color="#b50000"/><stop offset="1" stop-color="#100011"/></radialGradient><linearGradient x1="264.6812" y1="173.62079" x2="280.54355" y2="174.65978" gradientUnits="userSpaceOnUse" id="color-12"><stop offset="0" stop-color="#ffffff"/><stop offset="1" stop-color="#b50000"/></linearGradient><linearGradient x1="265.18231" y1="191.22172" x2="281.04454" y2="190.18071" gradientUnits="userSpaceOnUse" id="color-13"><stop offset="0" stop-color="#ffffff"/><stop offset="1" stop-color="#b50000"/></linearGradient><linearGradient x1="277.87442" y1="162.57645" x2="262.27556" y2="165.63736" gradientUnits="userSpaceOnUse" id="color-14"><stop offset="0" stop-color="#ffffff"/><stop offset="1" stop-color="#b50000"/></linearGradient><linearGradient x1="276.62681" y1="199.99861" x2="261.02756" y2="196.9397" gradientUnits="userSpaceOnUse" id="color-15"><stop offset="0" stop-color="#ffffff"/><stop offset="1" stop-color="#b50000"/></linearGradient><linearGradient x1="382.50336" y1="285.20989" x2="382.50129" y2="252.70988" gradientUnits="userSpaceOnUse" id="color-16"><stop offset="0" stop-color="#00012b"/><stop offset="1" stop-color="#9e00ac"/></linearGradient><linearGradient x1="381.9825" y1="86.20991" x2="381.98458" y2="118.70991" gradientUnits="userSpaceOnUse" id="color-17"><stop offset="0" stop-color="#00012b"/><stop offset="1" stop-color="#9e00ac"/></linearGradient></defs><g transform="translate(-40.49668,-40.51363)"><g data-paper-data="{&quot;isPaintingLayer&quot;:true}" fill-rule="nonzero" stroke="none" stroke-width="0" stroke-linejoin="miter" stroke-miterlimit="10" stroke-dasharray="" stroke-dashoffset="0" style="mix-blend-mode: normal"><path d="M212.48773,40.51364c64.43116,-0.00412 116.66693,62.44271 116.67186,139.47891c0.00493,77.03619 -52.22287,139.48969 -116.65402,139.49381c-64.43116,0.00412 -116.66693,-62.44272 -116.67185,-139.47891c-0.00493,-77.03619 52.22287,-139.4897 116.65404,-139.49382z" fill="url(#color-1)" stroke-linecap="butt"/><path d="M303.30989,114.6c-15.69507,7.69485 -46.79507,51.38587 -46.79507,51.38587l-35.06549,-36.71482c0,0 49.88519,-46.6214 72.19124,-54.51578c17.78313,-6.29367 51.17746,10.85409 51.17746,10.85409l-17.43186,32.57118c0,0 -9.77784,-10.59064 -24.07626,-3.58054z" data-paper-data="{&quot;index&quot;:null}" fill="url(#color-2)" stroke-linecap="butt"/><path d="M325.89488,254.66643l21.93579,29.06867c0,0 -32.892,19.15199 -50.67593,12.86059c-22.30705,-7.89153 -72.1982,-54.50655 -72.1982,-54.50655l35.0608,-36.71931c0,0 31.10558,43.68705 46.80164,51.37988c14.29933,7.00829 19.0759,-2.08329 19.0759,-2.08329z" data-paper-data="{&quot;index&quot;:null}" fill="url(#color-3)" stroke-linecap="butt"/><path d="M216.74119,94.74976c42.80207,-0.00274 77.50244,38.27469 77.50546,85.49504c0.00302,47.22035 -34.69247,85.50222 -77.49454,85.50496c-42.80207,0.00273 -77.50244,-38.2747 -77.50546,-85.49505c-0.00302,-47.22035 34.69246,-85.50221 77.49453,-85.50495z" fill="url(#color-4)" stroke-linecap="butt"/><g stroke-linecap="butt"><path d="M177.49817,204.00226l-135.78908,-23.07904l-1.21241,-0.4122l145.66667,-0.00931z" data-paper-data="{&quot;index&quot;:null}" fill="url(#color-5)"/><path d="M186.16335,180.50171l-145.66659,1.00931l1.21236,-0.41236l135.78614,-23.0964z" data-paper-data="{&quot;index&quot;:null}" fill="url(#color-6)"/></g><g stroke-linecap="butt"><path d="M223.91248,205.9993l-46.46047,-20.08475l-0.45502,-0.41225l54.66666,-0.00349z" data-paper-data="{&quot;index&quot;:null}" fill="url(#color-7)"/><path d="M231.66365,185.4988l-54.6666,1.00349l0.45496,-0.41231l46.45781,-21.59069z" data-paper-data="{&quot;index&quot;:null}" fill="url(#color-8)"/></g><path d="M242.65939,203.74809c6.0031,-0.00038 10.86987,4.70031 10.87024,10.4993c0.00037,5.79899 -4.8658,10.50031 -10.8689,10.5007c-6.0031,0.00038 -10.86986,-4.70031 -10.87023,-10.4993c-0.00037,-5.79899 4.8658,-10.50031 10.86889,-10.5007z" fill="url(#color-9)" stroke-linecap="butt"/><path d="M243.65532,140.24803c6.0031,-0.00038 10.86987,4.70031 10.87024,10.4993c0.00037,5.79899 -4.8658,10.50031 -10.8689,10.5007c-6.0031,0.00038 -10.86987,-4.70032 -10.87024,-10.49931c-0.00037,-5.79899 4.8658,-10.50031 10.86889,-10.50069z" fill="url(#color-10)" stroke-linecap="butt"/><path d="M269.74501,154.74637c5.42926,-0.00035 8.24666,9.23082 11.25401,15.76115c2.04032,4.43044 5.24732,4.91907 5.2477,10.86279c0.00034,5.32736 -5.9692,6.78968 -7.63894,10.9518c-2.93909,7.32619 -3.04812,15.67388 -8.85936,15.67425c-3.15309,0.0002 -8.91301,-1.26637 -9.53943,-3.85961c-0.28879,-1.19555 4.36302,-3.13507 4.75772,-4.76752c1.22348,-5.06016 0.28043,-11.47662 0.27996,-18.74758c-0.00038,-5.96769 1.48604,-11.77122 0.76849,-16.20543c-0.52098,-3.21953 -7.00405,-5.09868 -6.25683,-6.8685c0.75946,-1.79882 7.25748,-2.80119 9.98668,-2.80136z" fill="url(#color-11)" stroke-linecap="butt"/><path d="M265.1042,169.97531l15.39234,5.08953l-14.69834,2.30231z" data-paper-data="{&quot;index&quot;:null}" fill="url(#color-12)" stroke-linecap="round"/><path d="M266.29886,187.47523l14.69864,2.30043l-15.3917,5.0915z" data-paper-data="{&quot;index&quot;:null}" fill="url(#color-13)" stroke-linecap="round"/><path d="M279.37116,166.43482l-16.99714,-0.40177l13.23926,-6.51788z" data-paper-data="{&quot;index&quot;:null}" fill="url(#color-14)" stroke-linecap="round"/><path d="M274.36607,203.06014l-13.24009,-6.51618l16.37202,-1.4039z" data-paper-data="{&quot;index&quot;:null}" fill="url(#color-15)" stroke-linecap="round"/><path d="M439.50336,285.20624l-114,0.00729l-0.00208,-32.5l81.50067,10.49479z" fill="url(#color-16)" stroke-linecap="butt"/><path d="M406.48389,108.20835l-81.49933,10.50521l-0.00207,-32.5l114,-0.00728z" data-paper-data="{&quot;index&quot;:null}" fill="url(#color-17)" stroke-linecap="butt"/></g></g></svg>