<svg version="1.1" xmlns="http://www.w3.org/2000/svg" xmlns:xlink="http://www.w3.org/1999/xlink" width="498.94117" height="447.82519" viewBox="0,0,498.94117,447.82519"><defs><linearGradient x1="251.42989" y1="86.35369" x2="395.32832" y2="72.82698" gradientUnits="userSpaceOnUse" id="color-1"><stop offset="0" stop-color="#00012b"/><stop offset="1" stop-color="#640000"/></linearGradient><radialGradient cx="220.56877" cy="165.97815" r="164.07677" gradientUnits="userSpaceOnUse" id="color-2"><stop offset="0" stop-color="#9d0000"/><stop offset="1" stop-color="#9d0000" stop-opacity="0"/></radialGradient><linearGradient x1="233.69836" y1="255.9313" x2="378.18235" y2="242.34955" gradientUnits="userSpaceOnUse" id="color-3"><stop offset="0" stop-color="#00012b"/><stop offset="1" stop-color="#640000"/></linearGradient><linearGradient x1="131.57287" y1="177.59297" x2="313.09797" y2="160.52929" gradientUnits="userSpaceOnUse" id="color-4"><stop offset="0" stop-color="#00012b"/><stop offset="1" stop-color="#640000"/></linearGradient><radialGradient cx="127.68072" cy="236.73738" r="85.6733" gradientUnits="userSpaceOnUse" id="color-5"><stop offset="0" stop-color="#e64a00"/><stop offset="1" stop-color="#00012b"/></radialGradient><radialGradient cx="124.01741" cy="222.904" r="85.6733" gradientUnits="userSpaceOnUse" id="color-6"><stop offset="0" stop-color="#e64a00"/><stop offset="1" stop-color="#00012b"/></radialGradient><radialGradient cx="214.95557" cy="184.81869" r="32.15199" gradientUnits="userSpaceOnUse" id="color-7"><stop offset="0" stop-color="#e64a00"/><stop offset="1" stop-color="#00012b"/></radialGradient><radialGradient cx="212.68356" cy="173.21749" r="32.15199" gradientUnits="userSpaceOnUse" id="color-8"><stop offset="0" stop-color="#e64a00"/><stop offset="1" stop-color="#00012b"/></radialGradient><radialGradient cx="255.80462" cy="204.60837" r="12.78578" gradientUnits="userSpaceOnUse" id="color-9"><stop offset="0" stop-color="#00012b"/><stop offset="1" stop-color="#e64a00"/></radialGradient><radialGradient cx="251.43149" cy="132.94929" r="12.78579" gradientUnits="userSpaceOnUse" id="color-10"><stop offset="0" stop-color="#00012b"/><stop offset="1" stop-color="#e64a00"/></radialGradient><radialGradient cx="284.48786" cy="164.1048" r="31.31879" gradientUnits="userSpaceOnUse" id="color-11"><stop offset="0" stop-color="#b50000"/><stop offset="1" stop-color="#100011"/></radialGradient><radialGradient cx="135.6688" cy="458.39975" r="0.00147" gradientUnits="userSpaceOnUse" id="color-12"><stop offset="0" stop-color="#ff0000"/><stop offset="1" stop-color="#100011"/></radialGradient><linearGradient x1="277.74404" y1="156.02427" x2="296.43534" y2="155.49598" gradientUnits="userSpaceOnUse" id="color-13"><stop offset="0" stop-color="#ffffff"/><stop offset="1" stop-color="#b50000"/></linearGradient><linearGradient x1="280.26727" y1="176.58222" x2="298.72956" y2="173.618" gradientUnits="userSpaceOnUse" id="color-14"><stop offset="0" stop-color="#ffffff"/><stop offset="1" stop-color="#b50000"/></linearGradient><linearGradient x1="291.98011" y1="141.63841" x2="274.04844" y2="146.93923" gradientUnits="userSpaceOnUse" id="color-15"><stop offset="0" stop-color="#ffffff"/><stop offset="1" stop-color="#b50000"/></linearGradient><linearGradient x1="294.63593" y1="185.60211" x2="276.03053" y2="183.73583" gradientUnits="userSpaceOnUse" id="color-16"><stop offset="0" stop-color="#ffffff"/><stop offset="1" stop-color="#b50000"/></linearGradient><radialGradient cx="121.65628" cy="147.51134" r="85.6733" gradientUnits="userSpaceOnUse" id="color-17"><stop offset="0" stop-color="#e64a00"/><stop offset="1" stop-color="#00012b"/></radialGradient><radialGradient cx="117.99295" cy="133.67796" r="85.6733" gradientUnits="userSpaceOnUse" id="color-18"><stop offset="0" stop-color="#e64a00"/><stop offset="1" stop-color="#00012b"/></radialGradient><radialGradient cx="396.16083" cy="233.71311" r="85.6733" gradientUnits="userSpaceOnUse" id="color-19"><stop offset="0" stop-color="#e64a00"/><stop offset="1" stop-color="#00012b"/></radialGradient><radialGradient cx="405.22775" cy="244.78438" r="85.6733" gradientUnits="userSpaceOnUse" id="color-20"><stop offset="0" stop-color="#e64a00"/><stop offset="1" stop-color="#00012b"/></radialGradient><radialGradient cx="407.16082" cy="81.54189" r="85.6733" gradientUnits="userSpaceOnUse" id="color-21"><stop offset="0" stop-color="#e64a00"/><stop offset="1" stop-color="#00012b"/></radialGradient><radialGradient cx="416.22775" cy="70.47062" r="85.6733" gradientUnits="userSpaceOnUse" id="color-22"><stop offset="0" stop-color="#e64a00"/><stop offset="1" stop-color="#00012b"/></radialGradient></defs><g transform="translate(-10.59686,-2.10917)"><g data-paper-data="{&quot;isPaintingLayer&quot;:true}" fill-rule="nonzero" stroke="none" stroke-width="0" stroke-linejoin="miter" stroke-miterlimit="10" stroke-dasharray="" stroke-dashoffset="0" style="mix-blend-mode: normal"><path d="M346.73512,71.32896c-17.53454,10.73838 -49.15029,65.32797 -49.15029,65.32797l-45.10561,-39.14041c0,0 53.29339,-60.08806 78.54834,-71.78742c20.13408,-9.32713 49.12345,-1.24179 49.12345,-1.24179l-10.84617,47.17999c0,0 -6.59551,-10.12115 -22.56972,-0.33833z" data-paper-data="{&quot;index&quot;:null}" fill="url(#color-1)" stroke-linecap="butt"/><path d="M205.21296,2.62152c75.45724,-7.09312 143.50247,60.29403 151.98325,150.51341c8.48078,90.21938 -45.81438,169.10672 -121.27163,176.19984c-75.45724,7.09312 -143.50246,-60.29404 -151.98325,-150.51341c-8.48078,-90.21937 45.81437,-169.10672 121.27164,-176.19984z" fill="url(#color-2)" stroke-linecap="butt"/><path d="M357.9293,246.0172l24.00298,36.22451c0,0 -37.21981,23.76095 -58.73935,18.34933c-26.99279,-6.78798 -90.55041,-55.89185 -90.55041,-55.89185l37.02137,-46.86049c0,0 41.23506,47.74148 60.4636,55.02407c17.51745,6.63453 27.8018,-6.84556 27.8018,-6.84556z" data-paper-data="{&quot;index&quot;:null}" fill="url(#color-3)" stroke-linecap="butt"/><path d="M212.92288,68.92954c50.12678,-4.71201 94.97669,36.29859 100.1751,91.59974c5.1984,55.30116 -31.22323,103.95142 -81.35,108.66343c-50.12678,4.712 -94.97668,-36.2986 -100.17509,-91.59975c-5.19841,-55.30116 31.22323,-103.95142 81.35,-108.66342z" fill="url(#color-4)" stroke-linecap="butt"/><g stroke-linecap="butt"><path d="M179.65314,246.02961l-161.56658,-12.09009l-1.46526,-0.34936l170.59457,-16.03619z" data-paper-data="{&quot;index&quot;:null}" fill="url(#color-5)"/><path d="M187.21587,217.55397l-170.48446,17.20731l1.37448,-0.61631l156.48321,-41.98733z" data-paper-data="{&quot;index&quot;:null}" fill="url(#color-6)"/></g><g stroke-linecap="butt"><path d="M233.56039,198.42903l-56.62116,-18.41071l-0.57824,-0.43275l64.02174,-6.01816z" data-paper-data="{&quot;index&quot;:null}" fill="url(#color-7)"/><path d="M240.38273,173.56741l-63.91165,7.18929l0.48746,-0.53293l52.03318,-30.39662z" data-paper-data="{&quot;index&quot;:null}" fill="url(#color-8)"/></g><path d="M255.2679,193.73016c7.0304,-0.66087 13.2472,4.30888 13.8856,11.10025c0.6384,6.79137 -4.54334,12.8326 -11.57375,13.49347c-7.03041,0.66087 -13.24719,-4.30888 -13.88559,-11.10025c-0.6384,-6.79137 4.54334,-12.8326 11.57374,-13.49347z" fill="url(#color-9)" stroke-linecap="butt"/><path d="M249.44844,119.25333c7.0304,-0.66087 13.24719,4.30888 13.88559,11.10025c0.6384,6.79137 -4.54334,12.83261 -11.57374,13.49347c-7.0304,0.66087 -13.24719,-4.30888 -13.88559,-11.10025c-0.6384,-6.79137 4.54335,-12.8326 11.57374,-13.49347z" fill="url(#color-10)" stroke-linecap="butt"/><path d="M281.59804,133.36264c6.35837,-0.5977 10.67348,9.90331 14.91392,17.22037c2.87689,4.96419 6.68649,5.18363 7.34082,12.1445c0.58648,6.23902 -6.24379,8.60833 -7.7414,13.66644c-2.6361,8.90331 -1.84543,18.69159 -8.65114,19.33134c-3.69268,0.34712 -10.57767,-0.50254 -11.5966,-3.47067c-0.46975,-1.36838 4.76479,-4.15158 5.04746,-6.10684c0.87617,-6.06073 -0.93415,-13.47154 -1.7346,-21.98678c-0.65697,-6.98894 0.44536,-13.94918 -0.8828,-19.06332c-0.96432,-3.71319 -8.76364,-5.20072 -8.08323,-7.35563c0.69155,-2.19021 8.19133,-4.07899 11.38758,-4.37945z" fill="url(#color-11)" stroke-linecap="butt"/><path d="M235.151,449.93436z" fill="url(#color-12)" stroke-linecap="butt"/><path d="M277.8384,151.70836l18.58646,4.26717l-16.96048,4.31333z" data-paper-data="{&quot;index&quot;:null}" fill="url(#color-13)" stroke-linecap="round"/><path d="M281.16272,172.07174l17.46719,1.07707l-17.46565,7.65613z" data-paper-data="{&quot;index&quot;:null}" fill="url(#color-14)" stroke-linecap="round"/><path d="M294.15746,145.99243l-19.95017,1.39939l14.78794,-9.08982z" data-paper-data="{&quot;index&quot;:null}" fill="url(#color-15)" stroke-linecap="round"/><path d="M292.32508,189.43631l-16.22284,-6.17475l19.01943,-3.4453z" data-paper-data="{&quot;index&quot;:null}" fill="url(#color-16)" stroke-linecap="round"/><g stroke-linecap="butt"><path d="M173.62869,156.80358l-161.56658,-12.09009l-1.46525,-0.34936l170.59456,-16.03619z" data-paper-data="{&quot;index&quot;:null}" fill="url(#color-17)"/><path d="M181.19141,128.32794l-170.48446,17.20731l1.37448,-0.6163l156.48321,-41.98733z" data-paper-data="{&quot;index&quot;:null}" fill="url(#color-18)"/></g><g stroke-linecap="butt"><path d="M345.01078,246.79557l152.04897,-55.95571l1.47828,-0.28931l-148.60867,85.29437z" data-paper-data="{&quot;index&quot;:null}" fill="url(#color-19)"/><path d="M349.92937,275.84491l148.02311,-86.31454l-0.99546,1.13052l-125.01119,103.06374z" data-paper-data="{&quot;index&quot;:null}" fill="url(#color-20)"/></g><g data-paper-data="{&quot;index&quot;:null}" stroke-linecap="butt"><path d="M360.92936,39.41009l148.60867,85.29437l-1.47829,-0.28931l-152.04897,-55.95571z" data-paper-data="{&quot;index&quot;:null}" fill="url(#color-21)"/><path d="M382.94582,21.53037l125.01119,103.06374l0.99546,1.13052l-148.02311,-86.31454z" data-paper-data="{&quot;index&quot;:null}" fill="url(#color-22)"/></g></g></g></svg>