<svg version="1.1" xmlns="http://www.w3.org/2000/svg" xmlns:xlink="http://www.w3.org/1999/xlink" width="342.37981" height="244.58096" viewBox="0,0,342.37981,244.58096"><defs><radialGradient cx="160.26101" cy="177.51142" r="135.13238" gradientUnits="userSpaceOnUse" id="color-1"><stop offset="0" stop-color="#490093"/><stop offset="1" stop-color="#490093" stop-opacity="0"/></radialGradient><radialGradient cx="271.66128" cy="189.06186" r="71.19831" gradientUnits="userSpaceOnUse" id="color-2"><stop offset="0" stop-color="#1500ff"/><stop offset="1" stop-color="#b90074"/></radialGradient></defs><g transform="translate(-110.54997,-46.35862)"><g data-paper-data="{&quot;isPaintingLayer&quot;:true}" fill-rule="nonzero" stroke-linecap="butt" stroke-linejoin="miter" stroke-miterlimit="10" stroke-dasharray="" stroke-dashoffset="0" style="mix-blend-mode: normal"><path d="M174.1279,74.60678z" fill="#f7fbfa" stroke="none" stroke-width="0"/><path d="M244.85913,290.93413c-74.63015,-0.58501 -134.76127,-48.07667 -134.3066,-106.07558c0.45464,-57.9989 61.3229,-104.54204 135.95305,-103.95703c74.63015,0.58501 134.76127,48.07667 134.3066,106.07558c-0.45464,57.9989 -61.3229,104.54204 -135.95305,103.95703z" fill="url(#color-1)" stroke="none" stroke-width="0"/><path d="M340.14334,208.33937c3.97755,-4.06826 8.81111,-16.97966 8.81111,-16.97966l5.2827,5.53462c0,0 -4.72358,12.37304 -8.42428,16.25927c-4.20064,4.41122 -15.47034,8.8331 -15.47034,8.8331l-4.99187,-6.48494c0,0 10.9043,-3.18537 14.79266,-7.16241z" data-paper-data="{&quot;index&quot;:null}" fill="#ff00ea" stroke="#000000" stroke-width="1"/><path d="M324.37615,158.97427l4.4134,-6.89169c0,0 11.60937,3.43254 16.17514,7.46462c4.0224,3.55225 9.79644,15.4713 9.79644,15.4713l-4.78521,5.97002c0,0 -5.93013,-12.44596 -10.24403,-16.15565c-4.21717,-3.62651 -15.35574,-5.85863 -15.35574,-5.85863z" fill="#ff00ea" stroke="#000000" stroke-width="1"/><path d="M271.10317,260.25798c-38.86857,-0.30469 -70.1279,-32.42727 -69.81968,-71.74781c0.30824,-39.32053 32.0673,-70.9491 70.93588,-70.64442c38.86857,0.30469 70.1279,32.42725 69.81968,71.74779c-0.30824,39.32053 -32.0673,70.94911 -70.93588,70.64444z" fill="url(#color-2)" stroke="#000000" stroke-width="1"/><path d="M332.98468,160.38955c-8.01003,15.1133 -30.20638,19.04248 -49.5769,8.7761c-19.37054,-10.26637 -28.58005,-30.84066 -20.57002,-45.95394c8.01003,-15.1133 30.20638,-19.04248 49.5769,-8.7761c19.37054,10.26637 28.58005,30.84066 20.57002,45.95394z" fill="#490093" stroke="#000000" stroke-width="1"/><path d="M311.93608,260.38418c-19.5291,9.96145 -41.66113,5.68477 -49.43323,-9.55224c-7.77211,-15.23701 1.75882,-35.66436 21.2879,-45.62581c19.5291,-9.96145 41.66113,-5.68477 49.43323,9.55224c7.77211,15.23701 -1.75882,35.66436 -21.2879,45.62581z" data-paper-data="{&quot;index&quot;:null}" fill="#490093" stroke="#000000" stroke-width="1"/><path d="M213.86525,201.70316c-3.3897,-0.02657 -6.08304,-7.00946 -6.01572,-15.5967c0.06731,-8.58724 2.86978,-15.52704 6.25948,-15.50045c3.3897,0.02657 6.08302,7.00945 6.0157,15.59668c-0.06731,8.58724 -2.86976,15.52705 -6.25946,15.50047z" fill="#490093" stroke="none" stroke-width="0"/><path d="M234.9576,173.22461c-3.61568,-0.02835 -6.52667,-2.61604 -6.50187,-5.77975c0.0248,-3.16371 2.976,-5.70543 6.59168,-5.67709c3.61568,0.02835 6.52665,2.61602 6.50185,5.77973c-0.0248,3.16371 -2.97599,5.70545 -6.59167,5.6771z" fill="#490093" stroke="none" stroke-width="0"/><path d="M247.04675,197.05288c-6.32745,-0.0496 -11.4152,-5.40242 -11.36381,-11.95585c0.05137,-6.55341 5.22241,-11.8258 11.54986,-11.77619c6.32745,0.0496 11.41522,5.4024 11.36383,11.95583c-0.05137,6.55341 -5.22243,11.82581 -11.54988,11.77621z" fill="#c300dc" stroke="none" stroke-width="0"/><path d="M218.2649,162.4546c-2.48578,-0.01949 -4.48224,-2.41677 -4.4592,-5.35452c0.02302,-2.93775 2.05683,-5.30346 4.54261,-5.28397c2.48578,0.01949 4.48222,2.41679 4.45919,5.35454c-0.02302,2.93775 -2.05681,5.30344 -4.54259,5.28395z" fill="#490093" stroke="none" stroke-width="0"/><path d="M234.64968,212.50523c-3.61568,-0.02835 -6.52524,-2.79922 -6.49866,-6.18892c0.02657,-3.3897 2.97921,-6.11461 6.59489,-6.08626c3.61568,0.02835 6.52521,2.7992 6.49864,6.18891c-0.02657,3.3897 -2.97919,6.11463 -6.59487,6.08628z" fill="#490093" stroke="none" stroke-width="0"/><path d="M217.38744,222.19067c-2.71176,-0.02126 -4.89142,-2.42 -4.86838,-5.35775c0.02302,-2.93775 2.24002,-5.30201 4.95178,-5.28076c2.71176,0.02126 4.8914,2.42 4.86836,5.35775c-0.02302,2.93775 -2.24001,5.30201 -4.95176,5.28076z" fill="#490093" stroke="none" stroke-width="0"/><path d="M322.82266,126.40322c10.40897,8.48785 12.74528,22.85151 5.21831,32.08209c-7.52697,9.23058 -22.06691,9.83267 -32.47587,1.34481c-10.40897,-8.48785 -12.74528,-22.85149 -5.21831,-32.08207c7.52697,-9.23058 22.06691,-9.83268 32.47587,-1.34483z" fill="#c300dc" stroke="none" stroke-width="0"/><path d="M287.66949,240.97976c-7.38133,-9.34745 -4.82013,-23.67271 5.72061,-31.99634c10.54074,-8.32363 25.06946,-7.49367 32.45079,1.8538c7.38133,9.34745 4.82013,23.67271 -5.72061,31.99634c-10.54074,8.32363 -25.06946,7.49367 -32.45079,-1.8538z" data-paper-data="{&quot;index&quot;:null}" fill="#c300dc" stroke="none" stroke-width="0"/><path d="M235.44836,215.01932l5.7284,0.0449l-0.3464,44.19069l-5.7284,-0.0449z" fill="#5c5a73" stroke="none" stroke-width="0"/><path d="M233.61815,115.78889l5.7284,0.0449l-0.3464,44.19069l-5.7284,-0.0449z" fill="#5c5a73" stroke="none" stroke-width="0"/><path d="M281.83518,145.72372c-3.90379,-0.03061 -7.0343,-4.40677 -6.99222,-9.77446c0.04208,-5.36769 3.24082,-9.69426 7.14461,-9.66365c3.90379,0.03061 7.0343,4.40679 6.99222,9.77447c-0.04208,5.36769 -3.24082,9.69424 -7.14461,9.66365z" fill="#f7fbfa" stroke="none" stroke-width="0"/><path d="M282.23688,250.20217c-3.90377,-0.03061 -7.0343,-4.40677 -6.99222,-9.77447c0.04208,-5.36769 3.24082,-9.69426 7.14461,-9.66365c3.90377,0.03061 7.0343,4.40677 6.99222,9.77447c-0.04208,5.36769 -3.24082,9.69426 -7.14461,9.66365z" fill="#f7fbfa" stroke="none" stroke-width="0"/><path d="M326.85738,199.34538c-2.97431,-0.02332 -5.34292,-5.46731 -5.29047,-12.15948c0.05245,-6.69217 2.50614,-12.09837 5.48044,-12.07504c2.97431,0.02332 5.34292,5.46731 5.29047,12.15948c-0.05245,6.69217 -2.50614,12.09837 -5.48044,12.07504z" fill="#5c5a73" stroke="none" stroke-width="0"/><path d="M452.92978,46.35862z" fill="#f7fbfa" stroke="none" stroke-width="0"/></g></g></svg>