<svg version="1.1" xmlns="http://www.w3.org/2000/svg" xmlns:xlink="http://www.w3.org/1999/xlink" width="395.50937" height="270.8747" viewBox="0,0,395.50937,270.8747"><defs><radialGradient cx="160.40133" cy="189.17258" r="174.21642" gradientUnits="userSpaceOnUse" id="color-1"><stop offset="0" stop-color="#1ff8f8"/><stop offset="1" stop-color="#1ff8f8" stop-opacity="0"/></radialGradient><radialGradient cx="265.22926" cy="184.49751" r="91.78975" gradientUnits="userSpaceOnUse" id="color-2"><stop offset="0" stop-color="#5d5b75"/><stop offset="1" stop-color="#343341"/></radialGradient><radialGradient cx="296.67555" cy="122.29757" r="51.17536" gradientUnits="userSpaceOnUse" id="color-3"><stop offset="0" stop-color="#23f8fa"/><stop offset="1" stop-color="#03a0fd"/></radialGradient><radialGradient cx="301.17677" cy="239.52252" r="51.17536" gradientUnits="userSpaceOnUse" id="color-4"><stop offset="0" stop-color="#23f8fa"/><stop offset="1" stop-color="#03a0fd"/></radialGradient></defs><g transform="translate(-57.42041,-46.3126)"><g data-paper-data="{&quot;isPaintingLayer&quot;:true}" fill-rule="nonzero" stroke-linecap="butt" stroke-linejoin="miter" stroke-miterlimit="10" stroke-dasharray="" stroke-dashoffset="0" style="mix-blend-mode: normal"><path d="M235.80998,317.0771c-96.17063,2.98859 -176.01519,-55.1767 -178.33778,-129.91582c-2.32259,-74.73912 73.75628,-137.74989 169.92694,-140.73848c96.17063,-2.98859 176.01519,55.1767 178.33778,129.91582c2.32259,74.73912 -73.75628,137.74989 -169.92694,140.73848z" fill="url(#color-1)" stroke="none" stroke-width="0"/><path d="M354.41702,205.89756c4.92003,-5.44033 10.49938,-22.31564 10.49938,-22.31564l7.0829,6.86501c0,0 -5.46465,16.17625 -10.03717,21.36821c-5.19025,5.89334 -19.48653,12.15487 -19.48653,12.15487l-6.75589,-8.10382c0,0 13.8876,-4.65029 18.69731,-9.96863z" data-paper-data="{&quot;index&quot;:null}" fill="#74bee6" stroke="#000000" stroke-width="1"/><path d="M331.62979,143.09424l5.33993,-9.09942c0,0 15.12774,3.83978 21.21172,8.80513c5.35992,4.37443 13.39592,19.43949 13.39592,19.43949l-5.86511,7.93074c0,0 -8.26351,-15.73597 -14.00684,-20.29862c-5.61456,-4.46034 -20.07561,-6.77731 -20.07561,-6.77731z" fill="#74bee6" stroke="#000000" stroke-width="1"/><path d="M268.08034,276.24297c-50.08721,1.55651 -91.96739,-38.25753 -93.542,-88.92715c-1.57461,-50.66963 37.75263,-93.00723 87.83984,-94.56374c50.08721,-1.55651 91.96739,38.2575 93.542,88.92712c1.57461,50.66963 -37.75263,93.00726 -87.83984,94.56377z" fill="url(#color-2)" stroke="#000000" stroke-width="1"/><path d="M342.79059,144.48582c-9.56097,19.87113 -37.95812,26.04587 -63.42675,13.79166c-25.46863,-12.25421 -38.36434,-38.29695 -28.80337,-58.16811c9.56097,-19.87113 37.95812,-26.04587 63.42675,-13.79166c25.46863,12.25421 38.36434,38.29695 28.80337,58.16811z" fill="url(#color-3)" stroke="#000000" stroke-width="1"/><path d="M320.68913,274.35805c-24.6586,13.81196 -53.38436,9.41238 -64.16071,-9.82675c-10.77636,-19.23916 0.47742,-46.03236 25.13602,-59.84433c24.6586,-13.81196 53.38436,-9.41238 64.16071,9.82675c10.77636,19.23916 -0.47742,46.03236 -25.13602,59.84433z" data-paper-data="{&quot;index&quot;:null}" fill="url(#color-4)" stroke="#000000" stroke-width="1"/><path d="M191.40814,203.68063c-4.36807,0.13574 -8.18787,-8.72483 -8.53175,-19.79058c-0.34388,-11.06576 2.91838,-20.14641 7.28645,-20.28215c4.36807,-0.13574 8.18784,8.7248 8.53172,19.79058c0.34388,11.06576 -2.91834,20.14641 -7.28642,20.28215z" fill="#00c7ff" stroke="none" stroke-width="0"/><path d="M217.15208,165.93587c-4.65928,0.14479 -8.53907,-3.0428 -8.66577,-7.11966c-0.12669,-4.07686 3.54772,-7.49917 8.20697,-7.64396c4.65928,-0.14479 8.53904,3.04276 8.66573,7.11963c0.12669,4.07686 -3.54769,7.4992 -8.20694,7.64399z" fill="#00c7ff" stroke="none" stroke-width="0"/><path d="M233.92061,196.02612c-8.15373,0.25338 -14.97637,-6.38719 -15.2388,-14.83213c-0.26243,-8.44494 6.13472,-15.4963 14.28844,-15.74969c8.15373,-0.25338 14.9764,6.38716 15.23883,14.8321c0.26243,8.44494 -6.13475,15.49634 -14.28847,15.74972z" fill="#1ff8f8" stroke="none" stroke-width="0"/><path d="M195.10788,152.89856c-3.20324,0.09954 -5.89538,-2.88863 -6.01303,-6.67428c-0.11764,-3.78566 2.38373,-6.93525 5.587,-7.0348c3.20324,-0.09954 5.89535,2.88866 6.01299,6.67432c0.11764,3.78566 -2.38373,6.93522 -5.58697,7.03476z" fill="#00c7ff" stroke="none" stroke-width="0"/><path d="M218.72509,216.55402c-4.65928,0.14479 -8.54641,-3.27886 -8.68215,-7.64693c-0.13574,-4.36807 3.53134,-8.02644 8.19059,-8.17123c4.65928,-0.14479 8.54638,3.27883 8.68212,7.6469c0.13574,4.36807 -3.5313,8.02648 -8.19055,8.17127z" fill="#00c7ff" stroke="none" stroke-width="0"/><path d="M196.97289,229.89678c-3.49445,0.10859 -6.42265,-2.87227 -6.5403,-6.65793c-0.11764,-3.78566 2.61983,-6.94259 6.11427,-7.05118c3.49445,-0.10859 6.42262,2.87228 6.54027,6.65793c0.11764,3.78566 -2.6198,6.94259 -6.11424,7.05118z" fill="#00c7ff" stroke="none" stroke-width="0"/><path d="M327.99531,101.21289c13.83482,10.41243 17.56479,28.79907 8.33112,41.06768c-9.23367,12.26861 -27.93436,13.77334 -41.76918,3.36091c-13.83482,-10.4124 -17.56479,-28.79904 -8.33112,-41.06765c9.23367,-12.26864 27.93435,-13.77338 41.76918,-3.36095z" fill="#1ff8f8" stroke="none" stroke-width="0"/><path d="M288.45499,250.57738c-9.97763,-11.6716 -7.39652,-30.25436 5.76508,-41.5057c13.1616,-11.25137 31.91963,-10.9107 41.89727,0.76093c9.97763,11.6716 7.39652,30.25436 -5.76508,41.5057c-13.1616,11.25137 -31.91963,10.9107 -41.89727,-0.76093z" data-paper-data="{&quot;index&quot;:null}" fill="#1ff8f8" stroke="none" stroke-width="0"/><path d="M219.88005,219.75275l7.3818,-0.2294l1.76963,56.94544l-7.3818,0.2294z" fill="#5c5a73" stroke="none" stroke-width="0"/><path d="M212.54649,92.01221l7.3818,-0.2294l1.76963,56.94544l-7.3818,0.2294z" fill="#5c5a73" stroke="none" stroke-width="0"/><path d="M276.16251,128.15758c-5.03051,0.15633 -9.28281,-5.32425 -9.49776,-12.24121c-0.21495,-6.91696 3.68884,-12.65102 8.71935,-12.80735c5.03051,-0.15633 9.28281,5.32425 9.49776,12.24124c0.21495,6.91696 -3.68884,12.65099 -8.71935,12.80732z" fill="#f7fbfa" stroke="none" stroke-width="0"/><path d="M452.92978,46.35862z" fill="#f7fbfa" stroke="none" stroke-width="0"/><path d="M281.91894,262.73041c-5.03051,0.15633 -9.28281,-5.32425 -9.49776,-12.24121c-0.21495,-6.91696 3.68884,-12.65099 8.71935,-12.80732c5.03051,-0.15633 9.28281,5.32425 9.49776,12.24121c0.21495,6.91696 -3.68884,12.65099 -8.71935,12.80732z" fill="#f7fbfa" stroke="none" stroke-width="0"/><path d="M336.85058,194.97741c-3.83278,0.11911 -7.1571,-6.77528 -7.42509,-15.39902c-0.26799,-8.62374 2.62183,-15.71124 6.45461,-15.83034c3.83278,-0.11911 7.1571,6.77528 7.42509,15.39902c0.26799,8.62374 -2.62183,15.71124 -6.45461,15.83034z" fill="#5c5a73" stroke="none" stroke-width="0"/></g></g></svg>