<svg version="1.1" xmlns="http://www.w3.org/2000/svg" xmlns:xlink="http://www.w3.org/1999/xlink" width="482.00884" height="390.05252" viewBox="0,0,482.00884,390.05252"><defs><radialGradient cx="240.00002" cy="180.00001" r="148.6899" gradientUnits="userSpaceOnUse" id="color-1"><stop offset="0" stop-color="#ab3aa4"/><stop offset="1" stop-color="#ab3aa4" stop-opacity="0"/></radialGradient><linearGradient x1="148.18727" y1="121.79552" x2="257.13604" y2="121.79552" gradientUnits="userSpaceOnUse" id="color-2"><stop offset="0" stop-color="#60213e"/><stop offset="1" stop-color="#401629"/></linearGradient><linearGradient x1="135.98741" y1="222.53071" x2="248.18203" y2="222.53071" gradientUnits="userSpaceOnUse" id="color-3"><stop offset="0" stop-color="#60213e"/><stop offset="1" stop-color="#401629"/></linearGradient><linearGradient x1="154.25874" y1="187.5767" x2="217.91052" y2="187.5767" gradientUnits="userSpaceOnUse" id="color-4"><stop offset="0" stop-color="#60213e"/><stop offset="1" stop-color="#401629"/></linearGradient><radialGradient cx="275.63166" cy="190.96784" r="13.89268" gradientUnits="userSpaceOnUse" id="color-5"><stop offset="0" stop-color="#ffc26d"/><stop offset="1" stop-color="#e0db28"/></radialGradient><radialGradient cx="263.75002" cy="218.50002" r="10.37794" gradientUnits="userSpaceOnUse" id="color-6"><stop offset="0" stop-color="#ffc26d"/><stop offset="1" stop-color="#e0db28"/></radialGradient><radialGradient cx="263.75002" cy="164.5" r="10.5706" gradientUnits="userSpaceOnUse" id="color-7"><stop offset="0" stop-color="#ffc26d"/><stop offset="1" stop-color="#e0db28"/></radialGradient><radialGradient cx="-106.66289" cy="-57.62485" r="3.75375" gradientUnits="userSpaceOnUse" id="color-8"><stop offset="0" stop-color="#89ff66"/><stop offset="1" stop-color="#89ff66" stop-opacity="0"/></radialGradient></defs><g transform="translate(110.41665,61.37861)"><g data-paper-data="{&quot;isPaintingLayer&quot;:true}" fill-rule="nonzero" stroke="none" stroke-linecap="butt" stroke-linejoin="miter" stroke-miterlimit="10" stroke-dasharray="" stroke-dashoffset="0" style="mix-blend-mode: normal"><path d="M235.14188,328.61053c-72.62586,-2.37417 -129.32569,-70.83401 -126.64261,-152.90933c2.68308,-82.07532 63.73303,-146.68587 136.35889,-144.3117c72.62586,2.37417 129.32569,70.83401 126.64261,152.90933c-2.68308,82.07532 -63.73303,146.68587 -136.35889,144.3117z" fill="url(#color-1)" stroke-width="NaN"/><path d="M95.03643,94.21457c2.78543,-6.96358 9.74901,-4.17815 9.74901,-4.17815l1.07285,0.42914c12.90554,5.16238 25.86542,10.14812 38.83388,15.14965c4.86688,1.877 9.90185,3.36844 14.5957,5.64386c4.44032,2.15252 8.47767,5.05257 12.70847,7.59229c2.36619,1.42041 4.80167,2.73722 7.19461,4.11804c-6.25742,-5.9356 -10.7002,-13.40503 -17.10495,-19.3035c-4.0685,-3.74689 -10.20647,-6.39419 -14.9447,-9.23471l-1.49538,-0.72299c0,0 -6.7082,-3.3541 -3.35411,-10.06231c3.3541,-6.70821 10.0623,-3.35411 10.0623,-3.35411l2.50462,1.27701c5.57359,3.34683 12.22189,6.41343 17.0553,10.76529c2.69944,2.4305 5.30794,4.97634 7.70857,7.70238c4.69427,5.3306 6.1714,9.06124 11.22523,13.24087c2.36757,1.95803 5.281,3.24889 7.45549,5.41935c1.94172,1.93812 2.71897,4.86758 4.72525,6.73879c1.63745,1.52721 4.00299,2.01844 5.91443,3.18462c3.12938,1.90925 5.89054,4.36539 8.81193,6.57982c4.48877,3.40249 9.59816,5.59135 14.59918,8.09186c0,0 6.7082,3.3541 3.35411,10.0623c-1.24423,2.48845 -2.95002,3.59224 -4.6037,3.99624c0.8256,1.08472 1.3955,2.58225 1.3955,4.64966c0,7.5 -7.5,7.5 -7.5,7.5c-6.75234,-0.06591 -13.80201,-1.21241 -20.5353,-2.01119c1.7822,1.11172 3.52378,2.32708 5.22052,3.65467c0,0 5.85652,4.68521 1.1713,10.54173c-3.23755,4.04694 -7.0344,3.06018 -9.07165,2.06403c-0.83197,0.9627 -1.62462,1.49113 -1.62462,1.49113c-4.10329,2.71448 -8.4673,5.19792 -13.00997,7.25974c8.10342,0.01174 15.80274,0.95959 23.47802,-1.61524c0,0 7.11513,-2.37171 9.48684,4.74341c2.37171,7.11513 -4.74341,9.48684 -4.74341,9.48684c-9.43564,3.12843 -18.45409,2.38487 -28.37171,2.38487c-13.33334,0 -26.66666,0 -40,0c-10.67337,0 -20.97352,0.28354 -31.58524,0.98853c-1.88777,0.12542 -3.79164,-0.19709 -5.67572,-0.02502c-1.436,0.13115 -2.81469,0.66277 -4.23436,0.90304c-0.12735,0.3271 -0.27433,0.65134 -0.36847,0.94098c-1.22634,3.77273 -3.7096,7.02437 -5.25588,10.67764c-0.78953,1.86536 -1.07379,3.90624 -1.61068,5.85935l-1.94824,8.78247c0,0 -1.62698,7.3214 -8.94839,5.69442c-7.3214,-1.62698 -5.69442,-8.94839 -5.69442,-8.94839l2.05176,-9.21753c0.79645,-2.71355 1.31309,-5.52543 2.38932,-8.14065c0.78804,-1.91492 2.2223,-3.50206 3.16147,-5.34755c3.03141,-5.95682 1.85148,-10.85482 8.84873,-14.59637c1.51644,-0.81087 3.43087,-0.2769 5.1311,-0.53441c6.67741,-1.01132 13.5493,-1.68935 20.32428,-2.02502c0.10912,-0.0054 0.21824,-0.01075 0.32738,-0.01605c1.41632,-1.70475 3.30195,-2.459 3.30195,-2.459l5,-2c5.87012,-2.31288 11.81623,-4.01401 18.16682,-4.51087c6.56762,-0.51384 12.6514,0.40281 19.17685,-0.88567c6.125,-1.20941 12.21379,-3.82378 17.75101,-7.04051c-7.48916,-2.69443 -15.66828,-3.71291 -23.68286,-4.10868c-3.47737,-0.17172 -6.98208,0.327 -10.44477,-0.03547c-3.05648,-0.31995 -5.94266,-1.68836 -9,-2c-6.69254,-0.68219 -13.4544,0.04478 -20.18162,0.04478c-11.25569,0 -14.64165,-1.14918 -23.79864,1.90315l-8.20136,0.09685c0,0 -7.5,0 -7.5,-7.5c0,-7.5 7.5,-7.5 7.5,-7.5l5.79864,0.09685c9.14437,-3.04812 16.06166,-2.09685 26.20136,-2.09685c1.61374,0 21.23384,-0.01263 21.81838,0.04478c3.05847,0.30041 5.9439,1.67643 9,2c2.96712,0.31414 5.96881,-0.13267 8.95151,-0.05809c-0.49939,-0.35416 -1.00732,-0.69375 -1.53433,-0.99986c-5.15175,-2.99236 -10.14252,-5.95066 -15.17853,-9.10694c-1.41234,-0.88517 -3.09406,-1.31558 -4.44234,-2.29557c-2.84489,-2.06777 -3.9792,-4.24428 -6.52869,-6.41841c-4.16233,-3.5495 -8.22777,-7.18917 -12.51288,-10.61177c-0.91112,-0.60459 -1.82224,-1.20918 -2.73336,-1.81377l-1.19385,-0.53217c0,0 -6.70821,-3.3541 -3.35411,-10.06231c0.69227,-1.38455 1.52743,-2.34045 2.417,-2.98566c-6.14942,-2.39691 -12.29059,-4.81529 -18.42137,-7.26752l-1.07285,-0.42914c0,0 -6.96358,-2.78543 -4.17815,-9.74901zM198.3033,149.3033c-1.01593,1.01593 -2.03186,1.64263 -3.01051,1.99193c3.48397,0.46647 7.01008,0.83331 10.58648,1.25648c3.93938,0.46612 7.91678,0.55021 11.85976,0.98478c0.75684,0.08342 1.51039,0.21235 2.26313,0.34909c-2.40308,-1.20314 -4.65769,-2.33449 -4.76662,-2.39876c-5.26777,-3.10864 -9.04921,-6.92449 -14.17853,-10.10694c-0.45552,-0.28263 -0.92353,-0.54785 -1.39805,-0.80388c1.10795,2.01172 2.00213,5.36951 -1.35566,8.72729zM187.6967,149.3033c-3.46857,-3.47541 -7.60228,-7.68059 -11.15529,-10.27247c-3.84544,-2.80521 -8.18037,-4.86909 -12.26252,-7.31707c-3.86096,-2.31534 -7.51523,-5.00993 -11.56675,-6.97284c-4.30507,-2.08576 -8.93815,-3.41254 -13.40466,-5.12552c-0.74869,-0.28714 -1.49731,-0.57438 -2.24583,-0.86177c2.97777,2.49957 5.90796,5.04515 8.85237,7.58046c1.97429,1.69998 3.33261,4.09374 5.47131,5.58159c1.07944,0.75095 2.44166,1.00898 3.55766,1.70443c4.94439,3.08118 9.78119,5.93944 14.82147,8.89306c1.88933,1.10716 3.42059,2.82589 5.42826,3.70033c4.53843,1.97671 9.12466,3.20856 13.77903,4.08327c-0.8031,-0.52152 -1.27504,-0.99347 -1.27504,-0.99347z" fill="#60213e" stroke-width="0.5"/><path d="M114.18099,256.27607c-7.27607,-1.81902 -5.45706,-9.09509 -5.45706,-9.09509l0.97671,-3.90413c1.05239,-4.71394 2.8541,-16.07348 6.91404,-19.36117c2.38044,-1.92765 6.05543,-1.46246 9.10847,-1.21505c3.55678,0.28823 6.44422,3.2491 9.93592,3.98516c4.89557,1.032 12.33951,1.13759 16.96992,0.81351c4.34572,-0.30415 8.76964,-0.44995 12.97017,-1.60466c2.29553,-0.63103 4.01072,-2.58333 6.13978,-3.64857c1.87439,-0.93783 3.84963,-1.67108 5.83498,-2.34285c1.38971,-0.47022 8.54307,-2.17734 10.75164,-3.44147c1.35688,-0.77664 2.40604,-2.01245 3.73146,-2.84165c1.10199,-0.68942 2.25742,-1.29096 3.40694,-1.90157c0.78564,-0.88474 1.88558,-1.63215 3.42551,-1.99079c0.59538,-0.37369 6.40758,-3.803 10.35091,2.112c2.92939,4.39409 0.70204,7.75682 -0.87235,9.362c-0.0796,0.76647 -0.26018,1.49766 -0.65982,2.15234c-3.13158,5.13014 -8.29674,6.59864 -13.09913,9.22045c-6.40524,3.49686 -12.05435,6.91847 -18.81199,9.89324l-3.29708,2.53222c0,0 -6,4.5 -10.5,-1.5c-0.42472,-0.56629 -0.7559,-1.11921 -1.00743,-1.65626c-6.54572,0.78476 -13.70561,0.9529 -19.4527,0.64213c-6.42308,-0.34732 -9.93478,-1.04565 -15.4848,-3.19306c-0.40941,2.5051 -1.20673,4.94772 -1.75571,7.43033l-1.02329,4.09587c0,0 -1.81901,7.27607 -9.09508,5.45705z" fill="#60213e" stroke-width="0.5"/><path d="M180.6459,254.2918l2.98239,-1.40692c4.53854,-1.51285 8.39278,-2.82881 12.51299,-5.31607c1.48705,-0.89769 6.85673,-3.84403 8.1593,-5.4439c2.57228,-3.15939 3.35232,-6.76257 4.5843,-10.49662c2.07826,-6.29907 5.73704,-12.93779 5.61513,-19.62829c0,0 0,-7.5 7.5,-7.5c7.5,0 7.5,7.5 7.5,7.5c-0.09901,8.66245 -3.65443,16.25421 -6.38487,24.37171c-2.08197,6.18962 -2.9289,10.03455 -7.4157,15.50338c-3.39994,4.14409 -8.2195,7.29022 -13.37224,9.79094c1.64661,0.01514 3.29181,-0.01024 4.93379,-0.12954c1.6952,-0.12317 3.30876,-0.83087 5,-1c0.33714,-0.03371 6.36063,0.2544 7.67776,-0.38329c1.0039,-0.48604 1.65925,-1.49716 2.56127,-2.15321c0.80549,-0.58583 1.92478,-0.78453 2.54712,-1.56216c1.91963,-2.39864 1.42972,-7.72831 1.45288,-10.43784c0.02221,-2.59904 -0.74675,-5.17851 -1.61513,-7.62829c0,0 -2.37171,-7.11513 4.74341,-9.48684c7.11513,-2.37171 9.48684,4.74341 9.48684,4.74341c0.76268,2.39012 1.81314,4.70685 2.28803,7.17034c0.32824,1.70274 0.08728,3.4673 0.09685,5.20137c0.03616,6.55617 -0.47494,14.00254 -4.54712,19.56216c-1.38479,1.8906 -3.58764,3.01906 -5.45288,4.43784c-1.76737,1.34434 -3.3974,2.97282 -5.43873,3.84679c-3.80826,1.63047 -8.20019,1.2045 -12.32224,1.61671c-1.69124,0.16913 -3.30452,0.88077 -5,1c-6.45139,0.45369 -13.24097,0.0365 -19.73903,0.0365c-1.06936,0 -7.78471,-1.00422 -8.6967,0.8033l-1,1c0,0 -5.3033,5.3033 -10.6066,0c-5.3033,-5.3033 0,-10.6066 0,-10.6066l1,-1c1.20269,-1.0744 2.16268,-2.50788 3.60806,-3.2232c1.03542,-0.51243 2.11362,-0.90904 3.22249,-1.21418c-1.19303,-5.31168 4.11866,-7.96752 4.11866,-7.96752z" fill="#60213e" stroke-width="0.5"/><path d="M160.77713,145.61073c2.35282,-7.63492 9.98774,-5.28211 9.98774,-5.28211l1.06865,0.32932c3.99447,1.23324 7.87674,2.29181 11.68962,3.50112c0.77943,0.12524 1.55403,0.27261 2.31697,0.47441c0.79633,0.21063 1.50655,0.65676 2.22625,1.06932c2.02505,0.7434 4.03497,1.56809 6.03642,2.52472c2.292,1.0955 4.53224,2.30755 6.69936,3.63306c3.96408,2.42462 4.3669,4.14653 9.30118,5.25901c0.82713,0.18648 1.63762,-0.45076 2.47328,-0.59419c2.66921,-0.45814 5.36549,-0.74625 8.03695,-1.19108c0,0 0.58508,-0.09725 1.4629,-0.07935c-1.12532,-0.54743 -2.22546,-1.13809 -3.26536,-1.8326c-4.18535,-2.79524 -11.0576,-9.71393 -14.89238,-13.27887c-3.48355,-3.23842 -7.185,-6.24963 -10.51352,-9.64719c-5.72545,-5.84419 -5.58238,-8.49924 -12.56124,-12.47123c-2.79864,-1.59283 -7.20896,-2.01302 -10.34012,-2.60125c-1.30861,-0.24583 -2.59487,-0.61119 -3.91126,-0.81122c-1.39222,-0.21155 -2.82081,-0.01506 -4.22844,-0.05472c-1.1902,1.55319 -3.16777,2.84073 -6.45193,2.73337c-7.98497,-0.26103 -7.72394,-8.246 -7.72394,-8.246l4.67195,-7.74702c1.74014,-0.77269 3.26816,-2.04365 5.09362,-2.58482c1.3643,-0.40446 6.17616,-0.14679 7.5705,-0.0955c2.6695,0.0982 5.31185,0.61218 7.93756,1.10364c1.90214,0.35603 3.85133,0.50309 5.71344,1.02981c3.13242,0.88604 6.39301,1.59659 9.22803,3.19653c3.59183,2.02706 6.79607,4.72579 9.80606,7.54538c0.32227,0.30189 0.63216,0.61543 0.9326,0.93789c-0.21504,-1.92068 -0.08207,-3.87888 -0.37588,-5.79024c-0.58446,-3.80216 -3.76697,-7.17655 -5.86781,-10.16941c-2.4318,-3.46436 -4.70577,-7.05324 -7.89408,-9.92784c-3.45004,-3.11057 -8.74844,-4.26494 -13.06583,-5.66119c-2.70359,-0.46816 -5.36406,-1.16721 -8.06906,-1.62719c-1.46599,-0.24929 -2.97359,-0.0583 -4.45983,-0.10689l-1.49868,-0.04899c0,0 -7.98497,-0.26103 -7.72394,-8.246c0.26103,-7.98497 8.246,-7.72394 8.246,-7.72394l1.49868,0.04899c0.45886,0.015 5.59362,0.17005 6.03093,0.23606c3.29946,0.49799 6.53261,1.36945 9.81711,1.95808c6.68991,2.14081 14.0117,4.22076 19.4642,8.90476c4.39408,3.77476 7.58429,8.50844 10.85387,13.18927c2.34017,3.35025 4.73229,6.7251 6.40522,10.45362c0.77313,1.72309 1.51375,3.49189 1.88091,5.34445c0.47486,2.39603 0.27952,4.88314 0.62526,7.30118c0.54363,3.80209 1.5527,7.5241 2.4397,11.26103c1.19268,5.02477 1.19341,6.78463 5.91344,10.38557c2.86199,2.18344 6.18476,3.69939 9.40757,5.30312c4.23149,2.10566 7.74771,3.38274 12.38496,3.46292c0,0 7.98497,0.26103 7.72394,8.246c-0.00302,0.09223 -0.00706,0.18336 -0.01211,0.27341c2.12033,0.97718 4.40477,3.03585 4.26319,7.36697c-0.26103,7.98497 -8.246,7.72394 -8.246,7.72394c-7.29913,-0.41469 -14.04841,-3.11163 -20.51778,-6.36521c0.66238,0.9213 1.17934,2.12138 1.43871,3.68177c0.05594,0.33655 0.09512,0.66112 0.11887,0.97412c0.44206,-0.13668 0.88609,-0.26461 1.33626,-0.36246c0,0 7.80987,-1.6834 9.49327,6.12646c1.6834,7.80987 -6.12646,9.49327 -6.12646,9.49327c-1.99778,0.4262 -3.9258,1.21848 -5.95638,1.44101c-3.54883,0.38892 -7.43593,-0.13987 -11.02384,-0.25716c-2.34225,-0.07657 -5.50837,-0.09466 -7.53188,-0.85469c-1.05022,-0.39446 -1.63019,-1.56143 -2.57281,-2.16974c-0.31329,-0.20218 -0.75493,-0.06052 -1.10041,-0.20076c-0.2266,-0.09198 -3.64734,-1.94677 -3.88513,-2.09866c-4.24323,-2.71044 -8.63335,-5.1608 -12.75071,-8.0773c-1.28494,-0.83255 -2.60959,-1.6068 -3.85482,-2.49764c-0.69438,-0.49676 -2.0948,-1.80657 -3.39873,-2.72064c-1.08059,-0.3998 -2.18042,-0.77844 -3.28754,-1.14065c-1.9406,-0.23279 -4.31435,-0.43234 -6.04104,-1.20257c-0.10056,0.18257 -0.21773,0.34997 -0.40233,0.41407c-0.31151,0.10816 -0.65292,-0.30744 -0.96721,-0.20764c-0.18753,0.05955 0.54553,0.19047 0.4613,0.36829c-0.55378,1.16898 -1.63437,2.04141 -2.16225,3.22231c-0.40232,0.90004 -0.31168,1.9511 -0.57498,2.90115c-0.14155,0.51075 -0.5139,0.94208 -0.63325,1.45846c-0.24173,1.04588 0.03301,2.14748 -0.00206,3.22036l-0.09799,2.99736c0,0 -0.26103,7.98497 -8.246,7.72394c-7.98497,-0.26103 -7.72394,-8.246 -7.72394,-8.246l0.09799,-2.99736c0.03964,-1.2126 0.14059,-4.97115 0.2919,-5.77172c0.19533,-1.0335 0.71984,-1.97829 1.01241,-2.98859c0.43495,-1.50201 0.5481,-3.10795 1.16867,-4.54326c0.64343,-1.48818 1.77457,-2.71628 2.57876,-4.12411c0.75903,-1.32876 1.01401,-3.00768 2.10695,-4.07876c0.08087,-0.07925 0.16358,-0.15611 0.248,-0.23077c0.06545,-0.58338 0.19425,-1.20441 0.39781,-1.86497z" fill="url(#color-2)" stroke-width="0.5"/><path d="M137.92978,218.00227c4.99981,-6.23135 11.23116,-1.23155 11.23116,-1.23155l1.2686,1.02763c0.27499,-3.15533 2.67888,-5.40703 2.67888,-5.40703l2.89797,-2.15275c0.40152,-0.07165 1.92363,-1.26039 2.07469,-1.48585c0.29726,-0.44368 0.15267,-1.08371 0.41968,-1.54623c1.20764,-2.09185 3.23707,-4.82347 5.31766,-6.24662c1.59947,-1.09406 3.25802,-2.18086 5.09344,-2.80258c1.20918,-0.40959 2.54716,-0.20842 3.8238,-0.21798c5.15389,-0.0386 9.39395,2.213 14.21192,3.8136c8.14519,2.70595 16.40593,5.10618 24.38487,8.2689c0.92204,0.36548 1.69609,1.586 2.65685,1.3397c2.63292,-0.67497 4.81522,-2.5248 7.18167,-3.86186c0.09764,-0.05517 -0.278,0.08995 -0.33638,-0.00581c-0.13054,-0.21413 -0.07997,-0.49514 -0.11995,-0.74271c0,0 0.26103,-7.98497 8.246,-7.72394c7.98497,0.26103 7.72394,8.246 7.72394,8.246c-0.08898,1.25111 0.14226,2.56768 -0.26693,3.75332c-1.30308,3.77576 -2.69592,6.5134 -4.5726,8.63014c1.9831,-0.67537 3.9733,-1.32687 5.97866,-1.92615c0,0 7.65775,-2.27743 9.93518,5.38032c2.27743,7.65775 -5.38032,9.93518 -5.38032,9.93518c-6.06206,1.79223 -11.97257,4.12234 -17.98067,6.08595c-2.48523,0.81224 -4.96653,1.6704 -7.52174,2.22447c-1.12036,0.24294 -2.30715,0.1784 -3.39793,0.53115c-3.53829,1.14423 -6.12989,2.95753 -9.7045,3.59532c-3.62691,0.64713 -7.29021,1.20909 -10.97247,1.32818c-2.52868,0.08178 -5.05705,-0.30717 -7.58619,-0.24087c-1.76655,0.04631 -3.50365,0.52062 -5.26988,0.57787c-2.18695,0.07088 -4.37438,-0.12639 -6.56142,-0.19439c-7.62771,-0.23714 -13.52287,0.09413 -20.57095,-4.11672c-2.04319,-1.2207 -3.35669,-3.37515 -5.03503,-5.06272c-2.04059,-2.18831 -4.08117,-4.37662 -6.12175,-6.56493l-2.49472,-1.9759c0,0 -6.23135,-4.99981 -1.23155,-11.23116zM159.43938,226.85096c0.73781,0.89188 1.24726,2.03817 2.21341,2.67564c2.5598,1.68896 3.69498,1.20864 6.25831,1.26119c3.80904,0.07808 7.6153,0.52888 11.42274,0.39352c1.76604,-0.06278 3.50332,-0.53202 5.26988,-0.57787c2.46743,-0.06403 4.93323,0.31532 7.40061,0.24905c2.88897,-0.07758 5.74908,-0.61189 8.60835,-1.03227c3.01583,-0.4434 5.62007,-2.38528 8.52462,-3.31016c0.24207,-0.07708 0.48744,-0.14031 0.73514,-0.19392c-5.78533,-1.67736 -13.63499,-4.88563 -14.72224,-5.25427c-6.63219,-2.24871 -13.34784,-4.25367 -19.93783,-6.62324c-0.56376,-0.20271 -1.12306,-0.43961 -1.71263,-0.54552c-0.16876,0.28606 -0.72027,0.46729 -0.88233,0.79877c-0.46107,0.94307 -0.60651,2.05333 -1.22597,2.90082c-2.07764,2.84239 -4.95402,5.15184 -8.02325,6.80569l0.66352,-0.34548c0,0 -2.15362,2.01727 -5.06914,2.291c0.15894,0.16901 0.31789,0.33803 0.47683,0.50703z" fill="url(#color-3)" stroke-width="0.5"/><path d="M156.594,197.55485c-5.46165,-5.8308 0.36915,-11.29245 0.36915,-11.29245l1.8175,-1.69119c2.00723,-1.5204 3.80405,-3.36846 6.0217,-4.5612c2.24741,-1.20874 4.80885,-1.7096 7.21545,-2.55822c1.54096,-0.54338 3.02823,-1.28154 4.62721,-1.61778c13.04401,-2.74293 25.50734,0.90332 36.91514,7.03052c0,0 7.02524,3.80446 3.22078,10.82969c-3.80446,7.02524 -10.82969,3.22078 -10.82969,3.22078c-5.4179,-2.97009 -11.00651,-5.53238 -17.24212,-5.72088c-2.87756,-0.08699 -5.60059,-0.43538 -8.44435,0.20296c-1.03228,0.23171 -1.9625,0.79411 -2.96417,1.13462c-1.62787,0.55338 -3.39194,0.75957 -4.92097,1.54588c-1.23292,0.63403 -2.14356,1.75883 -3.21534,2.63825l-1.27784,1.20819c0,0 -5.8308,5.46165 -11.29245,-0.36915z" fill="url(#color-4)" stroke-width="0.5"/><path d="M249.72753,233.67314c-8.12918,-0.26575 -19.0526,-12.67577 -25.68156,-16.09364c-15.25795,-7.86693 -22.03142,-12.58055 -21.4771,-29.53739c0.42962,-13.14223 6.78484,-13.0395 17.12188,-20.77979c8.79497,-6.5856 20.57791,-22.07717 32.91631,-21.67382c26.84016,0.87742 47.95382,21.30712 47.15866,45.63103c-0.79516,24.32391 -23.19802,43.33104 -50.03818,42.45362z" fill="#852753" stroke-width="0"/><path d="M247.58407,220.91466c-5.74544,-0.18782 -13.46575,-8.95881 -18.15088,-11.37445c-10.78381,-5.56009 -15.57108,-8.89152 -15.1793,-20.87605c0.30364,-9.28849 4.7953,-9.21589 12.10118,-14.68646c6.21599,-4.65448 14.54379,-15.60342 23.26415,-15.31835c18.96974,0.62013 33.89217,15.05917 33.33018,32.25049c-0.56199,17.19133 -16.39559,30.62494 -35.36533,30.00481z" fill="#60213e" stroke-width="0"/><path d="M276.27395,204.88893c-5.44876,-0.17812 -9.66262,-6.53916 -9.41193,-14.20778c0.25069,-7.66862 4.871,-13.74087 10.31976,-13.56275c5.44876,0.17812 9.66262,6.53916 9.41193,14.20778c-0.25069,7.66862 -4.871,13.74087 -10.31976,13.56275z" fill="url(#color-5)" stroke-width="0"/><path d="M257.18433,228.22068c-3.54944,-2.31963 -3.65095,-8.44762 -0.22674,-13.68727c3.42421,-5.23964 9.07747,-7.60679 12.6269,-5.28716c3.54944,2.31963 3.65095,8.44762 0.22674,13.68727c-3.42421,5.23964 -9.07747,7.60679 -12.62691,5.28716z" fill="url(#color-6)" stroke-width="0"/><path d="M271.13281,160.12796c3.07469,5.4521 2.57317,11.56038 -1.12018,13.64324c-3.69336,2.08286 -9.17995,-0.64845 -12.25464,-6.10055c-3.07469,-5.4521 -2.57317,-11.56038 1.12018,-13.64324c3.69336,-2.08286 9.17995,0.64845 12.25463,6.10055z" data-paper-data="{&quot;index&quot;:null}" fill="url(#color-7)" stroke-width="0"/><path d="M251.39355,171.52008c1.00903,0.03299 1.80027,0.87771 1.76728,1.88674c-0.03299,1.00903 -0.87771,1.80027 -1.88674,1.76728c-1.00903,-0.03299 -1.80027,-0.87771 -1.76728,-1.88674c0.03299,-1.00903 0.87771,-1.80027 1.88674,-1.76728z" fill="#e2d06a" stroke-width="0.5"/><path d="M241.1623,171.18562c1.00903,0.03299 1.80027,0.87771 1.76728,1.88674c-0.03299,1.00903 -0.87771,1.80027 -1.88674,1.76728c-1.00903,-0.03299 -1.80027,-0.87771 -1.76728,-1.88674c0.03299,-1.00903 0.87771,-1.80027 1.88674,-1.76728z" fill="#e2d06a" stroke-width="0.5"/><path d="M235.31588,170.99449c1.00903,0.03299 1.80027,0.87771 1.76728,1.88674c-0.03299,1.00903 -0.87771,1.80027 -1.88674,1.76728c-1.00903,-0.03299 -1.80027,-0.87771 -1.76728,-1.88674c0.03299,-1.00903 0.87771,-1.80027 1.88674,-1.76728z" fill="#e2d06a" stroke-width="0.5"/><path d="M228.66697,172.97189c1.00903,0.03299 1.80027,0.87771 1.76728,1.88674c-0.03299,1.00903 -0.87771,1.80027 -1.88674,1.76728c-1.00903,-0.03299 -1.80027,-0.87771 -1.76728,-1.88674c0.03299,-1.00903 0.87771,-1.80027 1.88674,-1.76728z" fill="#e2d06a" stroke-width="0.5"/><path d="M216.21943,173.29656c1.00903,0.03299 1.80027,0.87771 1.76728,1.88674c-0.03299,1.00903 -0.87771,1.80027 -1.88674,1.76728c-1.00903,-0.03299 -1.80027,-0.87771 -1.76728,-1.88674c0.03299,-1.00903 0.87771,-1.80027 1.88674,-1.76728z" fill="#e2d06a" stroke-width="0.5"/><path d="M252.67813,199.36228c1.00903,0.03299 1.80027,0.87771 1.76728,1.88674c-0.03299,1.00903 -0.87771,1.80027 -1.88674,1.76728c-1.00903,-0.03299 -1.80027,-0.87771 -1.76728,-1.88674c0.03299,-1.00903 0.87771,-1.80027 1.88674,-1.76728z" fill="#e2d06a" stroke-width="0.5"/><path d="M238.10984,197.42287c1.00903,0.03299 1.80027,0.87771 1.76728,1.88674c-0.03299,1.00903 -0.87771,1.80027 -1.88674,1.76728c-1.00903,-0.03299 -1.80027,-0.87771 -1.76728,-1.88674c0.03299,-1.00903 0.87771,-1.80027 1.88674,-1.76728z" fill="#e2d06a" stroke-width="0.5"/><path d="M225.68619,197.01673c1.00903,0.03299 1.80027,0.87771 1.76728,1.88674c-0.03299,1.00903 -0.87771,1.80027 -1.88674,1.76728c-1.00903,-0.03299 -1.80027,-0.87771 -1.76728,-1.88674c0.03299,-1.00903 0.87771,-1.80027 1.88674,-1.76728z" fill="#e2d06a" stroke-width="0.5"/><path d="M219.13285,196.07092c1.00903,0.03299 1.80027,0.87771 1.76728,1.88674c-0.03299,1.00903 -0.87771,1.80027 -1.88674,1.76728c-1.00903,-0.03299 -1.80027,-0.87771 -1.76728,-1.88674c0.03299,-1.00903 0.87771,-1.80027 1.88674,-1.76728z" fill="#e2d06a" stroke-width="0.5"/><path d="M212.6034,194.3943c1.00903,0.03299 1.80027,0.87771 1.76728,1.88674c-0.03299,1.00903 -0.87771,1.80027 -1.88674,1.76728c-1.00903,-0.03299 -1.80027,-0.87771 -1.76728,-1.88674c0.03299,-1.00903 0.87771,-1.80027 1.88674,-1.76728z" fill="#e2d06a" stroke-width="0.5"/><path d="M288.35884,170.89953c0,0 5.50098,0.03293 7.57006,1.25087c2.90528,1.71017 8.22092,8.04435 8.22092,8.04435l0.65913,2.2163c0,0 -4.94246,-3.81949 -7.43219,-3.90088c-3.01276,-0.09849 -9.37629,3.35141 -9.37629,3.35141z" fill="#ffffff" stroke-width="0"/><path d="M286.7443,197.90929c0,0 6.12463,3.85814 9.13739,3.95663c2.48973,0.08139 7.67109,-3.40715 7.67109,-3.40715l-0.80247,2.16852c0,0 -5.71799,5.97349 -8.72876,7.49026c-2.14421,1.08021 -7.6356,0.75379 -7.6356,0.75379z" data-paper-data="{&quot;index&quot;:null}" fill="#ffffff" stroke-width="0"/><path d="M290.52252,183.03942c0,0 3.70719,0.02219 5.10157,0.84298c1.9579,1.1525 5.54018,5.4212 5.54018,5.4212l0.4442,1.49359c0,0 -3.33079,-2.574 -5.00864,-2.62885c-2.03033,-0.06637 -6.31881,2.25855 -6.31881,2.25855z" fill="#ffffff" stroke-width="0"/><path d="M290.22403,192.17037c0,0 4.12747,2.60005 6.15781,2.66643c1.67786,0.05485 5.16964,-2.29613 5.16964,-2.29613l-0.5408,1.46139c0,0 -3.85342,4.02561 -5.88242,5.04779c-1.44501,0.72796 -5.14574,0.50799 -5.14574,0.50799z" data-paper-data="{&quot;index&quot;:null}" fill="#ffffff" stroke-width="0"/><path d="M238.56094,108.53902c0,0 11.49291,2.59451 20.07373,-1.94764c9.74215,-5.15689 16.93688,-17.56875 21.06797,-18.33192c12.99711,-2.40107 29.58785,7.21309 29.58785,7.21309l-31.50108,16.66626c0,0 36.41801,6.1584 32.72628,10.53832c-2.74808,3.26035 -14.81734,12.06312 -27.57246,10.89543c-7.15676,-0.65518 -15.76277,-12.76875 -20.05672,-10.50722c-9.48659,4.99641 -0.45073,27.99621 -0.45073,27.99621l-25.23795,-0.82504c0,0 5.03443,-19.5938 5.28599,-27.28907c0.16057,-4.91177 -3.92288,-14.40841 -3.92288,-14.40841z" fill="#852753" stroke-width="0"/><path d="M243.19077,258.24485c0.25156,-7.69527 -3.49242,-27.57604 -3.49242,-27.57604l25.23795,0.82504c0,0 -10.51871,22.36055 -1.37869,27.96587c4.13707,2.53715 13.51587,-8.98849 20.70014,-9.17486c12.80415,-0.33215 24.27272,9.24008 26.802,12.67296c3.3978,4.61168 -33.34467,8.37843 -33.34467,8.37843l30.34533,18.68804c0,0 -17.18323,8.51007 -29.99577,5.26528c-4.07242,-1.03135 -10.44116,-13.8866 -19.82571,-19.66875c-8.26584,-5.09288 -19.90366,-3.25452 -19.90366,-3.25452c0,0 4.69497,-9.20967 4.85553,-14.12144z" data-paper-data="{&quot;index&quot;:null}" fill="#852753" stroke-width="0"/><path d="M216.4482,122.84718c0.68906,0.02253 1.22939,0.59938 1.20686,1.28844c-0.02253,0.68906 -0.59938,1.22939 -1.28844,1.20686c-0.68906,-0.02253 -1.22939,-0.59938 -1.20686,-1.28844c0.02253,-0.68906 0.59938,-1.22939 1.28844,-1.20686z" fill="#844965" stroke-width="0.5"/><path d="M244.95334,111.94425c0,0 7.57732,1.71057 13.23469,-1.28409c6.42304,-3.39996 11.16657,-11.58315 13.8902,-12.08631c8.56905,-1.58303 19.50739,4.75562 19.50739,4.75562l-20.7688,10.98814c0,0 24.01056,4.06026 21.57658,6.94796c-1.81182,2.14956 -9.76913,7.95327 -18.17864,7.1834c-4.71848,-0.43196 -10.39247,-8.4185 -13.22348,-6.92745c-6.25455,3.29415 -0.29716,18.45802 -0.29716,18.45802l-16.63949,-0.54395c0,0 3.31922,-12.91828 3.48508,-17.9918c0.10586,-3.23835 -2.58638,-9.49953 -2.58638,-9.49953z" fill="#60213e" stroke-width="0"/><path d="M247.22163,261.28216c0.16586,-5.07353 -2.30257,-18.181 -2.30257,-18.181l16.63949,0.54395c0,0 -6.93503,14.74241 -0.90898,18.43802c2.72759,1.67275 8.91107,-5.92615 13.64769,-6.04902c8.44183,-0.21899 16.00311,6.09203 17.67067,8.35533c2.24018,3.0405 -21.98429,5.52393 -21.98429,5.52393l20.00681,12.32111c0,0 -11.32897,5.61073 -19.77634,3.47142c-2.68497,-0.67997 -6.88391,-9.1555 -13.07118,-12.96769c-5.4497,-3.35775 -13.12257,-2.14572 -13.12257,-2.14572c0,0 3.09541,-6.07198 3.20127,-9.31033z" data-paper-data="{&quot;index&quot;:null}" fill="#60213e" stroke-width="0"/><path d="M-102.90914,-57.62485c0,2.07314 -1.68061,3.75375 -3.75375,3.75375c-2.07314,0 -3.75375,-1.68061 -3.75375,-3.75375c0,-2.07314 1.68061,-3.75375 3.75375,-3.75375c2.07314,0 3.75375,1.68061 3.75375,3.75375z" fill="url(#color-8)" stroke-width="0"/></g></g></svg>