<svg version="1.1" xmlns="http://www.w3.org/2000/svg" xmlns:xlink="http://www.w3.org/1999/xlink" width="444.21683" height="348.86894" viewBox="0,0,444.21683,348.86894"><defs><radialGradient cx="186.52882" cy="167.99927" r="149.41843" gradientUnits="userSpaceOnUse" id="color-1"><stop offset="0" stop-color="#180049"/><stop offset="1" stop-color="#180049" stop-opacity="0"/></radialGradient><radialGradient cx="370.62316" cy="27.68413" r="101.9354" gradientUnits="userSpaceOnUse" id="color-2"><stop offset="0" stop-color="#621fa5"/><stop offset="1" stop-color="#000000"/></radialGradient><radialGradient cx="274.42378" cy="274.66072" r="21.76509" gradientUnits="userSpaceOnUse" id="color-3"><stop offset="0" stop-color="#4d1882"/><stop offset="1" stop-color="#000000"/></radialGradient><radialGradient cx="274.42378" cy="274.66072" r="21.76509" gradientUnits="userSpaceOnUse" id="color-4"><stop offset="0" stop-color="#4d1882"/><stop offset="1" stop-color="#000000"/></radialGradient><radialGradient cx="281.16285" cy="241.10372" r="21.76509" gradientUnits="userSpaceOnUse" id="color-5"><stop offset="0" stop-color="#4d1882"/><stop offset="1" stop-color="#000000"/></radialGradient><radialGradient cx="281.16285" cy="241.10372" r="21.76509" gradientUnits="userSpaceOnUse" id="color-6"><stop offset="0" stop-color="#4d1882"/><stop offset="1" stop-color="#000000"/></radialGradient><radialGradient cx="281.50939" cy="200.64162" r="21.76508" gradientUnits="userSpaceOnUse" id="color-7"><stop offset="0" stop-color="#4d1882"/><stop offset="1" stop-color="#000000"/></radialGradient><radialGradient cx="284.8445" cy="158.99817" r="21.76509" gradientUnits="userSpaceOnUse" id="color-8"><stop offset="0" stop-color="#4d1882"/><stop offset="1" stop-color="#000000"/></radialGradient><radialGradient cx="286.31494" cy="146.94844" r="21.76509" gradientUnits="userSpaceOnUse" id="color-9"><stop offset="0" stop-color="#4d1882"/><stop offset="1" stop-color="#000000"/></radialGradient><radialGradient cx="286.80328" cy="120.08588" r="21.76509" gradientUnits="userSpaceOnUse" id="color-10"><stop offset="0" stop-color="#4d1882"/><stop offset="1" stop-color="#000000"/></radialGradient><radialGradient cx="292.22679" cy="76.97991" r="21.76509" gradientUnits="userSpaceOnUse" id="color-11"><stop offset="0" stop-color="#4d1882"/><stop offset="1" stop-color="#000000"/></radialGradient><radialGradient cx="129.20956" cy="167.7688" r="57.2582" gradientUnits="userSpaceOnUse" id="color-12"><stop offset="0" stop-color="#9966ff"/><stop offset="1" stop-color="#000000"/></radialGradient><linearGradient x1="145.35339" y1="184.22572" x2="174.08982" y2="184.22572" gradientUnits="userSpaceOnUse" id="color-13"><stop offset="0" stop-color="#bf0da6"/><stop offset="1" stop-color="#000000"/></linearGradient><linearGradient x1="139.56107" y1="139.38513" x2="168.86221" y2="139.38513" gradientUnits="userSpaceOnUse" id="color-14"><stop offset="0" stop-color="#bf0da6"/><stop offset="1" stop-color="#000000"/></linearGradient><radialGradient cx="290.13025" cy="100.98683" r="8.11444" gradientUnits="userSpaceOnUse" id="color-15"><stop offset="0" stop-color="#621fa5"/><stop offset="1" stop-color="#000000"/></radialGradient><radialGradient cx="274.42258" cy="94.77471" r="10.20837" gradientUnits="userSpaceOnUse" id="color-16"><stop offset="0" stop-color="#621fa5"/><stop offset="1" stop-color="#000000"/></radialGradient><radialGradient cx="245.59496" cy="84.96716" r="28.56951" gradientUnits="userSpaceOnUse" id="color-17"><stop offset="0" stop-color="#9966ff"/><stop offset="1" stop-color="#000000"/></radialGradient><radialGradient cx="202.34782" cy="86.70601" r="24.0949" gradientUnits="userSpaceOnUse" id="color-18"><stop offset="0" stop-color="#9966ff"/><stop offset="1" stop-color="#000000"/></radialGradient><radialGradient cx="263.36081" cy="259.07629" r="10.33027" gradientUnits="userSpaceOnUse" id="color-19"><stop offset="0" stop-color="#9966ff"/><stop offset="1" stop-color="#000000"/></radialGradient><radialGradient cx="267.19986" cy="268.11293" r="23.37196" gradientUnits="userSpaceOnUse" id="color-20"><stop offset="0" stop-color="#4d1882"/><stop offset="1" stop-color="#000000"/></radialGradient><radialGradient cx="279.18769" cy="245.59088" r="23.37196" gradientUnits="userSpaceOnUse" id="color-21"><stop offset="0" stop-color="#4d1882"/><stop offset="1" stop-color="#000000"/></radialGradient><radialGradient cx="284.22616" cy="145.61009" r="23.37196" gradientUnits="userSpaceOnUse" id="color-22"><stop offset="0" stop-color="#4d1882"/><stop offset="1" stop-color="#000000"/></radialGradient><radialGradient cx="110.97404" cy="166.50043" r="160.96838" gradientUnits="userSpaceOnUse" id="color-23"><stop offset="0" stop-color="#621fa5"/><stop offset="1" stop-color="#000000"/></radialGradient><radialGradient cx="77.48024" cy="170.11925" r="52.44377" gradientUnits="userSpaceOnUse" id="color-24"><stop offset="0" stop-color="#621fa5"/><stop offset="1" stop-color="#000000"/></radialGradient><radialGradient cx="294.99122" cy="44.17848" r="21.76509" gradientUnits="userSpaceOnUse" id="color-25"><stop offset="0" stop-color="#4d1882"/><stop offset="1" stop-color="#000000"/></radialGradient><radialGradient cx="207.8847" cy="226.35518" r="24.09487" gradientUnits="userSpaceOnUse" id="color-26"><stop offset="0" stop-color="#9966ff"/><stop offset="1" stop-color="#000000"/></radialGradient><radialGradient cx="240.10238" cy="250.15205" r="24.09487" gradientUnits="userSpaceOnUse" id="color-27"><stop offset="0" stop-color="#9966ff"/><stop offset="1" stop-color="#000000"/></radialGradient><radialGradient cx="272.01529" cy="304.93426" r="21.76509" gradientUnits="userSpaceOnUse" id="color-28"><stop offset="0" stop-color="#4d1882"/><stop offset="1" stop-color="#000000"/></radialGradient></defs><g transform="translate(-26.29629,-5.69617)"><g data-paper-data="{&quot;isPaintingLayer&quot;:true}" fill-rule="nonzero" stroke-linejoin="miter" stroke-miterlimit="10" stroke-dasharray="" stroke-dashoffset="0" style="mix-blend-mode: normal"><path d="M101.22902,321.28717l-0.54044,0.02501l-0.02501,-0.54044l0.54044,-0.02501z" fill="#000000" stroke="#000000" stroke-width="0.5" stroke-linecap="butt"/><path d="M76.17689,354.27377l-0.6495,0.03006l-0.03005,-0.6495l0.6495,-0.03005z" fill="#000000" stroke="#000000" stroke-width="0.5" stroke-linecap="butt"/><path d="M179.62107,18.74061c68.22154,-3.15733 126.61874,61.10855 130.43377,143.54183c3.81505,82.43328 -48.39673,151.8182 -116.61826,154.97551c-68.22153,3.15732 -126.61874,-61.10855 -130.43378,-143.54183c-3.81505,-82.43328 48.39673,-151.81819 116.61826,-154.9755z" fill="url(#color-1)" stroke="none" stroke-width="NaN" stroke-linecap="butt"/><g data-paper-data="{&quot;index&quot;:null}" fill="#ffffff" stroke="#000000" stroke-width="4.5" stroke-linecap="butt"><path d="M293.08061,114.44825l-0.97877,2.5052l-12.52603,-4.89385l0.97878,-2.50521z"/><path d="M284.27892,112.89078l-3.02351,1.11951l-6.70291,-9.39539l3.02351,-1.11951z"/></g><g fill="#ffffff" stroke="#000000" stroke-width="4.5" stroke-linecap="butt"><path d="M279.05514,256.4499l1.99145,-1.80781l9.03903,9.95724l-1.99145,1.8078z"/><path d="M272.33232,255.8279l-0.03232,-3.22394l11.16802,2.91169l0.03231,3.22394z"/></g><path d="M299.73614,18.78494c7.93508,-1.7123 16.43934,-2.85112 25.42739,-3.33833c63.53634,-3.44406 127.18725,26.97747 142.16825,67.9484c5.6737,15.51676 3.5528,30.3213 -4.72386,42.91459l-4.17142,8.13338c-0.03845,-3.99971 -0.13968,-8.00441 -0.16093,-11.98966c0.69604,-1.37674 1.19663,-2.62978 1.32995,-3.59202c0.24357,-1.75805 -1.15349,-3.56575 -1.73022,-5.34863c0,0 -0.34351,-0.80408 -1.25208,-1.89782c-1.03975,-13.55037 -10.47742,-27.75075 -28.4573,-40.00973c-33.12604,-22.58585 -84.80329,-31.46041 -125.59158,-23.37263z" fill="url(#color-2)" stroke="none" stroke-width="0" stroke-linecap="butt"/><path d="M284.2683,264.83103l0.18196,0.04062c-0.15146,1.77748 0.16087,3.15197 0.16087,3.15197l0.44915,1.97666c0.22398,1.0979 0.64591,2.12206 1.22722,3.02422c0.50366,0.85104 1.19546,1.74573 2.12543,2.45334l-0.76502,3.39085l1.12683,0.60784l-1.94548,6.72305l-1.7867,-0.34578l-0.50472,-0.08435c-0.02379,0.03781 -0.0477,0.07547 -0.07175,0.11298l0.15696,0.08393l-0.21454,0.0052c-3.35723,5.15829 -9.26951,7.51475 -14.84321,5.36673c-4.04243,-1.55788 -7.02612,-5.1458 -8.39251,-9.47347l-0.31589,-0.0528l-2.17578,0.05275l-0.22593,-7.07996l1.17621,-0.41963l0.87342,-0.29983c0.02275,-0.16994 0.04799,-0.3399 0.07572,-0.50981l-0.09604,0.46684l-0.29863,-3.68122c0.61485,0.21626 1.26482,0.35693 1.94116,0.41109c2.74987,0.22022 5.29704,-1.04085 6.94422,-3.15049c2.21681,-1.3966 3.79113,-3.87545 4.02566,-6.80377c0.04972,-0.62082 0.03678,-1.23129 -0.03325,-1.82438c0.63095,-1.1129 1.03791,-2.39125 1.14827,-3.76909c0.17515,-2.18703 -0.4274,-4.24549 -1.56281,-5.86887c-0.00112,-0.47358 -0.03849,-0.93915 -0.1095,-1.39351l10.94072,2.27663l1.32387,1.89959c-0.00042,0.00915 -0.00081,0.01831 -0.0012,0.02746c-0.01378,0.1167 -0.02544,0.23417 -0.0349,0.35237c-0.04843,0.60468 -0.0374,1.19955 0.02791,1.77811c-0.15656,0.56078 -0.26211,1.1463 -0.31053,1.751c-0.08197,1.02355 0.0064,2.01892 0.24,2.95473l-0.57599,5.77871zM284.12616,285.70064l0.27176,0.14532l0.07455,-0.08744z" fill="url(#color-3)" stroke="#000000" stroke-width="4.5" stroke-linecap="butt"/><path d="M260.48453,274.02239l0.00303,0.03738l-0.01157,0.00413z" fill="url(#color-4)" stroke="#000000" stroke-width="4.5" stroke-linecap="butt"/><path d="M291.00739,231.27402l0.78978,0.17634l0.18447,0.04119l2.70864,0.60474l1.02372,2.86261l0.31714,2.04461c-2.76546,1.12427 -4.85911,3.80339 -5.24761,7.09971c-3.19668,0.96943 -5.66069,3.96599 -5.95886,7.68917c-0.00947,0.11821 -0.01667,0.23603 -0.02162,0.35344c-0.01378,0.1167 -0.02544,0.23418 -0.0349,0.35238c-0.04843,0.60468 -0.03741,1.19954 0.02791,1.7781c-0.15656,0.56078 -0.2621,1.1463 -0.31052,1.751c-0.04972,0.62094 -0.03677,1.23152 0.03328,1.82472c-2.58435,0.95166 -5.44125,0.99799 -8.21436,-0.07072c-0.81519,-0.31415 -1.58731,-0.71086 -2.31181,-1.17955c0.10689,-0.4519 0.18103,-0.91856 0.21937,-1.39722c0.17515,-2.18703 -0.4274,-4.24548 -1.56281,-5.86887c-0.00981,-4.14208 -2.79266,-7.67394 -6.60367,-8.41148l0.32505,-0.11596l0.87342,-0.29982c0.02275,-0.16994 0.048,-0.3399 0.07572,-0.50983l-0.09604,0.46685l-0.38161,-4.70422l-0.23255,-1.73501l2.1063,-4.53578l1.67153,-1.41256l1.80041,0.29925l0.86339,0.14349l0.77699,0.12914l0.69349,-6.99987l-0.9998,-3.53895l4.71026,-3.94359l11.98739,2.49443l3.59288,5.15531l-2.19755,2.10109l-0.72619,7.28559z" fill="url(#color-5)" stroke="#000000" stroke-width="4.5" stroke-linecap="butt"/><path d="M267.22362,240.46539l0.00304,0.03739l-0.01156,0.00414z" fill="url(#color-6)" stroke="#000000" stroke-width="4.5" stroke-linecap="butt"/><path d="M291.3539,190.81192l0.78979,0.17633l0.18447,0.04119l2.70864,0.60474l1.02373,2.86262l0.61072,3.93746l-1.03863,2.43036l-0.89907,3.98498l1.12682,0.60784l-1.94548,6.72305l-1.78668,-0.34579l-0.91644,-0.15314l0.49692,0.26571l-0.33473,0.00811l0.44052,-0.51665c-3.29143,5.51347 -9.40799,8.09856 -15.16354,5.88047c-4.06495,-1.56656 -7.05935,-5.18583 -8.4152,-9.54589l0.38485,0.13294l-0.67805,-0.1133l-2.17577,0.05274l-0.22593,-7.07996l1.17621,-0.41963l0.87342,-0.29983c0.08749,-0.65325 0.21148,-1.30671 0.37344,-1.95706l-0.40231,1.95557l0.01157,-0.00413l-0.38465,-4.7416l-0.23254,-1.73501l2.1063,-4.53578l1.67153,-1.41256l1.80041,0.29925l0.86339,0.14349l0.77699,0.12914l0.69349,-6.99985l-0.9998,-3.53897l4.71025,-3.94359l11.98739,2.49443l3.59288,5.15531l-2.19755,2.10108l-0.72618,7.28559" fill="url(#color-7)" stroke="#000000" stroke-width="4.5" stroke-linecap="butt"/><path d="M294.68902,149.16846l0.78979,0.17633l0.18446,0.04118l0.44329,0.09898c0.78323,0.97084 1.77009,1.7555 2.89854,2.27634l0.39053,1.09202l0.61072,3.93747l-1.03864,2.43036l-0.89907,3.98498l1.12683,0.60784l-1.94548,6.72305l-1.78669,-0.34579l-0.50472,-0.08434c-0.02379,0.03781 -0.0477,0.07545 -0.07175,0.11298l0.15696,0.08393l-0.21451,0.00518c-3.35723,5.15829 -9.26952,7.51475 -14.84322,5.36674c-4.04243,-1.55788 -7.02612,-5.1458 -8.3925,-9.47347l-0.31589,-0.0528l-2.17578,0.05275l-0.22593,-7.07997l1.17621,-0.41963l0.87342,-0.29982c0.02275,-0.16994 0.04799,-0.3399 0.07572,-0.50983l-0.09604,0.46685l-0.38161,-4.70423l-0.23255,-1.73499l2.1063,-4.53577l1.67153,-1.41256l1.80042,0.29924l0.8634,0.14349l0.77699,0.12915l0.09854,-0.99468c8.0092,0.55839 8.69502,-8.0048 8.69502,-8.0048c0.05856,-1.17028 0.11711,-2.34056 0.17566,-3.51084l-0.20955,-1.06572l7.28316,1.51552l-0.00715,0.08929c0,0 -0.25115,3.13595 1.32256,5.7727c-0.36142,0.86606 -0.59561,1.80877 -0.67527,2.80332c-0.11342,1.41611 0.09924,2.7783 0.57149,4.0034l-0.19396,1.94578zM294.54687,170.0381l0.27176,0.1453l0.07455,-0.08743z" fill="url(#color-8)" stroke="#000000" stroke-width="4.5" stroke-linecap="butt"/><path d="M272.40614,148.06916l0.00772,0.03671l-0.01096,0.00556z" fill="url(#color-9)" stroke="#000000" stroke-width="4.5" stroke-linecap="butt"/><path d="M295.37114,120.8697c-0.38211,1.9066 -1.43982,3.62484 -1.77783,5.54041c-0.26476,1.50047 -0.36004,3.03947 -0.32111,4.56241c0.02485,0.97248 0.54386,1.9463 0.32972,2.89463l-0.05652,0.70581c0,0 -0.01114,0.13905 -0.01402,0.38321c-2.12185,1.63943 -4.6303,2.56397 -7.22902,2.59925c0.00065,-0.00711 0.00093,-0.01072 0.00093,-0.01072c0.05856,-1.17028 0.11711,-2.34057 0.17566,-3.51084l-0.69699,-3.54475c0,0 -0.06608,-0.29078 -0.22461,-0.7506c1.38254,-1.42255 2.30737,-3.36123 2.48277,-5.55134c0.2108,-2.63209 -0.70485,-5.07794 -2.32015,-6.80334c0.17682,-0.59945 0.29511,-1.22805 0.34723,-1.87885c0.22634,-2.82616 -0.846,-5.43759 -2.68867,-7.17301c-0.64173,-1.44506 -1.7405,-2.86082 -3.61367,-3.69147l0.39713,-4.00848l-0.9998,-3.53896l4.71026,-3.9436l11.98739,2.49444l2.93759,4.21503c-0.55959,0.91737 -0.91403,1.86681 -1.13649,2.65344l-0.40573,0.38793l-0.37107,3.72277c-1.61885,1.44838 -2.71902,3.55364 -2.912,5.96327c-0.09928,1.23962 0.05129,2.43793 0.40713,3.53913c-0.01424,1.57167 0.37092,3.05858 1.0609,4.34232c-0.01949,0.13449 -0.04229,0.2685 -0.06903,0.40193z" fill="url(#color-10)" stroke="#000000" stroke-width="4.5" stroke-linecap="butt"/><path d="M302.11215,67.19126l0.78904,0.17962l0.18429,0.04195l2.7061,0.61601l1.0118,2.86684l0.59432,3.93997l-1.04873,2.42602l-0.91565,3.98119l1.12429,0.61253l-1.52965,5.20479c-1.17359,0.14741 -2.14702,0.52198 -2.95403,1.03263l-0.19081,-0.03271l0.1312,0.07085c-1.44432,0.9354 -2.34731,2.30833 -2.90843,3.58053c-3.33948,2.6659 -7.67185,3.53898 -11.80693,1.92561c-4.03591,-1.57469 -7.00463,-5.17499 -8.353,-9.50831l-0.31567,-0.05411l-2.17597,0.04368l-0.19647,-7.08084l1.17795,-0.41472l0.87466,-0.29619c0.02346,-0.16985 0.04941,-0.33971 0.07784,-0.50952l-0.09799,0.46645l-0.36202,-4.70577l-0.22533,-1.73595l2.12516,-4.52697l1.67739,-1.4056l1.79914,0.30674l0.86279,0.1471l0.77644,0.13237l0.72263,-6.99691l-0.98506,-3.54309l4.72663,-3.92396l11.97691,2.54431l3.57139,5.17023l-2.20627,2.09192l-0.75651,7.28251z" fill="url(#color-11)" stroke="#000000" stroke-width="4.5" stroke-linecap="butt"/><path d="M182.62609,188.15785l0.12074,2.6069l0.02821,0.60886l0.41407,8.94063l-6.56795,5.15617l-9.61052,4.58035l-6.95523,-1.63215l-10.82312,-0.14364l-0.73726,3.95977l-18.56951,-1.59273l-0.40878,-5.86163l-0.27145,-2.9902l-0.31913,1.74463l-0.26269,-1.049l1.63738,1.03914c-16.45448,-6.64869 -27.47523,-24.17266 -25.97301,-43.79991c1.06097,-13.86212 8.13615,-25.73667 18.28684,-32.94938l-0.0612,1.302l-0.20085,-2.21237l-1.70738,-6.81842l17.91112,-5.48836l1.92145,3.42212l1.39676,2.5491c1.7309,-0.16516 3.48875,-0.2154 5.26609,-0.14393l-5.2832,0.052l0.0189,0.03368l11.82681,-4.41073l4.2612,-1.9031l13.10189,3.575l4.81436,4.31253l0.53746,5.87347l0.25775,2.81664l0.23194,2.53475l18.37122,-2.53798l8.31192,-5.53715l13.47236,12.1774l2.2969,39.44493l-10.5639,14.79622l-6.95234,-5.50505l-19.12427,2.62779" fill="url(#color-12)" stroke="#000000" stroke-width="4.5" stroke-linecap="butt"/><path d="M171.78346,193.26595l-12.81588,5.36594l-13.61419,-5.84346l18.56095,-20.70041l-0.51231,-2.26846l8.38144,4.75702l2.30635,16.84835z" fill="url(#color-13)" stroke="#000000" stroke-width="4.5" stroke-linecap="round"/><path d="M168.07537,130.15218l0.78684,16.79391l-7.37664,6.20184l0.09126,-2.3238l-22.01576,-16.98009l12.3246,-8.2217l13.35292,2.89716z" data-paper-data="{&quot;index&quot;:null}" fill="url(#color-14)" stroke="#000000" stroke-width="4.5" stroke-linecap="round"/><path d="M164.88077,161.70165l9.53054,-8.01608l-4.35083,7.55512l5.10314,5.02057z" fill="#000000" stroke="#000000" stroke-width="4.5" stroke-linecap="round"/><path d="M191.92906,167.94455l3.65038,-13.28709l-5.37151,-11.59627l10.13739,8.87301z" data-paper-data="{&quot;index&quot;:null}" fill="#000000" stroke="#000000" stroke-width="4.5" stroke-linecap="round"/><path d="M293.42145,106.67162l-0.97876,2.5052l-12.52603,-4.89386l0.97877,-2.5052z" data-paper-data="{&quot;index&quot;:null}" fill="#ffffff" stroke="#000000" stroke-width="4.5" stroke-linecap="butt"/><path d="M296.5197,92.10712l-0.82991,2.12418l-10.62093,-4.14954l0.82991,-2.12418z" data-paper-data="{&quot;index&quot;:null}" fill="#ffffff" stroke="#000000" stroke-width="4.5" stroke-linecap="butt"/><path d="M298.65121,102.43636l-1.18718,3.03863l-15.19314,-5.9359l1.18719,-3.03864z" data-paper-data="{&quot;index&quot;:null}" fill="#ffffff" stroke="url(#color-15)" stroke-width="4.5" stroke-linecap="butt"/><path d="M298.1044,96.99868l-0.97876,2.50519l-12.52603,-4.89385l0.97877,-2.50521z" data-paper-data="{&quot;index&quot;:null}" fill="#ffffff" stroke="#000000" stroke-width="4.5" stroke-linecap="butt"/><path d="M279.89803,102.97405l-11.01309,-3.52137l5.32502,-16.65397l11.01309,3.52139z" data-paper-data="{&quot;index&quot;:null}" fill="url(#color-16)" stroke="#000000" stroke-width="4.5" stroke-linecap="butt"/><path d="M270.59573,86.7803l-3.32411,11.40027l-54.07823,-15.76817l3.32411,-11.40027z" data-paper-data="{&quot;index&quot;:null}" fill="url(#color-17)" stroke="#000000" stroke-width="7" stroke-linecap="butt"/><path d="M213.88694,67.53032l8.77266,7.97151l-37.81365,41.61386l-8.77266,-7.97153z" data-paper-data="{&quot;index&quot;:null}" fill="url(#color-18)" stroke="#000000" stroke-width="4.5" stroke-linecap="butt"/><path d="M297.29383,156.85862l-0.51062,-0.04876l0.04875,-0.51062l0.51062,0.04876z" fill="#a2a9a9" stroke="none" stroke-width="0" stroke-linecap="butt"/><path d="M272.15248,260.27306l1.99146,-1.80781l9.03903,9.95724l-1.99145,1.80781z" fill="#ffffff" stroke="#000000" stroke-width="4.5" stroke-linecap="butt"/><path d="M261.02518,269.87591l1.68857,-1.53286l7.66429,8.44285l-1.68858,1.53285z" fill="#ffffff" stroke="#000000" stroke-width="4.5" stroke-linecap="butt"/><path d="M268.13602,264.54918l2.41548,-2.19274l10.96368,12.07739l-2.41548,2.19273z" fill="#ffffff" stroke="#000000" stroke-width="4.5" stroke-linecap="butt"/><path d="M264.7855,268.09762l1.99146,-1.8078l9.03903,9.95724l-1.99145,1.8078z" fill="#ffffff" stroke="#000000" stroke-width="4.5" stroke-linecap="butt"/><path d="M262.04086,269.52886l-8.29657,-8.0533l12.17817,-12.54602l8.29657,8.05329z" fill="url(#color-19)" stroke="#000000" stroke-width="4.5" stroke-linecap="butt"/><path d="M251.29346,269.36131l0.0087,0.03939l-0.01254,0.006z" fill="url(#color-20)" stroke="#000000" stroke-width="4.5" stroke-linecap="butt"/><path d="M263.25062,244.82784l0.00368,0.04017l-0.01319,0.00437z" fill="url(#color-21)" stroke="#000000" stroke-width="4.5" stroke-linecap="butt"/><path d="M268.31977,146.85848l0.0087,0.03939l-0.01255,0.00599z" fill="url(#color-22)" stroke="#000000" stroke-width="4.5" stroke-linecap="butt"/><path d="M103.53232,5.70415c18.9083,-0.87509 37.56832,70.40647 41.67826,159.2118c4.10994,88.80533 -7.8865,161.50566 -26.79482,162.38074c-18.9083,0.87509 -37.5683,-70.40646 -41.67824,-159.21179c-4.10995,-88.80533 7.88648,-161.50567 26.7948,-162.38076z" fill="url(#color-23)" stroke="none" stroke-width="0" stroke-linecap="butt"/><path d="M123.11111,220.50733l-91.04308,-14.18851c0,0 -5.04569,-23.41116 -5.6673,-34.92437c-0.64095,-11.87095 1.87786,-35.26095 1.87786,-35.26095l89.98347,-20.40155c0,0 10.16662,36.42001 10.99761,54.3753c0.78245,16.90669 -6.14855,50.40008 -6.14855,50.40008z" fill="url(#color-24)" stroke="none" stroke-width="0" stroke-linecap="butt"/><path d="M98.62814,215.41935l-21.57808,-3.89977c0,0 3.96448,-29.80177 3.28952,-44.38569c-0.67672,-14.62218 -6.37358,-41.49663 -6.37358,-41.49663l22.09664,-4.13982c0,0 5.84489,29.82099 6.33097,45.08317c0.49642,15.58706 -3.76547,48.83874 -3.76547,48.83874z" fill="#000000" stroke="none" stroke-width="NaN" stroke-linecap="butt"/><path d="M304.87658,34.38985l0.78905,0.17962l0.18428,0.04195l2.70611,0.61601l1.0118,2.86685l0.59433,3.93998l-1.04874,2.42601l-0.91566,3.98121l1.12429,0.61252l-1.52965,5.20479c-1.17359,0.14741 -2.14702,0.52198 -2.95403,1.03262l-0.19081,-0.03271l0.1312,0.07085c-1.44432,0.9354 -2.34731,2.30832 -2.90843,3.58052c-3.33948,2.6659 -7.67185,3.53897 -11.80693,1.9256c-4.03591,-1.57469 -7.00464,-5.17499 -8.35299,-9.50831l-0.31567,-0.05411l-2.17598,0.04369l-0.19646,-7.08084l1.17795,-0.41473l0.87465,-0.29619c0.02346,-0.16985 0.04941,-0.33971 0.07783,-0.50952l-0.09799,0.46645l-0.36202,-4.70577l-0.22533,-1.73595l2.12516,-4.52698l1.67738,-1.40559l1.79915,0.30673l0.86279,0.1471l0.77645,0.13237l0.72262,-6.9969l-0.98506,-3.54309l4.72663,-3.92396l11.97691,2.5443l3.5714,5.17023l-2.20627,2.09191l-0.7565,7.28251z" fill="url(#color-25)" stroke="#000000" stroke-width="4.5" stroke-linecap="butt"/><path d="M222.4914,243.31108l-10.31466,5.84059l-27.70535,-48.9285l10.31466,-5.84059z" data-paper-data="{&quot;index&quot;:null}" fill="url(#color-26)" stroke="#000000" stroke-width="4.5" stroke-linecap="butt"/><path d="M262.29646,253.02984l-3.78293,11.23361l-53.28764,-17.9447l3.78293,-11.23361z" data-paper-data="{&quot;index&quot;:null}" fill="url(#color-27)" stroke="#000000" stroke-width="4.5" stroke-linecap="butt"/><path d="M281.85981,295.10455l0.78978,0.17634l0.18447,0.04119l2.70864,0.60474l1.02373,2.86261l0.61072,3.93747l-1.03863,2.43036l-0.89907,3.98498l1.12681,0.60785l-1.94548,6.72304l-1.78668,-0.34579l-0.91644,-0.15314l0.49692,0.26571l-0.33473,0.00811l0.44052,-0.51665c-3.29143,5.51347 -9.40798,8.09856 -15.16353,5.88047c-4.06495,-1.56656 -7.05935,-5.18583 -8.4152,-9.54589l0.38484,0.13294l-0.67805,-0.1133l-2.17577,0.05274l-0.22593,-7.07996l1.1762,-0.41963l0.87342,-0.29983c0.08749,-0.65325 0.21149,-1.30671 0.37344,-1.95706l-0.40231,1.95557l0.01157,-0.00413l-0.38465,-4.7416l-0.23255,-1.73501l2.1063,-4.53578l1.67152,-1.41255l1.80041,0.29924l0.8634,0.14349l0.77699,0.12915l0.6935,-6.99986l-0.9998,-3.53896l4.71026,-3.9436l11.98739,2.49443l3.59288,5.15531l-2.19756,2.10109l-0.72618,7.28558" fill="url(#color-28)" stroke="#000000" stroke-width="4.5" stroke-linecap="butt"/></g></g></svg>