<svg version="1.1" xmlns="http://www.w3.org/2000/svg" xmlns:xlink="http://www.w3.org/1999/xlink" width="451.24354" height="367.62171" viewBox="0,0,451.24354,367.62171"><defs><radialGradient cx="246.42026" cy="180" r="153.26712" gradientUnits="userSpaceOnUse" id="color-1"><stop offset="0" stop-color="#fff800"/><stop offset="1" stop-color="#fff800" stop-opacity="0"/></radialGradient><radialGradient cx="239.74828" cy="163.49186" r="181.5" gradientUnits="userSpaceOnUse" id="color-2"><stop offset="0" stop-color="#b708f7"/><stop offset="1" stop-color="#b708f7" stop-opacity="0"/></radialGradient><radialGradient cx="239.74828" cy="163.49186" r="181.5" gradientUnits="userSpaceOnUse" id="color-3"><stop offset="0" stop-color="#42ffff"/><stop offset="1" stop-color="#42ffff" stop-opacity="0"/></radialGradient><radialGradient cx="167.32416" cy="182.81143" r="113.00001" gradientUnits="userSpaceOnUse" id="color-4"><stop offset="0" stop-color="#bd00ff"/><stop offset="1" stop-color="#02ff00"/></radialGradient><radialGradient cx="233.72772" cy="177.40614" r="113" gradientUnits="userSpaceOnUse" id="color-5"><stop offset="0" stop-color="#42ffff"/><stop offset="1" stop-color="#42ffff" stop-opacity="0"/></radialGradient><radialGradient cx="231.42672" cy="218.01081" r="28.33334" gradientUnits="userSpaceOnUse" id="color-6"><stop offset="0" stop-color="#bd00ff"/><stop offset="1" stop-color="#02ff00"/></radialGradient><radialGradient cx="231.42672" cy="218.01081" r="28.33334" gradientUnits="userSpaceOnUse" id="color-7"><stop offset="0" stop-color="#42ffff"/><stop offset="1" stop-color="#42ffff" stop-opacity="0"/></radialGradient><radialGradient cx="229.18207" cy="119.48214" r="29.45319" gradientUnits="userSpaceOnUse" id="color-8"><stop offset="0" stop-color="#bd00ff"/><stop offset="1" stop-color="#02ff00"/></radialGradient><radialGradient cx="216.86141" cy="130.7882" r="29.45319" gradientUnits="userSpaceOnUse" id="color-9"><stop offset="0" stop-color="#42ffff"/><stop offset="1" stop-color="#42ffff" stop-opacity="0"/></radialGradient><radialGradient cx="249.42157" cy="169.59179" r="12.16667" gradientUnits="userSpaceOnUse" id="color-10"><stop offset="0" stop-color="#42ffff"/><stop offset="1" stop-color="#42ffff" stop-opacity="0"/></radialGradient><radialGradient cx="296.50539" cy="160.55056" r="24.05676" gradientUnits="userSpaceOnUse" id="color-11"><stop offset="0" stop-color="#42ffff"/><stop offset="1" stop-color="#42ffff" stop-opacity="0"/></radialGradient><radialGradient cx="453.45862" cy="257.90494" r="12.72216" gradientUnits="userSpaceOnUse" id="color-12"><stop offset="0" stop-color="#42ffff"/><stop offset="1" stop-color="#42ffff" stop-opacity="0"/></radialGradient><radialGradient cx="464.06857" cy="285.07744" r="10.78724" gradientUnits="userSpaceOnUse" id="color-13"><stop offset="0" stop-color="#42ffff"/><stop offset="1" stop-color="#42ffff" stop-opacity="0"/></radialGradient><radialGradient cx="461.63171" cy="265.93364" r="15.43104" gradientUnits="userSpaceOnUse" id="color-14"><stop offset="0" stop-color="#42ffff"/><stop offset="1" stop-color="#42ffff" stop-opacity="0"/></radialGradient><radialGradient cx="464.29899" cy="275.834" r="12.72216" gradientUnits="userSpaceOnUse" id="color-15"><stop offset="0" stop-color="#42ffff"/><stop offset="1" stop-color="#42ffff" stop-opacity="0"/></radialGradient><radialGradient cx="449.89003" cy="242.94134" r="12.72216" gradientUnits="userSpaceOnUse" id="color-16"><stop offset="0" stop-color="#42ffff"/><stop offset="1" stop-color="#42ffff" stop-opacity="0"/></radialGradient><radialGradient cx="437.28647" cy="252.92921" r="10.64367" gradientUnits="userSpaceOnUse" id="color-17"><stop offset="0" stop-color="#42ffff"/><stop offset="1" stop-color="#42ffff" stop-opacity="0"/></radialGradient><radialGradient cx="438.90234" cy="288.9118" r="20.23964" gradientUnits="userSpaceOnUse" id="color-18"><stop offset="0" stop-color="#bd00ff"/><stop offset="1" stop-color="#02ff00"/></radialGradient><radialGradient cx="437.07272" cy="284.0852" r="20.23964" gradientUnits="userSpaceOnUse" id="color-19"><stop offset="0" stop-color="#42ffff"/><stop offset="1" stop-color="#42ffff" stop-opacity="0"/></radialGradient><radialGradient cx="387.46621" cy="297.64817" r="41.60766" gradientUnits="userSpaceOnUse" id="color-20"><stop offset="0" stop-color="#bd00ff"/><stop offset="1" stop-color="#02ff00"/></radialGradient><radialGradient cx="383.42982" cy="298.981" r="41.60766" gradientUnits="userSpaceOnUse" id="color-21"><stop offset="0" stop-color="#42ffff"/><stop offset="1" stop-color="#42ffff" stop-opacity="0"/></radialGradient><radialGradient cx="319.19618" cy="279.61478" r="37.59517" gradientUnits="userSpaceOnUse" id="color-22"><stop offset="0" stop-color="#bd00ff"/><stop offset="1" stop-color="#02ff00"/></radialGradient><radialGradient cx="324.81215" cy="285.2847" r="37.59516" gradientUnits="userSpaceOnUse" id="color-23"><stop offset="0" stop-color="#42ffff"/><stop offset="1" stop-color="#42ffff" stop-opacity="0"/></radialGradient><radialGradient cx="430.68941" cy="53.97575" r="13.30335" gradientUnits="userSpaceOnUse" id="color-24"><stop offset="0" stop-color="#42ffff"/><stop offset="1" stop-color="#42ffff" stop-opacity="0"/></radialGradient><radialGradient cx="437.82481" cy="25.69146" r="11.28003" gradientUnits="userSpaceOnUse" id="color-25"><stop offset="0" stop-color="#42ffff"/><stop offset="1" stop-color="#42ffff" stop-opacity="0"/></radialGradient><radialGradient cx="437.79647" cy="44.98971" r="16.13598" gradientUnits="userSpaceOnUse" id="color-26"><stop offset="0" stop-color="#42ffff"/><stop offset="1" stop-color="#42ffff" stop-opacity="0"/></radialGradient><radialGradient cx="439.20716" cy="34.83384" r="13.30335" gradientUnits="userSpaceOnUse" id="color-27"><stop offset="0" stop-color="#42ffff"/><stop offset="1" stop-color="#42ffff" stop-opacity="0"/></radialGradient><radialGradient cx="429.01645" cy="69.26776" r="13.30335" gradientUnits="userSpaceOnUse" id="color-28"><stop offset="0" stop-color="#42ffff"/><stop offset="1" stop-color="#42ffff" stop-opacity="0"/></radialGradient><radialGradient cx="415.26479" cy="60.93113" r="10.06898" gradientUnits="userSpaceOnUse" id="color-29"><stop offset="0" stop-color="#42ffff"/><stop offset="1" stop-color="#42ffff" stop-opacity="0"/></radialGradient><radialGradient cx="417.15485" cy="33.70199" r="19.18582" gradientUnits="userSpaceOnUse" id="color-30"><stop offset="0" stop-color="#bd00ff"/><stop offset="1" stop-color="#02ff00"/></radialGradient><radialGradient cx="411.16393" cy="30.04547" r="19.18582" gradientUnits="userSpaceOnUse" id="color-31"><stop offset="0" stop-color="#42ffff"/><stop offset="1" stop-color="#42ffff" stop-opacity="0"/></radialGradient><radialGradient cx="358.43331" cy="26.10058" r="42.57041" gradientUnits="userSpaceOnUse" id="color-32"><stop offset="0" stop-color="#bd00ff"/><stop offset="1" stop-color="#02ff00"/></radialGradient><radialGradient cx="356.08126" cy="21.9617" r="42.5704" gradientUnits="userSpaceOnUse" id="color-33"><stop offset="0" stop-color="#42ffff"/><stop offset="1" stop-color="#42ffff" stop-opacity="0"/></radialGradient><radialGradient cx="295.522" cy="45.34029" r="38.26861" gradientUnits="userSpaceOnUse" id="color-34"><stop offset="0" stop-color="#bd00ff"/><stop offset="1" stop-color="#02ff00"/></radialGradient><radialGradient cx="299.63154" cy="42.86736" r="38.26861" gradientUnits="userSpaceOnUse" id="color-35"><stop offset="0" stop-color="#42ffff"/><stop offset="1" stop-color="#42ffff" stop-opacity="0"/></radialGradient></defs><g transform="translate(-29.04462,20.319)"><g data-paper-data="{&quot;isPaintingLayer&quot;:true}" fill-rule="nonzero" stroke-linejoin="miter" stroke-miterlimit="10" stroke-dasharray="" stroke-dashoffset="0" style="mix-blend-mode: normal"><path d="M399.68739,180c0,81.14549 -68.62002,146.92692 -153.26712,146.92692c-84.6471,0 -153.26712,-65.78143 -153.26712,-146.92692c0,-81.14549 68.62002,-146.92692 153.26712,-146.92692c84.6471,0 153.26712,65.78143 153.26712,146.92692z" fill="url(#color-1)" stroke="none" stroke-width="0" stroke-linecap="butt"/><path d="M247.76593,-17.83097c115.03896,5.08674 204.70685,90.39135 200.27882,190.53318c-4.42803,100.14183 -101.27515,177.19921 -216.31412,172.11247c-115.03896,-5.08674 -204.70685,-90.39135 -200.27882,-190.53318c4.42803,-100.14183 101.27515,-177.19921 216.31412,-172.11247z" fill="url(#color-2)" stroke="url(#color-3)" stroke-width="4.5" stroke-linecap="butt"/><path d="M275.12251,224.4008l0.39887,5.07206l0.09316,1.18462l1.36797,17.39505l-12.4742,10.45917l-18.4389,9.5281l-13.65487,-2.74377l-21.09817,0.3994l-1.18803,7.76199l-36.28315,-1.93801l-1.16439,-11.3959l-0.71661,-5.80945l-0.51234,3.41949l-0.57767,-2.0275l3.25569,1.92203c-32.4793,-11.92241 -55.05335,-45.37664 -53.35811,-83.71512c1.19729,-27.07727 14.2382,-50.65922 33.56439,-65.35047l-0.03753,2.54083l-0.5302,-4.29828l-3.75483,-13.17873l34.5558,-11.81839l3.9588,6.54752l2.88161,4.87932c3.36233,-0.43044 6.78442,-0.6387 10.25207,-0.61098l-10.29119,0.43292l0.03896,0.06443l22.76801,-9.33668l8.18361,-3.9757l25.75375,6.14365l9.65157,8.10093l1.41591,11.4109l0.67901,5.47211l0.61105,4.92448l35.63752,-6.09836l15.84846,-11.31095l27.01556,22.8824l6.95127,76.71529l-19.65539,29.49386l-13.89232,-10.29039l-37.09923,6.32059" fill="url(#color-4)" stroke="url(#color-5)" stroke-width="4.5" stroke-linecap="butt"/><path d="M254.31597,235.03457l-24.6353,11.26006l-26.89435,-10.53165l34.86728,-41.50027l-1.14062,-4.38801l16.63001,8.74316l5.55146,32.68472z" fill="url(#color-6)" stroke="url(#color-7)" stroke-width="4.5" stroke-linecap="round"/><path d="M243.12942,112.28848l2.58721,32.67399l-13.98436,12.54743l0.03197,-4.53371l-43.96401,-31.70436l23.49878,-16.79372l26.20033,4.80711z" data-paper-data="{&quot;index&quot;:null}" fill="url(#color-8)" stroke="url(#color-9)" stroke-width="4.5" stroke-linecap="round"/><path d="M238.88481,173.96393l18.06738,-16.21772l-8.00352,14.99443l10.25869,9.46241z" fill="#000000" stroke="url(#color-10)" stroke-width="4.5" stroke-linecap="round"/><path d="M291.98093,184.43076l6.27891,-26.11938l-11.19433,-22.25849l20.30987,16.65303z" data-paper-data="{&quot;index&quot;:null}" fill="#000000" stroke="url(#color-11)" stroke-width="4.5" stroke-linecap="round"/><path d="M442.92069,266.13085l-2.35319,-4.68582l23.42906,-11.766l2.35319,4.68582z" fill="#ffffff" stroke="url(#color-12)" stroke-width="4.5" stroke-linecap="butt"/><path d="M455.13336,292.05227l-1.9953,-3.97315l19.86573,-9.9765l1.9953,3.97315z" fill="#ffffff" stroke="url(#color-13)" stroke-width="4.5" stroke-linecap="butt"/><path d="M448.84998,275.91106l-2.85426,-5.68354l28.41772,-14.27129l2.85426,5.68354z" fill="#ffffff" stroke="url(#color-14)" stroke-width="4.5" stroke-linecap="butt"/><path d="M453.76106,284.0599l-2.35319,-4.68582l23.42906,-11.766l2.35319,4.68582z" fill="#ffffff" stroke="url(#color-15)" stroke-width="4.5" stroke-linecap="butt"/><g fill="#ffffff" stroke-width="4.5" stroke-linecap="butt"><path d="M439.3521,251.16724l-2.35319,-4.68582l23.42906,-11.76599l2.35319,4.68582z" stroke="url(#color-16)"/><path d="M434.66666,263.46744l-6.07156,-1.62605l11.31119,-19.4504l6.07156,1.62605z" stroke="url(#color-17)"/></g><path d="M454.11796,295.35309l-20.74064,8.82811l-13.34982,-31.36391l20.74064,-8.82811z" fill="url(#color-18)" stroke="url(#color-19)" stroke-width="4.5" stroke-linecap="butt"/><path d="M347.9249,322.46803l-6.45979,-16.33144l77.46963,-30.64262l6.45979,16.33144z" fill="url(#color-20)" stroke="url(#color-21)" stroke-width="4.5" stroke-linecap="butt"/><path d="M288.13589,263.67239l11.84565,-12.96631l61.50686,56.19093l-11.84565,12.96631z" fill="url(#color-22)" stroke="url(#color-23)" stroke-width="4.5" stroke-linecap="butt"/><path d="M443.92159,55.87912l-1.74993,4.94289l-24.71444,-8.74965l1.74993,-4.94288z" data-paper-data="{&quot;index&quot;:null}" fill="#ffffff" stroke="url(#color-24)" stroke-width="4.5" stroke-linecap="butt"/><path d="M449.0445,27.30534l-1.48378,4.19113l-20.9556,-7.4189l1.48378,-4.19112z" data-paper-data="{&quot;index&quot;:null}" fill="#ffffff" stroke="url(#color-25)" stroke-width="4.5" stroke-linecap="butt"/><path d="M453.84613,47.29836l-2.12253,5.99536l-29.97678,-10.61268l2.12253,-5.99536z" data-paper-data="{&quot;index&quot;:null}" fill="#ffffff" stroke="url(#color-26)" stroke-width="4.5" stroke-linecap="butt"/><path d="M452.43934,36.73722l-1.74993,4.94288l-24.71444,-8.74965l1.74993,-4.94288z" data-paper-data="{&quot;index&quot;:null}" fill="#ffffff" stroke="url(#color-27)" stroke-width="4.5" stroke-linecap="butt"/><g data-paper-data="{&quot;index&quot;:null}" fill="#ffffff" stroke-width="4.5" stroke-linecap="butt"><path d="M442.24864,71.17114l-1.74993,4.94289l-24.71444,-8.74965l1.74993,-4.94289z" stroke="url(#color-28)"/><path d="M425.00059,68.68878l-5.82112,2.37116l-13.65047,-17.88647l5.82112,-2.37116z" stroke="url(#color-29)"/></g><path d="M417.33876,49.52308l-21.68034,-6.17029l9.33068,-32.78492l21.68034,6.17029z" data-paper-data="{&quot;index&quot;:null}" fill="url(#color-30)" stroke="url(#color-31)" stroke-width="4.5" stroke-linecap="butt"/><path d="M398.61094,23.82343l-4.37084,17.01002l-80.68852,-20.73347l4.37084,-17.01002z" data-paper-data="{&quot;index&quot;:null}" fill="url(#color-32)" stroke="url(#color-33)" stroke-width="4.5" stroke-linecap="butt"/><path d="M319.95197,5.45987l13.37144,11.38637l-54.01229,63.4286l-13.37144,-11.38637z" data-paper-data="{&quot;index&quot;:null}" fill="url(#color-34)" stroke="url(#color-35)" stroke-width="4.5" stroke-linecap="butt"/></g></g></svg>