<svg version="1.1" xmlns="http://www.w3.org/2000/svg" xmlns:xlink="http://www.w3.org/1999/xlink" width="315.04187" height="407.17911" viewBox="0,0,315.04187,407.17911"><defs><radialGradient cx="240" cy="180" r="180.02221" gradientUnits="userSpaceOnUse" id="color-1"><stop offset="0" stop-color="#9c02a7"/><stop offset="1" stop-color="#9c02a7" stop-opacity="0"/></radialGradient><linearGradient x1="139.59005" y1="167.10699" x2="342.39331" y2="160.18279" gradientUnits="userSpaceOnUse" id="color-2"><stop offset="0" stop-color="#000000"/><stop offset="1" stop-color="#1b1b1b"/></linearGradient><linearGradient x1="309.02779" y1="270.08106" x2="257.25978" y2="266.92772" gradientUnits="userSpaceOnUse" id="color-3"><stop offset="0" stop-color="#ffffff"/><stop offset="1" stop-color="#000000"/></linearGradient><linearGradient x1="309.02779" y1="270.08106" x2="257.25978" y2="266.92772" gradientUnits="userSpaceOnUse" id="color-4"><stop offset="0" stop-color="#ffffff"/><stop offset="1" stop-color="#000000"/></linearGradient><linearGradient x1="316.63623" y1="83.39362" x2="263.80143" y2="80.17529" gradientUnits="userSpaceOnUse" id="color-5"><stop offset="0" stop-color="#ffffff"/><stop offset="1" stop-color="#000000"/></linearGradient><linearGradient x1="178.62983" y1="254.44651" x2="120.40096" y2="250.89962" gradientUnits="userSpaceOnUse" id="color-6"><stop offset="0" stop-color="#ffffff"/><stop offset="1" stop-color="#000000"/></linearGradient><linearGradient x1="186.24071" y1="96.42745" x2="128.45327" y2="92.90745" gradientUnits="userSpaceOnUse" id="color-7"><stop offset="0" stop-color="#ffffff"/><stop offset="1" stop-color="#000000"/></linearGradient><linearGradient x1="141.56764" y1="171.42707" x2="98.39889" y2="168.79754" gradientUnits="userSpaceOnUse" id="color-8"><stop offset="0" stop-color="#ffffff"/><stop offset="1" stop-color="#a600b2"/></linearGradient><radialGradient cx="280.08681" cy="171.48293" r="82.30479" gradientUnits="userSpaceOnUse" id="color-9"><stop offset="0" stop-color="#a700b3"/><stop offset="1" stop-color="#1b1b1b"/></radialGradient><linearGradient x1="314.16904" y1="398.99577" x2="316.91884" y2="353.85258" gradientUnits="userSpaceOnUse" id="color-10"><stop offset="0" stop-color="#ffffff"/><stop offset="1" stop-color="#a600b2"/></linearGradient><linearGradient x1="317.38965" y1="354.61096" x2="320.35427" y2="305.94109" gradientUnits="userSpaceOnUse" id="color-11"><stop offset="0" stop-color="#a600b2"/><stop offset="1" stop-color="#ffffff"/></linearGradient></defs><g transform="translate(-82.47907,-0.00348)"><g data-paper-data="{&quot;isPaintingLayer&quot;:true}" fill-rule="nonzero" stroke-linejoin="miter" stroke-miterlimit="10" stroke-dasharray="" stroke-dashoffset="0" style="mix-blend-mode: normal"><path d="M233.51161,359.90524c-86.92118,-3.13486 -154.47977,-86.22248 -150.89633,-185.58141c3.58344,-99.35892 76.95192,-177.36393 163.87311,-174.22907c86.92118,3.13486 154.47977,86.22248 150.89633,185.58141c-3.58344,99.35892 -76.95192,177.36393 -163.87311,174.22907z" fill="url(#color-1)" stroke="none" stroke-width="0" stroke-linecap="butt"/><g><path d="M257.24331,28.84375c0.12339,0.00446 0.21258,0.30813 0.19923,0.6783c-0.01334,0.37015 -0.1242,0.66663 -0.24757,0.66219c-0.12339,-0.00446 -0.21259,-0.30813 -0.19925,-0.6783c0.01334,-0.37015 0.1242,-0.66663 0.24759,-0.66219z" fill="#000000" stroke="none" stroke-width="0" stroke-linecap="butt"/><path d="M275.98235,117.57334l33.92558,3.04523l11.79722,-10.27966l19.84684,25.20287l-0.77642,69.71437l-22.73566,22.58089l-15.10952,-9.07003l-32.59081,-2.9494l-0.19857,4.48687l-0.22064,4.98586l-0.46009,10.39692l-8.12785,8.00046l-22.79626,7.38794l-7.66846,-3.00086l-21.21127,-6.79308l-0.03054,0.06092l9.31624,-0.3466c-3.12669,0.27341 -6.22922,0.33065 -9.2937,0.18314l-2.25042,4.60879l-3.10281,6.19108l-32.02458,-8.18779l2.44377,-12.1595l0.17046,-3.91609l0.21585,2.28979c-18.48945,-11.87079 -31.94489,-32.21345 -34.96477,-56.55818c-4.27584,-34.46948 13.69519,-66.27065 42.14561,-79.35425l-2.79977,1.96736l0.37596,-1.87068l0.70721,3.04852l0.2304,-5.29291l0.23423,-10.36538l32.59767,-4.34766l1.62794,6.91816l19.06446,-1.15098l12.12355,-3.45372l17.31904,7.2759l12.00408,8.54323l0.01183,15.79271l0.00079,1.07551l0.00344,4.60484" fill="url(#color-2)" stroke="#000000" stroke-width="4.5" stroke-linecap="butt"/><path d="M312.24488,54.08695l27.12446,1.12591l-10.58968,255.1165l-27.12446,-1.12591z" fill="#242706" stroke="none" stroke-width="0" stroke-linecap="butt"/><path d="M310.72339,90.74162l27.85755,1.15635l-0.28257,6.80728l-27.85755,-1.15635z" fill="#edff26" stroke="none" stroke-width="0" stroke-linecap="butt"/><path d="M302.80878,263.72123l27.85755,1.15635l-0.28257,6.80728l-27.85755,-1.15635z" fill="#edff26" stroke="none" stroke-width="0" stroke-linecap="butt"/><path d="M314.53337,30.65193c0.13496,0.0056 0.23073,0.33836 0.21392,0.74323c-0.01681,0.40487 -0.13984,0.72855 -0.27478,0.72295c-0.13496,-0.0056 -0.23074,-0.33836 -0.21393,-0.74323c0.01681,-0.40487 0.13984,-0.72855 0.27479,-0.72295z" fill="#000000" stroke="none" stroke-width="0" stroke-linecap="butt"/><path d="M285.98333,272.15519c14.00924,-10.15312 14.89674,-18.53422 14.89674,-18.53422l8.93569,3.52371c0,0 -6.40921,14.40517 -21.97452,23.00507c-10.15029,5.60807 -31.53388,2.41331 -31.53388,2.41331l2.44547,-7.41449c0,0 17.68022,3.92808 27.23048,-2.9934z" data-paper-data="{&quot;index&quot;:null}" fill="url(#color-3)" stroke="url(#color-4)" stroke-width="0.5" stroke-linecap="butt"/><path d="M266.51434,73.15027l-1.82257,-7.59165c0,0 21.57477,-1.41158 31.22539,5.01841c14.79902,9.8603 19.99235,24.74709 19.99235,24.74709l-9.19698,2.77104c0,0 -0.18985,-8.4258 -13.30946,-19.70502c-8.94379,-7.68915 -26.88875,-5.23985 -26.88875,-5.23985z" fill="url(#color-5)" stroke="#000000" stroke-width="0.5" stroke-linecap="butt"/><path d="M229.09539,56.53926c6.5225,-3.25905 23.31363,-6.04834 35.50646,0.53887c12.19283,6.5872 1.98648,19.71681 1.98648,19.71681l-38.26779,-1.58847c0,0 -5.74763,-15.40818 0.77486,-18.66723z" fill="#638c9d" stroke="none" stroke-width="0" stroke-linecap="butt"/><path d="M257.45481,274.30635c0,0 9.08312,13.93029 -3.61369,19.48434c-10.23578,4.47751 -22.94474,2.63444 -30.75105,-0.23315l4.7199,-12.05592c0,0 0.26717,-4.38618 -1.8911,-8.5043z" data-paper-data="{&quot;index&quot;:null}" fill="#638c9d" stroke="none" stroke-width="0" stroke-linecap="butt"/><path d="M150.39567,255.44532c17.27828,0.89781 23.23271,-5.06667 23.23271,-5.06667l4.74035,8.35414c0,0 -14.03471,7.18428 -31.54834,4.10051c-11.4208,-2.01098 -26.05431,-17.92715 -26.05431,-17.92715l6.5597,-4.23381c0,0 11.29109,14.16092 23.06988,14.77297z" data-paper-data="{&quot;index&quot;:null}" fill="url(#color-6)" stroke="#000000" stroke-width="0.5" stroke-linecap="butt"/><path d="M134.22747,104.4344l-6.18625,-4.76287c0,0 15.90219,-14.64868 27.45038,-15.70623c14.70875,-1.34695 26.43869,4.16638 29.99105,6.07316c-2.74894,1.79083 -4.88333,4.11446 -6.49248,6.78202c-2.95002,-1.94769 -9.19427,-4.84358 -20.54786,-5.1963c-11.78899,-0.36623 -24.21483,12.81021 -24.21483,12.81021z" fill="url(#color-7)" stroke="#000000" stroke-width="0.5" stroke-linecap="butt"/><path d="M94.99375,233.0518c-2.13595,-3.26893 -5.42749,-13.40211 -5.42749,-13.40211l64.71302,2.68619l-0.66897,16.11603c0,0 -14.95295,-0.24661 -23.10631,-0.38109c-9.16816,-0.15119 -29.21614,-0.48183 -29.21614,-0.48183c0,0 -4.65721,-2.03202 -6.29411,-4.53718z" data-paper-data="{&quot;index&quot;:null}" fill="#638c9d" stroke="none" stroke-width="0" stroke-linecap="butt"/><path d="M117.15314,243.26017c-1.51982,-2.32597 -3.86186,-9.53612 -3.86186,-9.53612l46.0458,1.91132l-0.47599,11.46719c0,0 -10.6396,-0.17546 -16.44103,-0.27115c-6.5235,-0.10758 -20.78842,-0.34284 -20.78842,-0.34284c0,0 -3.3138,-1.44587 -4.4785,-3.2284z" data-paper-data="{&quot;index&quot;:null}" fill="#304164" stroke="none" stroke-width="0" stroke-linecap="butt"/><path d="M108.83691,100.77356c0,0 20.00642,1.33199 29.15556,1.94112c8.13645,0.54171 23.0584,1.53519 23.0584,1.53519l-0.66897,16.11603l-64.71303,-2.68619c0,0 4.12004,-9.82553 6.51952,-12.90622c1.83889,-2.3609 6.64849,-3.99996 6.64849,-3.99996z" fill="#638c9d" stroke="none" stroke-width="0" stroke-linecap="butt"/><path d="M141.05379,212.1854l-1.50242,8.64022l-42.91732,-3.57509l1.50243,-8.64021z" fill="#edff26" stroke="none" stroke-width="0" stroke-linecap="butt"/><path d="M129.09882,96.6281c0,0 14.23534,0.94777 20.74531,1.3812c5.78938,0.38543 16.40693,1.09232 16.40693,1.09232l-0.47599,11.46719l-46.0458,-1.91132c0,0 2.93155,-6.99123 4.63889,-9.18325c1.30842,-1.67987 4.73065,-2.84611 4.73065,-2.84611z" data-paper-data="{&quot;index&quot;:null}" fill="#304164" stroke="none" stroke-width="0" stroke-linecap="butt"/><path d="M110.1462,209.12595l-7.86997,8.96645l-4.30267,-0.30021l7.63066,-8.80251z" fill="#000000" stroke="none" stroke-width="0" stroke-linecap="butt"/><path d="M120.30423,209.97212l-7.86995,8.96646l-4.30267,-0.30021l7.63066,-8.80251z" fill="#000000" stroke="none" stroke-width="0" stroke-linecap="butt"/><path d="M100.14269,130.24472l-0.78121,-8.73501l43.06599,-0.006l0.78118,8.73501z" data-paper-data="{&quot;index&quot;:null}" fill="#edff26" stroke="none" stroke-width="0" stroke-linecap="butt"/><path d="M137.16349,130.33744l-6.87491,-9.40459l4.31275,0.05738l7.09982,9.58785z" data-paper-data="{&quot;index&quot;:null}" fill="#000000" stroke="none" stroke-width="0" stroke-linecap="butt"/><path d="M127.23808,130.48283l-6.87493,-9.40462l4.31276,0.05741l7.09977,9.58783z" data-paper-data="{&quot;index&quot;:null}" fill="#000000" stroke="none" stroke-width="0" stroke-linecap="butt"/><path d="M107.61627,130.48555l-6.87491,-9.40461l4.31276,0.05739l7.09979,9.58786z" data-paper-data="{&quot;index&quot;:null}" fill="#000000" stroke="none" stroke-width="0" stroke-linecap="butt"/><path d="M117.80946,130.48415l-6.8749,-9.40462l4.31274,0.05741l7.0998,9.58783z" data-paper-data="{&quot;index&quot;:null}" fill="#000000" stroke="none" stroke-width="0" stroke-linecap="butt"/><path d="M140.82398,211.77394l-7.86998,8.96645l-4.30267,-0.30022l7.63069,-8.80249z" fill="#000000" stroke="none" stroke-width="0" stroke-linecap="butt"/><path d="M130.94477,210.80648l-7.86997,8.96645l-4.30266,-0.30021l7.63065,-8.80251z" fill="#000000" stroke="none" stroke-width="0" stroke-linecap="butt"/><path d="M100.77831,129.73477l41.69012,1.73052l-3.28025,79.02455l-41.69012,-1.73052z" fill="url(#color-8)" stroke="#000000" stroke-width="0.5" stroke-linecap="butt"/><path d="M130.87767,170.26844c2.43928,-58.76483 48.29412,-104.58183 102.41961,-102.33511c54.12549,2.2467 96.02548,51.70632 93.5862,110.47116c-2.38871,57.5466 -46.41157,102.67662 -99.06439,102.41319c-0.01991,-1.42419 -0.26759,-4.84253 -2.02103,-8.04598c3.8927,-1.79519 6.25428,-4.90917 6.25428,-4.90917c5.42859,-7.77008 8.49098,-15.55956 8.41979,-25.28419c-0.02459,-3.35995 0.86589,-7.00014 -0.50586,-10.06741c-2.01605,-4.50794 -5.46077,-8.38343 -9.19228,-11.61792c-5.96467,-5.17024 -14.18977,-6.4969 -21.42557,-7.95388c-5.8126,-1.17042 -12.04409,-4.74854 -17.58938,-2.6495c-4.38344,1.65925 -6.0616,7.15514 -8.91441,10.87389c-7.77111,10.13001 -12.38283,23.31528 -4.89073,35.35149c0.84978,1.3652 2.15571,2.7514 3.70064,4.11848c-1.97508,1.12825 -3.89871,2.39186 -5.65133,3.8028c-28.50077,-19.62029 -46.75939,-54.80671 -45.12555,-94.16785zM232.03987,152.85559c7.07109,-4.11619 7.90462,-9.87991 7.25799,-14.17436c4.84217,-4.78109 7.75889,-12.09724 6.74957,-18.22474c-0.94295,-5.72468 -6.10225,-9.97735 -10.12752,-14.15566c-2.67791,-2.77971 -7.11237,-3.10408 -10.32142,-5.24885c-7.24763,-4.84396 -12.91696,-9.44103 -21.67795,-11.54123c-3.88725,-0.93185 -7.88658,-3.39104 -11.75376,-2.37914c-12.28162,3.21361 -16.90104,13.95112 -17.25839,25.0185c-0.08988,2.78373 -0.8411,5.73584 -0.00199,8.37343c-1.06006,1.85429 -1.75604,3.80292 -1.93658,5.77276c-0.60973,6.65231 2.71031,13.08257 4.06546,19.62385l18.35249,2.32252c0,0 4.1108,-0.76565 7.53495,-3.67389c2.56037,2.42258 5.47595,4.28975 9.47765,3.63848c1.73739,2.49625 8.72627,11.00106 19.63949,4.64832z" fill="#324672" stroke="none" stroke-width="0" stroke-linecap="butt"/><path d="M257.90834,269.22527c-8.17738,-0.33943 -15.99384,-2.21034 -23.272,-5.37807c3.80414,-6.48778 5.89474,-13.2146 5.83577,-21.26886c-0.02459,-3.35995 0.86589,-7.00014 -0.50586,-10.06741c-2.01605,-4.50794 -5.46077,-8.38343 -9.19228,-11.61792c-5.96467,-5.17024 -14.18977,-6.4969 -21.42557,-7.95388c-5.8126,-1.17042 -12.04409,-4.74854 -17.58938,-2.6495c-0.69128,0.26166 -1.31527,0.61874 -1.88719,1.04923c-3.9457,-12.01788 -5.87155,-25.27063 -5.29659,-39.12198c0.35899,-8.64862 1.67027,-16.98386 3.8043,-24.86109l7.00824,0.88689c0,0 4.1108,-0.76565 7.53495,-3.67389c2.56037,2.42258 5.47595,4.28975 9.47765,3.63848c1.73739,2.49625 8.72627,11.00106 19.63949,4.64832c7.07109,-4.11619 7.90462,-9.87991 7.25799,-14.17436c4.84217,-4.78109 7.75889,-12.09724 6.74957,-18.22474c-0.94295,-5.72468 -6.10225,-9.97735 -10.12752,-14.15566c-2.67791,-2.77971 -7.11237,-3.10408 -10.32142,-5.24885c-1.93858,-1.29565 -3.76425,-2.57364 -5.56636,-3.79092c13.11655,-10.4943 28.901,-16.33715 45.66355,-15.64135c42.65115,1.77042 75.48352,45.20257 73.3331,97.0084c-2.15042,51.80581 -38.46929,92.36757 -81.12045,90.59715z" fill="#47618d" stroke="none" stroke-width="0" stroke-linecap="butt"/><path d="M298.20744,256.03566l25.08656,-28.94153c0,0 16.55519,1.5754 12.98811,14.9669c-3.56708,13.3915 -17.11196,23.69968 -23.95685,26.21198c-6.8449,2.5123 -14.11781,-12.23735 -14.11781,-12.23735z" data-paper-data="{&quot;index&quot;:null}" fill="#638c9d" stroke="none" stroke-width="0" stroke-linecap="butt"/><path d="M320.54678,85.22403c6.61315,3.07092 19.25713,14.46618 21.70212,28.10723c2.44499,13.64106 -14.18382,13.83901 -14.18382,13.83901l-22.60172,-30.92102c0,0 8.47028,-14.09614 15.08341,-11.02522z" data-paper-data="{&quot;index&quot;:null}" fill="#638c9d" stroke="none" stroke-width="0" stroke-linecap="butt"/><path d="M133.92479,141.90954l42.57654,1.76732c0.19786,0.74665 0.3788,1.49424 0.53399,2.24331l18.35249,2.32252c0,0 3.92599,-0.73123 7.30039,-3.47883l0.46364,0.01924c2.46201,2.2768 5.2667,3.99566 9.04768,3.45488l-1.96451,47.32746l-78.40232,-3.25441z" fill="#6bafd3" stroke="none" stroke-width="0" stroke-linecap="butt"/><path d="M133.38183,151.52435l62.22404,2.58287l-1.39475,33.601l-62.22404,-2.58287z" fill="#5c98c0" stroke="none" stroke-width="0" stroke-linecap="butt"/><path d="M171.90968,157.82244l8.71137,0.36159l-1.00732,24.26738l-8.71137,-0.36159z" fill="#edff26" stroke="none" stroke-width="0" stroke-linecap="butt"/><path d="M171.53549,158.67498l9.41674,3.91443l-0.04291,2.42969l-9.23885,-3.78935z" fill="#000000" stroke="none" stroke-width="0" stroke-linecap="butt"/><path d="M171.15945,164.26921l9.41674,3.91441l-0.0429,2.42969l-9.23888,-3.78935z" fill="#000000" stroke="none" stroke-width="0" stroke-linecap="butt"/><path d="M170.7005,175.32593l9.41674,3.91441l-0.0429,2.42969l-9.23888,-3.78933z" fill="#000000" stroke="none" stroke-width="0" stroke-linecap="butt"/><path d="M170.93889,169.58218l9.41674,3.91441l-0.0429,2.42968l-9.23888,-3.78933z" fill="#000000" stroke="none" stroke-width="0" stroke-linecap="butt"/><path d="M154.88756,157.2789l8.69691,0.6182l-1.72209,24.22715l-8.69691,-0.61819z" fill="#edff26" stroke="none" stroke-width="0" stroke-linecap="butt"/><path d="M154.48844,158.12005l9.29729,4.19028l-0.11451,2.42733l-9.12316,-4.05998z" fill="#000000" stroke="none" stroke-width="0" stroke-linecap="butt"/><path d="M153.94759,163.70077l9.29729,4.19025l-0.11447,2.42736l-9.12319,-4.05997z" fill="#000000" stroke="none" stroke-width="0" stroke-linecap="butt"/><path d="M153.16299,174.73917l9.29729,4.19025l-0.11447,2.42736l-9.12319,-4.05997z" fill="#000000" stroke="none" stroke-width="0" stroke-linecap="butt"/><path d="M153.5706,169.00493l9.29729,4.19025l-0.1145,2.42736l-9.12316,-4.06z" fill="#000000" stroke="none" stroke-width="0" stroke-linecap="butt"/><path d="M137.77599,155.39869l8.71137,0.36159l-1.00732,24.26738l-8.71137,-0.36159z" fill="#edff26" stroke="none" stroke-width="0" stroke-linecap="butt"/><path d="M137.40179,156.25124l9.41674,3.91443l-0.04291,2.42969l-9.23886,-3.78936z" fill="#000000" stroke="none" stroke-width="0" stroke-linecap="butt"/><path d="M137.02575,161.84546l9.41674,3.91441l-0.04291,2.42968l-9.23886,-3.78933z" fill="#000000" stroke="none" stroke-width="0" stroke-linecap="butt"/><path d="M136.56681,172.90219l9.41674,3.91441l-0.04291,2.42968l-9.23886,-3.78933z" fill="#000000" stroke="none" stroke-width="0" stroke-linecap="butt"/><path d="M136.8052,167.15842l9.41674,3.91441l-0.04291,2.42969l-9.23886,-3.78933z" fill="#000000" stroke="none" stroke-width="0" stroke-linecap="butt"/><path d="M252.54057,138.34053l-9.28365,-4.84885" fill="none" stroke="#000000" stroke-width="2.5" stroke-linecap="round"/><path d="M232.75869,222.70599l12.76303,-5.37142" data-paper-data="{&quot;index&quot;:null}" fill="none" stroke="#000000" stroke-width="2.5" stroke-linecap="round"/><path d="M174.29835,240.62368l-3.31749,-6.96763" data-paper-data="{&quot;index&quot;:null}" fill="none" stroke="#000000" stroke-width="2.5" stroke-linecap="round"/><path d="M270.34225,256.65183c-8.22097,-0.34125 -22.87572,-4.19838 -23.82089,-17.47439c-1.06983,-15.02726 9.18855,-35.45652 10.21668,-60.22527c0.96436,-23.2325 -6.95281,-56.32264 -5.01287,-72.00525c1.95545,-15.80819 13.79887,-14.11469 22.59704,-13.74949c4.78819,0.19875 17.65568,-3.8765 27.34808,7.13247c7.04065,7.99696 11.69058,30.54793 13.82602,36.44654c5.68532,15.70412 -11.923,17.55942 -12.94611,42.20743c-0.34558,8.32542 11.00171,16.85446 9.84319,24.41754c-2.21324,14.44862 -1.41817,29.26128 -8.31322,39.1033c-9.71954,13.87371 -25.31477,14.49677 -33.73793,14.14713z" fill="url(#color-9)" stroke="none" stroke-width="NaN" stroke-linecap="butt"/><path d="M350.12057,153.79619c3.33173,10.20612 4.33447,23.86671 -2.11978,42.7977c-2.59621,7.61498 -18.60995,6.65199 -18.60995,6.65199c0,0 -16.5808,-2.94801 -24.36554,-10.10928c-6.02323,-5.54089 -3.72169,-14.97805 -3.64537,-18.8791c0.07226,-3.69453 -0.43353,-16.16644 4.1572,-20.89035c8.63043,-8.88085 25.02048,-9.75962 25.02048,-9.75962c0,0 16.2312,-0.01746 19.56294,10.18866z" data-paper-data="{&quot;index&quot;:null}" fill="#659cbd" stroke="none" stroke-width="0" stroke-linecap="butt"/><path d="M332.97358,191.93383c-3.95472,-0.16415 -14.61826,-9.92291 -13.69321,-19.59184c0.70903,-7.41102 12.1084,-15.37947 15.13961,-15.25365c6.98594,0.28998 12.32539,8.32548 11.92598,17.9478c-0.39941,9.62232 -6.38643,17.18768 -13.37237,16.8977z" fill="#000000" stroke="none" stroke-width="0" stroke-linecap="butt"/><path d="M299.14609,281.19374l33.72229,1.39978l-0.85204,20.52662l-33.72229,-1.39978z" fill="#324672" stroke="none" stroke-width="0" stroke-linecap="butt"/><path d="M309.00822,61.29615l33.72229,1.39978l-0.85204,20.52662l-33.72229,-1.39978z" fill="#324672" stroke="none" stroke-width="0" stroke-linecap="butt"/><path d="M292.61188,297.07836l48.38416,2.00839l-0.82161,19.79352l-48.38416,-2.00839z" fill="#638c9d" stroke="none" stroke-width="0" stroke-linecap="butt"/><path d="M286.62865,321.28377l-9.03853,-7.78707l0.2606,-4.30526l8.87237,7.54933z" data-paper-data="{&quot;index&quot;:null}" fill="#000000" stroke="none" stroke-width="0" stroke-linecap="butt"/><path d="M363.63553,320.87416l9.63036,-6.55494l-0.20232,4.30839l-9.82105,6.77354z" data-paper-data="{&quot;index&quot;:null}" fill="#000000" stroke="none" stroke-width="0" stroke-linecap="butt"/><path d="M253.95341,383.66815c0,0 1.76439,-24.52627 2.57128,-35.74241c0.71757,-9.97463 2.03358,-28.26776 2.03358,-28.26776l16.10481,0.91017l-4.08455,79.34204c0,0 -9.73849,-5.10712 -12.76795,-8.06679c-2.32165,-2.26815 -3.85715,-8.17526 -3.85715,-8.17526z" fill="#638c9d" stroke="none" stroke-width="0" stroke-linecap="butt"/><path d="M353.87403,385.70674l8.79827,9.70085l-0.39323,5.27464l-8.63944,-9.40646z" fill="#000000" stroke="none" stroke-width="0" stroke-linecap="butt"/><path d="M354.9398,373.25489l8.79826,9.70085l-0.39321,5.27464l-8.63946,-9.40646z" fill="#000000" stroke="none" stroke-width="0" stroke-linecap="butt"/><path d="M280.52536,352.25719l-9.40992,8.62403l0.0582,-5.28917l9.59331,-8.90357z" data-paper-data="{&quot;index&quot;:null}" fill="#000000" stroke="none" stroke-width="0" stroke-linecap="butt"/><path d="M356.0042,360.2111l8.79826,9.70083l-0.39322,5.27467l-8.63946,-9.4065z" fill="#000000" stroke="none" stroke-width="0" stroke-linecap="butt"/><path d="M275.1475,393.11684l2.03985,-41.40319l78.96555,4.5288l-2.03985,41.40321c0,0 -28.45935,2.00025 -42.22746,1.21062c-12.41311,-0.71191 -36.73809,-5.73943 -36.73809,-5.73943z" fill="url(#color-10)" stroke="none" stroke-width="0" stroke-linecap="butt"/><path d="M261.9143,303.9522c3.31575,-2.60108 13.52204,-6.58097 13.52204,-6.58097l-4.08455,79.34204l-16.10481,-0.91019c0,0 0.56963,-18.3353 0.88025,-28.33294c0.34925,-11.242 1.11301,-35.82483 1.11301,-35.82483c0,0 2.13303,-5.69978 4.67407,-7.6931z" data-paper-data="{&quot;index&quot;:null}" fill="#638c9d" stroke="none" stroke-width="0" stroke-linecap="butt"/><path d="M277.72961,358.22557l-8.6437,-1.66347l3.58448,-52.69614l8.64369,1.6635z" data-paper-data="{&quot;index&quot;:null}" fill="#edff26" stroke="none" stroke-width="0" stroke-linecap="butt"/><path d="M278.1932,356.40838l-8.96892,-9.46419l0.30116,-5.28184l8.8049,9.17416z" data-paper-data="{&quot;index&quot;:null}" fill="#000000" stroke="none" stroke-width="0" stroke-linecap="butt"/><path d="M279.16288,344.27511l-8.96891,-9.46412l0.30111,-5.28187l8.80495,9.17417z" data-paper-data="{&quot;index&quot;:null}" fill="#000000" stroke="none" stroke-width="0" stroke-linecap="butt"/><path d="M279.94765,332.73812l-8.96891,-9.46415l0.30111,-5.28184l8.80495,9.17414z" data-paper-data="{&quot;index&quot;:null}" fill="#000000" stroke="none" stroke-width="0" stroke-linecap="butt"/><path d="M359.31683,312.78877l-2.19461,43.94393l-78.9666,-4.5116l2.19461,-43.94392c0,0 24.53766,-3.22842 37.59766,-2.48225c13.25918,0.75754 41.36894,6.99383 41.36894,6.99383z" data-paper-data="{&quot;index&quot;:null}" fill="url(#color-11)" stroke="none" stroke-width="0" stroke-linecap="butt"/><path d="M275.4787,397.40659l-8.6437,-1.66347l3.58449,-52.69614l8.64366,1.66351z" data-paper-data="{&quot;index&quot;:null}" fill="#edff26" stroke="none" stroke-width="0" stroke-linecap="butt"/><path d="M276.64183,395.62894l-8.96894,-9.46417l0.30115,-5.28182l8.80493,9.17414z" data-paper-data="{&quot;index&quot;:null}" fill="#000000" stroke="none" stroke-width="0" stroke-linecap="butt"/><path d="M277.6115,383.49568l-8.96891,-9.46415l0.30112,-5.28185l8.80495,9.17415z" data-paper-data="{&quot;index&quot;:null}" fill="#000000" stroke="none" stroke-width="0" stroke-linecap="butt"/><path d="M279.24467,359.48623l-8.96892,-9.46415l0.30114,-5.28185l8.80492,9.17415z" data-paper-data="{&quot;index&quot;:null}" fill="#000000" stroke="none" stroke-width="0" stroke-linecap="butt"/><path d="M278.39624,371.95868l-8.96889,-9.46418l0.30111,-5.28182l8.80495,9.17412z" data-paper-data="{&quot;index&quot;:null}" fill="#000000" stroke="none" stroke-width="0" stroke-linecap="butt"/><path d="M372.1653,400.60163c-3.31575,2.60108 -13.52205,6.58097 -13.52205,6.58097l4.08457,-79.34201l16.10482,0.91017c0,0 -0.56964,18.33529 -0.88026,28.33292c-0.34925,11.242 -1.11301,35.82483 -1.11301,35.82483c0,0 -2.13302,5.69978 -4.67406,7.6931z" data-paper-data="{&quot;index&quot;:null}" fill="#638c9d" stroke="none" stroke-width="0" stroke-linecap="butt"/><path d="M381.82308,316.39085c0,0 -1.7644,24.52627 -2.5713,35.74239c-0.71758,9.97463 -2.03356,28.26777 -2.03356,28.26777l-16.10481,-0.91019l4.08455,-79.34202c0,0 9.73849,5.10712 12.76797,8.06677c2.32165,2.26815 3.85715,8.17526 3.85715,8.17526z" data-paper-data="{&quot;index&quot;:null}" fill="#638c9d" stroke="none" stroke-width="0" stroke-linecap="butt"/><path d="M358.39895,309.88598l8.76431,-0.67968l-1.84622,52.79439l-8.76431,0.67963z" data-paper-data="{&quot;index&quot;:null}" fill="#edff26" stroke="none" stroke-width="0" stroke-linecap="butt"/><path d="M356.71403,355.26643l9.69567,-8.12856l-0.24284,5.28511l-9.8885,8.39844z" data-paper-data="{&quot;index&quot;:null}" fill="#000000" stroke="none" stroke-width="0" stroke-linecap="butt"/><path d="M356.99562,343.0943l9.6957,-8.12855l-0.24288,5.28512l-9.88847,8.39842z" data-paper-data="{&quot;index&quot;:null}" fill="#000000" stroke="none" stroke-width="0" stroke-linecap="butt"/><path d="M357.39983,331.53577l9.69569,-8.12854l-0.24288,5.28511l-9.88847,8.39844z" data-paper-data="{&quot;index&quot;:null}" fill="#000000" stroke="none" stroke-width="0" stroke-linecap="butt"/><path d="M356.61441,349.09336l8.76431,-0.67966l-1.84622,52.79436l-8.76432,0.67963z" data-paper-data="{&quot;index&quot;:null}" fill="#edff26" stroke="none" stroke-width="0" stroke-linecap="butt"/><path d="M354.22996,394.43429l9.69567,-8.12857l-0.24284,5.28512l-9.8885,8.39844z" data-paper-data="{&quot;index&quot;:null}" fill="#000000" stroke="none" stroke-width="0" stroke-linecap="butt"/><path d="M354.51158,382.26214l9.69569,-8.12857l-0.24288,5.28514l-9.88847,8.39841z" data-paper-data="{&quot;index&quot;:null}" fill="#000000" stroke="none" stroke-width="0" stroke-linecap="butt"/><path d="M355.35271,358.20792l9.69569,-8.12857l-0.24287,5.28514l-9.88849,8.39841z" data-paper-data="{&quot;index&quot;:null}" fill="#000000" stroke="none" stroke-width="0" stroke-linecap="butt"/><path d="M354.91576,370.70362l9.69569,-8.12854l-0.24288,5.28509l-9.88847,8.39844z" data-paper-data="{&quot;index&quot;:null}" fill="#000000" stroke="none" stroke-width="0" stroke-linecap="butt"/><path d="M253.50676,311.18033c2.35927,-1.85075 9.62145,-4.68262 9.62145,-4.68262l-2.90631,56.45489l-11.4592,-0.64763c0,0 0.40534,-13.04628 0.62635,-20.15997c0.24851,-7.99912 0.79195,-25.49073 0.79195,-25.49073c0,0 1.51772,-4.0556 3.32576,-5.47395z" data-paper-data="{&quot;index&quot;:null}" fill="#304164" stroke="none" stroke-width="0" stroke-linecap="butt"/><path d="M247.0385,379.51408c0,0 1.25543,-17.45139 1.82958,-25.4321c0.51056,-7.09732 1.44694,-20.11359 1.44694,-20.11359l11.4592,0.64763l-2.90631,56.45489c0,0 -6.92932,-3.6339 -9.0849,-5.73982c-1.65194,-1.61388 -2.74451,-5.81701 -2.74451,-5.81701z" data-paper-data="{&quot;index&quot;:null}" fill="#304164" stroke="none" stroke-width="0" stroke-linecap="butt"/><path d="M382.91459,393.84041c-2.35927,1.85075 -9.62145,4.68262 -9.62145,4.68262l2.90632,-56.45489l11.4592,0.64762c0,0 -0.40534,13.04628 -0.62635,20.15997c-0.24849,7.99912 -0.79195,25.49075 -0.79195,25.49075c0,0 -1.51771,4.05561 -3.32576,5.47395z" data-paper-data="{&quot;index&quot;:null}" fill="#304164" stroke="none" stroke-width="0" stroke-linecap="butt"/><path d="M389.3829,325.50665c0,0 -1.25545,17.4514 -1.82959,25.43211c-0.51058,7.09732 -1.44694,20.11359 -1.44694,20.11359l-11.4592,-0.64765l2.90631,-56.45487c0,0 6.92933,3.63391 9.0849,5.73982c1.65194,1.61388 2.74451,5.81699 2.74451,5.81699z" data-paper-data="{&quot;index&quot;:null}" fill="#304164" stroke="none" stroke-width="0" stroke-linecap="butt"/><path d="M281.08186,319.56679l-8.96891,-9.46415l0.30111,-5.28184l8.80495,9.17414z" data-paper-data="{&quot;index&quot;:null}" fill="#000000" stroke="none" stroke-width="0" stroke-linecap="butt"/><path d="M367.19846,316.09522l-9.53497,8.41285l0.13765,-5.28863l9.7224,-8.6883z" data-paper-data="{&quot;index&quot;:null}" fill="#000000" stroke="none" stroke-width="0" stroke-linecap="butt"/></g></g></g></svg>