<svg version="1.1" xmlns="http://www.w3.org/2000/svg" xmlns:xlink="http://www.w3.org/1999/xlink" width="350.40736" height="213.84086" viewBox="0,0,350.40736,213.84086"><defs><radialGradient cx="215.53325" cy="193.21693" r="70.38312" gradientUnits="userSpaceOnUse" id="color-1"><stop offset="0" stop-color="#ffffff"/><stop offset="1" stop-color="#5d5d5d"/></radialGradient><radialGradient cx="197.93257" cy="98.47248" r="25.79533" gradientUnits="userSpaceOnUse" id="color-2"><stop offset="0" stop-color="#572424"/><stop offset="1" stop-color="#826d27"/></radialGradient><radialGradient cx="299.46341" cy="239.90545" r="26.70689" gradientUnits="userSpaceOnUse" id="color-3"><stop offset="0" stop-color="#572424"/><stop offset="1" stop-color="#826d27"/></radialGradient><radialGradient cx="299.46341" cy="239.90545" r="26.70689" gradientUnits="userSpaceOnUse" id="color-4"><stop offset="0" stop-color="#572424"/><stop offset="1" stop-color="#826d27"/></radialGradient><radialGradient cx="345.76206" cy="176.38253" r="40.38984" gradientUnits="userSpaceOnUse" id="color-5"><stop offset="0" stop-color="#572424"/><stop offset="1" stop-color="#826d27"/></radialGradient><radialGradient cx="217.15174" cy="192.05332" r="85.01063" gradientUnits="userSpaceOnUse" id="color-6"><stop offset="0" stop-color="#788bac"/><stop offset="1" stop-color="#4a4a4a"/></radialGradient><radialGradient cx="261.94419" cy="198.83338" r="65.59033" gradientUnits="userSpaceOnUse" id="color-7"><stop offset="0" stop-color="#c732c5"/><stop offset="1" stop-color="#000000"/></radialGradient><radialGradient cx="161.22775" cy="191.15579" r="51.46867" gradientUnits="userSpaceOnUse" id="color-8"><stop offset="0" stop-color="#a98d33"/><stop offset="1" stop-color="#692b2b"/></radialGradient><radialGradient cx="245.89622" cy="78.31836" r="40.14663" gradientUnits="userSpaceOnUse" id="color-9"><stop offset="0" stop-color="#572424"/><stop offset="1" stop-color="#826d27"/></radialGradient><linearGradient x1="328.34408" y1="103.55918" x2="328.38929" y2="136.96903" gradientUnits="userSpaceOnUse" id="color-10"><stop offset="0" stop-color="#2a2a2a"/><stop offset="1" stop-color="#5f5f5f"/></linearGradient><linearGradient x1="258.49353" y1="106.35987" x2="258.53749" y2="138.84166" gradientUnits="userSpaceOnUse" id="color-11"><stop offset="0" stop-color="#2a2a2a"/><stop offset="1" stop-color="#5f5f5f"/></linearGradient><linearGradient x1="407.22887" y1="113.39475" x2="407.23946" y2="121.21776" gradientUnits="userSpaceOnUse" id="color-12"><stop offset="0" stop-color="#5b5b5b"/><stop offset="1" stop-color="#1d1d1d"/></linearGradient><linearGradient x1="407.2982" y1="128.0823" x2="407.28761" y2="120.25931" gradientUnits="userSpaceOnUse" id="color-13"><stop offset="0" stop-color="#5b5b5b"/><stop offset="1" stop-color="#1d1d1d"/></linearGradient><linearGradient x1="342.8418" y1="127.74166" x2="342.84974" y2="133.60467" gradientUnits="userSpaceOnUse" id="color-14"><stop offset="0" stop-color="#5b5b5b"/><stop offset="1" stop-color="#1d1d1d"/></linearGradient><linearGradient x1="342.86614" y1="138.74939" x2="342.85821" y2="132.88639" gradientUnits="userSpaceOnUse" id="color-15"><stop offset="0" stop-color="#5b5b5b"/><stop offset="1" stop-color="#1d1d1d"/></linearGradient><linearGradient x1="342.29809" y1="102.34114" x2="342.30603" y2="108.20413" gradientUnits="userSpaceOnUse" id="color-16"><stop offset="0" stop-color="#5b5b5b"/><stop offset="1" stop-color="#1d1d1d"/></linearGradient><linearGradient x1="342.32243" y1="113.34885" x2="342.3145" y2="107.48585" gradientUnits="userSpaceOnUse" id="color-17"><stop offset="0" stop-color="#5b5b5b"/><stop offset="1" stop-color="#1d1d1d"/></linearGradient><radialGradient cx="232.65595" cy="191.05914" r="79.61723" gradientUnits="userSpaceOnUse" id="color-18"><stop offset="0" stop-color="#572424"/><stop offset="1" stop-color="#826d27"/></radialGradient></defs><g transform="translate(-137.54068,-62.86562)"><g data-paper-data="{&quot;isPaintingLayer&quot;:true}" fill-rule="nonzero" stroke-linecap="butt" stroke-linejoin="miter" stroke-miterlimit="10" stroke-dasharray="" stroke-dashoffset="0" style="mix-blend-mode: normal"><g><path d="M237.81399,228.64236l-0.16528,3.18413l-0.0386,0.74369l-0.56684,10.92028l-8.60307,5.48304l-12.23356,4.41866l-8.26132,-2.81711l-13.14242,-1.47029l-1.37044,4.72634l-22.38761,-4.15954l0.20468,-7.17597l0.02791,-3.66823l-0.59687,2.08307l-0.1938,-1.30689l1.86644,1.4595c-19.21075,-10.05378 -30.5128,-32.68014 -26.33671,-56.36463c2.94945,-16.72764 12.97354,-30.31868 26.17899,-37.8733l-0.23027,1.57575l0.02066,-2.71403l-1.25974,-8.49479l22.43477,-4.52903l1.92659,4.39092l1.39312,3.26661c2.12433,0.0064 4.2677,0.15573 6.42017,0.4554l-6.42995,-0.56923l0.01896,0.04322l14.90798,-3.94712l5.40892,-1.80382l15.50234,5.91519l5.33743,5.81985l-0.04963,7.20578l-0.02379,3.45554l-0.02142,3.10973l22.64099,-0.88664l10.76913,-5.73746l14.92299,16.41903l-1.92923,48.23519l-14.61571,16.72581l-7.79418,-7.52575l-23.56739,0.90567" fill="url(#color-1)" stroke="#000000" stroke-width="4.5"/><path d="M292.31558,78.25805l-2.51316,36.76091l-97.44632,-6.66187c-0.98251,-2.6706 -2.06743,-5.39746 -2.84542,-8.10349l1.97497,-28.88873z" fill="#515459" stroke="none" stroke-width="NaN"/><path d="M264.57649,81.47103l6.70484,1.36796l-6.52411,31.97691l-6.70484,-1.36796z" fill="#85a9b9" stroke="none" stroke-width="0"/><path d="M230.37672,78.71853l6.70484,1.36796l-6.52411,31.97691l-6.70484,-1.36796z" fill="#85a9b9" stroke="none" stroke-width="0"/><path d="M179.04391,83.68504l30.40119,-20.81942l57.10472,83.38608l-15.54111,10.64292c-0.87231,-1.91688 -2.21956,-3.88242 -4.18958,-5.84709c-7.41545,-7.3954 -14.81893,-5.96718 -19.59283,-3.60396c-1.14686,0.51374 -2.22858,1.14677 -3.22938,1.88327z" fill="#515459" stroke="none" stroke-width="NaN"/><path d="M207.16323,131.18788l-3.13834,-3.37662c0.2768,-5.15612 -1.08886,-12.94459 -10.71166,-16.7328c-1.17283,-3.5592 -2.79234,-7.27061 -3.83593,-10.94163c0,0 -4.07411,-6.09328 -10.89541,-7.77992l13.70684,-12.73963l32.61039,35.08622z" fill="url(#color-2)" stroke="none" stroke-width="NaN"/><path d="M331.26348,231.41591l-0.95581,-0.25894c-0.9275,-8.84721 -8.41575,-15.73721 -17.50628,-15.72491c-5.79742,0.00784 -10.9356,2.82121 -14.13183,7.15393l-2.97083,-0.80481l26.42668,-97.54905l35.56478,9.63473z" fill="#515459" stroke="none" stroke-width="NaN"/><path d="M224.54552,252.83713l85.70341,-53.56411l11.68883,18.70231c-2.6639,-1.61794 -5.79169,-2.54781 -9.13637,-2.54328c-9.70869,0.01314 -17.5685,7.89424 -17.55536,17.60293c0.00805,5.94968 2.97091,11.205 7.49839,14.3796l-36.20733,22.62935c-1.41815,-15.38462 -17.50334,-15.36285 -17.50334,-15.36285l-2.90094,0.00392c-7.44081,0.17782 -13.12373,0.85931 -18.33692,3.35273z" fill="#515459" stroke="none" stroke-width="NaN"/><path d="M275.34098,240.59405l19.93813,-8.67096c-0.02244,0.3677 -0.03359,0.73844 -0.0331,1.11189c0.01314,9.70869 7.89424,17.5685 17.60293,17.55536c0.07501,-0.0001 0.1499,-0.00067 0.22468,-0.00171l-28.07602,12.21006z" fill="url(#color-3)" stroke="none" stroke-width="NaN"/><path d="M328.92417,243.69534l-3.41151,1.48364c0.98789,-1.02982 1.85158,-2.17967 2.56706,-3.4254z" fill="url(#color-4)" stroke="none" stroke-width="NaN"/><path d="M313.23734,154.75319l0.8976,-6.78382l32.35367,4.2809l-0.8976,6.78382z" fill="#85a9b9" stroke="none" stroke-width="0"/><path d="M304.66556,187.97555l0.8976,-6.78382l32.35367,4.2809l-0.89763,6.78384z" fill="#85a9b9" stroke="none" stroke-width="0"/><path d="M317.91407,212.58772l24.32101,-75.63783l25.21511,7.84136l-4.8168,14.98013c-3.99989,3.22754 -6.55562,8.17223 -6.54813,13.71193c0.00219,1.61962 0.22335,3.18777 0.63541,4.67651l-13.5915,42.26927z" fill="url(#color-5)" stroke="none" stroke-width="NaN"/><path d="M176.11031,263.20577c5.5239,-2.96982 9.2758,-8.80706 9.26671,-15.51739c-0.01314,-9.70869 -7.89424,-17.5685 -17.60293,-17.55536c-5.79676,0.00784 -10.93441,2.82054 -14.13071,7.15241c-7.26595,-13.07179 -11.4785,-28.54361 -11.50094,-45.13062c-0.02666,-19.69629 5.85916,-37.83608 15.76003,-52.26305c2.95502,5.57169 8.81841,9.36329 15.56408,9.35416l5.80187,-0.00785c5.32752,1.25406 10.7174,-2.22665 16.07609,-3.33997l7.83115,-13.06396c0,0 5.14452,-15.50346 -9.42926,-21.58018c7.32955,-2.72281 15.15781,-4.20021 23.29033,-4.21121c41.4265,-0.05605 75.06082,37.95901 75.12435,84.90906c0.03766,27.82719 -11.72626,52.54755 -29.94082,68.08013c-5.21428,-5.36164 -13.18649,-5.35085 -13.18649,-5.35085l-2.90094,0.00392c-12.737,0.30441 -20.32305,2.08457 -29.21935,11.90269c-2.97521,3.28351 -4.70245,6.86396 -6.66211,10.11878c-12.52315,-1.2992 -24.15844,-6.08759 -34.14105,-13.50074zM242.50725,180.26548l4.34551,-4.35729c0,0 2.02856,-2.03406 3.62333,-5.27767c2.35028,-4.78025 3.75846,-12.18759 -3.65696,-19.583c-7.41545,-7.3954 -14.81893,-5.96718 -19.59283,-3.60396c-3.23929,1.60355 -5.26784,3.63759 -5.26784,3.63759l-4.34551,4.35729c0,0 -12.41351,12.44716 0.03364,24.86067c12.44716,12.41351 24.86067,-0.03364 24.86067,-0.03364zM171.88745,182.4354c0.01314,9.70869 7.89424,17.5685 17.60293,17.55536c9.70869,-0.01314 17.5685,-7.89424 17.55536,-17.60293c-0.01314,-9.70869 -7.89424,-17.5685 -17.60293,-17.55536c-9.70869,0.01314 -17.5685,7.89424 -17.55536,17.60293zM203.85077,221.55487c0.01314,9.70869 7.89424,17.5685 17.60293,17.55536c9.70869,-0.01314 17.5685,-7.89424 17.55536,-17.60293c-0.01314,-9.70869 -7.89424,-17.5685 -17.60293,-17.55536c-9.70869,0.01314 -17.5685,7.89424 -17.55536,17.60293z" fill="url(#color-6)" stroke="none" stroke-width="0"/><path d="M282.00161,155.83584l17.51399,-0.0237l0.08879,65.6126c-1.61148,1.83734 -2.846,4.01336 -3.58299,6.40717l-13.92234,0.01884z" fill="#85a9b9" stroke="#000000" stroke-width="2"/><path d="M253.10717,117.87233c0,0 20.73303,-4.08043 27.07397,14.06599c4.93193,14.11413 -4.17284,49.69321 -4.15967,59.41749c0.0143,10.5648 7.32008,44.86569 2.89752,57.84224c-3.02475,8.87516 -8.75329,12.8956 -14.02695,14.65542c-2.67835,-5.53352 -7.88273,-7.72878 -11.59895,-8.59968z" fill="#515459" stroke="#000000" stroke-width="2"/><path d="M251.90635,125.88581c0,0 18.43579,-3.6283 24.07414,12.50748c4.38548,12.55027 -3.71047,44.18715 -3.69876,52.83398c0.01271,9.3942 6.50901,39.89455 2.57645,51.43329c-3.67785,10.7914 -11.85116,13.51104 -17.33852,14.05676c-1.9646,-0.9344 -3.90818,-1.44002 -5.43859,-1.7136l-0.11976,-88.50626c0.47633,-2.09188 0.58737,-4.42516 -0.00932,-6.88515z" fill="url(#color-7)" stroke="#000000" stroke-width="2"/><path d="M139.35348,194.5273c-0.0219,-16.18464 13.12103,-46.1652 17.78107,-56.28521c2.60682,6.45949 8.93962,11.01384 16.33195,11.00384l5.80187,-0.00785c1.67694,0.39474 3.36006,0.32037 5.04643,-0.00165l0.02213,16.35621c-7.21513,2.19767 -12.46027,8.91017 -12.44952,16.84273c0.01073,7.93257 5.27401,14.63087 12.49506,16.80899l0.05791,42.79141c-2.36354,-6.93184 -8.93553,-11.91325 -16.66633,-11.90279c-5.80015,0.00785 -10.94043,2.82385 -14.13635,7.16003c-5.78441,-11.80921 -14.26851,-31.11155 -14.28428,-42.76576z" fill="#788bac" stroke="#000000" stroke-width="2"/><path d="M186.3221,244.46572c-0.41699,0.00056 -0.83273,-0.00464 -1.24718,-0.01556c-1.53103,-8.15962 -8.69855,-14.32878 -17.30085,-14.31713c-4.00982,0.00542 -7.70426,1.35296 -10.6589,3.61708c-11.2793,-9.3991 -18.55208,-24.12517 -18.57449,-40.68842c-0.02725,-20.14027 10.6729,-37.59316 26.28547,-46.06876c2.5529,1.43837 5.50111,2.25726 8.64036,2.25302l5.80187,-0.00785c5.32752,1.25406 10.7174,-2.22665 16.07609,-3.33997l1.809,-3.01781c7.98524,2.01509 15.20018,6.19377 21.08362,11.93229l-0.62415,0.62584c0,0 -12.41351,12.44716 0.03364,24.86067c5.65747,5.64219 11.308,6.14845 15.78913,5.02194c0.34473,2.48351 0.52502,5.02511 0.52852,7.61149c0.00686,5.06427 -0.66455,9.95862 -1.92178,14.58304c-2.95533,-2.24125 -6.64109,-3.56906 -10.63634,-3.56365c-9.70869,0.01314 -17.5685,7.89424 -17.55536,17.60293c0.00841,6.22126 3.24755,11.68335 8.12806,14.8012c-7.40412,5.12185 -16.20764,8.09685 -25.65671,8.10964zM171.88745,182.4354c0.01314,9.70869 7.89424,17.5685 17.60293,17.55536c9.70869,-0.01314 17.5685,-7.89424 17.55536,-17.60293c-0.01314,-9.70869 -7.89424,-17.5685 -17.60293,-17.55536c-9.70869,0.01314 -17.5685,7.89424 -17.55536,17.60293z" fill="url(#color-8)" stroke="#000000" stroke-width="2"/><path d="M181.19422,64.14435l1.50274,-0.00203l0.00203,1.50274l-1.50274,0.00203z" fill="#d5e9ff" stroke="#000000" stroke-width="2"/><path d="M284.01085,144.3805l15.85026,-0.02145l0.10375,76.66711c-2.93292,3.14579 -4.72511,7.36857 -4.71882,12.00881c0.00127,0.93751 0.07591,1.85779 0.21846,2.75539l-11.32993,0.01533z" fill="#85a9b9" stroke="#000000" stroke-width="2"/><path d="M284.02773,156.85854l17.51399,-0.0237l0.08474,62.62522c-2.87497,2.37861 -4.98012,5.6544 -5.88695,9.39767l-11.61434,0.01571z" fill="#85a9b9" stroke="#000000" stroke-width="2"/><path d="M283.69589,178.41035l24.7951,-0.03355l0.03661,27.04919l-24.7951,0.03355z" fill="#52809a" stroke="#000000" stroke-width="2"/><path d="M284.69796,185.21604l16.53005,-0.02237l0.02135,15.77869l-16.53005,0.02237z" fill="#52809a" stroke="#000000" stroke-width="2"/><path d="M205.7462,63.73971l79.4331,1.72482l-0.82684,26.39328l-79.43312,-1.72482z" fill="url(#color-9)" stroke="none" stroke-width="NaN"/><path d="M289.73776,128.88467l2.6319,-0.00357l0.00285,2.10553l-2.6319,0.00357z" fill="#918b9f" stroke="none" stroke-width="0"/><g><path d="M321.42183,89.04745l0.75136,-0.00102l0.00612,4.52503l-0.75136,0.00102z" fill="#738fa7" stroke="#000000" stroke-width="2"/><path d="M296.75856,103.60192l63.17107,-0.08548l0.04521,33.40984l-63.17107,0.08548z" fill="url(#color-10)" stroke="none" stroke-width="0"/><path d="M214.65581,106.41919l87.41411,7.42736l0.29861,19.9921l-87.66879,5.06234z" fill="url(#color-11)" stroke="none" stroke-width="0"/><g fill="#592724" stroke="none" stroke-width="0"><path d="M247.17194,106.38242l16.22718,7.64923l26.46751,-1.16207l-0.16844,15.20303l-26.40978,-1.18016l-16.07781,8.06712z"/><path d="M263.70599,114.24601l50.08562,-0.06777l0.01771,13.08982l-50.08562,0.06777z"/><path d="M294.90081,112.62999l31.88144,-7.29077l0.04004,29.59437l-32.10081,-6.60021z"/></g><path d="M326.57904,113.50389c0,0 61.56589,-0.08331 89.79504,-0.12151c25.19064,-0.03409 71.50466,-0.09676 71.50466,-0.09676l0.01059,7.823l-161.2997,0.21826z" fill="url(#color-12)" stroke="none" stroke-width="0"/><path d="M326.63775,120.36845l161.2997,-0.21826l0.01059,7.82299c0,0 -46.31403,0.06267 -71.50467,0.09676c-28.22915,0.0382 -89.79502,0.12151 -89.79502,0.12151z" data-paper-data="{&quot;index&quot;:null}" fill="url(#color-13)" stroke="none" stroke-width="0"/><path d="M327.44686,127.76249c0,0 11.75208,-0.0159 17.14065,-0.02319c4.80855,-0.0065 13.64925,-0.01847 13.64925,-0.01847l0.00793,5.86302l-30.7899,0.04167z" fill="url(#color-14)" stroke="none" stroke-width="0"/><path d="M327.46326,132.90722l30.7899,-0.04167l0.00793,5.86298c0,0 -8.84071,0.01196 -13.64927,0.01847c-5.38856,0.00729 -17.14063,0.02319 -17.14063,0.02319z" data-paper-data="{&quot;index&quot;:null}" fill="url(#color-15)" stroke="none" stroke-width="0"/><path d="M326.90315,102.36197c0,0 11.75209,-0.0159 17.14065,-0.02319c4.80855,-0.0065 13.64925,-0.01847 13.64925,-0.01847l0.00793,5.86299l-30.7899,0.04167z" fill="url(#color-16)" stroke="none" stroke-width="0"/><path d="M326.91955,107.50668l30.7899,-0.04167l0.00793,5.86302c0,0 -8.84071,0.01196 -13.64927,0.01847c-5.38856,0.00729 -17.14065,0.02319 -17.14065,0.02319z" data-paper-data="{&quot;index&quot;:null}" fill="url(#color-17)" stroke="none" stroke-width="0"/></g><path d="M206.05418,112.04969c0,0 14.41063,3.73735 21.79472,3.72735c3.20699,-0.00434 18.60256,-1.96477 23.02128,12.12845c4.89674,15.61781 6.89189,98.09001 -1.71431,126.7775c-0.08006,-0.00194 -0.12215,-0.00189 -0.12215,-0.00189l-2.90094,0.00392c-12.737,0.30441 -20.32305,2.08457 -29.21935,11.90269c-1.26902,1.40052 -2.31099,2.85507 -3.24081,4.31531c-4.40878,-0.42286 -7.40497,-1.06633 -7.40497,-1.06633c0,0 2.18591,-17.35277 2.22559,-36.40291c3.21803,3.49571 7.8345,5.6834 12.96043,5.67647c9.70869,-0.01314 17.5685,-7.89424 17.55536,-17.60293c-0.01314,-9.70869 -7.89424,-17.5685 -17.60293,-17.55536c-5.79522,0.00784 -10.9317,2.81908 -14.12819,7.149c-0.59377,-4.59344 -1.43945,-8.89477 -2.60958,-12.64207c-0.56805,-1.81922 -0.77878,-3.8526 -0.73989,-6.05046c1.97004,-2.8446 3.12231,-6.29827 3.11727,-10.0206c-0.00232,-1.71138 -0.2491,-3.3653 -0.70729,-4.92879c1.51543,-6.62776 3.22798,-13.65261 3.47201,-20.30609c0.19093,-5.20575 -1.38692,-11.04966 -1.61884,-15.83083c-0.82415,-16.98964 -2.13742,-29.27241 -2.13742,-29.27241zM242.50725,180.26548l4.34551,-4.35729c0,0 2.02856,-2.03406 3.62333,-5.27767c2.35028,-4.78025 3.75846,-12.18759 -3.65696,-19.583c-7.41545,-7.3954 -14.81893,-5.96718 -19.59283,-3.60396c-3.23929,1.60355 -5.26784,3.63759 -5.26784,3.63759l-4.34551,4.35729c0,0 -12.41351,12.44716 0.03364,24.86067c12.44716,12.41351 24.86067,-0.03364 24.86067,-0.03364z" fill="url(#color-18)" stroke="#000000" stroke-width="2"/></g></g></g></svg>