<svg version="1.1" xmlns="http://www.w3.org/2000/svg" xmlns:xlink="http://www.w3.org/1999/xlink" width="281.05142" height="231.19626" viewBox="0,0,281.05142,231.19626"><defs><radialGradient cx="213.31529" cy="180.57714" r="62.88607" gradientUnits="userSpaceOnUse" id="color-1"><stop offset="0" stop-color="#ffffff"/><stop offset="1" stop-color="#5d5d5d"/></radialGradient><radialGradient cx="256.44897" cy="281.14015" r="23.04766" gradientUnits="userSpaceOnUse" id="color-2"><stop offset="0" stop-color="#623ff2"/><stop offset="1" stop-color="#7c53cf"/></radialGradient><radialGradient cx="300.14035" cy="232.3321" r="35.8703" gradientUnits="userSpaceOnUse" id="color-3"><stop offset="0" stop-color="#623ff2"/><stop offset="1" stop-color="#7c53cf"/></radialGradient><radialGradient cx="194.53406" cy="93.90445" r="23.04766" gradientUnits="userSpaceOnUse" id="color-4"><stop offset="0" stop-color="#623ff2"/><stop offset="1" stop-color="#7c53cf"/></radialGradient><radialGradient cx="214.70613" cy="176.92542" r="75.95549" gradientUnits="userSpaceOnUse" id="color-5"><stop offset="0" stop-color="#788bac"/><stop offset="1" stop-color="#4a4a4a"/></radialGradient><radialGradient cx="253.88839" cy="160.50005" r="58.661" gradientUnits="userSpaceOnUse" id="color-6"><stop offset="0" stop-color="#c732c5"/><stop offset="1" stop-color="#000000"/></radialGradient><radialGradient cx="197.99681" cy="165.34676" r="45.98634" gradientUnits="userSpaceOnUse" id="color-7"><stop offset="0" stop-color="#623ff2"/><stop offset="1" stop-color="#7c53cf"/></radialGradient><radialGradient cx="223.47837" cy="170.59497" r="71.13658" gradientUnits="userSpaceOnUse" id="color-8"><stop offset="0" stop-color="#38255d"/><stop offset="1" stop-color="#3000f3"/></radialGradient><radialGradient cx="256.7929" cy="74.59194" r="35.8703" gradientUnits="userSpaceOnUse" id="color-9"><stop offset="0" stop-color="#623ff2"/><stop offset="1" stop-color="#7c53cf"/></radialGradient><linearGradient x1="424.53986" y1="105.24779" x2="390.62431" y2="105.77516" gradientUnits="userSpaceOnUse" id="color-10"><stop offset="0" stop-color="#17181a"/><stop offset="1" stop-color="#6d6b6b"/></linearGradient></defs><g transform="translate(-143.48844,-61.60787)"><g data-paper-data="{&quot;isPaintingLayer&quot;:true}" fill-rule="nonzero" stroke-linejoin="miter" stroke-miterlimit="10" stroke-dasharray="" stroke-dashoffset="0" style="mix-blend-mode: normal"><path d="M196.09336,77.18528l1.30484,-0.04998l0.04998,1.30484l-1.30484,0.04998z" fill="#d5e9ff" stroke="#000000" stroke-width="2" stroke-linecap="butt"/><g><path d="M233.67002,211.94336l-0.10727,2.84677l-0.02505,0.66489l-0.3679,9.76328l-7.61638,5.00761l-10.87332,4.10275l-7.41632,-2.41201l-11.75999,-1.14687l-1.1644,4.23986l-20.05367,-3.43217l0.09185,-6.41355l-0.02159,-3.27752l-0.50683,1.86856l-0.18972,-1.16511l1.68597,1.28023c-17.29024,-8.73833 -27.67437,-28.80919 -24.24387,-50.0217c2.42287,-14.98175 11.20594,-27.25101 22.90777,-34.16773l-0.18573,1.41069l-0.01597,-2.42495l-1.23318,-7.5732l19.9856,-4.33073l1.77689,3.89838l1.28603,2.9007c1.89794,-0.02122 3.8147,0.085 5.7415,0.32543l-5.75169,-0.427l0.01748,0.03837l13.26862,-3.71539l4.80941,-1.68012l13.92469,5.08798l4.84222,5.13172l0.04705,6.43823l0.02258,3.08745l0.0203,2.77848l20.21604,-1.07926l9.54829,-5.26238l13.54032,14.47937l-1.11181,43.11741l-12.84543,15.12808l-7.0587,-6.6246l-21.04343,1.10801" fill="url(#color-1)" stroke="#000000" stroke-width="4.5" stroke-linecap="butt"/><path d="M274.09508,289.75053l-12.10876,-4.89546c-2.40162,-5.75802 -8.1276,-9.76423 -14.74619,-9.66132c-0.99114,0.01541 -1.95942,0.1223 -2.89691,0.31252l33.07604,-81.81248l30.52183,12.33969l-12.96528,32.06918c-5.59404,2.47414 -9.45753,8.11407 -9.35644,14.6152c0.03123,2.00822 0.43801,3.92253 1.15245,5.67711z" data-paper-data="{&quot;index&quot;:null}" fill="#515459" stroke="none" stroke-width="NaN" stroke-linecap="butt"/><path d="M266.27982,219.82102l1.51972,-5.92218l28.24426,7.24789l-1.51972,5.92218z" data-paper-data="{&quot;index&quot;:null}" fill="#85a9b9" stroke="none" stroke-width="0" stroke-linecap="butt"/><path d="M255.13285,248.3783l1.51972,-5.92218l28.24426,7.24789l-1.51972,5.92218z" data-paper-data="{&quot;index&quot;:null}" fill="#85a9b9" stroke="none" stroke-width="0" stroke-linecap="butt"/><path d="M214.63369,216.47657l28.60501,-16.29736l44.70132,78.45945l-24.86312,14.16547c0.08509,-0.70362 0.12355,-1.4213 0.11222,-2.1498c-0.13042,-8.38765 -6.81241,-15.13728 -15.09662,-15.45109z" data-paper-data="{&quot;index&quot;:null}" fill="#515459" stroke="none" stroke-width="NaN" stroke-linecap="butt"/><path d="M252.32084,245.97174l15.45647,39.90997l-4.89655,1.89635c-1.46622,-7.27681 -7.95099,-12.70387 -15.64062,-12.5843c-2.23246,0.03471 -4.3489,0.53356 -6.25883,1.40319l-8.83474,-22.81205z" data-paper-data="{&quot;index&quot;:null}" fill="url(#color-2)" stroke="none" stroke-width="NaN" stroke-linecap="butt"/><path d="M264.2608,271.6245l29.6414,-64.50426l21.53197,9.64506l-9.50628,20.68713c-1.53108,-0.46889 -3.16051,-0.70975 -4.84794,-0.68351c-8.67351,0.13487 -15.59544,7.27546 -15.46057,15.94897c0.08548,5.49731 2.98524,10.29101 7.30584,13.03034l-7.13246,15.52132z" data-paper-data="{&quot;index&quot;:null}" fill="url(#color-3)" stroke="none" stroke-width="NaN" stroke-linecap="butt"/><path d="M280.4137,74.30833l-1.77901,32.87379l-90.1681,-4.87953l1.77901,-32.87379l27.11073,1.46713c2.36322,2.34049 5.90576,4.08121 11.21573,3.99864c4.16976,-0.06484 7.21519,-1.21957 9.43939,-2.88087z" fill="#515459" stroke="none" stroke-width="NaN" stroke-linecap="butt"/><path d="M255.67259,77.53059l6.0074,1.13709l-5.42304,28.65067l-6.0074,-1.13709z" fill="#85a9b9" stroke="none" stroke-width="0" stroke-linecap="butt"/><path d="M225.08384,75.50527l6.0074,1.13709l-5.42304,28.65067l-6.0074,-1.13709z" fill="#85a9b9" stroke="none" stroke-width="0" stroke-linecap="butt"/><path d="M179.2865,80.59335l26.89614,-18.98548l52.07447,73.77224l-26.89614,18.98548z" fill="#515459" stroke="none" stroke-width="NaN" stroke-linecap="butt"/><path d="M205.01054,122.67539l-29.57885,-30.93217l15.63605,-14.95194l29.57885,30.93217z" fill="url(#color-4)" stroke="none" stroke-width="NaN" stroke-linecap="butt"/><path d="M147.69468,177.96742c-0.04991,-3.20991 0.0766,-6.37606 0.36944,-9.48657c1.71894,0.61121 3.57434,0.93109 5.50573,0.90106c8.67351,-0.13487 15.59544,-7.27546 15.46057,-15.94897c-0.08215,-5.28283 -2.76324,-9.91587 -6.80668,-12.70039c8.66111,-0.14897 15.56882,-7.28386 15.43409,-15.94854c-0.05211,-3.35118 -1.15005,-6.44088 -2.97815,-8.9631c10.85886,-9.12966 24.26755,-14.61511 38.84551,-14.84179c37.0094,-0.57548 67.54017,32.96032 68.19238,74.90431c0.57376,36.8989 -22.16678,68.01277 -52.8423,75.35557c-0.00008,-0.07686 -0.00073,-0.15385 -0.00193,-0.23096c-0.13487,-8.67351 -7.27546,-15.59544 -15.94897,-15.46057c-8.26248,0.12848 -14.93546,6.61444 -15.43276,14.7268c-15.59767,-4.75577 -28.99682,-15.72749 -37.95613,-30.45319c3.22994,-2.92912 5.23107,-7.18095 5.15795,-11.88337c-0.13279,-8.53955 -7.05656,-15.3812 -15.5482,-15.46179c-0.87682,-4.6897 -1.3733,-9.5401 -1.45055,-14.50848zM181.82198,152.30864c-0.01192,0.15857 -0.02126,0.31763 -0.02863,0.47703c-2.06316,0.8344 -4.02724,2.04834 -5.83253,3.68926c-1.70448,1.54929 -2.95767,4.4391 -3.66815,7.88114c-2.08786,2.71345 -3.30724,6.12539 -3.24988,9.8147c0.08091,5.20338 2.68319,9.77638 6.62519,12.57353l5.09578,3.69946l0.29119,-0.40109c0.28865,0.39757 0.58427,0.79053 0.88756,1.17842c1.83143,2.34243 5.20976,2.96601 8.05263,3.83737c8.95062,2.74341 22.9848,4.89548 28.2843,-7.66712c0.87586,-0.45277 1.68305,-1.03138 2.40177,-1.77016c11.10683,-11.4168 11.11493,-31.76854 -0.44408,-42.46885c-3.85084,-3.56476 -10.03341,-3.07838 -15.05012,-4.61757l-6.73195,0.02823c0,0 -0.12755,0.00198 -0.35948,0.01709c-14.40451,-0.98572 -16.27359,13.72859 -16.27359,13.72859zM246.91247,180.73669c0.13487,8.67351 7.27546,15.59544 15.94897,15.46057c8.67351,-0.13487 15.59544,-7.27546 15.46057,-15.94897c-0.13487,-8.67351 -7.27546,-15.59544 -15.94897,-15.46057c-8.67351,0.13487 -15.59544,7.27546 -15.46057,15.94897z" fill="url(#color-5)" stroke="none" stroke-width="0" stroke-linecap="butt"/><path d="M272.18319,143.74654l15.64657,-0.2433l1.0004,64.33633l-15.64657,0.2433l-0.24492,-15.75072c3.36193,-2.93378 5.45812,-7.27302 5.38332,-12.08387c-0.07481,-4.81084 -2.30492,-9.08282 -5.75642,-11.91066z" fill="#85a9b9" stroke="#000000" stroke-width="2" stroke-linecap="butt"/><path d="M245.88763,110.19669c0,0 18.47098,-3.90837 24.36606,12.22308c3.48095,9.52536 -0.10883,30.20587 -1.98059,43.41526c-1.82823,-0.70617 -3.82007,-1.07966 -5.90009,-1.04732c-8.16285,0.12693 -14.77431,6.45893 -15.41208,14.43405z" fill="#515459" stroke="#000000" stroke-width="2" stroke-linecap="butt"/><path d="M270.61325,227.19471c-5.58377,17.17853 -22.68316,14.35376 -22.68316,14.35376l-0.92207,-59.2991c0.88544,7.95143 7.69057,14.07482 15.85341,13.94789c2.43223,-0.03782 4.72672,-0.62653 6.76648,-1.64547c1.66829,11.93341 3.25111,25.67225 0.98534,32.64293z" fill="#515459" stroke="#000000" stroke-width="2" stroke-linecap="butt"/><path d="M244.91646,117.3711c0,0 16.42437,-3.4753 21.66627,10.86876c2.93584,8.03367 0.2154,24.99097 -1.49284,36.73919c-0.88374,-0.13979 -1.79159,-0.20571 -2.71687,-0.19132c-8.67351,0.13487 -15.59544,7.27546 -15.46057,15.94897c0.13487,8.67351 7.27546,15.59544 15.94897,15.46057c1.24811,-0.01941 2.45993,-0.18388 3.61967,-0.47712c1.28349,9.73687 2.22739,20.12921 0.42134,25.68551c-4.96509,15.27513 -20.16984,12.76335 -20.16984,12.76335z" fill="url(#color-6)" stroke="#000000" stroke-width="2" stroke-linecap="butt"/><path d="M184.62589,126.16454l0.28576,18.37722c-2.57441,3.71049 -3.08967,7.76687 -3.08967,7.76687c-0.01192,0.15857 -0.02126,0.31763 -0.02863,0.47703c-2.06316,0.8344 -4.02724,2.04834 -5.83253,3.68926c-1.70448,1.54929 -2.95767,4.4391 -3.66815,7.88114c-2.08786,2.71345 -3.30724,6.12539 -3.24988,9.8147c0.08091,5.20338 2.68319,9.77638 6.62519,12.57353l5.09578,3.69946l0.29119,-0.40109c0.28865,0.39757 0.58427,0.79053 0.88756,1.17842c0.93425,1.19492 2.27103,1.94255 3.73394,2.50397l0.51512,33.12732l-22.82258,0.35488c0,0 -1.63836,-2.86512 -3.93029,-7.29912c3.2867,-2.93159 5.32861,-7.22122 5.25476,-11.97045c-0.13487,-8.67351 -7.27546,-15.59544 -15.94897,-15.46057c-0.36787,0.00572 -0.73259,0.02404 -1.09374,0.05455c-1.42399,-4.56254 -2.3626,-8.87371 -2.41758,-12.40933c-0.05396,-3.46995 0.55938,-7.65938 1.57863,-12.14889c2.05603,0.9385 4.34787,1.44594 6.75806,1.40847c8.67351,-0.13487 15.59544,-7.27546 15.46057,-15.94897c-0.08215,-5.28283 -2.76324,-9.91587 -6.80668,-12.70039c8.1593,-0.14034 14.76247,-6.48054 15.38761,-14.45893z" fill="#788bac" stroke="#000000" stroke-width="2" stroke-linecap="butt"/><path d="M187.82791,224.14125c-9.3276,0.14504 -18.00569,-2.95281 -25.1091,-8.3262c1.29763,-2.32898 2.01907,-5.02 1.97464,-7.87737c-0.13487,-8.67351 -7.27546,-15.59544 -15.94897,-15.46057c-0.70321,0.01093 -1.39492,0.06792 -2.07228,0.16804c-1.34672,-4.3516 -2.10869,-8.9945 -2.18376,-13.82188c-0.06134,-3.94449 0.33957,-7.78012 1.1488,-11.44693c2.34162,1.31709 5.05262,2.05035 7.93263,2.00557c8.67351,-0.13487 15.59544,-7.27546 15.46057,-15.94897c-0.08203,-5.27531 -2.7556,-9.90267 -6.78942,-12.68849c0.0054,-0.00417 0.01079,-0.00835 0.01619,-0.01252c5.18259,-0.09996 9.73427,-2.70134 12.52009,-6.63332c3.68456,-1.18955 7.58232,-1.85612 11.62067,-1.91891c8.78387,-0.13659 16.99172,2.60266 23.85099,7.40988c-1.7303,-0.27695 -3.45586,-0.5621 -5.06193,-1.05487l-6.73195,0.02823c0,0 -0.12755,0.00198 -0.35948,0.01709c-14.40451,-0.98572 -16.27359,13.72859 -16.27359,13.72859c-0.01192,0.15857 -0.02126,0.31763 -0.02863,0.47703c-2.06316,0.8344 -4.02724,2.04834 -5.83253,3.68926c-1.70448,1.54929 -2.95767,4.4391 -3.66815,7.88114c-2.08786,2.71345 -3.30724,6.12539 -3.24988,9.8147c0.08091,5.20338 2.68319,9.77638 6.62519,12.57353l5.09578,3.69946l0.29119,-0.40109c0.28865,0.39757 0.58427,0.79053 0.88756,1.17842c1.83143,2.34243 5.20976,2.96601 8.05263,3.83737c8.95062,2.74341 22.9848,4.89548 28.2843,-7.66712c0.87586,-0.45277 1.68305,-1.03138 2.40177,-1.77016c4.5803,-4.70812 7.27311,-10.93573 8.04562,-17.37936c0.61468,2.98522 0.96124,6.08065 1.01061,9.2559c0.39487,25.39448 -18.36867,46.27751 -41.90954,46.64356z" fill="url(#color-7)" stroke="#000000" stroke-width="2" stroke-linecap="butt"/><path d="M203.77701,105.59154c0,0 12.92174,3.15615 19.5185,3.05357c2.86504,-0.04455 16.59446,-1.99124 20.72085,10.54349c2.35545,7.15515 4.24807,30.16747 4.52859,54.32008c-1.08129,2.17431 -1.67284,4.63252 -1.63248,7.228c0.03735,2.40215 0.61206,4.66997 1.60788,6.69072c-0.36234,22.92361 -2.38976,44.31866 -7.07764,51.43861c-2.90581,4.41336 -7.89765,6.7221 -13.23418,7.84461c-1.97446,-6.55057 -8.10406,-11.27484 -15.28415,-11.16319c-2.18263,0.03394 -4.25435,0.51151 -6.1306,1.34551c0.68849,-10.0486 1.32045,-26.21933 -0.30937,-40.07899c4.90263,-0.87549 9.30951,-3.53068 11.79502,-9.42265c0.87586,-0.45277 1.68305,-1.03138 2.40177,-1.77016c11.10683,-11.4168 11.11493,-31.76854 -0.44408,-42.46885c-3.37747,-3.12655 -8.54863,-3.13673 -13.15369,-4.13048c-0.406,-2.54971 -0.88452,-5.05703 -1.02561,-7.30564c-0.95176,-15.16795 -2.28081,-26.12464 -2.28081,-26.12464z" fill="url(#color-8)" stroke="#000000" stroke-width="2" stroke-linecap="butt"/><path d="M180.95973,63.10858l1.34251,-0.02088l0.02088,1.34251l-1.34251,0.02088z" fill="#d5e9ff" stroke="#000000" stroke-width="2" stroke-linecap="butt"/><path d="M273.83294,133.48694l14.16022,-0.22019l1.27004,81.67701l-14.16022,0.22019l-0.38344,-24.65934c2.30234,-2.78032 3.66298,-6.36398 3.60245,-10.25633c-0.06052,-3.89236 -1.53193,-7.43197 -3.9196,-10.13936z" fill="#85a9b9" stroke="#000000" stroke-width="2" stroke-linecap="butt"/><path d="M274.00628,144.63452l15.64657,-0.2433l1.0004,64.33633l-15.64657,0.2433l-0.28714,-18.46623c2.30234,-2.78032 3.66298,-6.36398 3.60245,-10.25633c-0.06052,-3.89236 -1.53193,-7.43197 -3.9196,-10.13936z" fill="#85a9b9" stroke="#000000" stroke-width="2" stroke-linecap="butt"/><path d="M273.98313,163.89295l22.15132,-0.34444l0.37576,24.16507l-20.10793,0.31267c1.26304,-2.30601 1.96352,-4.96115 1.91972,-7.77796c-0.06325,-4.06771 -1.66737,-7.75016 -4.24781,-10.50016z" fill="#52809a" stroke="#000000" stroke-width="2" stroke-linecap="butt"/><path d="M274.9647,169.96039l14.76754,-0.22963l0.21919,14.09629l-12.02363,0.18696c0.27706,-1.20889 0.41434,-2.47021 0.3942,-3.76572c-0.0555,-3.56927 -1.29738,-6.84191 -3.34424,-9.44824z" fill="#52809a" stroke="#000000" stroke-width="2" stroke-linecap="butt"/><path d="M202.88916,62.4357l10.14221,0.07623c0.97885,4.55944 4.29851,12.55744 15.54069,12.38263c10.68486,-0.16614 13.98716,-7.48878 15.00658,-12.15305l30.29731,0.2277l-0.40396,23.59004l-70.98681,-0.53352z" fill="url(#color-9)" stroke="none" stroke-width="NaN" stroke-linecap="butt"/><path d="M278.75277,119.57046l2.35127,-0.03656l0.02925,1.88102l-2.35127,0.03656z" fill="#918b9f" stroke="none" stroke-width="0" stroke-linecap="butt"/><path d="M274.3875,80.86259l15.64657,-0.2433c0,0 4.16507,13.54273 4.27013,20.29914c0.11952,7.68662 -3.59077,23.39092 -3.59077,23.39092l-15.64657,0.2433c0,0 4.17213,-14.2608 4.05737,-21.64063c-0.11161,-7.17793 -4.73673,-22.04944 -4.73673,-22.04944z" fill="#85a9b9" stroke="#000000" stroke-width="2" stroke-linecap="butt"/><g><path d="M194.14033,94.49193l197.49465,1.13127c0,0 3.84354,2.87613 9.66748,6.06893c3.41899,1.87436 10.78134,-0.33053 10.80521,1.20466c0.02722,1.75074 -2.68818,5.43375 -6.95193,7.92225c-5.35256,3.12395 -12.50762,4.91852 -12.50762,4.91852l-198.12954,3.08083z" fill="#6d6b6b" stroke="none" stroke-width="NaN" stroke-linecap="butt"/><path d="M192.63878,78.27274l48.73962,16.52899l-0.07749,22.45952l-47.78851,17.19442z" fill="#17181a" stroke="none" stroke-width="0" stroke-linecap="butt"/><path d="M267.452,95.3553l43.66865,-8.86658l0.65368,42.03873l-44.40111,-10.79531z" fill="#17181a" stroke="none" stroke-width="0" stroke-linecap="butt"/><path d="M311.51353,92.80697l53.25857,8.45538l24.26739,-9.66087l33.13014,13.67272l-32.69718,14.17112l-25.07652,-7.25534l-52.44945,8.46083z" fill="#6d6b6b" stroke="none" stroke-width="0" stroke-linecap="butt"/><path d="M343.60352,119.61245l0.12149,-27.30636" fill="none" stroke="#000000" stroke-width="0.5" stroke-linecap="round"/><path d="M336.02705,119.66228l0.12147,-27.30638" fill="none" stroke="#000000" stroke-width="0.5" stroke-linecap="round"/><path d="M317.83673,103.08434l46.95234,-0.73009l0.09338,6.00553l-46.95234,0.73009z" fill="#17181a" stroke="none" stroke-width="0" stroke-linecap="butt"/><path d="M389.36433,119.99308c-0.75381,0.01172 -1.46562,-6.45626 -1.58987,-14.44664c-0.12425,-7.99038 0.38612,-14.47738 1.13993,-14.4891c0.75381,-0.01172 1.46561,6.45627 1.58985,14.44665c0.12425,7.99038 -0.38612,14.47736 -1.13992,14.48908z" fill="#17181a" stroke="none" stroke-width="0" stroke-linecap="butt"/><path d="M390.41208,92.12622l34.12778,13.12156l-33.70331,14.17632z" fill="url(#color-10)" stroke="none" stroke-width="0" stroke-linecap="butt"/></g></g></g></g></svg>