<svg version="1.1" xmlns="http://www.w3.org/2000/svg" xmlns:xlink="http://www.w3.org/1999/xlink" width="193.54334" height="273.70537" viewBox="0,0,193.54334,273.70537"><defs><radialGradient cx="210.40347" cy="171.68615" r="59.2416" gradientUnits="userSpaceOnUse" id="color-1"><stop offset="0" stop-color="#ffffff"/><stop offset="1" stop-color="#5d5d5d"/></radialGradient><radialGradient cx="188.91297" cy="92.8698" r="21.71197" gradientUnits="userSpaceOnUse" id="color-2"><stop offset="0" stop-color="#265623"/><stop offset="1" stop-color="#318127"/></radialGradient><radialGradient cx="227.08837" cy="256.79393" r="22.47924" gradientUnits="userSpaceOnUse" id="color-3"><stop offset="0" stop-color="#265623"/><stop offset="1" stop-color="#318127"/></radialGradient><radialGradient cx="258.69991" cy="262.66086" r="33.9962" gradientUnits="userSpaceOnUse" id="color-4"><stop offset="0" stop-color="#265623"/><stop offset="1" stop-color="#318127"/></radialGradient><radialGradient cx="210.17129" cy="174.17251" r="71.5536" gradientUnits="userSpaceOnUse" id="color-5"><stop offset="0" stop-color="#788bac"/><stop offset="1" stop-color="#4a4a4a"/></radialGradient><radialGradient cx="249.88839" cy="182.50005" r="34.70995" gradientUnits="userSpaceOnUse" id="color-6"><stop offset="0" stop-color="#c732c5"/><stop offset="1" stop-color="#000000"/></radialGradient><radialGradient cx="179.27906" cy="169.33673" r="43.32127" gradientUnits="userSpaceOnUse" id="color-7"><stop offset="0" stop-color="#44ac4c"/><stop offset="1" stop-color="#97a944"/></radialGradient><radialGradient cx="219.59363" cy="169.95451" r="67.01397" gradientUnits="userSpaceOnUse" id="color-8"><stop offset="0" stop-color="#265623"/><stop offset="1" stop-color="#318127"/></radialGradient><radialGradient cx="296.37274" cy="257.5064" r="59.37142" gradientUnits="userSpaceOnUse" id="color-9"><stop offset="0" stop-color="#ff0000"/><stop offset="1" stop-color="#ff0000" stop-opacity="0"/></radialGradient><radialGradient cx="293.88839" cy="264.50005" r="66.27301" gradientUnits="userSpaceOnUse" id="color-10"><stop offset="0" stop-color="#c732c5"/><stop offset="1" stop-color="#c732c5" stop-opacity="0"/></radialGradient><radialGradient cx="251.81302" cy="73.58823" r="33.79149" gradientUnits="userSpaceOnUse" id="color-11"><stop offset="0" stop-color="#265623"/><stop offset="1" stop-color="#318127"/></radialGradient></defs><g transform="translate(-143.02755,-43.1703)"><g data-paper-data="{&quot;isPaintingLayer&quot;:true}" fill-rule="nonzero" stroke-linejoin="miter" stroke-miterlimit="10" stroke-dasharray="" stroke-dashoffset="0" style="mix-blend-mode: normal"><path d="M229.84817,201.05788l-0.07651,2.6826l-0.01787,0.62655l-0.2624,9.20025l-7.13151,4.78286l-10.20738,3.95856l-7.00702,-2.2082l-11.08788,-0.97898l-1.06032,4.00402l-18.92029,-3.06025l0.03124,-6.04241l-0.04859,-3.08726l-0.46133,1.76457l-0.18876,-1.0959l1.59923,1.19146c-16.36286,-8.08251 -26.3178,-26.89989 -23.26911,-46.9118c2.15321,-14.1338 10.32115,-25.76724 21.28473,-32.38372l-0.1628,1.33048l-0.03594,-2.28418l-1.22695,-7.12337l18.78924,-4.25187l1.70745,3.65698l1.23646,2.72139c1.78769,-0.03635 3.59421,0.04718 5.41134,0.25706l-5.42181,-0.35265l0.0168,0.036l12.4671,-3.61431l4.51602,-1.62415l13.16102,4.67287l4.60565,4.79237l0.09982,6.06445l0.04788,2.90821l0.04308,2.61717l19.03435,-1.19095l8.94919,-5.03951l12.8799,13.52294l-0.67563,40.62649l-11.97007,14.36149l-6.70645,-6.17957l-19.81351,1.22516" fill="url(#color-1)" stroke="#000000" stroke-width="4.5" stroke-linecap="butt"/><path d="M212.47928,193.20677l-18.35245,35.9756l1.40532,-62.93864z" fill="#000000" stroke="#000000" stroke-width="0.5" stroke-linecap="round"/><path d="M271.18366,76.94006l-1.39245,30.98267l-84.98104,-3.81925l1.39245,-30.98267z" fill="#515459" stroke="none" stroke-width="NaN" stroke-linecap="butt"/><path d="M247.90511,80.18873l5.66882,1.01936l-4.86156,27.03588l-5.66882,-1.01936z" fill="#85a9b9" stroke="none" stroke-width="0" stroke-linecap="butt"/><path d="M219.07287,78.54456l5.66882,1.01936l-4.86156,27.03588l-5.66882,-1.01936z" fill="#85a9b9" stroke="none" stroke-width="0" stroke-linecap="butt"/><path d="M175.97532,83.73237l25.17268,-18.11632l36.04707,50.0875c-2.83267,3.63406 -2.83282,9.12659 -2.97344,13.78959c-0.01787,0.59239 0.10775,1.14437 0.33035,1.66952c-0.18599,4.17353 -0.32653,9.63761 0.3787,14.94698l-9.26489,6.66777z" fill="#515459" stroke="none" stroke-width="NaN" stroke-linecap="butt"/><path d="M200.57031,123.15219l-28.13014,-28.88333l14.60037,-14.21963l28.13014,28.88333z" fill="url(#color-2)" stroke="none" stroke-width="NaN" stroke-linecap="butt"/><g stroke="none" stroke-linecap="butt"><path d="M247.08249,287.88129l-19.1983,-24.35755l66.80928,-52.65816l19.1983,24.35755z" fill="#515459" stroke-width="NaN"/><path d="M268.21356,265.78025l-22.91529,20.89867l-42.73268,-46.85618c-1.32377,-4.02583 -4.32402,-7.27489 -8.1572,-8.94433l-3.24693,-3.56027c0.08929,-0.72042 0.12659,-1.4564 0.10813,-2.20397c-0.03224,-1.30491 -0.23247,-2.56618 -0.5795,-3.76365l15.1493,-13.81613c2.1197,-0.97122 3.96667,-2.42739 5.40263,-4.22322z" fill="#515459" stroke-width="NaN"/><path d="M228.71691,243.13145l22.46589,33.47887l-16.92339,11.35639l-22.46589,-33.47887z" fill="url(#color-3)" stroke-width="NaN"/><path d="M273.37148,227.03023l4.01077,-4.13379l19.715,19.12831l-4.01077,4.13379z" fill="#85a9b9" stroke-width="0"/><path d="M250.90766,245.17904l4.01077,-4.13379l19.715,19.12831l-4.01079,4.13379z" fill="#85a9b9" stroke-width="0"/><path d="M247.50974,268.45913l54.39104,-38.90817l13.10438,17.95209l-54.39104,38.90817z" fill="url(#color-4)" stroke-width="NaN"/></g><path d="M211.93844,245.70427c-2.93061,0.0724 -5.82017,-0.08271 -8.65543,-0.45109c0.02052,-0.38557 0.02619,-0.77491 0.01649,-1.16746c-0.17872,-7.2343 -5.52079,-13.12733 -12.41437,-14.2414c-0.08118,-0.02339 -0.16266,-0.0461 -0.2444,-0.0681c0.4464,-1.47232 0.66893,-3.03991 0.62886,-4.66202c-0.20182,-8.16934 -6.98799,-14.62829 -15.15732,-14.42647c-6.37307,0.15744 -11.70522,4.32204 -13.64614,10.02443c-1.10201,-1.44612 -2.1544,-2.94256 -3.15403,-4.48596c2.85949,-2.77479 4.59645,-6.6894 4.49029,-10.98675c-0.20021,-8.10441 -6.88052,-14.52549 -14.96276,-14.43002c-1.04486,-4.84884 -1.65649,-9.89282 -1.78458,-15.07766c-0.97597,-39.50591 26.49096,-72.22987 61.34912,-73.09102c11.90076,-0.294 23.12444,3.16386 32.78509,9.41811c-1.12084,0.77487 -2.25554,1.75259 -3.4006,2.95567c-3.42682,3.60042 -3.41718,9.51039 -3.567,14.47864c-0.01787,0.59239 0.10775,1.14437 0.33035,1.66952c-0.40547,9.09907 -0.59502,24.33237 7.72531,30.723c1.636,1.25657 3.41649,2.03981 5.2427,2.41722c1.30833,0.34096 2.68566,0.50688 4.10472,0.47182c0.09603,-0.00237 0.19183,-0.00566 0.28738,-0.00984c0.84144,0.27819 1.74887,0.54191 2.7293,0.79169c0.94309,0.24028 3.35168,-1.99046 4.364,-2.63878c5.40826,-3.46355 11.26118,-6.56856 10.03075,-13.80234c-0.05261,-0.30925 -0.10848,-0.62626 -0.16774,-0.95018c2.65592,7.59338 4.20613,15.82591 4.41913,24.44799c0.97597,39.5059 -26.49096,72.22987 -61.34912,73.09102zM156.24311,144.19444c0.20182,8.16933 6.98799,14.62829 15.15732,14.42647c8.16933,-0.20182 14.62829,-6.98799 14.42647,-15.15732c-0.20182,-8.16933 -6.98799,-14.62829 -15.15732,-14.42647c-8.16933,0.20182 -14.62829,6.98799 -14.42647,15.15732zM184.88885,194.44186c0.20182,8.16934 6.98799,14.62829 15.15732,14.42647c8.16933,-0.20182 14.62829,-6.98798 14.42647,-15.15732c-0.20182,-8.16933 -6.98799,-14.62829 -15.15732,-14.42647c-8.16933,0.20182 -14.62829,6.98799 -14.42647,15.15732z" fill="url(#color-5)" stroke="none" stroke-width="0" stroke-linecap="butt"/><path d="M278.76611,142.05821l1.497,60.59664l-14.73708,0.36407l-1.08049,-43.73665c3.16022,-2.4575 5.39715,-5.42517 4.59062,-10.16683c-0.22258,-1.30851 -0.50376,-2.75562 -0.85105,-4.27887c0.49336,-0.81256 0.91935,-1.66526 1.26732,-2.54828z" fill="#85a9b9" stroke="#000000" stroke-width="2" stroke-linecap="butt"/><path d="M259.69484,172.42887c0.21961,8.88971 7.0412,37.6094 3.5747,48.61571c-5.11186,16.23043 -21.24396,13.71688 -21.24396,13.71688l-1.8496,-74.8693c0.6317,0.73255 1.32994,1.40103 2.10132,1.99352c1.636,1.25657 3.41649,2.03981 5.2427,2.41722c1.30833,0.34096 2.68566,0.50688 4.10472,0.47182c0.09603,-0.00237 0.19183,-0.00566 0.28738,-0.00984c0.84144,0.27819 1.74887,0.54191 2.7293,0.79169c0.94309,0.24028 3.35168,-1.99046 4.364,-2.63878c0.57252,-0.36664 1.15001,-0.72928 1.72356,-1.09321c-0.62289,4.60211 -1.0886,8.39951 -1.03413,10.60429z" fill="#515459" stroke="#000000" stroke-width="2" stroke-linecap="butt"/><path d="M238.96924,111.04478c0,0 1.97225,-0.43621 4.80531,-0.43498c-1.54941,0.66829 -3.13189,1.70633 -4.73756,3.1774z" fill="#515459" stroke="#000000" stroke-width="2" stroke-linecap="butt"/><path d="M256.54542,172.39417c0.19528,7.90472 6.26103,33.44227 3.17862,43.22906c-4.54547,14.43208 -18.8901,12.19704 -18.8901,12.19704l-1.71189,-69.2949c0.88407,1.2807 1.92693,2.41685 3.15526,3.36031c1.636,1.25657 3.41649,2.03981 5.2427,2.41722c1.30833,0.34096 2.68566,0.50688 4.10472,0.47182c0.09603,-0.00237 0.19183,-0.00566 0.28738,-0.00984c0.84144,0.27819 1.74887,0.54191 2.7293,0.79169c0.56509,0.14397 1.65635,-0.59924 2.65813,-1.35761c-0.46842,3.5349 -0.79758,6.4355 -0.75411,8.19521z" fill="url(#color-6)" stroke="#000000" stroke-width="2" stroke-linecap="butt"/><path d="M159.90194,127.14576l21.49597,-0.53104l0.1685,6.82081c-2.76911,-2.80476 -6.64568,-4.50343 -10.89683,-4.3984c-8.16933,0.20182 -14.62829,6.98799 -14.42647,15.15732c0.20182,8.16933 6.98799,14.62829 15.15732,14.42647c4.25113,-0.10502 8.0391,-1.99304 10.66635,-4.93111l1.45196,58.77322c-2.19789,-1.19154 -4.72782,-1.84148 -7.40647,-1.77531c-6.49014,0.16033 -11.90076,4.47639 -13.74964,10.3402c-0.11567,0.1821 -0.23327,0.36473 -0.35253,0.54641c-0.44576,-0.777 -1.49423,-2.62622 -2.86641,-5.18727c2.95952,-2.78327 4.76693,-6.76655 4.6587,-11.14762c-0.20182,-8.16933 -6.98799,-14.62829 -15.15732,-14.42647c-0.34789,0.00859 -0.69267,0.02913 -1.03396,0.0612c-1.63978,-4.80743 -2.76496,-9.39474 -2.85628,-13.09123c-0.40892,-16.55255 15.14712,-50.63717 15.14712,-50.63717z" fill="#788bac" stroke="#000000" stroke-width="2" stroke-linecap="butt"/><path d="M144.04209,176.56563c-0.31184,-12.62284 4.41364,-24.10804 12.20547,-32.22121c0.28058,8.09828 7.03359,14.47708 15.15288,14.2765c8.16933,-0.20182 14.62829,-6.98799 14.42647,-15.15732c-0.11009,-4.4564 -2.17951,-8.40382 -5.36397,-11.03871c0.87718,-0.08369 1.76285,-0.13703 2.65611,-0.1591c22.1725,-0.54776 40.62589,18.39787 41.21678,42.31625c0.55225,22.35431 -14.69369,41.14068 -34.791,43.94923c-2.54911,-4.78486 -7.64356,-7.98655 -13.43256,-7.84354c-3.66139,0.09045 -6.97923,1.50352 -9.50782,3.77094c-1.4484,-0.76813 -2.84861,-1.62749 -4.194,-2.57126c0.94606,-2.01377 1.45061,-4.27238 1.39192,-6.64796c-0.20182,-8.16933 -6.98799,-14.62829 -15.15732,-14.42647c-0.6609,0.01633 -1.31062,0.07574 -1.94651,0.17551c-1.6004,-4.49083 -2.53101,-9.34476 -2.65646,-14.42285zM184.88885,194.44186c0.20182,8.16934 6.98799,14.62829 15.15732,14.42647c8.16933,-0.20182 14.62829,-6.98798 14.42647,-15.15732c-0.20182,-8.16933 -6.98799,-14.62829 -15.15732,-14.42647c-8.16933,0.20182 -14.62829,6.98799 -14.42647,15.15732z" fill="url(#color-7)" stroke="#000000" stroke-width="2" stroke-linecap="butt"/><path d="M198.97812,107.07671c0,0 12.19958,2.86172 18.41289,2.70823c2.49945,-0.06175 13.76504,-1.74108 18.58806,7.36613c-1.90181,3.55007 -1.91728,8.26737 -2.04037,12.34907c-0.01787,0.59239 0.10775,1.14437 0.33035,1.66952c-0.39661,8.90024 -0.58663,23.66955 7.19199,30.29155c1.10366,28.43965 0.0009,61.76626 -5.85266,70.83628c-7.82455,12.12407 -32.31384,7.73994 -33.31845,7.55436c-0.00823,-0.02515 -0.01653,-0.05027 -0.02488,-0.07536c0.11192,-1.1241 1.52776,-15.73178 1.13106,-31.44345c6.3671,-1.7815 10.96435,-7.70323 10.7936,-14.61506c-0.19924,-8.06481 -6.81542,-14.46273 -14.84445,-14.43096c-2.41523,-8.435 3.51814,-22.18485 3.67986,-34.33101c0.05838,-4.38425 -1.38417,-9.27073 -1.67327,-13.2894c-1.02732,-14.28011 -2.37375,-24.58993 -2.37375,-24.58993z" fill="url(#color-8)" stroke="#000000" stroke-width="2" stroke-linecap="butt"/><path d="M177.40078,67.24717l1.26447,-0.03124l0.03124,1.26447l-1.26447,0.03124z" fill="#d5e9ff" stroke="#000000" stroke-width="2" stroke-linecap="butt"/><path d="M295.63673,90.26364l0.63224,-0.01562l0.06248,2.52894l-0.63224,0.01562z" fill="#738fa7" stroke="#000000" stroke-width="2" stroke-linecap="butt"/><path d="M278.8318,132.41397l1.90049,76.92937l-13.33713,0.32949l-1.28062,-51.83771c2.22418,-2.18776 3.57665,-4.86864 2.92161,-8.71966c-0.22258,-1.30851 -0.50376,-2.75562 -0.85105,-4.27887c1.22608,-2.0194 2.03615,-4.28662 2.26667,-6.65139c0.48971,-1.78562 0.92291,-3.67855 1.2739,-5.59567z" fill="#85a9b9" stroke="#000000" stroke-width="2" stroke-linecap="butt"/><path d="M280.49114,142.87898l1.497,60.59664l-14.73708,0.36407l-1.13652,-46.00459c2.22418,-2.18776 3.57665,-4.86864 2.92161,-8.71966c-0.22258,-1.30851 -0.50376,-2.75562 -0.85105,-4.27887c0.32889,-0.54168 0.62784,-1.10122 0.89371,-1.67567z" fill="#85a9b9" stroke="#000000" stroke-width="2" stroke-linecap="butt"/><path d="M265.89829,161.38483l20.86373,-0.51543l0.56228,22.76042l-20.86373,0.51543z" fill="#52809a" stroke="#000000" stroke-width="2" stroke-linecap="butt"/><path d="M266.87524,167.09194l13.90915,-0.34362l0.328,13.27691l-13.90915,0.34362z" fill="#52809a" stroke="#000000" stroke-width="2" stroke-linecap="butt"/><g stroke-linecap="butt"><path d="M220.10073,283.76341c0,0 15.90499,0.80181 29.8361,-6.04268c4.7463,-2.3319 23.64973,-21.88238 26.60246,-26.64161c4.18595,-6.74697 14.25991,-20.94818 14.88994,-33.5825c0.90077,-18.06359 -8.82942,-34.47012 -8.82942,-34.47012l51.50566,31.8091c0,0 3.65862,16.04324 0.73265,32.71179c-1.98244,11.29337 -9.43285,22.95101 -13.68425,29.80349c-4.62571,7.45578 -12.55398,18.97478 -22.6776,26.04094c-12.42261,8.67084 -26.86986,12.18067 -26.86986,12.18067z" fill="url(#color-9)" stroke="none" stroke-width="0"/><path d="M219.69916,283.99617c0,0 15.905,0.80181 29.8361,-6.04268c4.7463,-2.3319 23.64973,-21.88238 26.60246,-26.64161c4.18595,-6.74697 14.25992,-20.94818 14.88995,-33.5825c0.90077,-18.06359 -8.82942,-34.4701 -8.82942,-34.4701l51.50566,31.8091c0,0 3.65864,16.04324 0.73264,32.71179c-1.98244,11.29337 -9.43285,22.951 -13.68426,29.80349c-4.62571,7.45577 -12.55399,18.97481 -22.6776,26.04097c-12.42261,8.67084 -26.86986,12.18067 -26.86986,12.18067z" fill="url(#color-10)" stroke="#380000" stroke-width="2"/></g><path d="M198.05265,66.42426l66.87465,-0.10937l-0.17717,22.22546l-66.87466,0.10937z" fill="url(#color-11)" stroke="none" stroke-width="NaN" stroke-linecap="butt"/><g stroke="#000000" stroke-linecap="butt"><path d="M236.71044,86.68772l66.53282,0.0193l-0.00192,6.5889l-66.53282,-0.0193z" fill="#85a9b9" stroke-width="1"/><path d="M236.80503,93.50664l66.53282,0.0193l-0.00192,6.5889l-66.53282,-0.0193z" fill="#85a9b9" stroke-width="1"/><path d="M236.89953,100.65501l66.53282,0.0193l-0.00191,6.58892l-66.53282,-0.0193z" fill="#85a9b9" stroke-width="1"/><path d="M196.39284,84.9038l67.78762,0.01967l-0.00694,23.90306c-1.91245,-0.83076 -4.03179,-1.26849 -6.25344,-1.21361c-2.34237,0.05787 -4.54412,0.65705 -6.48857,1.67493l-55.04574,-0.01598z" fill="#52809a" stroke-width="1"/><path d="M198.57886,105.55421l0.06844,-14.74141l60.61447,0.28139l-0.06844,14.74141z" fill="#85a9b9" stroke-width="2"/><path d="M216.71706,105.94228l0.09688,-20.86988l22.76713,0.1057l-0.09688,20.86988z" fill="#52809a" stroke-width="2"/><path d="M222.45037,105.1332l0.06459,-13.91325l13.28082,0.06166l-0.0646,13.91324z" fill="#52809a" stroke-width="2"/></g><g fill="#52809a" stroke="#000000" stroke-width="2" stroke-linecap="butt"><path d="M203.061,44.91317l29.08278,-0.71847l1.07771,43.62416l-29.08278,0.71847z"/><path d="M221.69786,44.50382l8.89527,-0.21975l1.03561,41.91989l-8.89527,0.21975z"/><path d="M205.79481,45.47587l7.87269,-0.19449l1.03561,41.91988l-7.87269,0.19449z"/></g><path d="M200.98229,128.71479l12.0241,-0.29705l0.11183,4.52672l-12.0241,0.29705z" fill="#000000" stroke="none" stroke-width="0" stroke-linecap="butt"/><path d="M210.91176,129.65798l8.78998,9.37588l-10.79039,-5.3136z" fill="#000000" stroke="none" stroke-width="0" stroke-linecap="butt"/><path d="M209.72777,128.73408l12.49396,-3.01193l-9.94986,6.75775z" fill="#000000" stroke="none" stroke-width="0" stroke-linecap="butt"/></g></g></svg>