<svg version="1.1" xmlns="http://www.w3.org/2000/svg" xmlns:xlink="http://www.w3.org/1999/xlink" width="194.25263" height="293.52375" viewBox="0,0,194.25263,293.52375"><defs><radialGradient cx="221.63023" cy="180.99579" r="65.48587" gradientUnits="userSpaceOnUse" id="color-1"><stop offset="0" stop-color="#ffffff"/><stop offset="1" stop-color="#5d5d5d"/></radialGradient><radialGradient cx="204.93852" cy="263.97733" r="24.00049" gradientUnits="userSpaceOnUse" id="color-2"><stop offset="0" stop-color="#317079"/><stop offset="1" stop-color="#10437d"/></radialGradient><radialGradient cx="264.0083" cy="289.28481" r="37.35323" gradientUnits="userSpaceOnUse" id="color-3"><stop offset="0" stop-color="#317079"/><stop offset="1" stop-color="#10437d"/></radialGradient><radialGradient cx="211.64836" cy="86.48642" r="24.0005" gradientUnits="userSpaceOnUse" id="color-4"><stop offset="0" stop-color="#317079"/><stop offset="1" stop-color="#10437d"/></radialGradient><radialGradient cx="229.93801" cy="177.33342" r="79.0956" gradientUnits="userSpaceOnUse" id="color-5"><stop offset="0" stop-color="#788bac"/><stop offset="1" stop-color="#4a4a4a"/></radialGradient><radialGradient cx="275.88839" cy="190.50005" r="45.0378" gradientUnits="userSpaceOnUse" id="color-6"><stop offset="0" stop-color="#c732c5"/><stop offset="1" stop-color="#000000"/></radialGradient><radialGradient cx="197.83789" cy="172.98625" r="47.88748" gradientUnits="userSpaceOnUse" id="color-7"><stop offset="0" stop-color="#4474ab"/><stop offset="1" stop-color="#439ca8"/></radialGradient><radialGradient cx="241.19676" cy="172.20231" r="74.07746" gradientUnits="userSpaceOnUse" id="color-8"><stop offset="0" stop-color="#317079"/><stop offset="1" stop-color="#10437d"/></radialGradient><radialGradient cx="274.80752" cy="69.90241" r="37.35323" gradientUnits="userSpaceOnUse" id="color-9"><stop offset="0" stop-color="#317079"/><stop offset="1" stop-color="#10437d"/></radialGradient><radialGradient cx="171.88839" cy="178.50005" r="74.98005" gradientUnits="userSpaceOnUse" id="color-10"><stop offset="0" stop-color="#c732c5"/><stop offset="1" stop-color="#c732c5" stop-opacity="0"/></radialGradient></defs><g transform="translate(-142.76591,-33.23812)"><g data-paper-data="{&quot;isPaintingLayer&quot;:true}" fill-rule="nonzero" stroke-linecap="butt" stroke-linejoin="miter" stroke-miterlimit="10" stroke-dasharray="" stroke-dashoffset="0" style="mix-blend-mode: normal"><g><path d="M241.84661,214.27411l-0.19974,2.95983l-0.04665,0.6913l-0.68502,10.15104l-8.08269,4.97668l-11.44478,3.93405l-7.64488,-2.74009l-12.20527,-1.55761l-1.34318,4.37717l-20.76731,-4.19295l0.29405,-6.67291l0.07894,-3.41218l-0.58536,1.92927l-0.16142,-1.21861l1.71529,1.38474c-17.72673,-9.63053 -27.91437,-30.84322 -23.6873,-52.81679c2.98547,-15.51927 12.50722,-28.01836 24.90145,-34.85579l-0.23697,1.46261l0.05841,-2.52458l-1.04927,-7.92096l20.93664,-3.88941l1.72891,4.11273l1.24886,3.05907c1.97619,0.03664 3.96802,0.2065 5.96615,0.51638l-5.97361,-0.62242l0.01701,0.04048l13.92602,-3.45675l5.05801,-1.6l14.33653,5.72682l4.8814,5.49133l-0.15023,6.70289l-0.07203,3.21437l-0.06484,2.8927l21.0759,-0.49789l10.10146,-5.18209l13.64588,15.49025l-2.49133,44.84572l-13.83864,15.34909l-7.1423,-7.11382l-21.93801,0.50221" fill="url(#color-1)" stroke="#000000" stroke-width="4.5"/><path d="M203.71818,294.30936l-1.8998,-34.23025l93.88867,-5.21083l1.8998,34.23025z" data-paper-data="{&quot;index&quot;:null}" fill="#515459" stroke="none" stroke-width="NaN"/><path d="M266.14988,255.9513l6.25412,-1.19273l5.68841,29.8273l-6.25412,1.19273z" data-paper-data="{&quot;index&quot;:null}" fill="#85a9b9" stroke="none" stroke-width="0"/><path d="M234.2995,258.10431l6.25412,-1.19273l5.68841,29.8273l-6.25412,1.19273z" data-paper-data="{&quot;index&quot;:null}" fill="#85a9b9" stroke="none" stroke-width="0"/><path d="M246.4112,205.80215l28.03532,19.7317l-54.12123,76.89685l-28.03532,-19.7317l27.31994,-38.81689c0.38984,0.0334 0.78365,0.05314 1.18097,0.05877c9.03227,0.12798 16.45811,-7.09036 16.58609,-16.12263c0.03572,-2.52099 -0.50085,-4.91686 -1.48943,-7.06381z" data-paper-data="{&quot;index&quot;:null}" fill="#515459" stroke="none" stroke-width="NaN"/><path d="M235.32091,254.3879l-30.7572,32.25343l-16.30393,-15.54759l26.91728,-28.2267c1.74561,0.66798 3.63626,1.04584 5.61384,1.07386c1.12158,0.01589 2.2184,-0.0815 3.27954,-0.28157z" data-paper-data="{&quot;index&quot;:null}" fill="url(#color-2)" stroke="none" stroke-width="NaN"/><path d="M216.43989,277.0087l73.92066,-0.65759l0.45456,24.56468l-73.92065,0.65759z" data-paper-data="{&quot;index&quot;:null}" fill="url(#color-3)" stroke="none" stroke-width="NaN"/><g data-paper-data="{&quot;index&quot;:null}" stroke="#000000"><path d="M259.30986,271.44235l73.54131,-0.79584l0.07882,7.28297l-73.54131,0.79584z" fill="#85a9b9" stroke-width="1"/><path d="M259.33503,263.90401l73.54131,-0.79584l0.07882,7.28297l-73.54131,0.79584z" fill="#85a9b9" stroke-width="1"/><path d="M259.35626,256.00149l73.54131,-0.79584l0.07882,7.28298l-73.54131,0.79584z" fill="#85a9b9" stroke-width="1"/><path d="M214.5532,254.2315l74.92829,-0.81085l0.29149,26.935l-74.92829,0.81085z" fill="#52809a" stroke-width="1"/><path d="M284.01705,257.29863l0.24725,16.29351l-66.99646,1.01664l-0.24725,-16.29351z" fill="#85a9b9" stroke-width="2"/><path d="M262.22924,257.29331l0.35004,23.06723l-25.16424,0.38186l-0.35004,-23.06723z" fill="#52809a" stroke-width="2"/><path d="M258.09082,258.28001l0.23336,15.37813l-14.67914,0.22275l-0.23336,-15.37815z" fill="#52809a" stroke-width="2"/></g><g data-paper-data="{&quot;index&quot;:null}" fill="#52809a" stroke="#000000" stroke-width="2"><path d="M223.36422,277.06003l32.15478,0.45561l-0.68341,48.23217l-32.15478,-0.45561z"/><path d="M243.9424,279.17984l9.83487,0.13935l-0.65671,46.34788l-9.83487,-0.13935z"/><path d="M226.35277,278.29053l8.70428,0.12333l-0.65671,46.34787l-8.70428,-0.12333z"/></g><path d="M301.50684,72.5542l-2.86887,34.16268l-10.96708,-0.92098c-1.69852,-4.55062 -5.65077,-9.77541 -14.84398,-9.90567c-7.83855,-0.11107 -11.97337,3.58807 -14.15411,7.47051l-53.73817,-4.51272l2.86887,-34.16268z" fill="#515459" stroke="none" stroke-width="NaN"/><path d="M275.65456,75.14269l6.21781,1.36944l-4.39475,19.95383c-1.37811,-0.34653 -2.92173,-0.55123 -4.65073,-0.57573c-0.60545,-0.00858 -1.18882,0.00558 -1.75088,0.04079z" fill="#85a9b9" stroke="none" stroke-width="0"/><path d="M243.87797,72.08814l6.21781,1.36944l-6.53121,29.65416l-6.21781,-1.36944z" fill="#85a9b9" stroke="none" stroke-width="0"/><path d="M196.05093,75.96723l28.58312,-18.92946l32.69051,49.36202c-1.0477,3.06795 -1.08376,5.61306 -1.08376,5.61306l0.00683,5.13666c-2.21165,9.75973 -7.96644,19.32126 0.69227,29.8198c0.23759,0.28807 0.57093,0.55623 0.98691,0.80443l-7.3751,4.88424c-0.41187,-7.7625 -6.25078,-14.12007 -13.83276,-15.28287z" fill="#515459" stroke="none" stroke-width="NaN"/><path d="M221.52457,120.56557l-29.83103,-33.11191l16.73789,-15.07942l29.83103,33.11191z" fill="url(#color-4)" stroke="none" stroke-width="NaN"/><path d="M228.8174,256.42106c-19.94526,-0.28261 -37.80176,-10.02086 -50.30384,-25.40623c1.39008,-2.36376 2.20387,-5.10985 2.2455,-8.04786c0.12666,-8.93938 -6.9427,-16.30522 -15.84458,-16.57983c-3.21097,-9.29025 -4.91,-19.43558 -4.75971,-30.0425c0.21788,-15.37694 4.29336,-29.67406 11.16488,-41.72205c0.64127,0.36218 1.30959,0.68238 2.00128,0.95683c-3.98618,2.93005 -6.60117,7.62695 -6.67666,12.95504c-0.12798,9.03227 7.09036,16.45811 16.12263,16.58609c9.03227,0.12798 16.45811,-7.09036 16.58609,-16.12263c0.09896,-6.98444 -4.19487,-13.00831 -10.32337,-15.43997c3.98618,-2.93005 6.60117,-7.62695 6.67666,-12.95504c0.05248,-3.70376 -1.13032,-7.1374 -3.16692,-9.9085c11.11824,-8.05677 24.36013,-12.64927 38.51923,-12.44864c9.57088,0.13561 18.66079,2.44851 26.90892,6.51788c-1.67703,3.7427 -1.72672,7.24922 -1.72672,7.24922l0.00683,5.13666c-2.21165,9.75973 -7.96644,19.32126 0.69227,29.8198c3.29282,3.9925 24.98066,4.16198 30.12156,0.34516c2.23872,-1.66211 3.57058,-4.15869 4.79851,-6.75091c5.19547,11.2683 8.05433,24.13258 7.86126,37.7586c-0.61889,43.6789 -32.36362,78.64497 -70.90383,78.09889zM174.09068,194.52917c-0.12798,9.03227 7.09036,16.45811 16.12263,16.58609c9.03227,0.12798 16.45811,-7.09036 16.58609,-16.12263c0.12798,-9.03227 -7.09036,-16.45811 -16.12263,-16.58609c-9.03227,-0.12798 -16.45811,7.09036 -16.58609,16.12263zM204.66826,227.3548c-0.12798,9.03227 7.09036,16.45811 16.12263,16.58609c9.03227,0.12798 16.45811,-7.09036 16.58609,-16.12263c0.12798,-9.03227 -7.09036,-16.45811 -16.12263,-16.58609c-9.03227,-0.12798 -16.45811,7.09036 -16.58609,16.12263zM217.86456,153.30925c-0.12798,9.03227 7.09036,16.45811 16.12263,16.58609c9.03227,0.12798 16.45811,-7.09036 16.58609,-16.12263c0.12798,-9.03227 -7.09036,-16.45811 -16.12263,-16.58609c-9.03227,-0.12798 -16.45811,7.09036 -16.58609,16.12263z" fill="url(#color-5)" stroke="none" stroke-width="0"/><path d="M290.79138,144.5765l16.29375,0.23087l-0.9493,66.99746l-16.29375,-0.23087z" fill="#85a9b9" stroke="#000000" stroke-width="2"/><path d="M284.71506,177.53466c-0.13927,9.82873 6.16203,41.84461 1.86029,53.85294c-6.34356,17.70805 -24.0546,14.23873 -24.0546,14.23873l1.36176,-96.10704c7.82962,1.18817 19.57356,0.47201 23.17896,-2.20478c1.08353,-0.80446 1.95462,-1.80438 2.70433,-2.91602c-1.63363,13.34579 -4.97294,27.64596 -5.05073,33.13619z" fill="#515459" stroke="#000000" stroke-width="2"/><path d="M281.23781,177.36106c-0.12383,8.73969 5.47927,37.20821 1.65416,47.886c-5.64069,15.74598 -21.38932,12.66107 -21.38932,12.66107l1.25508,-88.57785c7.01884,1.30166 18.07504,0.89981 22.94897,-1.25326c-1.46043,11.81522 -4.40006,24.42691 -4.46888,29.28404z" fill="url(#color-6)" stroke="#000000" stroke-width="2"/><path d="M200.19861,123.56665l-0.81465,57.49449c-2.5061,-1.63857 -5.4917,-2.60904 -8.70718,-2.6546c-9.03227,-0.12798 -16.45811,7.09036 -16.58609,16.12263c-0.12798,9.03227 7.09036,16.45811 16.12263,16.58609c3.2155,0.04556 6.22738,-0.83993 8.7789,-2.40684l-0.27929,19.71078l-18.87046,-0.26738c0.56988,-1.62489 0.89085,-3.36818 0.91659,-5.18483c0.12688,-8.95449 -6.96658,-16.33009 -15.88969,-16.58117c-3.91277,-9.63574 -7.4486,-20.45124 -7.34342,-27.87431c0.16819,-11.86988 8.07146,-31.59776 13.60524,-43.99704c0.69848,0.40685 1.43003,0.7635 2.18977,1.06494c-3.98618,2.93005 -6.60117,7.62695 -6.67666,12.95504c-0.12798,9.03227 7.09036,16.45811 16.12263,16.58609c9.03227,0.12798 16.45811,-7.09036 16.58609,-16.12263c0.09896,-6.98444 -4.19487,-13.00831 -10.32337,-15.43997c3.24591,-2.38592 5.58261,-5.94336 6.37932,-10.05917z" fill="#788bac" stroke="#000000" stroke-width="2"/><path d="M200.50008,225.64789c-7.1952,-0.10195 -13.96437,-2.04502 -19.92828,-5.40831c-1.14248,-7.46047 -7.33612,-13.2879 -15.02162,-13.82062c-5.638,-8.15546 -8.91465,-18.31246 -8.75921,-29.28266c0.15807,-11.15605 3.84025,-21.37089 9.8855,-29.42717c-0.01747,0.2733 -0.02825,0.54846 -0.03217,0.82533c-0.12798,9.03227 7.09036,16.45811 16.12263,16.58609c9.03227,0.12798 16.45811,-7.09036 16.58609,-16.12263c0.09896,-6.98444 -4.19487,-13.00831 -10.32337,-15.43997c1.02468,-0.75319 1.95875,-1.62314 2.78237,-2.59054c3.23379,-0.75705 6.59647,-1.13372 10.04498,-1.08485c9.42626,0.13356 18.12135,3.42704 25.23254,8.93405c-5.38627,2.6132 -9.13437,8.09837 -9.22497,14.49265c-0.12798,9.03227 7.09036,16.45811 16.12263,16.58609c3.90212,0.05529 7.50439,-1.26055 10.34796,-3.50141c0.86012,3.84195 1.28958,7.86327 1.23097,12.00023c-0.2019,14.24955 -6.15331,26.96355 -15.43479,35.60513c-2.54057,-1.7066 -5.58855,-2.72054 -8.87698,-2.76713c-8.40024,-0.11902 -15.41101,6.11615 -16.45397,14.2551c-1.41612,0.1265 -2.85063,0.18116 -4.3003,0.16062zM174.09068,194.52917c-0.12798,9.03227 7.09036,16.45811 16.12263,16.58609c9.03227,0.12798 16.45811,-7.09036 16.58609,-16.12263c0.12798,-9.03227 -7.09036,-16.45811 -16.12263,-16.58609c-9.03227,-0.12798 -16.45811,7.09036 -16.58609,16.12263z" fill="url(#color-7)" stroke="#000000" stroke-width="2"/><path d="M220.76919,102.74514c0,0 13.35235,3.68498 20.22197,3.78232c2.08665,0.02957 9.7336,-0.7449 15.47923,3.29394c-0.21736,1.3277 -0.2296,2.19145 -0.2296,2.19145l0.00683,5.13666c-2.21165,9.75973 -7.96644,19.32126 0.69227,29.8198c1.10527,1.34012 4.28304,2.2495 8.21192,2.722c0.96198,33.58658 -1.31785,81.56864 -9.30067,92.94217c-9.35606,13.33008 -37.16192,6.90523 -37.16192,6.90523c0,0 0.30107,-2.12367 0.69953,-5.67705c0.46188,0.04584 0.92953,0.07252 1.40213,0.07921c9.03227,0.12798 16.45811,-7.09036 16.58609,-16.12263c0.12767,-9.01044 -7.05552,-16.4222 -16.05717,-16.58503c-0.02694,-10.12205 -0.7992,-20.37126 -3.08769,-28.12093c-1.60582,-5.43794 0.21884,-12.86026 2.17514,-20.80674c2.85871,4.49564 7.85496,7.50867 13.57993,7.58979c9.03227,0.12798 16.45811,-7.09036 16.58609,-16.12263c0.12798,-9.03227 -7.09036,-16.45811 -16.12263,-16.58609c-4.16045,-0.05895 -7.98006,1.44077 -10.90261,3.9585c-0.28215,-3.8193 -1.10205,-7.76691 -1.21312,-11.13676c-0.52136,-15.81749 -1.56574,-27.26322 -1.56574,-27.26322z" fill="url(#color-8)" stroke="#000000" stroke-width="2"/><path d="M198.33356,57.81943l1.39804,0.01981l-0.01981,1.39804l-1.39804,-0.01981z" fill="#d5e9ff" stroke="#000000" stroke-width="2"/><path d="M327.94464,88.32136l0.69902,0.0099l-0.03962,2.79607l-0.69902,-0.0099z" fill="#738fa7" stroke="#000000" stroke-width="2"/><path d="M307.57194,134.15746l-1.20517,85.0554l-14.74593,-0.20894l1.13864,-80.36021c0.54911,-1.16267 1.11703,-2.30804 1.77601,-3.36962c0,0 0.16705,-0.47843 0.35812,-1.29626z" fill="#85a9b9" stroke="#000000" stroke-width="2"/><path d="M292.66153,145.55719l16.29375,0.23087l-0.9493,66.99746l-16.29375,-0.23087z" fill="#85a9b9" stroke="#000000" stroke-width="2"/><path d="M292.04158,165.60222l23.06756,0.32685l-0.35656,25.1646l-23.06756,-0.32685z" fill="#52809a" stroke="#000000" stroke-width="2"/><path d="M292.87555,171.94808l15.37837,0.2179l-0.20799,14.67935l-15.37837,-0.2179z" fill="#52809a" stroke="#000000" stroke-width="2"/><path d="M221.18031,57.79754l73.87234,2.7517l-1.15036,24.54194l-73.87236,-2.7517z" fill="url(#color-9)" stroke="none" stroke-width="NaN"/><path d="M298.37758,119.61533l2.44853,0.03469l-0.02775,1.95883l-2.44853,-0.03469z" fill="#918b9f" stroke="none" stroke-width="0"/><g stroke="#000000"><path d="M263.01011,81.84041l73.48924,2.87915l-0.28513,7.27781l-73.48924,-2.87915z" fill="#85a9b9" stroke-width="1"/><path d="M262.82169,89.37644l73.48924,2.87915l-0.28513,7.27781l-56.00073,-2.19398c-1.94491,-0.86584 -4.31353,-1.4083 -7.19816,-1.44917c-2.47173,-0.03502 -4.57519,0.30881 -6.36523,0.9178l-3.92511,-0.15378z" fill="#85a9b9" stroke-width="1"/><path d="M336.10825,100.15552l-0.28513,7.27783l-48.2487,-1.89028c-1.05738,-2.71255 -2.92693,-5.62478 -6.23191,-7.53316z" fill="#85a9b9" stroke-width="1"/><path d="M262.61902,97.27637l2.42866,0.09515c-0.92363,0.42559 -1.75042,0.92705 -2.49052,1.48336z" fill="#85a9b9" stroke-width="1"/><path d="M218.55317,78.13817l74.87524,2.93345l-1.05451,26.91592l-4.06801,-0.15937c-1.24106,-4.85385 -4.87081,-11.78762 -15.47898,-11.93792c-10.05178,-0.14243 -14.01305,5.98076 -15.57334,10.72138l-39.75488,-1.55751z" fill="#52809a" stroke-width="1"/><path d="M220.08077,101.04186l0.70879,-16.27996l66.94076,2.91442l-0.70879,16.27996l-0.15937,-0.00694c-2.03959,-4.0094 -6.07045,-7.94627 -14.03525,-8.05913c-7.41806,-0.10511 -11.5191,3.20217 -13.78602,6.84786z" fill="#85a9b9" stroke-width="2"/><path d="M240.09899,102.24962l1.00345,-23.04805l25.14332,1.09468l-0.73455,16.87158c-3.20038,1.33965 -5.29624,3.56892 -6.66865,5.89784z" fill="#52809a" stroke-width="2"/><path d="M246.46658,101.60219l0.66897,-15.36537l14.66693,0.63856l-0.57113,13.11795c-0.69904,0.68323 -1.30021,1.41688 -1.8172,2.17254z" fill="#52809a" stroke-width="2"/></g><g fill="#52809a" stroke="#000000" stroke-width="2"><path d="M227.63635,34.25219l32.15478,0.45561l-0.68341,48.23217l-32.15478,-0.45561z"/><path d="M248.23963,34.60056l9.83487,0.13935l-0.65671,46.34788l-9.83487,-0.13935z"/><path d="M230.63186,34.99116l8.70428,0.12333l-0.65671,46.34787l-8.70428,-0.12333z"/></g><g><path d="M238.47193,107.14761c0,0 -15.83785,8.65164 -25.69468,24.39325c-3.3582,5.36313 -11.27246,37.82525 -11.60125,44.74069c-0.07853,1.65165 -0.2064,3.63217 -0.33556,5.85104c-2.76702,-2.28071 -6.29934,-3.6713 -10.16368,-3.72606c-9.03227,-0.12798 -16.45811,7.09036 -16.58609,16.12263c-0.12798,9.03227 7.09036,16.45811 16.12263,16.58609c4.13641,0.05861 7.93591,-1.4235 10.85186,-3.91497c0.60312,5.09795 1.69268,10.04898 3.55156,14.32039c0.22353,0.51362 0.45322,1.02192 0.68861,1.52482c-0.39497,1.37007 -0.61592,2.81486 -0.63709,4.30931c-0.12519,8.83553 6.7794,16.13386 15.53507,16.56739c6.14547,6.21076 11.30942,9.60196 11.30942,9.60196l-66.83151,-3.58362c0,0 -4.01846,-5.04419 -8.57772,-13.10913c2.36862,1.39784 5.12248,2.21646 8.06945,2.25822c9.03227,0.12798 16.45811,-7.09036 16.58609,-16.12263c0.12798,-9.03227 -7.09036,-16.45811 -16.12263,-16.58609c-8.19746,-0.11615 -15.07173,5.81882 -16.36807,13.66908c-0.60527,-1.64589 -1.17666,-3.33379 -1.70216,-5.05669c-4.08802,-13.403 -3.07166,-30.47257 -2.59827,-40.4296c0.51507,-10.83368 2.06823,-28.03927 8.11785,-41.74193c7.42342,-16.81443 19.55467,-29.25772 19.55467,-29.25772zM162.99759,120.13946c-0.09896,6.98444 4.19487,13.00831 10.32337,15.43997c-3.98618,2.93005 -6.60117,7.62695 -6.67666,12.95504c-0.12798,9.03227 7.09036,16.45811 16.12263,16.58609c9.03227,0.12798 16.45811,-7.09036 16.58609,-16.12263c0.09896,-6.98444 -4.19487,-13.00831 -10.32337,-15.43997c3.98618,-2.93005 6.60117,-7.62695 6.67666,-12.95504c0.12798,-9.03227 -7.09036,-16.45811 -16.12263,-16.58609c-9.03227,-0.12798 -16.45811,7.09036 -16.58609,16.12263z" fill="url(#color-10)" stroke="none" stroke-width="0"/><path d="M205.50316,222.40883c-0.21188,-0.4557 -0.41905,-0.9158 -0.62119,-1.38028c-1.83027,-4.20566 -2.91471,-9.07016 -3.52336,-14.08506" fill="none" stroke="#380000" stroke-width="2"/><path d="M220.97973,243.9425c5.91798,5.88462 10.79825,9.08951 10.79825,9.08951l-66.83151,-3.58362c0,0 -3.70985,-4.65678 -8.0447,-12.17551" fill="none" stroke="#380000" stroke-width="2"/><path d="M148.42103,219.25018c-0.56362,-1.54839 -1.09678,-3.13331 -1.58959,-4.74905c-4.08802,-13.403 -3.07164,-30.47255 -2.59825,-40.42961c0.51507,-10.83367 2.06823,-28.03932 8.11783,-41.74196c7.42342,-16.81443 19.55467,-29.25772 19.55467,-29.25772l66.83149,3.58365c0,0 -15.83787,8.65164 -25.69468,24.39325c-3.3582,5.36313 -11.27246,37.82525 -11.60125,44.74069c-0.08648,1.81902 -0.23283,4.03696 -0.37482,6.53286" fill="none" stroke="#380000" stroke-width="2"/></g></g></g></g></svg>