<svg version="1.1" xmlns="http://www.w3.org/2000/svg" xmlns:xlink="http://www.w3.org/1999/xlink" width="17299.25639" height="139.74634" viewBox="0,0,17299.25639,139.74634"><defs><radialGradient cx="220.51705" cy="179.99998" r="62.16107" gradientUnits="userSpaceOnUse" id="color-1"><stop offset="0" stop-color="#00ff2e"/><stop offset="1" stop-color="#15d2ff"/></radialGradient><linearGradient x1="217.31353" y1="181.67123" x2="286.6783" y2="181.67123" gradientUnits="userSpaceOnUse" id="color-2"><stop offset="0" stop-color="#15d2ff"/><stop offset="1" stop-color="#00ff2e"/></linearGradient><linearGradient x1="284.03921" y1="181.94987" x2="290.93482" y2="181.94987" gradientUnits="userSpaceOnUse" id="color-3"><stop offset="0" stop-color="#00ff2e"/><stop offset="1" stop-color="#15d2ff"/></linearGradient><linearGradient x1="315.75376" y1="176.69848" x2="315.75376" y2="184.62298" gradientUnits="userSpaceOnUse" id="color-4"><stop offset="0" stop-color="#00ff2e"/><stop offset="1" stop-color="#15d2ff"/></linearGradient><linearGradient x1="8839.32199" y1="180.59379" x2="8839.32199" y2="202.25879" gradientUnits="userSpaceOnUse" id="color-5"><stop offset="0" stop-color="#4cbdb6"/><stop offset="1" stop-color="#4cbdb6" stop-opacity="0"/></linearGradient><linearGradient x1="8831.42159" y1="180.8367" x2="8831.42159" y2="159.1717" gradientUnits="userSpaceOnUse" id="color-6"><stop offset="0" stop-color="#4cbdb6"/><stop offset="1" stop-color="#4cbdb6" stop-opacity="0"/></linearGradient></defs><g transform="translate(-138.89585,-110.12683)"><g data-paper-data="{&quot;isPaintingLayer&quot;:true}" fill-rule="nonzero" stroke-linejoin="miter" stroke-miterlimit="10" stroke-dasharray="" stroke-dashoffset="0" style="mix-blend-mode: normal"><path d="" fill="#7b0000" stroke="#000000" stroke-width="2" stroke-linecap="butt"/><path d="M158.35598,234.65886l-17.73569,-57.19254l17.73569,-52.1252l60.25829,-14.18855l64.06386,14.18855l15.70875,54.65888l-15.70875,54.65887l-64.06386,14.18856z" fill="url(#color-1)" stroke="#000000" stroke-width="2" stroke-linecap="butt"/><path d="M201.76789,196.76274v-30.91078h34.45792v30.91078z" fill="#000000" stroke="#000000" stroke-width="2" stroke-linecap="butt"/><path d="M165.40971,136.50851c0,2.01248 -1.67943,3.64393 -3.7511,3.64393c-2.07167,0 -3.7511,-1.63144 -3.7511,-3.64393c0,-2.01248 1.67943,-3.64392 3.7511,-3.64392c2.07167,0 3.7511,1.63144 3.7511,3.64392z" fill="#505050" stroke="#000000" stroke-width="2" stroke-linecap="butt"/><path d="M172.91192,144.22506c0,2.01248 -1.67943,3.64392 -3.7511,3.64392c-2.07167,0 -3.75109,-1.63144 -3.75109,-3.64392c0,-2.01248 1.67942,-3.64392 3.75109,-3.64392c2.07167,0 3.7511,1.63144 3.7511,3.64392z" fill="#505050" stroke="#000000" stroke-width="2" stroke-linecap="butt"/><path d="M180.62847,151.08421c0,2.01248 -1.67942,3.64392 -3.7511,3.64392c-2.07167,0 -3.7511,-1.63144 -3.7511,-3.64392c0,-2.01248 1.67943,-3.64392 3.7511,-3.64392c2.07167,0 3.7511,1.63144 3.7511,3.64392z" fill="#505050" stroke="#000000" stroke-width="2" stroke-linecap="butt"/><path d="M190.70285,159.44381c0,2.01248 -1.67943,3.64392 -3.7511,3.64392c-2.07167,0 -3.7511,-1.63143 -3.7511,-3.64392c0,-2.01248 1.67943,-3.64393 3.7511,-3.64393c2.07167,0 3.7511,1.63144 3.7511,3.64393z" fill="#505050" stroke="#000000" stroke-width="2" stroke-linecap="butt"/><path d="M198.20504,167.8034c0,2.01248 -1.67943,3.64392 -3.7511,3.64392c-2.07167,0 -3.75109,-1.63144 -3.75109,-3.64392c0,-2.01248 1.67942,-3.64393 3.75109,-3.64393c2.07167,0 3.7511,1.63144 3.7511,3.64393z" fill="#505050" stroke="#000000" stroke-width="2" stroke-linecap="butt"/><path d="M241.55412,189.55749c0,2.01249 -1.67943,3.64392 -3.7511,3.64392c-2.07167,0 -3.7511,-1.63144 -3.7511,-3.64392c0,-2.01249 1.67943,-3.64393 3.7511,-3.64393c2.07168,0 3.7511,1.63144 3.7511,3.64393z" fill="#505050" stroke="#000000" stroke-width="2" stroke-linecap="butt"/><path d="M249.27067,196.41664c0,2.01248 -1.67942,3.64392 -3.7511,3.64392c-2.07168,0 -3.7511,-1.63144 -3.7511,-3.64392c0,-2.01249 1.67942,-3.64393 3.7511,-3.64393c2.07168,0 3.7511,1.63144 3.7511,3.64393z" fill="#505050" stroke="#000000" stroke-width="2" stroke-linecap="butt"/><path d="M207.80284,194.64459c2.07167,0 3.7511,1.63144 3.7511,3.64393c0,2.01249 -1.67943,3.64392 -3.7511,3.64392c-2.07167,0 -3.7511,-1.63144 -3.7511,-3.64392c0,-2.01249 1.67942,-3.64393 3.7511,-3.64393z" data-paper-data="{&quot;index&quot;:null}" fill="#505050" stroke="#000000" stroke-width="2" stroke-linecap="butt"/><path d="M200.08629,201.50375c2.07167,0 3.7511,1.63144 3.7511,3.64392c0,2.01249 -1.67942,3.64393 -3.7511,3.64393c-2.07167,0 -3.7511,-1.63144 -3.7511,-3.64393c0,-2.01249 1.67942,-3.64392 3.7511,-3.64392z" data-paper-data="{&quot;index&quot;:null}" fill="#505050" stroke="#000000" stroke-width="2" stroke-linecap="butt"/><path d="M190.01191,209.86334c2.07167,0 3.7511,1.63144 3.7511,3.64393c0,2.01249 -1.67943,3.64392 -3.7511,3.64392c-2.07167,0 -3.75109,-1.63144 -3.75109,-3.64392c0,-2.01249 1.67942,-3.64393 3.75109,-3.64393z" data-paper-data="{&quot;index&quot;:null}" fill="#505050" stroke="#000000" stroke-width="2" stroke-linecap="butt"/><path d="M182.50972,218.22293c2.07167,0 3.7511,1.63144 3.7511,3.64392c0,2.01248 -1.67943,3.64392 -3.7511,3.64392c-2.07167,0 -3.7511,-1.63144 -3.7511,-3.64392c0,-2.01249 1.67942,-3.64392 3.7511,-3.64392z" data-paper-data="{&quot;index&quot;:null}" fill="#505050" stroke="#000000" stroke-width="2" stroke-linecap="butt"/><path d="M172.64968,226.58252c2.07167,0 3.7511,1.63144 3.7511,3.64393c0,2.01249 -1.67943,3.64393 -3.7511,3.64393c-2.07167,0 -3.75109,-1.63144 -3.75109,-3.64393c0,-2.01249 1.67942,-3.64393 3.75109,-3.64393z" data-paper-data="{&quot;index&quot;:null}" fill="#505050" stroke="#000000" stroke-width="2" stroke-linecap="butt"/><path d="M238.2682,151.70547c2.07167,0 3.7511,1.63144 3.7511,3.64392c0,2.01248 -1.67942,3.64393 -3.7511,3.64393c-2.07167,0 -3.7511,-1.63144 -3.7511,-3.64393c0,-2.01248 1.67943,-3.64392 3.7511,-3.64392z" data-paper-data="{&quot;index&quot;:null}" fill="#505050" stroke="#000000" stroke-width="2" stroke-linecap="butt"/><path d="M230.766,160.06506c2.07167,0 3.7511,1.63144 3.7511,3.64393c0,2.01248 -1.67942,3.64392 -3.7511,3.64392c-2.07167,0 -3.7511,-1.63144 -3.7511,-3.64392c0,-2.01248 1.67943,-3.64393 3.7511,-3.64393z" data-paper-data="{&quot;index&quot;:null}" fill="#505050" stroke="#000000" stroke-width="2" stroke-linecap="butt"/><path d="M298.48701,178.74931l-158.59116,0.28184" data-paper-data="{&quot;index&quot;:null}" fill="none" stroke="#000000" stroke-width="2" stroke-linecap="round"/><path d="M275.39283,171.03593c1.54725,1.31337 1.80272,3.63975 0.5706,5.19613c-1.23212,1.55638 -3.48523,1.75338 -5.03249,0.44002c-1.54725,-1.31337 -1.80272,-3.63976 -0.5706,-5.19613c1.23212,-1.55638 3.48523,-1.75338 5.03249,-0.44001z" data-paper-data="{&quot;index&quot;:null}" fill="#505050" stroke="#000000" stroke-width="2" stroke-linecap="butt"/><path d="M265.43024,171.44854c1.54725,1.31337 1.80271,3.63976 0.57059,5.19613c-1.23212,1.55638 -3.48524,1.75338 -5.03249,0.44001c-1.54725,-1.31337 -1.80271,-3.63975 -0.57059,-5.19613c1.23212,-1.55638 3.48523,-1.75338 5.03249,-0.44002z" data-paper-data="{&quot;index&quot;:null}" fill="#505050" stroke="#000000" stroke-width="2" stroke-linecap="butt"/><path d="M252.78805,171.52674c1.54725,1.31337 1.80272,3.63976 0.5706,5.19614c-1.23212,1.55638 -3.48524,1.75338 -5.03249,0.44002c-1.54725,-1.31337 -1.80272,-3.63976 -0.5706,-5.19614c1.23212,-1.55638 3.48524,-1.75338 5.03249,-0.44002z" data-paper-data="{&quot;index&quot;:null}" fill="#505050" stroke="#000000" stroke-width="2" stroke-linecap="butt"/><path d="M243.27666,171.13656c1.54725,1.31337 1.80271,3.63976 0.57059,5.19614c-1.23212,1.55638 -3.48524,1.75338 -5.03248,0.44002c-1.54725,-1.31337 -1.80271,-3.63976 -0.5706,-5.19614c1.23212,-1.55638 3.48524,-1.75338 5.03249,-0.44001z" data-paper-data="{&quot;index&quot;:null}" fill="#505050" stroke="#000000" stroke-width="2" stroke-linecap="butt"/><path d="M218.92542,247.61508l2.28533,-135.22282" data-paper-data="{&quot;index&quot;:null}" fill="none" stroke="#000000" stroke-width="2" stroke-linecap="round"/><path d="M229.37257,198.88054c-1.39692,1.47225 -3.73389,1.59867 -5.21975,0.28237c-1.48586,-1.3163 -1.55795,-3.57686 -0.16103,-5.04911c1.39692,-1.47225 3.73388,-1.59867 5.21974,-0.28238c1.48586,1.3163 1.55796,3.57686 0.16104,5.04912z" data-paper-data="{&quot;index&quot;:null}" fill="#505050" stroke="#000000" stroke-width="2" stroke-linecap="butt"/><path d="M149.06827,188.541c-1.55684,-1.30199 -1.82935,-3.62643 -0.60868,-5.19181c1.22068,-1.56537 3.47229,-1.77889 5.02912,-0.47691c1.55684,1.30199 1.82935,3.62644 0.60868,5.19182c-1.22067,1.56537 -3.47229,1.77889 -5.02913,0.4769z" data-paper-data="{&quot;index&quot;:null}" fill="#505050" stroke="#000000" stroke-width="2" stroke-linecap="butt"/><path d="M161.92387,187.74189c-1.55684,-1.30199 -1.82936,-3.62644 -0.60869,-5.19182c1.22068,-1.56537 3.47229,-1.77889 5.02913,-0.47691c1.55684,1.30198 1.82935,3.62644 0.60868,5.19181c-1.22067,1.56537 -3.47229,1.77889 -5.02913,0.47691z" data-paper-data="{&quot;index&quot;:null}" fill="#505050" stroke="#000000" stroke-width="2" stroke-linecap="butt"/><path d="M171.88317,187.25625c-1.55684,-1.30199 -1.82935,-3.62644 -0.60868,-5.19182c1.22068,-1.56537 3.47229,-1.77889 5.02913,-0.4769c1.55684,1.30199 1.82935,3.62644 0.60868,5.19182c-1.22067,1.56537 -3.47229,1.77888 -5.02913,0.4769z" data-paper-data="{&quot;index&quot;:null}" fill="#505050" stroke="#000000" stroke-width="2" stroke-linecap="butt"/><path d="M184.52444,187.08535c-1.55684,-1.30199 -1.82935,-3.62644 -0.60868,-5.19182c1.22068,-1.56537 3.47228,-1.77889 5.02912,-0.4769c1.55684,1.30199 1.82936,3.62644 0.60869,5.19182c-1.22067,1.56537 -3.47229,1.77889 -5.02912,0.47691z" data-paper-data="{&quot;index&quot;:null}" fill="#505050" stroke="#000000" stroke-width="2" stroke-linecap="butt"/><path d="M194.03844,187.40578c-1.55684,-1.30199 -1.82935,-3.62644 -0.60868,-5.19181c1.22068,-1.56537 3.47228,-1.77889 5.02912,-0.4769c1.55684,1.30198 1.82935,3.62643 0.60868,5.19181c-1.22067,1.56537 -3.47228,1.77889 -5.02912,0.47691z" data-paper-data="{&quot;index&quot;:null}" fill="#505050" stroke="#000000" stroke-width="2" stroke-linecap="butt"/><path d="M211.3842,115.71845c1.3348,-1.5288 3.66452,-1.75181 5.20359,-0.49812c1.53905,1.25369 1.70463,3.50934 0.36983,5.03814c-1.3348,1.52879 -3.66453,1.75182 -5.20358,0.49813c-1.53905,-1.25369 -1.70463,-3.50934 -0.36984,-5.03813z" data-paper-data="{&quot;index&quot;:null}" fill="#505050" stroke="#000000" stroke-width="2" stroke-linecap="butt"/><path d="M211.90973,128.58813c1.3348,-1.5288 3.66452,-1.75181 5.20359,-0.49813c1.53905,1.25369 1.70464,3.50933 0.36984,5.03813c-1.3348,1.5288 -3.66453,1.75181 -5.20359,0.49813c-1.53905,-1.25369 -1.70464,-3.50933 -0.36984,-5.03813z" data-paper-data="{&quot;index&quot;:null}" fill="#505050" stroke="#000000" stroke-width="2" stroke-linecap="butt"/><path d="M212.18345,138.5555c1.3348,-1.5288 3.66452,-1.75181 5.20359,-0.49813c1.53905,1.25369 1.70463,3.50933 0.36983,5.03813c-1.3348,1.5288 -3.66452,1.75181 -5.20359,0.49812c-1.53905,-1.25369 -1.70464,-3.50933 -0.36984,-5.03813z" data-paper-data="{&quot;index&quot;:null}" fill="#505050" stroke="#000000" stroke-width="2" stroke-linecap="butt"/><path d="M212.08546,151.19755c1.3348,-1.5288 3.66454,-1.75181 5.20359,-0.49812c1.53905,1.25369 1.70463,3.50933 0.36983,5.03813c-1.3348,1.5288 -3.66452,1.75181 -5.20359,0.49813c-1.53905,-1.25369 -1.70464,-3.50933 -0.36984,-5.03813z" data-paper-data="{&quot;index&quot;:null}" fill="#505050" stroke="#000000" stroke-width="2" stroke-linecap="butt"/><path d="M211.56275,160.70259c1.3348,-1.5288 3.66453,-1.7518 5.20358,-0.49812c1.53905,1.25369 1.70464,3.50934 0.36984,5.03813c-1.3348,1.5288 -3.66452,1.75181 -5.20359,0.49813c-1.53905,-1.25369 -1.70463,-3.50934 -0.36983,-5.03814z" data-paper-data="{&quot;index&quot;:null}" fill="#505050" stroke="#000000" stroke-width="2" stroke-linecap="butt"/><path d="M222.7315,211.48377c0,0 -5.41797,-20.1218 -5.41797,-30.20192c0,-9.78621 5.41797,-29.42317 5.41797,-29.42317h63.9468c0,0 -3.4478,16.95278 -3.4478,26.22164c0,10.46146 3.4478,33.40345 3.4478,33.40345z" fill="url(#color-2)" stroke="#000000" stroke-width="2" stroke-linecap="butt"/><path d="M220.56307,161.88608l62.97886,-0.41708" fill="none" stroke="#000000" stroke-width="2" stroke-linecap="round"/><path d="M219.3832,171.29588l62.97886,-0.41708" fill="none" stroke="#000000" stroke-width="2" stroke-linecap="round"/><path d="M281.86951,181.71475l-62.97886,0.41708" fill="none" stroke="#000000" stroke-width="2" stroke-linecap="round"/><path d="M282.16728,191.12455l-62.97886,0.41708" fill="none" stroke="#000000" stroke-width="2" stroke-linecap="round"/><path d="M220.66605,202.1313l62.97886,-0.41708" fill="none" stroke="#000000" stroke-width="2" stroke-linecap="round"/><path d="M290.93482,181.89753c0,16.25343 -1.89291,29.18317 -2.70899,29.18317c-0.19634,0 -0.59756,0.60576 -1.09371,-1.09696c-0.21251,-0.7293 0.0501,-2.30467 -0.1886,-3.20653c-1.5204,-5.74435 -2.90431,-16.18173 -2.90431,-26.84986c0,-16.25343 2.878,-27.213 3.69407,-27.213c0.81607,0 3.20153,12.92974 3.20153,29.18317z" fill="url(#color-3)" stroke="#000000" stroke-width="2" stroke-linecap="butt"/><path d="M288.01803,184.62298c0,0 -0.41708,-2.81713 -0.41708,-4.17079c0,-1.28419 0.41708,-3.75371 0.41708,-3.75371h24.25501c0.47655,0.8178 1.36294,1.36744 2.37771,1.36744c1.01476,0 1.90115,-0.54963 2.37771,-1.36744h8.14663c-0.01605,0.1202 -0.02433,0.24285 -0.02433,0.36744c0,1.51878 1.23122,2.75 2.75,2.75c1.51878,0 2.75,-1.23122 2.75,-2.75c0,-0.12459 -0.00829,-0.24724 -0.02433,-0.36744h6.84392c-0.04553,0.19848 -0.06959,0.40515 -0.06959,0.61744c0,1.51878 1.23122,2.75 2.75,2.75c1.51878,0 2.75,-1.23122 2.75,-2.75c0,-0.21229 -0.02405,-0.41896 -0.06959,-0.61744h1.0754c0,0 -0.41708,2.13606 -0.41708,3.33663c0,0.8408 0.14877,2.31377 0.26861,3.36388c-0.48117,-0.7988 -1.35686,-1.33307 -2.35735,-1.33307c-1.45392,0 -2.64431,1.1283 -2.74334,2.55705h-1.18368c0.42163,-0.48327 0.67701,-1.11534 0.67701,-1.80705c0,-1.51878 -1.23122,-2.75 -2.75,-2.75c-1.51878,0 -2.75,1.23122 -2.75,2.75c0,0.69172 0.25539,1.32378 0.67701,1.80705h-9.91311c1.017,-0.40359 1.7361,-1.39635 1.7361,-2.55706c0,-1.51878 -1.23122,-2.75 -2.75,-2.75c-1.51878,0 -2.75,1.23122 -2.75,2.75c0,1.16071 0.7191,2.15346 1.7361,2.55706h-3.67611c-0.1808,-0.0374 -0.3681,-0.05706 -0.55999,-0.05706c-0.19189,0 -0.37919,0.01965 -0.55999,0.05706h-1.52805c-0.30717,-1.18333 -1.38253,-2.05706 -2.66196,-2.05706c-1.27943,0 -2.35479,0.87373 -2.66196,2.05706zM297.15074,183.56592c1.51878,0 2.75,-1.23122 2.75,-2.75c0,-1.51878 -1.23122,-2.75 -2.75,-2.75c-1.51878,0 -2.75,1.23122 -2.75,2.75c0,1.51878 1.23122,2.75 2.75,2.75zM305.65074,183.81592c1.51878,0 2.75,-1.23122 2.75,-2.75c0,-1.51878 -1.23122,-2.75 -2.75,-2.75c-1.51878,0 -2.75,1.23122 -2.75,2.75c0,1.51878 1.23122,2.75 2.75,2.75z" fill="url(#color-4)" stroke="#000000" stroke-width="2" stroke-linecap="butt"/><path d="M17438.15224,180.59379v21.66501h-17095.4227c0,-2.31509 0.23042,-19.45037 0,-22.18873c-0.06428,-0.76429 17095.4227,0.52372 17095.4227,0.52372z" fill="url(#color-5)" stroke="none" stroke-width="0" stroke-linecap="butt"/><path d="M17431.61388,159.1717v21.66501h-17088.20067c0.09596,-1.38066 0.0567,-3.12851 0.0567,-3.59655c0,-3.65118 0,-7.30237 0,-10.95356c0,-1.64303 0.20359,-3.28611 0,-4.9291c-0.09001,-0.72639 1.57688,-1.46442 0.59832,-2.1858z" data-paper-data="{&quot;index&quot;:null}" fill="url(#color-6)" stroke="none" stroke-width="0" stroke-linecap="butt"/></g></g></svg>