<svg version="1.1" xmlns="http://www.w3.org/2000/svg" xmlns:xlink="http://www.w3.org/1999/xlink" width="17288.64308" height="134.51633" viewBox="0,0,17288.64308,134.51633"><defs><radialGradient cx="188.92305" cy="180.27521" r="57.51817" gradientUnits="userSpaceOnUse" id="color-1"><stop offset="0" stop-color="#00ff2e"/><stop offset="1" stop-color="#15ceff"/></radialGradient><linearGradient x1="221.45542" y1="181.9283" x2="291.49858" y2="181.9283" gradientUnits="userSpaceOnUse" id="color-2"><stop offset="0" stop-color="#15d2ff"/><stop offset="1" stop-color="#00ff2e"/></linearGradient><linearGradient x1="221.57115" y1="138.86841" x2="291.6143" y2="138.86841" gradientUnits="userSpaceOnUse" id="color-3"><stop offset="0" stop-color="#15d2ff"/><stop offset="1" stop-color="#00ff2e"/></linearGradient><linearGradient x1="288.83368" y1="182.16229" x2="295.79672" y2="182.16229" gradientUnits="userSpaceOnUse" id="color-4"><stop offset="0" stop-color="#00ff2e"/><stop offset="1" stop-color="#15d2ff"/></linearGradient><linearGradient x1="288.94939" y1="139.1024" x2="295.91245" y2="139.1024" gradientUnits="userSpaceOnUse" id="color-5"><stop offset="0" stop-color="#00ff2e"/><stop offset="1" stop-color="#15d2ff"/></linearGradient><linearGradient x1="221.68687" y1="222.848" x2="291.73001" y2="222.848" gradientUnits="userSpaceOnUse" id="color-6"><stop offset="0" stop-color="#15d2ff"/><stop offset="1" stop-color="#00ff2e"/></linearGradient><linearGradient x1="290.06512" y1="221.58196" x2="297.02817" y2="221.58196" gradientUnits="userSpaceOnUse" id="color-7"><stop offset="0" stop-color="#00ff2e"/><stop offset="1" stop-color="#15d2ff"/></linearGradient><linearGradient x1="312.51156" y1="143.19279" x2="312.51156" y2="149.847" gradientUnits="userSpaceOnUse" id="color-8"><stop offset="0" stop-color="#00ff2e"/><stop offset="1" stop-color="#15d2ff"/></linearGradient><linearGradient x1="311.50828" y1="203.08903" x2="311.50828" y2="209.74323" gradientUnits="userSpaceOnUse" id="color-9"><stop offset="0" stop-color="#00ff2e"/><stop offset="1" stop-color="#15d2ff"/></linearGradient><linearGradient x1="313.74207" y1="174.0027" x2="313.74207" y2="180.6569" gradientUnits="userSpaceOnUse" id="color-10"><stop offset="0" stop-color="#00ff2e"/><stop offset="1" stop-color="#15d2ff"/></linearGradient><linearGradient x1="8829.77219" y1="147.16951" x2="8829.77219" y2="168.83451" gradientUnits="userSpaceOnUse" id="color-11"><stop offset="0" stop-color="#bdbdbd"/><stop offset="1" stop-color="#bdbdbd" stop-opacity="0"/></linearGradient><linearGradient x1="8821.87179" y1="147.41242" x2="8821.87179" y2="125.74742" gradientUnits="userSpaceOnUse" id="color-12"><stop offset="0" stop-color="#bdbdbd"/><stop offset="1" stop-color="#bdbdbd" stop-opacity="0"/></linearGradient><linearGradient x1="8829.9973" y1="178.09038" x2="8829.9973" y2="199.75538" gradientUnits="userSpaceOnUse" id="color-13"><stop offset="0" stop-color="#bdbdbd"/><stop offset="1" stop-color="#bdbdbd" stop-opacity="0"/></linearGradient><linearGradient x1="8822.0969" y1="178.33329" x2="8822.0969" y2="156.66829" gradientUnits="userSpaceOnUse" id="color-14"><stop offset="0" stop-color="#bdbdbd"/><stop offset="1" stop-color="#bdbdbd" stop-opacity="0"/></linearGradient><linearGradient x1="8826.81176" y1="206.96487" x2="8826.81176" y2="228.62987" gradientUnits="userSpaceOnUse" id="color-15"><stop offset="0" stop-color="#bdbdbd"/><stop offset="1" stop-color="#bdbdbd" stop-opacity="0"/></linearGradient><linearGradient x1="8818.91136" y1="207.20778" x2="8818.91136" y2="185.54278" gradientUnits="userSpaceOnUse" id="color-16"><stop offset="0" stop-color="#bdbdbd"/><stop offset="1" stop-color="#bdbdbd" stop-opacity="0"/></linearGradient></defs><g transform="translate(-140.18446,-112.67186)"><g data-paper-data="{&quot;isPaintingLayer&quot;:true}" fill-rule="nonzero" stroke-linejoin="miter" stroke-miterlimit="10" stroke-dasharray="" stroke-dashoffset="0" style="mix-blend-mode: normal"><path d="" fill="#7b0000" stroke="#000000" stroke-width="2" stroke-linecap="butt"/><path d="M141.18687,221.9827l0.24543,-86.68615l95.22693,-12.53951v115.03634z" fill="url(#color-1)" stroke="#000000" stroke-width="2" stroke-linecap="butt"/><path d="M201.7679,196.76274v-30.91078h34.45792v30.91078z" fill="#000000" stroke="#000000" stroke-width="2" stroke-linecap="butt"/><path d="M153.00833,142.50531c0,2.01248 -1.67943,3.64393 -3.7511,3.64393c-2.07167,0 -3.7511,-1.63144 -3.7511,-3.64393c0,-2.01248 1.67943,-3.64392 3.7511,-3.64392c2.07167,0 3.7511,1.63144 3.7511,3.64392z" fill="#505050" stroke="#000000" stroke-width="2" stroke-linecap="butt"/><path d="M170.78133,143.20586c0,2.01248 -1.67943,3.64392 -3.7511,3.64392c-2.07167,0 -3.75109,-1.63144 -3.75109,-3.64392c0,-2.01248 1.67942,-3.64392 3.75109,-3.64392c2.07167,0 3.7511,1.63144 3.7511,3.64392z" fill="#505050" stroke="#000000" stroke-width="2" stroke-linecap="butt"/><path d="M186.88968,144.30381c0,2.01248 -1.67942,3.64392 -3.7511,3.64392c-2.07167,0 -3.7511,-1.63144 -3.7511,-3.64392c0,-2.01248 1.67943,-3.64392 3.7511,-3.64392c2.07167,0 3.7511,1.63144 3.7511,3.64392z" fill="#505050" stroke="#000000" stroke-width="2" stroke-linecap="butt"/><path d="M205.09786,144.39582c0,2.01248 -1.67943,3.64392 -3.7511,3.64392c-2.07167,0 -3.7511,-1.63143 -3.7511,-3.64392c0,-2.01248 1.67943,-3.64393 3.7511,-3.64393c2.07167,0 3.7511,1.63144 3.7511,3.64393z" fill="#505050" stroke="#000000" stroke-width="2" stroke-linecap="butt"/><path d="M221.12244,145.10879c0,2.01248 -2.01593,3.64392 -4.5027,3.64392c-2.48677,0 -4.50269,-1.63144 -4.50269,-3.64392c0,-2.01248 2.01592,-3.64393 4.50269,-3.64393c2.48677,0 4.5027,1.63144 4.5027,3.64393z" fill="#505050" stroke="#000000" stroke-width="2" stroke-linecap="butt"/><path d="M241.55413,189.55749c0,2.01249 -1.67943,3.64392 -3.7511,3.64392c-2.07167,0 -3.7511,-1.63144 -3.7511,-3.64392c0,-2.01249 1.67943,-3.64393 3.7511,-3.64393c2.07168,0 3.7511,1.63144 3.7511,3.64393z" fill="#505050" stroke="#000000" stroke-width="2" stroke-linecap="butt"/><path d="M249.27068,196.41664c0,2.01248 -1.67942,3.64392 -3.7511,3.64392c-2.07168,0 -3.7511,-1.63144 -3.7511,-3.64392c0,-2.01249 1.67942,-3.64393 3.7511,-3.64393c2.07168,0 3.7511,1.63144 3.7511,3.64393z" fill="#505050" stroke="#000000" stroke-width="2" stroke-linecap="butt"/><path d="M213.93665,213.69578c2.07167,0 3.7511,1.63144 3.7511,3.64393c0,2.01249 -1.67943,3.64392 -3.7511,3.64392c-2.07167,0 -3.7511,-1.63144 -3.7511,-3.64392c0,-2.01249 1.67942,-3.64393 3.7511,-3.64393z" data-paper-data="{&quot;index&quot;:null}" fill="#505050" stroke="#000000" stroke-width="2" stroke-linecap="butt"/><path d="M201.7073,213.54215c2.07167,0 3.7511,1.63144 3.7511,3.64392c0,2.01249 -1.67942,3.64393 -3.7511,3.64393c-2.07167,0 -3.7511,-1.63144 -3.7511,-3.64393c0,-2.01249 1.67942,-3.64392 3.7511,-3.64392z" data-paper-data="{&quot;index&quot;:null}" fill="#505050" stroke="#000000" stroke-width="2" stroke-linecap="butt"/><path d="M181.74432,215.13414c2.07167,0 3.7511,1.63144 3.7511,3.64393c0,2.01249 -1.67943,3.64392 -3.7511,3.64392c-2.07167,0 -3.75109,-1.63144 -3.75109,-3.64392c0,-2.01249 1.67942,-3.64393 3.75109,-3.64393z" data-paper-data="{&quot;index&quot;:null}" fill="#505050" stroke="#000000" stroke-width="2" stroke-linecap="butt"/><path d="M166.85034,211.59873c2.07167,0 3.7511,1.63144 3.7511,3.64392c0,2.01248 -1.67943,3.64392 -3.7511,3.64392c-2.07167,0 -3.7511,-1.63144 -3.7511,-3.64392c0,-2.01249 1.67942,-3.64392 3.7511,-3.64392z" data-paper-data="{&quot;index&quot;:null}" fill="#505050" stroke="#000000" stroke-width="2" stroke-linecap="butt"/><path d="M147.9711,214.81813c2.07167,0 3.7511,1.63144 3.7511,3.64393c0,2.01249 -1.67943,3.64393 -3.7511,3.64393c-2.07167,0 -3.75109,-1.63144 -3.75109,-3.64393c0,-2.01249 1.67942,-3.64393 3.75109,-3.64393z" data-paper-data="{&quot;index&quot;:null}" fill="#505050" stroke="#000000" stroke-width="2" stroke-linecap="butt"/><path d="M238.26821,159.0388c2.07167,0 3.7511,1.63144 3.7511,3.64392c0,2.01248 -1.67942,3.64393 -3.7511,3.64393c-2.07167,0 -3.7511,-1.63144 -3.7511,-3.64393c0,-2.01248 1.67943,-3.64392 3.7511,-3.64392z" data-paper-data="{&quot;index&quot;:null}" fill="#505050" stroke="#000000" stroke-width="2" stroke-linecap="butt"/><path d="M230.76601,160.06506c2.07167,0 3.7511,1.63144 3.7511,3.64393c0,2.01248 -1.67942,3.64392 -3.7511,3.64392c-2.07167,0 -3.7511,-1.63144 -3.7511,-3.64392c0,-2.01248 1.67943,-3.64393 3.7511,-3.64393z" data-paper-data="{&quot;index&quot;:null}" fill="#505050" stroke="#000000" stroke-width="2" stroke-linecap="butt"/><path d="M265.43025,171.44854c1.54725,1.31337 1.80271,3.63976 0.57059,5.19613c-1.23212,1.55638 -3.48524,1.75338 -5.03249,0.44001c-1.54725,-1.31337 -1.80271,-3.63975 -0.57059,-5.19613c1.23212,-1.55638 3.48523,-1.75338 5.03249,-0.44002z" data-paper-data="{&quot;index&quot;:null}" fill="#505050" stroke="#000000" stroke-width="2" stroke-linecap="butt"/><path d="M252.78806,171.52674c1.54725,1.31337 1.80272,3.63976 0.5706,5.19614c-1.23212,1.55638 -3.48524,1.75338 -5.03249,0.44002c-1.54725,-1.31337 -1.80272,-3.63976 -0.5706,-5.19614c1.23212,-1.55638 3.48524,-1.75338 5.03249,-0.44002z" data-paper-data="{&quot;index&quot;:null}" fill="#505050" stroke="#000000" stroke-width="2" stroke-linecap="butt"/><path d="M243.27667,171.13656c1.54725,1.31337 1.80271,3.63976 0.57059,5.19614c-1.23212,1.55638 -3.48524,1.75338 -5.03248,0.44002c-1.54725,-1.31337 -1.80271,-3.63976 -0.5706,-5.19614c1.23212,-1.55638 3.48524,-1.75338 5.03249,-0.44001z" data-paper-data="{&quot;index&quot;:null}" fill="#505050" stroke="#000000" stroke-width="2" stroke-linecap="butt"/><path d="M229.37258,198.88054c-1.39692,1.47225 -3.73389,1.59867 -5.21975,0.28237c-1.48586,-1.3163 -1.55795,-3.57686 -0.16103,-5.04911c1.39692,-1.47225 3.73388,-1.59867 5.21974,-0.28238c1.48586,1.3163 1.55796,3.57686 0.16104,5.04912z" data-paper-data="{&quot;index&quot;:null}" fill="#505050" stroke="#000000" stroke-width="2" stroke-linecap="butt"/><path d="M146.43768,186.28621c-1.55684,-1.30199 -1.82935,-3.62643 -0.60868,-5.19181c1.22068,-1.56537 3.47229,-1.77889 5.02912,-0.47691c1.55684,1.30199 1.82935,3.62644 0.60868,5.19182c-1.22067,1.56537 -3.47229,1.77889 -5.02913,0.4769z" data-paper-data="{&quot;index&quot;:null}" fill="#505050" stroke="#000000" stroke-width="2" stroke-linecap="butt"/><path d="M158.54168,186.2387c-1.55684,-1.30199 -1.82936,-3.62644 -0.60869,-5.19182c1.22068,-1.56537 3.47229,-1.77889 5.02913,-0.47691c1.55684,1.30198 1.82935,3.62644 0.60868,5.19181c-1.22067,1.56537 -3.47229,1.77889 -5.02913,0.47691z" data-paper-data="{&quot;index&quot;:null}" fill="#505050" stroke="#000000" stroke-width="2" stroke-linecap="butt"/><path d="M171.13158,187.25625c-1.55684,-1.30199 -1.82935,-3.62644 -0.60868,-5.19182c1.22068,-1.56537 3.47229,-1.77889 5.02913,-0.4769c1.55684,1.30199 1.82935,3.62644 0.60868,5.19182c-1.22067,1.56537 -3.47229,1.77888 -5.02913,0.4769z" data-paper-data="{&quot;index&quot;:null}" fill="#505050" stroke="#000000" stroke-width="2" stroke-linecap="butt"/><path d="M184.52445,187.08535c-1.55684,-1.30199 -1.82935,-3.62644 -0.60868,-5.19182c1.22068,-1.56537 3.47228,-1.77889 5.02912,-0.4769c1.55684,1.30199 1.82936,3.62644 0.60869,5.19182c-1.22067,1.56537 -3.47229,1.77889 -5.02912,0.47691z" data-paper-data="{&quot;index&quot;:null}" fill="#505050" stroke="#000000" stroke-width="2" stroke-linecap="butt"/><path d="M194.03845,187.40578c-1.55684,-1.30199 -1.82935,-3.62644 -0.60868,-5.19181c1.22068,-1.56537 3.47228,-1.77889 5.02912,-0.4769c1.55684,1.30198 1.82935,3.62643 0.60868,5.19181c-1.22067,1.56537 -3.47228,1.77889 -5.02912,0.47691z" data-paper-data="{&quot;index&quot;:null}" fill="#505050" stroke="#000000" stroke-width="2" stroke-linecap="butt"/><path d="M145.28061,179.46143l160.14217,-0.23666" data-paper-data="{&quot;index&quot;:null}" fill="none" stroke="#000000" stroke-width="2" stroke-linecap="round"/><path d="M280.10274,172.99785c1.56238,1.10284 1.82035,3.0563 0.57618,4.36319c-1.24417,1.30688 -3.51932,1.47231 -5.0817,0.36949c-1.56238,-1.10284 -1.82036,-3.0563 -0.57619,-4.36319c1.24417,-1.30688 3.51932,-1.47231 5.08171,-0.36948z" data-paper-data="{&quot;index&quot;:null}" fill="#505050" stroke="#000000" stroke-width="2" stroke-linecap="butt"/><path d="M226.92638,206.96189c0,0 -5.47096,-16.89627 -5.47096,-25.36055c0,-8.21748 5.47096,-24.70663 5.47096,-24.70663h64.5722c0,0 -3.48152,14.23525 -3.48152,22.01831c0,8.78449 3.48152,28.04887 3.48152,28.04887z" fill="url(#color-2)" stroke="#000000" stroke-width="2" stroke-linecap="butt"/><path d="M224.73675,165.31472l63.59478,-0.35022" fill="none" stroke="#000000" stroke-width="2" stroke-linecap="round"/><path d="M223.54534,173.21613l63.59479,-0.35022" fill="none" stroke="#000000" stroke-width="2" stroke-linecap="round"/><path d="M223.04797,182.31508l63.59479,-0.35022" fill="none" stroke="#000000" stroke-width="2" stroke-linecap="round"/><path d="M286.94344,189.86626l-63.59479,0.35022" fill="none" stroke="#000000" stroke-width="2" stroke-linecap="round"/><path d="M288.43552,198.7584l-63.59479,0.35022" fill="none" stroke="#000000" stroke-width="2" stroke-linecap="round"/><path d="M303.15902,138.31226l-160.14216,0.23667" data-paper-data="{&quot;index&quot;:null}" fill="none" stroke="#000000" stroke-width="2" stroke-linecap="round"/><path d="M227.04211,163.902c0,0 -5.47096,-16.89627 -5.47096,-25.36055c0,-8.21748 3.57358,-16.81765 3.57358,-16.81765l66.46957,-7.88898c0,0 -3.48152,14.23525 -3.48152,22.01831c0,8.78449 3.48152,28.04887 3.48152,28.04887z" fill="url(#color-3)" stroke="#000000" stroke-width="2" stroke-linecap="butt"/><path d="M288.44726,121.90461l-63.59479,0.35022" fill="none" stroke="#000000" stroke-width="2" stroke-linecap="round"/><path d="M223.66106,130.15624l63.59479,-0.35022" fill="none" stroke="#000000" stroke-width="2" stroke-linecap="round"/><path d="M223.16369,139.25518l63.59478,-0.35022" fill="none" stroke="#000000" stroke-width="2" stroke-linecap="round"/><path d="M295.79672,182.11833c0,13.64801 -1.91143,24.50511 -2.73548,24.50511c-0.19826,0 -0.60341,0.50866 -1.1044,-0.92112c-0.21459,-0.61239 0.05059,-1.93524 -0.19045,-2.69253c-1.53527,-4.82352 -2.93271,-13.5878 -2.93271,-22.54582c0,-13.64801 2.90615,-22.85075 3.7302,-22.85075c0.82405,0 3.23284,10.8571 3.23284,24.50511z" fill="url(#color-4)" stroke="#000000" stroke-width="2" stroke-linecap="butt"/><path d="M223.46437,147.15659l63.59479,-0.35022" fill="none" stroke="#000000" stroke-width="2" stroke-linecap="round"/><path d="M288.55125,155.6985l-63.59479,0.35022" fill="none" stroke="#000000" stroke-width="2" stroke-linecap="round"/><path d="M295.91245,139.05845c0,13.64801 -1.91143,24.5051 -2.73548,24.5051c-0.19826,0 -0.60341,0.50866 -1.1044,-0.92112c-0.21459,-0.61239 0.05059,-1.93523 -0.19045,-2.69253c-1.53527,-4.82352 -2.93272,-13.5878 -2.93272,-22.54582c0,-13.648 2.90615,-22.85075 3.7302,-22.85075c0.82405,0 3.23284,10.8571 3.23284,24.50511z" fill="url(#color-5)" stroke="#000000" stroke-width="2" stroke-linecap="butt"/><path d="M303.65422,222.56111l-160.14217,0.23666" data-paper-data="{&quot;index&quot;:null}" fill="none" stroke="#000000" stroke-width="2" stroke-linecap="round"/><path d="M226.77835,239.02946c0,0 -5.09148,-8.64009 -5.09148,-16.48448c0,-7.61567 5.47096,-22.89724 5.47096,-22.89724h64.57219c0,0 -3.48152,13.19273 -3.48152,20.4058c0,8.14116 3.48152,25.99471 3.48152,25.99471z" fill="url(#color-6)" stroke="#000000" stroke-width="2" stroke-linecap="butt"/><path d="M288.56298,208.05084l-63.59479,0.35022" fill="none" stroke="#000000" stroke-width="2" stroke-linecap="round"/><path d="M223.77678,216.30247l63.59478,-0.35023" fill="none" stroke="#000000" stroke-width="2" stroke-linecap="round"/><path d="M286.8742,225.05119l-63.59478,0.35022" fill="none" stroke="#000000" stroke-width="2" stroke-linecap="round"/><path d="M290.66697,237.84474l-63.59479,0.35022" fill="none" stroke="#000000" stroke-width="2" stroke-linecap="round"/><path d="M297.02817,221.538c0,13.64801 -1.91143,24.50511 -2.73548,24.50511c-0.19826,0 -0.60341,0.50866 -1.10441,-0.92112c-0.21459,-0.61239 0.05059,-1.93523 -0.19044,-2.69253c-1.53527,-4.82352 -2.93272,-13.5878 -2.93272,-22.54582c0,-13.64801 2.90615,-22.85075 3.7302,-22.85075c0.82405,0 3.23284,10.8571 3.23284,24.5051z" fill="url(#color-7)" stroke="#000000" stroke-width="2" stroke-linecap="butt"/><path d="M292.84175,149.847c0,0 -0.29578,-2.36554 -0.29578,-3.50221c0,-1.07834 0.29578,-3.15199 0.29578,-3.15199h17.20132c0.33796,0.68671 0.96658,1.14825 1.68623,1.14825c0.71965,0 1.34826,-0.46152 1.68623,-1.14825h5.77748c-0.01139,0.10093 -0.01725,0.20392 -0.01725,0.30854c0,1.27532 0.87315,2.30918 1.95026,2.30918c1.07711,0 1.95027,-1.03386 1.95027,-2.30918c0,-0.10461 -0.00588,-0.20761 -0.01725,-0.30854h4.85361c-0.03229,0.16666 -0.04935,0.34021 -0.04935,0.51846c0,1.27532 0.87316,2.30918 1.95027,2.30918c1.07711,0 1.95027,-1.03386 1.95027,-2.30918c0,-0.17826 -0.01706,-0.3518 -0.04935,-0.51846h0.76267c0,0 -0.29579,1.79366 -0.29579,2.80177c0,0.70602 0.1055,1.94288 0.19049,2.82465c-0.34124,-0.67076 -0.96227,-1.11938 -1.6718,-1.11938c-1.03111,0 -1.87531,0.94743 -1.94553,2.14715h-0.83945c0.29901,-0.4058 0.48012,-0.93655 0.48012,-1.51738c0,-1.27532 -0.87316,-2.30917 -1.95027,-2.30917c-1.07711,0 -1.95026,1.03385 -1.95026,2.30917c0,0.58084 0.18112,1.11158 0.48012,1.51738h-7.03024c0.72124,-0.33889 1.23122,-1.17252 1.23122,-2.14717c0,-1.27532 -0.87315,-2.30918 -1.95026,-2.30918c-1.07711,0 -1.95027,1.03386 -1.95027,2.30918c0,0.97465 0.50997,1.80827 1.23122,2.14717h-2.60705c-0.12822,-0.03141 -0.26105,-0.04792 -0.39714,-0.04792c-0.13608,0 -0.26892,0.0165 -0.39714,0.04792h-1.08367c-0.21784,-0.99364 -0.98047,-1.72731 -1.88782,-1.72731c-0.90735,0 -1.66999,0.73368 -1.88782,1.72731zM299.31854,148.95938c1.07711,0 1.95027,-1.03385 1.95027,-2.30917c0,-1.27532 -0.87316,-2.30917 -1.95027,-2.30917c-1.07711,0 -1.95026,1.03385 -1.95026,2.30917c0,1.27532 0.87315,2.30917 1.95026,2.30917zM305.34662,149.16932c1.07711,0 1.95026,-1.03386 1.95026,-2.30918c0,-1.27532 -0.87315,-2.30918 -1.95026,-2.30918c-1.07711,0 -1.95026,1.03386 -1.95026,2.30918c0,1.27532 0.87316,2.30918 1.95026,2.30918z" fill="url(#color-8)" stroke="#000000" stroke-width="2" stroke-linecap="butt"/><path d="M293.61787,209.74323c0,0 -0.26903,-2.36554 -0.26903,-3.50221c0,-1.07834 0.26903,-3.15199 0.26903,-3.15199h15.64523c0.30738,0.68671 0.87914,1.14824 1.53369,1.14824c0.65455,0 1.22629,-0.46152 1.53369,-1.14824h5.25483c-0.01035,0.10093 -0.01569,0.20392 -0.01569,0.30854c0,1.27532 0.79417,2.30918 1.77384,2.30918c0.97967,0 1.77384,-1.03386 1.77384,-2.30918c0,-0.10461 -0.00535,-0.20761 -0.01569,-0.30854h4.41454c-0.02936,0.16666 -0.04488,0.3402 -0.04488,0.51846c0,1.27532 0.79417,2.30917 1.77384,2.30917c0.97967,0 1.77384,-1.03385 1.77384,-2.30917c0,-0.17826 -0.01551,-0.3518 -0.04488,-0.51846h0.69366c0,0 -0.26903,1.79365 -0.26903,2.80176c0,0.70602 0.09596,1.94288 0.17326,2.82465c-0.31037,-0.67076 -0.87522,-1.11938 -1.52056,-1.11938c-0.93783,0 -1.70567,0.94744 -1.76954,2.14716h-0.76351c0.27197,-0.4058 0.43669,-0.93655 0.43669,-1.51738c0,-1.27532 -0.79417,-2.30918 -1.77384,-2.30918c-0.97967,0 -1.77384,1.03386 -1.77384,2.30918c0,0.58084 0.16474,1.11158 0.43669,1.51738h-6.39426c0.65599,-0.33889 1.11984,-1.17252 1.11984,-2.14717c0,-1.27532 -0.79417,-2.30917 -1.77384,-2.30917c-0.97967,0 -1.77384,1.03385 -1.77384,2.30917c0,0.97465 0.46384,1.80827 1.11984,2.14717h-2.37121c-0.11663,-0.03141 -0.23744,-0.04792 -0.36121,-0.04792c-0.12377,0 -0.24459,0.0165 -0.36121,0.04792h-0.98564c-0.19814,-0.99364 -0.89177,-1.72731 -1.71704,-1.72731c-0.82527,0 -1.51892,0.73368 -1.71704,1.72731zM299.50876,208.85561c0.97967,0 1.77384,-1.03386 1.77384,-2.30918c0,-1.27532 -0.79417,-2.30918 -1.77384,-2.30918c-0.97967,0 -1.77384,1.03386 -1.77384,2.30918c0,1.27532 0.79417,2.30918 1.77384,2.30918zM304.99152,209.06554c0.97967,0 1.77384,-1.03386 1.77384,-2.30918c0,-1.27532 -0.79417,-2.30918 -1.77384,-2.30918c-0.97967,0 -1.77384,1.03386 -1.77384,2.30918c0,1.27532 0.79417,2.30918 1.77384,2.30918z" fill="url(#color-9)" stroke="#000000" stroke-width="2" stroke-linecap="butt"/><path d="M293.47915,180.6569c0,0 -0.30471,-2.36554 -0.30471,-3.50221c0,-1.07834 0.30471,-3.15199 0.30471,-3.15199h17.72001c0.34814,0.68671 0.99572,1.14824 1.73708,1.14824c0.74135,0 1.38891,-0.46152 1.73708,-1.14824h5.95169c-0.01173,0.10093 -0.01777,0.20393 -0.01777,0.30854c0,1.27532 0.89949,2.30917 2.00907,2.30917c1.10958,0 2.00907,-1.03385 2.00907,-2.30917c0,-0.10461 -0.00606,-0.20761 -0.01777,-0.30854h4.99997c-0.03326,0.16666 -0.05083,0.3402 -0.05083,0.51846c0,1.27532 0.89949,2.30918 2.00907,2.30918c1.10958,0 2.00907,-1.03386 2.00907,-2.30918c0,-0.17826 -0.01756,-0.3518 -0.05083,-0.51846h0.78564c0,0 -0.30471,1.79365 -0.30471,2.80177c0,0.70602 0.10868,1.94288 0.19624,2.82465c-0.35153,-0.67076 -0.99128,-1.11938 -1.7222,-1.11938c-1.0622,0 -1.93186,0.94744 -2.0042,2.14716h-0.86477c0.30804,-0.4058 0.4946,-0.93655 0.4946,-1.51738c0,-1.27532 -0.89949,-2.30918 -2.00907,-2.30918c-1.10958,0 -2.00907,1.03386 -2.00907,2.30918c0,0.58084 0.18658,1.11158 0.4946,1.51738h-7.24223c0.74299,-0.33889 1.26834,-1.17252 1.26834,-2.14717c0,-1.27532 -0.89949,-2.30917 -2.00907,-2.30917c-1.10958,0 -2.00907,1.03385 -2.00907,2.30917c0,0.97465 0.52535,1.80827 1.26835,2.14717h-2.68566c-0.13209,-0.03141 -0.26892,-0.04791 -0.40911,-0.04791c-0.14019,0 -0.27702,0.0165 -0.40912,0.04791h-1.11635c-0.22441,-0.99364 -1.01004,-1.72731 -1.94475,-1.72731c-0.93471,0 -1.72035,0.73367 -1.94475,1.72731zM300.15124,179.76928c1.10958,0 2.00907,-1.03385 2.00907,-2.30917c0,-1.27532 -0.89949,-2.30918 -2.00907,-2.30918c-1.10958,0 -2.00907,1.03386 -2.00907,2.30918c0,1.27532 0.89948,2.30917 2.00907,2.30917zM306.36109,179.9792c1.10958,0 2.00907,-1.03385 2.00907,-2.30917c0,-1.27532 -0.89949,-2.30918 -2.00907,-2.30918c-1.10958,0 -2.00907,1.03386 -2.00907,2.30918c0,1.27532 0.89948,2.30917 2.00907,2.30917z" fill="url(#color-10)" stroke="#000000" stroke-width="2" stroke-linecap="butt"/><path d="M17428.60244,147.16951v21.66501h-17095.4227c0,-2.31509 0.23042,-19.45037 0,-22.18873c-0.06428,-0.76429 17095.4227,0.52372 17095.4227,0.52372z" fill="url(#color-11)" stroke="none" stroke-width="0" stroke-linecap="butt"/><path d="M17422.06408,125.74742v21.66501h-17088.20067c0.09596,-1.38066 0.0567,-3.12851 0.0567,-3.59655c0,-3.65118 0,-7.30237 0,-10.95356c0,-1.64303 0.20359,-3.28611 0,-4.9291c-0.09001,-0.72639 1.57688,-1.46442 0.59832,-2.1858z" data-paper-data="{&quot;index&quot;:null}" fill="url(#color-12)" stroke="none" stroke-width="0" stroke-linecap="butt"/><path d="M17428.82755,178.09038v21.66501h-17095.4227c0,-2.31509 0.23042,-19.45037 0,-22.18873c-0.06428,-0.76429 17095.4227,0.52372 17095.4227,0.52372z" fill="url(#color-13)" stroke="none" stroke-width="0" stroke-linecap="butt"/><path d="M17422.28919,156.66829v21.66501h-17088.20067c0.09596,-1.38066 0.0567,-3.12851 0.0567,-3.59655c0,-3.65118 0,-7.30237 0,-10.95356c0,-1.64303 0.20359,-3.28611 0,-4.9291c-0.09001,-0.72639 1.57688,-1.46442 0.59832,-2.1858z" data-paper-data="{&quot;index&quot;:null}" fill="url(#color-14)" stroke="none" stroke-width="0" stroke-linecap="butt"/><path d="M17425.64201,206.96487v21.66501h-17095.4227c0,-2.31509 0.23042,-19.45037 0,-22.18873c-0.06428,-0.76429 17095.4227,0.52372 17095.4227,0.52372z" fill="url(#color-15)" stroke="none" stroke-width="0" stroke-linecap="butt"/><path d="M17419.10365,185.54278v21.66501h-17088.20067c0.09596,-1.38066 0.0567,-3.12851 0.0567,-3.59655c0,-3.65118 0,-7.30237 0,-10.95356c0,-1.64303 0.20359,-3.28611 0,-4.9291c-0.09001,-0.72639 1.57688,-1.46442 0.59832,-2.1858z" data-paper-data="{&quot;index&quot;:null}" fill="url(#color-16)" stroke="none" stroke-width="0" stroke-linecap="butt"/></g></g></svg>