<svg version="1.1" xmlns="http://www.w3.org/2000/svg" xmlns:xlink="http://www.w3.org/1999/xlink" width="1173.39156" height="1099.91108" viewBox="0,0,1173.39156,1099.91108"><defs><radialGradient cx="240" cy="180" r="586.69578" gradientUnits="userSpaceOnUse" id="color-1"><stop offset="0" stop-color="#ffffff" stop-opacity="0"/><stop offset="1" stop-color="#ffffff"/></radialGradient></defs><g transform="translate(346.69578,369.95554)"><g data-paper-data="{&quot;isPaintingLayer&quot;:true}" fill-rule="nonzero" stroke-linejoin="miter" stroke-miterlimit="10" stroke-dasharray="" stroke-dashoffset="0" style="mix-blend-mode: normal"><path d="M826.69578,180c0,303.73205 -262.67264,549.95554 -586.69578,549.95554c-324.02315,0 -586.69578,-246.22349 -586.69578,-549.95554c0,-303.73205 262.67264,-549.95554 586.69578,-549.95554c324.02315,0 586.69578,246.22349 586.69578,549.95554z" fill="url(#color-1)" stroke="none" stroke-width="0" stroke-linecap="butt"/><path d="M142.47147,269.04779v-188.07376h195.05706v188.07376z" fill="#4c4c4c" stroke="none" stroke-width="0" stroke-linecap="butt"/><path d="M306.67296,170.15193l-2.65878,11.49106l-17.95435,-3.44407l-2.85958,23.39009c0,0 -2.43252,-1.39367 -4.49057,-2.57279c-4.52679,-2.59354 -21.72557,-12.44725 -21.72557,-12.44725l5.22514,13.72837" fill="none" stroke="#000000" stroke-width="3.5" stroke-linecap="round"/><path d="M192.08503,117.32151l11.19738,-0.32196l1.58884,19.19738l22.1192,-3.2553c0,0 -0.63152,2.84539 -1.16583,5.25276c-1.17525,5.29515 -5.64039,25.41314 -5.64039,25.41314l11.16193,-8.94288" fill="none" stroke="#000000" stroke-width="3.5" stroke-linecap="round"/><path d="M254.52012,106.81842l4.03329,11.03571l-16.59989,8.00348l10.30475,20.92356c0,0 -2.75046,0.32341 -5.0775,0.59705c-5.11847,0.60185 -24.5652,2.8885 -24.5652,2.8885l11.7146,8.11638" fill="none" stroke="#000000" stroke-width="3.5" stroke-linecap="round"/><path d="M142.47147,269.04779v-59.70596h59.36519v59.70596z" fill="#c3a900" stroke="none" stroke-width="0" stroke-linecap="butt"/><path d="M178.47917,202.94724l-0.82881,-11.7967l18.08453,-2.57484l-4.11484,-23.18045c0,0 2.72106,0.53297 5.02321,0.98388c5.06374,0.99182 24.30254,4.76004 24.30254,4.76004l-8.98173,-11.35567" fill="none" stroke="#000000" stroke-width="3.5" stroke-linecap="round"/><path d="M146.59406,264.19669v-50.2525h49.70656v50.2525z" fill="#978300" stroke="none" stroke-width="0" stroke-linecap="butt"/><path d="M247.8918,264.0723l-8.79928,-7.31995l10.41284,-15.8252l-18.96933,-12.44705l23.8137,-18.96421l-13.99636,-0.6716" fill="none" stroke="#000000" stroke-width="3.5" stroke-linecap="round"/><path d="M149.89212,261.37723v-44.77945h42.95337v44.77945z" fill="#c3a900" stroke="none" stroke-width="0" stroke-linecap="butt"/><path d="M142.47147,140.67998v-59.70596h59.36519v59.70596z" fill="#c3a900" stroke="none" stroke-width="0" stroke-linecap="butt"/><path d="M278.16334,140.67998v-59.70596h59.36519v59.70596z" fill="#c3a900" stroke="none" stroke-width="0" stroke-linecap="butt"/><path d="M147.53635,135.66304v-50.25252h49.70657v50.25252z" fill="#978300" stroke="none" stroke-width="0" stroke-linecap="butt"/><path d="M150.83443,132.84357v-44.77945h42.95339v44.77947z" fill="#c3a900" stroke="none" stroke-width="0" stroke-linecap="butt"/><path d="M278.16334,269.04779v-59.70596h59.36519v59.70596z" fill="#c3a900" stroke="none" stroke-width="0" stroke-linecap="butt"/><path d="M283.38527,135.99473v-50.2525h49.70657v50.2525z" fill="#978300" stroke="none" stroke-width="0" stroke-linecap="butt"/><path d="M286.68334,133.17528v-44.77945h42.95337v44.77947z" fill="#c3a900" stroke="none" stroke-width="0" stroke-linecap="butt"/><path d="M200.06498,190.94093v-31.77568h19.28581v31.77568z" fill="#c3a900" stroke="none" stroke-width="0" stroke-linecap="butt"/><path d="M283.22822,264.8601v-50.2525h49.70657v50.2525z" fill="#978300" stroke="none" stroke-width="0" stroke-linecap="butt"/><path d="M286.5263,262.04065v-44.77945h42.95337v44.77945z" fill="#c3a900" stroke="none" stroke-width="0" stroke-linecap="butt"/><path d="M200.05455,159.41376l22.42355,-24.25711l14.72254,11.40291l-22.42355,24.25711z" fill="#c3a900" stroke="none" stroke-width="0" stroke-linecap="butt"/><path d="M257.49027,152.90378l-34.71399,0.16549l-0.10045,-17.65292l34.71399,-0.16549z" fill="#c3a900" stroke="none" stroke-width="0" stroke-linecap="butt"/><path d="M260.09209,191.82358v-31.77568h19.28581v31.77568z" fill="#c3a900" stroke="none" stroke-width="0" stroke-linecap="butt"/><path d="M264.90688,171.25799l-22.42355,-24.25711l14.72254,-11.40291l22.42355,24.25711z" data-paper-data="{&quot;index&quot;:null}" fill="#c3a900" stroke="none" stroke-width="0" stroke-linecap="butt"/><path d="M242.0012,204.20862l22.42353,-24.25711l14.72254,11.40291l-22.42353,24.25711z" fill="#c3a900" stroke="none" stroke-width="0" stroke-linecap="butt"/><path d="M222.47808,214.94954l-22.42355,-24.25711l14.72254,-11.40291l22.42355,24.25711z" data-paper-data="{&quot;index&quot;:null}" fill="#c3a900" stroke="none" stroke-width="0" stroke-linecap="butt"/><path d="M257.24921,215.13113l-34.71399,0.16549l-0.10045,-17.6529l34.71399,-0.1655z" fill="#c3a900" stroke="none" stroke-width="0" stroke-linecap="butt"/><path d="M266.35998,174.61174c0,14.56341 -11.87252,26.36939 -26.51799,26.36939c-14.64549,0 -26.51801,-11.80598 -26.51801,-26.36939c0,-14.56341 11.87252,-26.36939 26.51801,-26.36939c14.64549,0 26.51799,11.80598 26.51799,26.36939z" fill="#c3a900" stroke="none" stroke-width="0" stroke-linecap="butt"/><path d="M155.88836,116.91916v-13.20574h8.01504v13.20574z" fill="#000000" stroke="none" stroke-width="0" stroke-linecap="butt"/><path d="M155.884,103.81669l9.31906,-10.08107l6.11857,4.73896l-9.31906,10.08107z" fill="#000000" stroke="none" stroke-width="0" stroke-linecap="butt"/><path d="M179.75387,101.1112l-14.42687,0.06878l-0.04175,-7.33643l14.42689,-0.06878z" fill="#000000" stroke="none" stroke-width="0" stroke-linecap="butt"/><path d="M180.83517,117.28598v-13.20574h8.01504v13.20574z" fill="#000000" stroke="none" stroke-width="0" stroke-linecap="butt"/><path d="M182.83617,108.73907l-9.31906,-10.08108l6.11857,-4.73896l9.31906,10.08107z" data-paper-data="{&quot;index&quot;:null}" fill="#000000" stroke="none" stroke-width="0" stroke-linecap="butt"/><path d="M173.31673,122.43312l9.31906,-10.08107l6.11857,4.73896l-9.31906,10.08107z" fill="#000000" stroke="none" stroke-width="0" stroke-linecap="butt"/><path d="M165.20307,126.89695l-9.31906,-10.08108l6.11857,-4.73896l9.31906,10.08108z" data-paper-data="{&quot;index&quot;:null}" fill="#000000" stroke="none" stroke-width="0" stroke-linecap="butt"/><path d="M179.65369,126.97242l-14.42689,0.06878l-0.04175,-7.33643l14.42689,-0.06878z" fill="#000000" stroke="none" stroke-width="0" stroke-linecap="butt"/><path d="M183.44005,110.13288c0,6.05244 -4.93412,10.95892 -11.02068,10.95892c-6.08656,0 -11.02068,-4.90648 -11.02068,-10.95892c0,-6.05244 4.93412,-10.95892 11.02068,-10.95892c6.08656,0 11.02068,4.90648 11.02068,10.95892z" fill="#000000" stroke="none" stroke-width="0" stroke-linecap="butt"/><path d="M292.28695,115.42651v-13.20574h8.01505v13.20574z" fill="#000000" stroke="none" stroke-width="0" stroke-linecap="butt"/><path d="M292.28261,102.32404l9.31906,-10.08107l6.11857,4.73896l-9.31906,10.08107z" fill="#000000" stroke="none" stroke-width="0" stroke-linecap="butt"/><path d="M316.15247,99.61856l-14.42689,0.06878l-0.04175,-7.33643l14.42689,-0.06878z" fill="#000000" stroke="none" stroke-width="0" stroke-linecap="butt"/><path d="M317.23376,115.79333v-13.20574h8.01504v13.20574z" fill="#000000" stroke="none" stroke-width="0" stroke-linecap="butt"/><path d="M319.23476,107.24644l-9.31906,-10.08108l6.11857,-4.73896l9.31906,10.08107z" data-paper-data="{&quot;index&quot;:null}" fill="#000000" stroke="none" stroke-width="0" stroke-linecap="butt"/><path d="M309.71533,120.94047l9.31906,-10.08107l6.11857,4.73896l-9.31906,10.08107z" fill="#000000" stroke="none" stroke-width="0" stroke-linecap="butt"/><path d="M301.60166,125.40432l-9.31906,-10.08108l6.11857,-4.73896l9.31906,10.08108z" data-paper-data="{&quot;index&quot;:null}" fill="#000000" stroke="none" stroke-width="0" stroke-linecap="butt"/><path d="M316.05228,125.47978l-14.42689,0.06878l-0.04175,-7.33643l14.42689,-0.06878z" fill="#000000" stroke="none" stroke-width="0" stroke-linecap="butt"/><path d="M319.83865,108.64022c0,6.05244 -4.93412,10.95892 -11.02068,10.95892c-6.08656,0 -11.02068,-4.90648 -11.02068,-10.95892c0,-6.05244 4.93412,-10.95892 11.02068,-10.95892c6.08656,0 11.02068,4.90648 11.02068,10.95892z" fill="#000000" stroke="none" stroke-width="0" stroke-linecap="butt"/><path d="M155.18163,244.91379v-13.20574h8.01504v13.20574z" fill="#000000" stroke="none" stroke-width="0" stroke-linecap="butt"/><path d="M155.17728,231.81134l9.31906,-10.08108l6.11857,4.73896l-9.31906,10.08108z" fill="#000000" stroke="none" stroke-width="0" stroke-linecap="butt"/><path d="M179.04714,229.10586l-14.42687,0.06878l-0.04175,-7.33643l14.42689,-0.06878z" fill="#000000" stroke="none" stroke-width="0" stroke-linecap="butt"/><path d="M180.12844,245.28063v-13.20574h8.01504v13.20574z" fill="#000000" stroke="none" stroke-width="0" stroke-linecap="butt"/><path d="M182.12944,236.73373l-9.31906,-10.08108l6.11857,-4.73896l9.31906,10.08107z" data-paper-data="{&quot;index&quot;:null}" fill="#000000" stroke="none" stroke-width="0" stroke-linecap="butt"/><path d="M172.61001,250.42775l9.31906,-10.08108l6.11857,4.73896l-9.31906,10.08108z" fill="#000000" stroke="none" stroke-width="0" stroke-linecap="butt"/><path d="M164.49634,254.89161l-9.31906,-10.08108l6.11857,-4.73896l9.31906,10.08108z" data-paper-data="{&quot;index&quot;:null}" fill="#000000" stroke="none" stroke-width="0" stroke-linecap="butt"/><path d="M178.94696,254.96707l-14.42689,0.06878l-0.04175,-7.33641l14.42689,-0.06878z" fill="#000000" stroke="none" stroke-width="0" stroke-linecap="butt"/><path d="M182.73333,238.12753c0,6.05244 -4.93412,10.95892 -11.02068,10.95892c-6.08656,0 -11.02068,-4.90647 -11.02068,-10.95892c0,-6.05244 4.93412,-10.95892 11.02068,-10.95892c6.08656,0 11.02068,4.90647 11.02068,10.95892z" fill="#000000" stroke="none" stroke-width="0" stroke-linecap="butt"/><path d="M291.22686,247.15277v-13.20574h8.01505v13.20574z" fill="#000000" stroke="none" stroke-width="0" stroke-linecap="butt"/><path d="M291.22252,234.0503l9.31906,-10.08108l6.11857,4.73896l-9.31906,10.08108z" fill="#000000" stroke="none" stroke-width="0" stroke-linecap="butt"/><path d="M315.09237,231.34483l-14.42689,0.06878l-0.04175,-7.33643l14.42689,-0.06878z" fill="#000000" stroke="none" stroke-width="0" stroke-linecap="butt"/><path d="M316.17367,247.5196v-13.20574h8.01504v13.20574z" fill="#000000" stroke="none" stroke-width="0" stroke-linecap="butt"/><path d="M318.17467,238.97269l-9.31906,-10.08108l6.11857,-4.73896l9.31906,10.08107z" data-paper-data="{&quot;index&quot;:null}" fill="#000000" stroke="none" stroke-width="0" stroke-linecap="butt"/><path d="M308.65524,252.66674l9.31906,-10.08108l6.11857,4.73896l-9.31906,10.08108z" fill="#000000" stroke="none" stroke-width="0" stroke-linecap="butt"/><path d="M300.54157,257.13057l-9.31906,-10.08108l6.11857,-4.73896l9.31906,10.08108z" data-paper-data="{&quot;index&quot;:null}" fill="#000000" stroke="none" stroke-width="0" stroke-linecap="butt"/><path d="M314.99219,257.20604l-14.42689,0.06878l-0.04175,-7.33641l14.42689,-0.06878z" fill="#000000" stroke="none" stroke-width="0" stroke-linecap="butt"/><path d="M318.77856,240.3665c0,6.05244 -4.93412,10.95892 -11.02068,10.95892c-6.08656,0 -11.02068,-4.90647 -11.02068,-10.95892c0,-6.05244 4.93412,-10.95892 11.02068,-10.95892c6.08656,0 11.02068,4.90647 11.02068,10.95892z" fill="#000000" stroke="none" stroke-width="0" stroke-linecap="butt"/><path d="M203.95101,189.50992v-28.81247h17.48735v28.81247z" fill="#978300" stroke="none" stroke-width="0" stroke-linecap="butt"/><path d="M203.94155,160.92278l20.33246,-21.99505l13.34959,10.33955l-20.33246,21.99505z" fill="#978300" stroke="none" stroke-width="0" stroke-linecap="butt"/><path d="M256.0212,155.01988l-31.4768,0.15007l-0.09108,-16.00672l31.4768,-0.15007z" fill="#978300" stroke="none" stroke-width="0" stroke-linecap="butt"/><path d="M258.38037,190.31026v-28.81247h17.48735v28.81247z" fill="#978300" stroke="none" stroke-width="0" stroke-linecap="butt"/><path d="M262.74617,171.66248l-20.33246,-21.99505l13.34961,-10.33955l20.33246,21.99503z" data-paper-data="{&quot;index&quot;:null}" fill="#978300" stroke="none" stroke-width="0" stroke-linecap="butt"/><path d="M241.97652,201.54036l20.33246,-21.99505l13.34961,10.33955l-20.33246,21.99505z" fill="#978300" stroke="none" stroke-width="0" stroke-linecap="butt"/><path d="M224.27402,211.27966l-20.33246,-21.99505l13.34961,-10.33956l20.33246,21.99505z" data-paper-data="{&quot;index&quot;:null}" fill="#978300" stroke="none" stroke-width="0" stroke-linecap="butt"/><path d="M255.8026,211.44431l-31.4768,0.15007l-0.09108,-16.0067l31.4768,-0.15007z" fill="#978300" stroke="none" stroke-width="0" stroke-linecap="butt"/><path d="M264.06377,174.7035c0,13.20531 -10.76535,23.91036 -24.04509,23.91036c-13.27974,0 -24.04511,-10.70504 -24.04511,-23.91036c0,-13.20531 10.76537,-23.91035 24.04511,-23.91035c13.27974,0 24.04509,10.70502 24.04509,23.91035z" fill="#978300" stroke="none" stroke-width="0" stroke-linecap="butt"/><path d="M208.19022,187.77082v-25.28486h15.34631v25.28486z" fill="#c3a900" stroke="none" stroke-width="0" stroke-linecap="butt"/><path d="M208.18193,162.68369l17.84308,-19.30212l11.71516,9.07364l-17.84308,19.30212z" fill="#c3a900" stroke="none" stroke-width="0" stroke-linecap="butt"/><path d="M253.88526,157.50352l-27.62298,0.1317l-0.07993,-14.04696l27.62298,-0.1317z" fill="#c3a900" stroke="none" stroke-width="0" stroke-linecap="butt"/><path d="M255.9556,188.47317v-25.28485h15.3463v25.28485z" fill="#c3a900" stroke="none" stroke-width="0" stroke-linecap="butt"/><path d="M259.78688,172.10852l-17.8431,-19.30212l11.71516,-9.07365l17.84308,19.3021z" data-paper-data="{&quot;index&quot;:null}" fill="#c3a900" stroke="none" stroke-width="0" stroke-linecap="butt"/><path d="M241.56013,198.32831l17.84308,-19.30212l11.71517,9.07364l-17.8431,19.30212z" fill="#c3a900" stroke="none" stroke-width="0" stroke-linecap="butt"/><path d="M226.02501,206.87519l-17.84308,-19.30212l11.71516,-9.07365l17.84308,19.3021z" data-paper-data="{&quot;index&quot;:null}" fill="#c3a900" stroke="none" stroke-width="0" stroke-linecap="butt"/><path d="M253.69343,207.01969l-27.62298,0.13169l-0.07993,-14.04695l27.62298,-0.1317z" fill="#c3a900" stroke="none" stroke-width="0" stroke-linecap="butt"/><path d="M260.94315,174.77721c0,11.58854 -9.44732,20.98291 -21.10117,20.98291c-11.65385,0 -21.10117,-9.39438 -21.10117,-20.98291c0,-11.58854 9.44732,-20.98291 21.10117,-20.98291c11.65385,0 21.10117,9.39438 21.10117,20.98291z" fill="#c3a900" stroke="none" stroke-width="0" stroke-linecap="butt"/></g></g></svg>