<svg version="1.1" xmlns="http://www.w3.org/2000/svg" xmlns:xlink="http://www.w3.org/1999/xlink" width="195.05706" height="188.07379" viewBox="0,0,195.05706,188.07379"><g transform="translate(-142.47147,-80.97402)"><g data-paper-data="{&quot;isPaintingLayer&quot;:true}" fill-rule="nonzero" stroke-linejoin="miter" stroke-miterlimit="10" stroke-dasharray="" stroke-dashoffset="0" style="mix-blend-mode: normal"><path d="M172.61001,250.42778l9.31906,-10.08108l6.11857,4.73896l-9.31906,10.08108z" fill="#000000" stroke="none" stroke-width="0" stroke-linecap="butt"/><path d="M164.49634,254.89163l-9.31906,-10.08108l6.11857,-4.73896l9.31906,10.08108z" data-paper-data="{&quot;index&quot;:null}" fill="#000000" stroke="none" stroke-width="0" stroke-linecap="butt"/><path d="M178.94696,254.96709l-14.42689,0.06878l-0.04175,-7.33641l14.42689,-0.06878z" fill="#000000" stroke="none" stroke-width="0" stroke-linecap="butt"/><path d="M308.65524,252.66676l9.31906,-10.08108l6.11857,4.73896l-9.31906,10.08108z" fill="#000000" stroke="none" stroke-width="0" stroke-linecap="butt"/><path d="M300.54157,257.1306l-9.31906,-10.08108l6.11857,-4.73896l9.31906,10.08108z" data-paper-data="{&quot;index&quot;:null}" fill="#000000" stroke="none" stroke-width="0" stroke-linecap="butt"/><path d="M314.99219,257.20607l-14.42689,0.06878l-0.04175,-7.33641l14.42689,-0.06878z" fill="#000000" stroke="none" stroke-width="0" stroke-linecap="butt"/><g><path d="M142.47147,269.04782v-188.07376h195.05706v188.07376z" fill="#4c4c4c" stroke="none" stroke-width="0" stroke-linecap="butt"/><path d="M306.67296,170.15194l-2.65878,11.49106l-17.95435,-3.44407l-2.85958,23.39009c0,0 -2.43252,-1.39367 -4.49057,-2.57279c-4.52679,-2.59354 -21.72557,-12.44725 -21.72557,-12.44725l5.22514,13.72837" fill="none" stroke="#000000" stroke-width="3.5" stroke-linecap="round"/><path d="M192.08503,117.32154l11.19738,-0.32196l1.58884,19.19738l22.1192,-3.2553c0,0 -0.63152,2.84539 -1.16583,5.25276c-1.17525,5.29515 -5.64039,25.41314 -5.64039,25.41314l11.16193,-8.94288" fill="none" stroke="#000000" stroke-width="3.5" stroke-linecap="round"/><path d="M254.52012,106.81845l4.03329,11.03571l-16.59989,8.00348l10.30475,20.92356c0,0 -2.75046,0.32341 -5.0775,0.59705c-5.11847,0.60185 -24.5652,2.8885 -24.5652,2.8885l11.7146,8.11638" fill="none" stroke="#000000" stroke-width="3.5" stroke-linecap="round"/><path d="M142.47147,269.04782v-59.70596h59.36519v59.70596z" fill="#6112ff" stroke="none" stroke-width="0" stroke-linecap="butt"/><path d="M178.47917,202.94727l-0.82881,-11.7967l18.08453,-2.57484l-4.11484,-23.18045c0,0 2.72106,0.53297 5.02321,0.98388c5.06374,0.99182 24.30254,4.76004 24.30254,4.76004l-8.98173,-11.35567" fill="none" stroke="#000000" stroke-width="3.5" stroke-linecap="round"/><path d="M146.59406,264.19669v-50.2525h49.70656v50.2525z" fill="#aa48f3" stroke="none" stroke-width="0" stroke-linecap="butt"/><path d="M247.8918,264.0723l-8.79928,-7.31995l10.41284,-15.8252l-18.96933,-12.44705l23.8137,-18.96421l-13.99636,-0.6716" fill="none" stroke="#000000" stroke-width="3.5" stroke-linecap="round"/><path d="M149.89212,261.37725v-44.77945h42.95337v44.77945z" fill="#3b0b9c" stroke="none" stroke-width="0" stroke-linecap="butt"/><path d="M142.47147,140.67998v-59.70596h59.36519v59.70596z" fill="#6112ff" stroke="none" stroke-width="0" stroke-linecap="butt"/><path d="M278.16334,140.67998v-59.70596h59.36519v59.70596z" fill="#6112ff" stroke="none" stroke-width="0" stroke-linecap="butt"/><path d="M147.53635,135.66306v-50.25252h49.70657v50.25252z" fill="#aa48f3" stroke="none" stroke-width="0" stroke-linecap="butt"/><path d="M150.83443,132.84357v-44.77945h42.95339v44.77947z" fill="#3b0b9c" stroke="none" stroke-width="0" stroke-linecap="butt"/><path d="M278.16334,269.04782v-59.70596h59.36519v59.70596z" fill="#6112ff" stroke="none" stroke-width="0" stroke-linecap="butt"/><path d="M283.38527,135.99474v-50.2525h49.70657v50.2525z" fill="#aa48f3" stroke="none" stroke-width="0" stroke-linecap="butt"/><path d="M286.68334,133.17529v-44.77945h42.95337v44.77947z" fill="#3b0b9c" stroke="none" stroke-width="0" stroke-linecap="butt"/><path d="M200.06498,190.94095v-31.77568h19.28581v31.77568z" fill="#3b0b9c" stroke="none" stroke-width="0" stroke-linecap="butt"/><path d="M283.22822,264.8601v-50.2525h49.70657v50.2525z" fill="#aa48f3" stroke="none" stroke-width="0" stroke-linecap="butt"/><path d="M286.5263,262.04067v-44.77945h42.95337v44.77945z" fill="#3b0b9c" stroke="none" stroke-width="0" stroke-linecap="butt"/><path d="M200.05455,159.41377l22.42355,-24.25711l14.72254,11.40291l-22.42355,24.25711z" fill="#3b0b9c" stroke="none" stroke-width="0" stroke-linecap="butt"/><path d="M257.49027,152.90381l-34.71399,0.16549l-0.10045,-17.65292l34.71399,-0.16549z" fill="#3b0b9c" stroke="none" stroke-width="0" stroke-linecap="butt"/><path d="M260.09209,191.82359v-31.77568h19.28581v31.77568z" fill="#3b0b9c" stroke="none" stroke-width="0" stroke-linecap="butt"/><path d="M264.90688,171.25802l-22.42355,-24.25711l14.72254,-11.40291l22.42355,24.25711z" data-paper-data="{&quot;index&quot;:null}" fill="#3b0b9c" stroke="none" stroke-width="0" stroke-linecap="butt"/><path d="M242.0012,204.20864l22.42353,-24.25711l14.72254,11.40291l-22.42353,24.25711z" fill="#3b0b9c" stroke="none" stroke-width="0" stroke-linecap="butt"/><path d="M222.47808,214.94956l-22.42355,-24.25711l14.72254,-11.40291l22.42355,24.25711z" data-paper-data="{&quot;index&quot;:null}" fill="#3b0b9c" stroke="none" stroke-width="0" stroke-linecap="butt"/><path d="M257.24921,215.13116l-34.71399,0.16549l-0.10045,-17.6529l34.71399,-0.1655z" fill="#3b0b9c" stroke="none" stroke-width="0" stroke-linecap="butt"/><path d="M266.35998,174.61177c0,14.56341 -11.87252,26.36939 -26.51799,26.36939c-14.64549,0 -26.51801,-11.80598 -26.51801,-26.36939c0,-14.56341 11.87252,-26.36939 26.51801,-26.36939c14.64549,0 26.51799,11.80598 26.51799,26.36939z" fill="#c3a900" stroke="none" stroke-width="0" stroke-linecap="butt"/><path d="M155.88836,116.91918v-13.20574h8.01504v13.20574z" fill="#000000" stroke="none" stroke-width="0" stroke-linecap="butt"/><path d="M155.884,103.81672l9.31906,-10.08107l6.11857,4.73896l-9.31906,10.08107z" fill="#000000" stroke="none" stroke-width="0" stroke-linecap="butt"/><path d="M179.75387,101.11123l-14.42687,0.06878l-0.04175,-7.33643l14.42689,-0.06878z" fill="#000000" stroke="none" stroke-width="0" stroke-linecap="butt"/><path d="M180.83517,117.28601v-13.20574h8.01504v13.20574z" fill="#000000" stroke="none" stroke-width="0" stroke-linecap="butt"/><path d="M182.83617,108.7391l-9.31906,-10.08108l6.11857,-4.73896l9.31906,10.08107z" data-paper-data="{&quot;index&quot;:null}" fill="#000000" stroke="none" stroke-width="0" stroke-linecap="butt"/><path d="M173.31673,122.43314l9.31906,-10.08107l6.11857,4.73896l-9.31906,10.08107z" fill="#000000" stroke="none" stroke-width="0" stroke-linecap="butt"/><path d="M165.20307,126.89698l-9.31906,-10.08108l6.11857,-4.73896l9.31906,10.08108z" data-paper-data="{&quot;index&quot;:null}" fill="#000000" stroke="none" stroke-width="0" stroke-linecap="butt"/><path d="M179.65369,126.97245l-14.42689,0.06878l-0.04175,-7.33643l14.42689,-0.06878z" fill="#000000" stroke="none" stroke-width="0" stroke-linecap="butt"/><path d="M183.44005,110.13291c0,6.05244 -4.93412,10.95892 -11.02068,10.95892c-6.08656,0 -11.02068,-4.90648 -11.02068,-10.95892c0,-6.05244 4.93412,-10.95892 11.02068,-10.95892c6.08656,0 11.02068,4.90648 11.02068,10.95892z" fill="#000000" stroke="none" stroke-width="0" stroke-linecap="butt"/><path d="M292.28695,115.42653v-13.20574h8.01505v13.20574z" fill="#000000" stroke="none" stroke-width="0" stroke-linecap="butt"/><path d="M292.28261,102.32407l9.31906,-10.08107l6.11857,4.73896l-9.31906,10.08107z" fill="#000000" stroke="none" stroke-width="0" stroke-linecap="butt"/><path d="M316.15247,99.61858l-14.42689,0.06878l-0.04175,-7.33643l14.42689,-0.06878z" fill="#000000" stroke="none" stroke-width="0" stroke-linecap="butt"/><path d="M317.23376,115.79336v-13.20574h8.01504v13.20574z" fill="#000000" stroke="none" stroke-width="0" stroke-linecap="butt"/><path d="M319.23476,107.24646l-9.31906,-10.08108l6.11857,-4.73896l9.31906,10.08107z" data-paper-data="{&quot;index&quot;:null}" fill="#000000" stroke="none" stroke-width="0" stroke-linecap="butt"/><path d="M309.71533,120.94049l9.31906,-10.08107l6.11857,4.73896l-9.31906,10.08107z" fill="#000000" stroke="none" stroke-width="0" stroke-linecap="butt"/><path d="M301.60166,125.40434l-9.31906,-10.08108l6.11857,-4.73896l9.31906,10.08108z" data-paper-data="{&quot;index&quot;:null}" fill="#000000" stroke="none" stroke-width="0" stroke-linecap="butt"/><path d="M316.05228,125.4798l-14.42689,0.06878l-0.04175,-7.33643l14.42689,-0.06878z" fill="#000000" stroke="none" stroke-width="0" stroke-linecap="butt"/><path d="M319.83865,108.64025c0,6.05244 -4.93412,10.95892 -11.02068,10.95892c-6.08656,0 -11.02068,-4.90648 -11.02068,-10.95892c0,-6.05244 4.93412,-10.95892 11.02068,-10.95892c6.08656,0 11.02068,4.90648 11.02068,10.95892z" fill="#000000" stroke="none" stroke-width="0" stroke-linecap="butt"/><path d="M155.18163,244.91382v-13.20574h8.01504v13.20574z" fill="#000000" stroke="none" stroke-width="0" stroke-linecap="butt"/><path d="M155.17728,231.81137l9.31906,-10.08108l6.11857,4.73896l-9.31906,10.08108z" fill="#000000" stroke="none" stroke-width="0" stroke-linecap="butt"/><path d="M179.04714,229.10588l-14.42687,0.06878l-0.04175,-7.33643l14.42689,-0.06878z" fill="#000000" stroke="none" stroke-width="0" stroke-linecap="butt"/><path d="M180.12844,245.28065v-13.20574h8.01504v13.20574z" fill="#000000" stroke="none" stroke-width="0" stroke-linecap="butt"/><path d="M182.12944,236.73375l-9.31906,-10.08108l6.11857,-4.73896l9.31906,10.08107z" data-paper-data="{&quot;index&quot;:null}" fill="#000000" stroke="none" stroke-width="0" stroke-linecap="butt"/><path d="M182.73333,238.12755c0,6.05244 -4.93412,10.95892 -11.02068,10.95892c-6.08656,0 -11.02068,-4.90647 -11.02068,-10.95892c0,-6.05244 4.93412,-10.95892 11.02068,-10.95892c6.08656,0 11.02068,4.90647 11.02068,10.95892z" fill="#000000" stroke="none" stroke-width="0" stroke-linecap="butt"/><path d="M291.22686,247.15279v-13.20574h8.01505v13.20574z" fill="#000000" stroke="none" stroke-width="0" stroke-linecap="butt"/><path d="M291.22252,234.05033l9.31906,-10.08108l6.11857,4.73896l-9.31906,10.08108z" fill="#000000" stroke="none" stroke-width="0" stroke-linecap="butt"/><path d="M315.09237,231.34485l-14.42689,0.06878l-0.04175,-7.33643l14.42689,-0.06878z" fill="#000000" stroke="none" stroke-width="0" stroke-linecap="butt"/><path d="M316.17367,247.51963v-13.20574h8.01504v13.20574z" fill="#000000" stroke="none" stroke-width="0" stroke-linecap="butt"/><path d="M318.17467,238.97272l-9.31906,-10.08108l6.11857,-4.73896l9.31906,10.08107z" data-paper-data="{&quot;index&quot;:null}" fill="#000000" stroke="none" stroke-width="0" stroke-linecap="butt"/><path d="M318.77856,240.36653c0,6.05244 -4.93412,10.95892 -11.02068,10.95892c-6.08656,0 -11.02068,-4.90647 -11.02068,-10.95892c0,-6.05244 4.93412,-10.95892 11.02068,-10.95892c6.08656,0 11.02068,4.90647 11.02068,10.95892z" fill="#000000" stroke="none" stroke-width="0" stroke-linecap="butt"/><path d="M203.95101,189.50995v-28.81247h17.48735v28.81247z" fill="#aa48f3" stroke="none" stroke-width="0" stroke-linecap="butt"/><path d="M203.94155,160.92279l20.33246,-21.99505l13.34959,10.33955l-20.33246,21.99505z" fill="#aa48f3" stroke="none" stroke-width="0" stroke-linecap="butt"/><path d="M256.0212,155.01988l-31.4768,0.15007l-0.09108,-16.00672l31.4768,-0.15007z" fill="#aa48f3" stroke="none" stroke-width="0" stroke-linecap="butt"/><path d="M258.38037,190.31029v-28.81247h17.48735v28.81247z" fill="#aa48f3" stroke="none" stroke-width="0" stroke-linecap="butt"/><path d="M262.74617,171.6625l-20.33246,-21.99505l13.34961,-10.33955l20.33246,21.99503z" data-paper-data="{&quot;index&quot;:null}" fill="#aa48f3" stroke="none" stroke-width="0" stroke-linecap="butt"/><path d="M241.97652,201.54039l20.33246,-21.99505l13.34961,10.33955l-20.33246,21.99505z" fill="#aa48f3" stroke="none" stroke-width="0" stroke-linecap="butt"/><path d="M224.27402,211.27968l-20.33246,-21.99505l13.34961,-10.33956l20.33246,21.99505z" data-paper-data="{&quot;index&quot;:null}" fill="#aa48f3" stroke="none" stroke-width="0" stroke-linecap="butt"/><path d="M255.8026,211.44433l-31.4768,0.15007l-0.09108,-16.0067l31.4768,-0.15007z" fill="#aa48f3" stroke="none" stroke-width="0" stroke-linecap="butt"/><path d="M264.06377,174.70353c0,13.20531 -10.76535,23.91036 -24.04509,23.91036c-13.27974,0 -24.04511,-10.70504 -24.04511,-23.91036c0,-13.20531 10.76537,-23.91035 24.04511,-23.91035c13.27974,0 24.04509,10.70502 24.04509,23.91035z" fill="#978300" stroke="none" stroke-width="0" stroke-linecap="butt"/><path d="M208.19022,187.77084v-25.28486h15.34631v25.28486z" fill="#3b0b9c" stroke="none" stroke-width="0" stroke-linecap="butt"/><path d="M208.18193,162.68371l17.84308,-19.30212l11.71516,9.07364l-17.84308,19.30212z" fill="#3b0b9c" stroke="none" stroke-width="0" stroke-linecap="butt"/><path d="M253.88526,157.50354l-27.62298,0.1317l-0.07993,-14.04696l27.62298,-0.1317z" fill="#3b0b9c" stroke="none" stroke-width="0" stroke-linecap="butt"/><path d="M255.9556,188.47319v-25.28485h15.3463v25.28485z" fill="#3b0b9c" stroke="none" stroke-width="0" stroke-linecap="butt"/><path d="M259.78688,172.10854l-17.8431,-19.30212l11.71516,-9.07365l17.84308,19.3021z" data-paper-data="{&quot;index&quot;:null}" fill="#3b0b9c" stroke="none" stroke-width="0" stroke-linecap="butt"/><path d="M241.56013,198.32832l17.84308,-19.30212l11.71517,9.07364l-17.8431,19.30212z" fill="#3b0b9c" stroke="none" stroke-width="0" stroke-linecap="butt"/><path d="M226.02501,206.87522l-17.84308,-19.30212l11.71516,-9.07365l17.84308,19.3021z" data-paper-data="{&quot;index&quot;:null}" fill="#3b0b9c" stroke="none" stroke-width="0" stroke-linecap="butt"/><path d="M253.69343,207.01972l-27.62298,0.13169l-0.07993,-14.04695l27.62298,-0.1317z" fill="#3b0b9c" stroke="none" stroke-width="0" stroke-linecap="butt"/><path d="M260.94315,174.77724c0,11.58854 -9.44732,20.98291 -21.10117,20.98291c-11.65385,0 -21.10117,-9.39438 -21.10117,-20.98291c0,-11.58854 9.44732,-20.98291 21.10117,-20.98291c11.65385,0 21.10117,9.39438 21.10117,20.98291z" fill="#3b0b9c" stroke="none" stroke-width="0" stroke-linecap="butt"/></g></g></g></svg>